%TF.GenerationSoftware,KiCad,Pcbnew,(5.1.9)-1*%
%TF.CreationDate,2021-03-13T07:57:55+01:00*%
%TF.ProjectId,HB-RC-12-EP-2,48422d52-432d-4313-922d-45502d322e6b,rev?*%
%TF.SameCoordinates,Original*%
%TF.FileFunction,Legend,Top*%
%TF.FilePolarity,Positive*%
%FSLAX46Y46*%
G04 Gerber Fmt 4.6, Leading zero omitted, Abs format (unit mm)*
G04 Created by KiCad (PCBNEW (5.1.9)-1) date 2021-03-13 07:57:55*
%MOMM*%
%LPD*%
G01*
G04 APERTURE LIST*
%ADD10C,0.120000*%
%ADD11C,0.150000*%
%ADD12C,0.101600*%
%ADD13C,0.099060*%
G04 APERTURE END LIST*
D10*
%TO.C,Q2*%
X106430000Y-138540000D02*
X105500000Y-138540000D01*
X103270000Y-138540000D02*
X104200000Y-138540000D01*
X103270000Y-138540000D02*
X103270000Y-141700000D01*
X106430000Y-138540000D02*
X106430000Y-140000000D01*
%TO.C,U3*%
X94370000Y-147960000D02*
X95300000Y-147960000D01*
X97530000Y-147960000D02*
X96600000Y-147960000D01*
X97530000Y-147960000D02*
X97530000Y-144800000D01*
X94370000Y-147960000D02*
X94370000Y-146500000D01*
%TO.C,U4*%
X127500000Y-147260000D02*
X129300000Y-147260000D01*
X129300000Y-144040000D02*
X126850000Y-144040000D01*
%TO.C,Q3*%
X110300000Y-103700000D02*
X103000000Y-103700000D01*
X110300000Y-108100000D02*
X110300000Y-103700000D01*
%TO.C,J3*%
X105440000Y-150650000D02*
X103950000Y-150650000D01*
X103950000Y-150650000D02*
X103950000Y-151990000D01*
X117760000Y-150650000D02*
X119250000Y-150650000D01*
X119250000Y-150650000D02*
X119250000Y-151990000D01*
X103950000Y-154710000D02*
X103950000Y-156450000D01*
X103950000Y-156450000D02*
X119250000Y-156450000D01*
X119250000Y-156450000D02*
X119250000Y-154710000D01*
X105440000Y-150650000D02*
X105440000Y-149450000D01*
%TO.C,R10*%
X123335000Y-76872936D02*
X123335000Y-77327064D01*
X121865000Y-76872936D02*
X121865000Y-77327064D01*
%TO.C,K1*%
X119410000Y-74690000D02*
X119410000Y-75750000D01*
X118350000Y-74690000D02*
X119410000Y-74690000D01*
X117350000Y-74690000D02*
X117350000Y-76810000D01*
X117350000Y-76810000D02*
X103290000Y-76810000D01*
X117350000Y-74690000D02*
X103290000Y-74690000D01*
X103290000Y-74690000D02*
X103290000Y-76810000D01*
%TO.C,JP1*%
X130350000Y-153050000D02*
X133150000Y-153050000D01*
X133800000Y-153750000D02*
X133800000Y-154350000D01*
X133150000Y-155050000D02*
X130350000Y-155050000D01*
X129700000Y-154350000D02*
X129700000Y-153750000D01*
X129700000Y-153750000D02*
G75*
G02*
X130400000Y-153050000I700000J0D01*
G01*
X130400000Y-155050000D02*
G75*
G02*
X129700000Y-154350000I0J700000D01*
G01*
X133800000Y-154350000D02*
G75*
G02*
X133100000Y-155050000I-700000J0D01*
G01*
X133100000Y-153050000D02*
G75*
G02*
X133800000Y-153750000I0J-700000D01*
G01*
%TO.C,C17*%
X96054457Y-90684990D02*
X95684990Y-91054457D01*
X95015010Y-89645543D02*
X94645543Y-90015010D01*
D11*
%TO.C,U1*%
X99750000Y-94975000D02*
X99750000Y-96250000D01*
X99175000Y-84625000D02*
X99175000Y-85300000D01*
X109525000Y-84625000D02*
X109525000Y-85300000D01*
X109525000Y-94975000D02*
X109525000Y-94300000D01*
X99175000Y-94975000D02*
X99175000Y-94300000D01*
X109525000Y-94975000D02*
X108850000Y-94975000D01*
X109525000Y-84625000D02*
X108850000Y-84625000D01*
X99175000Y-84625000D02*
X99850000Y-84625000D01*
X99175000Y-94975000D02*
X99750000Y-94975000D01*
D10*
%TO.C,R8*%
X100865000Y-140077064D02*
X100865000Y-139622936D01*
X102335000Y-140077064D02*
X102335000Y-139622936D01*
%TO.C,R8-2*%
X99865000Y-145827064D02*
X99865000Y-145372936D01*
X101335000Y-145827064D02*
X101335000Y-145372936D01*
%TO.C,C4*%
X110115000Y-145823752D02*
X110115000Y-145301248D01*
X111585000Y-145823752D02*
X111585000Y-145301248D01*
%TO.C,D5*%
X120100000Y-136200000D02*
X118100000Y-136200000D01*
X118100000Y-136200000D02*
X118100000Y-140100000D01*
X120100000Y-136200000D02*
X120100000Y-140100000D01*
%TO.C,D4*%
X115350000Y-140700000D02*
X117350000Y-140700000D01*
X117350000Y-140700000D02*
X117350000Y-136800000D01*
X115350000Y-140700000D02*
X115350000Y-136800000D01*
%TO.C,R12*%
X106877064Y-99335000D02*
X106422936Y-99335000D01*
X106877064Y-97865000D02*
X106422936Y-97865000D01*
%TO.C,U5*%
X122250000Y-85300000D02*
X123950000Y-85300000D01*
X117450000Y-81600000D02*
X117450000Y-81450000D01*
X117450000Y-81450000D02*
X122250000Y-81450000D01*
X122250000Y-81450000D02*
X122250000Y-81600000D01*
X122250000Y-85300000D02*
X122250000Y-85450000D01*
X122250000Y-85450000D02*
X117450000Y-85450000D01*
X117450000Y-85450000D02*
X117450000Y-85300000D01*
D12*
%TO.C,U2*%
X128673000Y-118668000D02*
X126514000Y-118668000D01*
X126514000Y-118668000D02*
X126514000Y-126161000D01*
X126514000Y-126161000D02*
X128673000Y-126161000D01*
D13*
X109750000Y-112850000D02*
X109750000Y-129850000D01*
X109750000Y-129850000D02*
X128650000Y-129850000D01*
X128650000Y-129850000D02*
X128650000Y-112850000D01*
X109750000Y-112850000D02*
X128650000Y-112850000D01*
D10*
%TO.C,SW13*%
X87650000Y-156960000D02*
X87650000Y-150840000D01*
X87650000Y-150840000D02*
X91350000Y-150840000D01*
X91350000Y-150840000D02*
X91350000Y-156960000D01*
X91350000Y-156960000D02*
X87650000Y-156960000D01*
%TO.C,SW12*%
X131350000Y-142140000D02*
X131350000Y-136020000D01*
X131350000Y-136020000D02*
X135050000Y-136020000D01*
X135050000Y-136020000D02*
X135050000Y-142140000D01*
X135050000Y-142140000D02*
X131350000Y-142140000D01*
%TO.C,SW11*%
X135050000Y-124890000D02*
X135050000Y-131010000D01*
X135050000Y-131010000D02*
X131350000Y-131010000D01*
X131350000Y-131010000D02*
X131350000Y-124890000D01*
X131350000Y-124890000D02*
X135050000Y-124890000D01*
%TO.C,SW10*%
X131350000Y-119880000D02*
X131350000Y-113760000D01*
X131350000Y-113760000D02*
X135050000Y-113760000D01*
X135050000Y-113760000D02*
X135050000Y-119880000D01*
X135050000Y-119880000D02*
X131350000Y-119880000D01*
%TO.C,SW9*%
X131350000Y-108750000D02*
X131350000Y-102630000D01*
X131350000Y-102630000D02*
X135050000Y-102630000D01*
X135050000Y-102630000D02*
X135050000Y-108750000D01*
X135050000Y-108750000D02*
X131350000Y-108750000D01*
%TO.C,SW8*%
X131350000Y-97620000D02*
X131350000Y-91500000D01*
X131350000Y-91500000D02*
X135050000Y-91500000D01*
X135050000Y-91500000D02*
X135050000Y-97620000D01*
X135050000Y-97620000D02*
X131350000Y-97620000D01*
%TO.C,SW7*%
X135050000Y-80370000D02*
X135050000Y-86490000D01*
X135050000Y-86490000D02*
X131350000Y-86490000D01*
X131350000Y-86490000D02*
X131350000Y-80370000D01*
X131350000Y-80370000D02*
X135050000Y-80370000D01*
%TO.C,SW6*%
X87650000Y-142160000D02*
X87650000Y-136040000D01*
X87650000Y-136040000D02*
X91350000Y-136040000D01*
X91350000Y-136040000D02*
X91350000Y-142160000D01*
X91350000Y-142160000D02*
X87650000Y-142160000D01*
%TO.C,SW5*%
X87650000Y-131010000D02*
X87650000Y-124890000D01*
X87650000Y-124890000D02*
X91350000Y-124890000D01*
X91350000Y-124890000D02*
X91350000Y-131010000D01*
X91350000Y-131010000D02*
X87650000Y-131010000D01*
%TO.C,SW4*%
X87650000Y-119880000D02*
X87650000Y-113760000D01*
X87650000Y-113760000D02*
X91350000Y-113760000D01*
X91350000Y-113760000D02*
X91350000Y-119880000D01*
X91350000Y-119880000D02*
X87650000Y-119880000D01*
%TO.C,SW3*%
X87650000Y-108750000D02*
X87650000Y-102630000D01*
X87650000Y-102630000D02*
X91350000Y-102630000D01*
X91350000Y-102630000D02*
X91350000Y-108750000D01*
X91350000Y-108750000D02*
X87650000Y-108750000D01*
%TO.C,SW2*%
X87650000Y-97620000D02*
X87650000Y-91500000D01*
X87650000Y-91500000D02*
X91350000Y-91500000D01*
X91350000Y-91500000D02*
X91350000Y-97620000D01*
X91350000Y-97620000D02*
X87650000Y-97620000D01*
%TO.C,SW1*%
X87650000Y-86490000D02*
X87650000Y-80370000D01*
X87650000Y-80370000D02*
X91350000Y-80370000D01*
X91350000Y-80370000D02*
X91350000Y-86490000D01*
X91350000Y-86490000D02*
X87650000Y-86490000D01*
%TO.C,R8-1*%
X101865000Y-145827064D02*
X101865000Y-145372936D01*
X103335000Y-145827064D02*
X103335000Y-145372936D01*
%TO.C,R13*%
X117577064Y-87335000D02*
X117122936Y-87335000D01*
X117577064Y-85865000D02*
X117122936Y-85865000D01*
%TO.C,R11*%
X126622936Y-75315000D02*
X127077064Y-75315000D01*
X126622936Y-76785000D02*
X127077064Y-76785000D01*
%TO.C,R9*%
X128515000Y-142077064D02*
X128515000Y-141622936D01*
X129985000Y-142077064D02*
X129985000Y-141622936D01*
%TO.C,R5*%
X113115000Y-96577064D02*
X113115000Y-96122936D01*
X114585000Y-96577064D02*
X114585000Y-96122936D01*
%TO.C,R4*%
X113115000Y-100377064D02*
X113115000Y-99922936D01*
X114585000Y-100377064D02*
X114585000Y-99922936D01*
%TO.C,R3*%
X99922936Y-102915000D02*
X100377064Y-102915000D01*
X99922936Y-104385000D02*
X100377064Y-104385000D01*
%TO.C,R2*%
X126622936Y-77315000D02*
X127077064Y-77315000D01*
X126622936Y-78785000D02*
X127077064Y-78785000D01*
%TO.C,R1*%
X126622936Y-79315000D02*
X127077064Y-79315000D01*
X126622936Y-80785000D02*
X127077064Y-80785000D01*
%TO.C,Q1*%
X104850000Y-102800000D02*
X104850000Y-100800000D01*
X108450000Y-100800000D02*
X108450000Y-102800000D01*
X107400000Y-100400000D02*
X107400000Y-100000000D01*
X108650000Y-102800000D02*
X108650000Y-100800000D01*
X104850000Y-100800000D02*
X104850000Y-100400000D01*
X108450000Y-100800000D02*
X108450000Y-100400000D01*
X108650000Y-100800000D02*
X108650000Y-100400000D01*
X108450000Y-102800000D02*
X108300000Y-102800000D01*
X108450000Y-100400000D02*
X108300000Y-100400000D01*
X107400000Y-100400000D02*
X107450000Y-100400000D01*
X104850000Y-100400000D02*
X105000000Y-100400000D01*
X104850000Y-102800000D02*
X105000000Y-102800000D01*
%TO.C,L1*%
X106450000Y-134100000D02*
X106450000Y-134500000D01*
X103250000Y-134100000D02*
X103250000Y-134500000D01*
%TO.C,J6*%
X102220000Y-158430000D02*
X102220000Y-155770000D01*
X99620000Y-158430000D02*
X102220000Y-158430000D01*
X99620000Y-155770000D02*
X102220000Y-155770000D01*
X99620000Y-158430000D02*
X99620000Y-155770000D01*
X98350000Y-158430000D02*
X97020000Y-158430000D01*
X97020000Y-158430000D02*
X97020000Y-157100000D01*
%TO.C,J5*%
X135120000Y-158580000D02*
X135120000Y-155920000D01*
X132520000Y-158580000D02*
X135120000Y-158580000D01*
X132520000Y-155920000D02*
X135120000Y-155920000D01*
X132520000Y-158580000D02*
X132520000Y-155920000D01*
X131250000Y-158580000D02*
X129920000Y-158580000D01*
X129920000Y-158580000D02*
X129920000Y-157250000D01*
%TO.C,J1*%
X130255000Y-123035000D02*
X131645000Y-123035000D01*
X130255000Y-123035000D02*
X130255000Y-122910000D01*
X131645000Y-123035000D02*
X131645000Y-122910000D01*
X130255000Y-123035000D02*
X130341724Y-123035000D01*
X131558276Y-123035000D02*
X131645000Y-123035000D01*
X130255000Y-122350000D02*
X130255000Y-121665000D01*
X130255000Y-121665000D02*
X130950000Y-121665000D01*
%TO.C,D6*%
X129290000Y-74225000D02*
X129290000Y-77085000D01*
X129290000Y-77085000D02*
X131210000Y-77085000D01*
X131210000Y-77085000D02*
X131210000Y-74225000D01*
%TO.C,D3*%
X112600000Y-140700000D02*
X114600000Y-140700000D01*
X114600000Y-140700000D02*
X114600000Y-136800000D01*
X112600000Y-140700000D02*
X112600000Y-136800000D01*
%TO.C,D2*%
X131240000Y-73365000D02*
X131240000Y-76225000D01*
X133160000Y-73365000D02*
X131240000Y-73365000D01*
X133160000Y-76225000D02*
X133160000Y-73365000D01*
%TO.C,D1*%
X133140000Y-73365000D02*
X133140000Y-76225000D01*
X135060000Y-73365000D02*
X133140000Y-73365000D01*
X135060000Y-76225000D02*
X135060000Y-73365000D01*
%TO.C,C20*%
X95638748Y-142565000D02*
X96161252Y-142565000D01*
X95638748Y-144035000D02*
X96161252Y-144035000D01*
%TO.C,C19*%
X96248752Y-151685000D02*
X95726248Y-151685000D01*
X96248752Y-150215000D02*
X95726248Y-150215000D01*
%TO.C,C18*%
X126200000Y-152360000D02*
X130585000Y-152360000D01*
X130585000Y-152360000D02*
X130585000Y-149340000D01*
X130585000Y-149340000D02*
X126200000Y-149340000D01*
%TO.C,C16*%
X103865000Y-81111252D02*
X103865000Y-80588748D01*
X105335000Y-81111252D02*
X105335000Y-80588748D01*
%TO.C,C15*%
X112888748Y-88615000D02*
X113411252Y-88615000D01*
X112888748Y-90085000D02*
X113411252Y-90085000D01*
%TO.C,C14*%
X104385000Y-99376248D02*
X104385000Y-99898752D01*
X102915000Y-99376248D02*
X102915000Y-99898752D01*
%TO.C,C13*%
X122335000Y-145301248D02*
X122335000Y-145823752D01*
X120865000Y-145301248D02*
X120865000Y-145823752D01*
%TO.C,C12*%
X116365000Y-145823752D02*
X116365000Y-145301248D01*
X117835000Y-145823752D02*
X117835000Y-145301248D01*
%TO.C,C11*%
X120815000Y-138548752D02*
X120815000Y-138026248D01*
X122285000Y-138548752D02*
X122285000Y-138026248D01*
%TO.C,C10*%
X106115000Y-145823752D02*
X106115000Y-145301248D01*
X107585000Y-145823752D02*
X107585000Y-145301248D01*
%TO.C,C9*%
X104115000Y-145823752D02*
X104115000Y-145301248D01*
X105585000Y-145823752D02*
X105585000Y-145301248D01*
%TO.C,C8*%
X122865000Y-145823752D02*
X122865000Y-145301248D01*
X124335000Y-145823752D02*
X124335000Y-145301248D01*
%TO.C,C7*%
X118615000Y-145823752D02*
X118615000Y-145301248D01*
X120085000Y-145823752D02*
X120085000Y-145301248D01*
%TO.C,C6*%
X114115000Y-145823752D02*
X114115000Y-145301248D01*
X115585000Y-145823752D02*
X115585000Y-145301248D01*
%TO.C,C5*%
X112115000Y-145823752D02*
X112115000Y-145301248D01*
X113585000Y-145823752D02*
X113585000Y-145301248D01*
%TO.C,C3*%
X108115000Y-145823752D02*
X108115000Y-145301248D01*
X109585000Y-145823752D02*
X109585000Y-145301248D01*
%TO.C,C2*%
X101615000Y-81148752D02*
X101615000Y-80626248D01*
X103085000Y-81148752D02*
X103085000Y-80626248D01*
%TO.C,C1*%
X101985000Y-106488748D02*
X101985000Y-107011252D01*
X100515000Y-106488748D02*
X100515000Y-107011252D01*
%TO.C,Q2*%
D11*
X107604761Y-138197619D02*
X107509523Y-138150000D01*
X107414285Y-138054761D01*
X107271428Y-137911904D01*
X107176190Y-137864285D01*
X107080952Y-137864285D01*
X107128571Y-138102380D02*
X107033333Y-138054761D01*
X106938095Y-137959523D01*
X106890476Y-137769047D01*
X106890476Y-137435714D01*
X106938095Y-137245238D01*
X107033333Y-137150000D01*
X107128571Y-137102380D01*
X107319047Y-137102380D01*
X107414285Y-137150000D01*
X107509523Y-137245238D01*
X107557142Y-137435714D01*
X107557142Y-137769047D01*
X107509523Y-137959523D01*
X107414285Y-138054761D01*
X107319047Y-138102380D01*
X107128571Y-138102380D01*
X107938095Y-137197619D02*
X107985714Y-137150000D01*
X108080952Y-137102380D01*
X108319047Y-137102380D01*
X108414285Y-137150000D01*
X108461904Y-137197619D01*
X108509523Y-137292857D01*
X108509523Y-137388095D01*
X108461904Y-137530952D01*
X107890476Y-138102380D01*
X108509523Y-138102380D01*
%TO.C,U3*%
X93002380Y-148011904D02*
X93811904Y-148011904D01*
X93907142Y-147964285D01*
X93954761Y-147916666D01*
X94002380Y-147821428D01*
X94002380Y-147630952D01*
X93954761Y-147535714D01*
X93907142Y-147488095D01*
X93811904Y-147440476D01*
X93002380Y-147440476D01*
X93002380Y-147059523D02*
X93002380Y-146440476D01*
X93383333Y-146773809D01*
X93383333Y-146630952D01*
X93430952Y-146535714D01*
X93478571Y-146488095D01*
X93573809Y-146440476D01*
X93811904Y-146440476D01*
X93907142Y-146488095D01*
X93954761Y-146535714D01*
X94002380Y-146630952D01*
X94002380Y-146916666D01*
X93954761Y-147011904D01*
X93907142Y-147059523D01*
%TO.C,U4*%
X131088095Y-145102380D02*
X131088095Y-145911904D01*
X131135714Y-146007142D01*
X131183333Y-146054761D01*
X131278571Y-146102380D01*
X131469047Y-146102380D01*
X131564285Y-146054761D01*
X131611904Y-146007142D01*
X131659523Y-145911904D01*
X131659523Y-145102380D01*
X132564285Y-145435714D02*
X132564285Y-146102380D01*
X132326190Y-145054761D02*
X132088095Y-145769047D01*
X132707142Y-145769047D01*
%TO.C,Q3*%
X106554761Y-109447619D02*
X106459523Y-109400000D01*
X106364285Y-109304761D01*
X106221428Y-109161904D01*
X106126190Y-109114285D01*
X106030952Y-109114285D01*
X106078571Y-109352380D02*
X105983333Y-109304761D01*
X105888095Y-109209523D01*
X105840476Y-109019047D01*
X105840476Y-108685714D01*
X105888095Y-108495238D01*
X105983333Y-108400000D01*
X106078571Y-108352380D01*
X106269047Y-108352380D01*
X106364285Y-108400000D01*
X106459523Y-108495238D01*
X106507142Y-108685714D01*
X106507142Y-109019047D01*
X106459523Y-109209523D01*
X106364285Y-109304761D01*
X106269047Y-109352380D01*
X106078571Y-109352380D01*
X106840476Y-108352380D02*
X107459523Y-108352380D01*
X107126190Y-108733333D01*
X107269047Y-108733333D01*
X107364285Y-108780952D01*
X107411904Y-108828571D01*
X107459523Y-108923809D01*
X107459523Y-109161904D01*
X107411904Y-109257142D01*
X107364285Y-109304761D01*
X107269047Y-109352380D01*
X106983333Y-109352380D01*
X106888095Y-109304761D01*
X106840476Y-109257142D01*
%TO.C,J3*%
X111266666Y-147702380D02*
X111266666Y-148416666D01*
X111219047Y-148559523D01*
X111123809Y-148654761D01*
X110980952Y-148702380D01*
X110885714Y-148702380D01*
X111647619Y-147702380D02*
X112266666Y-147702380D01*
X111933333Y-148083333D01*
X112076190Y-148083333D01*
X112171428Y-148130952D01*
X112219047Y-148178571D01*
X112266666Y-148273809D01*
X112266666Y-148511904D01*
X112219047Y-148607142D01*
X112171428Y-148654761D01*
X112076190Y-148702380D01*
X111790476Y-148702380D01*
X111695238Y-148654761D01*
X111647619Y-148607142D01*
%TO.C,R10*%
X121552380Y-77742857D02*
X121076190Y-78076190D01*
X121552380Y-78314285D02*
X120552380Y-78314285D01*
X120552380Y-77933333D01*
X120600000Y-77838095D01*
X120647619Y-77790476D01*
X120742857Y-77742857D01*
X120885714Y-77742857D01*
X120980952Y-77790476D01*
X121028571Y-77838095D01*
X121076190Y-77933333D01*
X121076190Y-78314285D01*
X121552380Y-76790476D02*
X121552380Y-77361904D01*
X121552380Y-77076190D02*
X120552380Y-77076190D01*
X120695238Y-77171428D01*
X120790476Y-77266666D01*
X120838095Y-77361904D01*
X120552380Y-76171428D02*
X120552380Y-76076190D01*
X120600000Y-75980952D01*
X120647619Y-75933333D01*
X120742857Y-75885714D01*
X120933333Y-75838095D01*
X121171428Y-75838095D01*
X121361904Y-75885714D01*
X121457142Y-75933333D01*
X121504761Y-75980952D01*
X121552380Y-76076190D01*
X121552380Y-76171428D01*
X121504761Y-76266666D01*
X121457142Y-76314285D01*
X121361904Y-76361904D01*
X121171428Y-76409523D01*
X120933333Y-76409523D01*
X120742857Y-76361904D01*
X120647619Y-76314285D01*
X120600000Y-76266666D01*
X120552380Y-76171428D01*
%TO.C,K1*%
X110711904Y-74002380D02*
X110711904Y-73002380D01*
X111283333Y-74002380D02*
X110854761Y-73430952D01*
X111283333Y-73002380D02*
X110711904Y-73573809D01*
X112235714Y-74002380D02*
X111664285Y-74002380D01*
X111950000Y-74002380D02*
X111950000Y-73002380D01*
X111854761Y-73145238D01*
X111759523Y-73240476D01*
X111664285Y-73288095D01*
%TO.C,JP1*%
X131016666Y-151652380D02*
X131016666Y-152366666D01*
X130969047Y-152509523D01*
X130873809Y-152604761D01*
X130730952Y-152652380D01*
X130635714Y-152652380D01*
X131492857Y-152652380D02*
X131492857Y-151652380D01*
X131873809Y-151652380D01*
X131969047Y-151700000D01*
X132016666Y-151747619D01*
X132064285Y-151842857D01*
X132064285Y-151985714D01*
X132016666Y-152080952D01*
X131969047Y-152128571D01*
X131873809Y-152176190D01*
X131492857Y-152176190D01*
X133016666Y-152652380D02*
X132445238Y-152652380D01*
X132730952Y-152652380D02*
X132730952Y-151652380D01*
X132635714Y-151795238D01*
X132540476Y-151890476D01*
X132445238Y-151938095D01*
X127097619Y-154028571D02*
X127240476Y-154076190D01*
X127288095Y-154123809D01*
X127335714Y-154219047D01*
X127335714Y-154361904D01*
X127288095Y-154457142D01*
X127240476Y-154504761D01*
X127145238Y-154552380D01*
X126764285Y-154552380D01*
X126764285Y-153552380D01*
X127097619Y-153552380D01*
X127192857Y-153600000D01*
X127240476Y-153647619D01*
X127288095Y-153742857D01*
X127288095Y-153838095D01*
X127240476Y-153933333D01*
X127192857Y-153980952D01*
X127097619Y-154028571D01*
X126764285Y-154028571D01*
X128192857Y-154552380D02*
X128192857Y-154028571D01*
X128145238Y-153933333D01*
X128050000Y-153885714D01*
X127859523Y-153885714D01*
X127764285Y-153933333D01*
X128192857Y-154504761D02*
X128097619Y-154552380D01*
X127859523Y-154552380D01*
X127764285Y-154504761D01*
X127716666Y-154409523D01*
X127716666Y-154314285D01*
X127764285Y-154219047D01*
X127859523Y-154171428D01*
X128097619Y-154171428D01*
X128192857Y-154123809D01*
X128526190Y-153885714D02*
X128907142Y-153885714D01*
X128669047Y-153552380D02*
X128669047Y-154409523D01*
X128716666Y-154504761D01*
X128811904Y-154552380D01*
X128907142Y-154552380D01*
X129097619Y-153885714D02*
X129478571Y-153885714D01*
X129240476Y-153552380D02*
X129240476Y-154409523D01*
X129288095Y-154504761D01*
X129383333Y-154552380D01*
X129478571Y-154552380D01*
X135102380Y-154930952D02*
X135102380Y-155407142D01*
X134102380Y-155407142D01*
X135102380Y-154597619D02*
X134435714Y-154597619D01*
X134102380Y-154597619D02*
X134150000Y-154645238D01*
X134197619Y-154597619D01*
X134150000Y-154550000D01*
X134102380Y-154597619D01*
X134197619Y-154597619D01*
X135102380Y-154121428D02*
X134102380Y-154121428D01*
X134102380Y-153740476D01*
X134150000Y-153645238D01*
X134197619Y-153597619D01*
X134292857Y-153550000D01*
X134435714Y-153550000D01*
X134530952Y-153597619D01*
X134578571Y-153645238D01*
X134626190Y-153740476D01*
X134626190Y-154121428D01*
X135102380Y-152978571D02*
X135054761Y-153073809D01*
X135007142Y-153121428D01*
X134911904Y-153169047D01*
X134626190Y-153169047D01*
X134530952Y-153121428D01*
X134483333Y-153073809D01*
X134435714Y-152978571D01*
X134435714Y-152835714D01*
X134483333Y-152740476D01*
X134530952Y-152692857D01*
X134626190Y-152645238D01*
X134911904Y-152645238D01*
X135007142Y-152692857D01*
X135054761Y-152740476D01*
X135102380Y-152835714D01*
X135102380Y-152978571D01*
%TO.C,C17*%
X93881592Y-89823483D02*
X93881592Y-89890827D01*
X93814248Y-90025514D01*
X93746905Y-90092857D01*
X93612218Y-90160201D01*
X93477531Y-90160201D01*
X93376516Y-90126529D01*
X93208157Y-90025514D01*
X93107142Y-89924499D01*
X93006126Y-89756140D01*
X92972455Y-89655125D01*
X92972455Y-89520438D01*
X93039798Y-89385751D01*
X93107142Y-89318407D01*
X93241829Y-89251064D01*
X93309172Y-89251064D01*
X94622371Y-89217392D02*
X94218310Y-89621453D01*
X94420340Y-89419422D02*
X93713233Y-88712315D01*
X93746905Y-88880674D01*
X93746905Y-89015361D01*
X93713233Y-89116377D01*
X94150966Y-88274583D02*
X94622371Y-87803178D01*
X95026432Y-88813331D01*
%TO.C,U1*%
X95853067Y-95373700D02*
X95853067Y-96183224D01*
X95900686Y-96278462D01*
X95948305Y-96326081D01*
X96043543Y-96373700D01*
X96234019Y-96373700D01*
X96329257Y-96326081D01*
X96376876Y-96278462D01*
X96424495Y-96183224D01*
X96424495Y-95373700D01*
X97424495Y-96373700D02*
X96853067Y-96373700D01*
X97138781Y-96373700D02*
X97138781Y-95373700D01*
X97043543Y-95516558D01*
X96948305Y-95611796D01*
X96853067Y-95659415D01*
%TO.C,R8*%
X102052380Y-137266666D02*
X101576190Y-137600000D01*
X102052380Y-137838095D02*
X101052380Y-137838095D01*
X101052380Y-137457142D01*
X101100000Y-137361904D01*
X101147619Y-137314285D01*
X101242857Y-137266666D01*
X101385714Y-137266666D01*
X101480952Y-137314285D01*
X101528571Y-137361904D01*
X101576190Y-137457142D01*
X101576190Y-137838095D01*
X101480952Y-136695238D02*
X101433333Y-136790476D01*
X101385714Y-136838095D01*
X101290476Y-136885714D01*
X101242857Y-136885714D01*
X101147619Y-136838095D01*
X101100000Y-136790476D01*
X101052380Y-136695238D01*
X101052380Y-136504761D01*
X101100000Y-136409523D01*
X101147619Y-136361904D01*
X101242857Y-136314285D01*
X101290476Y-136314285D01*
X101385714Y-136361904D01*
X101433333Y-136409523D01*
X101480952Y-136504761D01*
X101480952Y-136695238D01*
X101528571Y-136790476D01*
X101576190Y-136838095D01*
X101671428Y-136885714D01*
X101861904Y-136885714D01*
X101957142Y-136838095D01*
X102004761Y-136790476D01*
X102052380Y-136695238D01*
X102052380Y-136504761D01*
X102004761Y-136409523D01*
X101957142Y-136361904D01*
X101861904Y-136314285D01*
X101671428Y-136314285D01*
X101576190Y-136361904D01*
X101528571Y-136409523D01*
X101480952Y-136504761D01*
%TO.C,R8-2*%
X100338095Y-148802380D02*
X100004761Y-148326190D01*
X99766666Y-148802380D02*
X99766666Y-147802380D01*
X100147619Y-147802380D01*
X100242857Y-147850000D01*
X100290476Y-147897619D01*
X100338095Y-147992857D01*
X100338095Y-148135714D01*
X100290476Y-148230952D01*
X100242857Y-148278571D01*
X100147619Y-148326190D01*
X99766666Y-148326190D01*
X100909523Y-148230952D02*
X100814285Y-148183333D01*
X100766666Y-148135714D01*
X100719047Y-148040476D01*
X100719047Y-147992857D01*
X100766666Y-147897619D01*
X100814285Y-147850000D01*
X100909523Y-147802380D01*
X101100000Y-147802380D01*
X101195238Y-147850000D01*
X101242857Y-147897619D01*
X101290476Y-147992857D01*
X101290476Y-148040476D01*
X101242857Y-148135714D01*
X101195238Y-148183333D01*
X101100000Y-148230952D01*
X100909523Y-148230952D01*
X100814285Y-148278571D01*
X100766666Y-148326190D01*
X100719047Y-148421428D01*
X100719047Y-148611904D01*
X100766666Y-148707142D01*
X100814285Y-148754761D01*
X100909523Y-148802380D01*
X101100000Y-148802380D01*
X101195238Y-148754761D01*
X101242857Y-148707142D01*
X101290476Y-148611904D01*
X101290476Y-148421428D01*
X101242857Y-148326190D01*
X101195238Y-148278571D01*
X101100000Y-148230952D01*
X101719047Y-148421428D02*
X102480952Y-148421428D01*
X102909523Y-147897619D02*
X102957142Y-147850000D01*
X103052380Y-147802380D01*
X103290476Y-147802380D01*
X103385714Y-147850000D01*
X103433333Y-147897619D01*
X103480952Y-147992857D01*
X103480952Y-148088095D01*
X103433333Y-148230952D01*
X102861904Y-148802380D01*
X103480952Y-148802380D01*
%TO.C,C4*%
X111207142Y-142729166D02*
X111254761Y-142776785D01*
X111302380Y-142919642D01*
X111302380Y-143014880D01*
X111254761Y-143157738D01*
X111159523Y-143252976D01*
X111064285Y-143300595D01*
X110873809Y-143348214D01*
X110730952Y-143348214D01*
X110540476Y-143300595D01*
X110445238Y-143252976D01*
X110350000Y-143157738D01*
X110302380Y-143014880D01*
X110302380Y-142919642D01*
X110350000Y-142776785D01*
X110397619Y-142729166D01*
X110635714Y-141872023D02*
X111302380Y-141872023D01*
X110254761Y-142110119D02*
X110969047Y-142348214D01*
X110969047Y-141729166D01*
%TO.C,D5*%
X119552380Y-135788095D02*
X118552380Y-135788095D01*
X118552380Y-135550000D01*
X118600000Y-135407142D01*
X118695238Y-135311904D01*
X118790476Y-135264285D01*
X118980952Y-135216666D01*
X119123809Y-135216666D01*
X119314285Y-135264285D01*
X119409523Y-135311904D01*
X119504761Y-135407142D01*
X119552380Y-135550000D01*
X119552380Y-135788095D01*
X118552380Y-134311904D02*
X118552380Y-134788095D01*
X119028571Y-134835714D01*
X118980952Y-134788095D01*
X118933333Y-134692857D01*
X118933333Y-134454761D01*
X118980952Y-134359523D01*
X119028571Y-134311904D01*
X119123809Y-134264285D01*
X119361904Y-134264285D01*
X119457142Y-134311904D01*
X119504761Y-134359523D01*
X119552380Y-134454761D01*
X119552380Y-134692857D01*
X119504761Y-134788095D01*
X119457142Y-134835714D01*
%TO.C,D4*%
X116802380Y-135788095D02*
X115802380Y-135788095D01*
X115802380Y-135550000D01*
X115850000Y-135407142D01*
X115945238Y-135311904D01*
X116040476Y-135264285D01*
X116230952Y-135216666D01*
X116373809Y-135216666D01*
X116564285Y-135264285D01*
X116659523Y-135311904D01*
X116754761Y-135407142D01*
X116802380Y-135550000D01*
X116802380Y-135788095D01*
X116135714Y-134359523D02*
X116802380Y-134359523D01*
X115754761Y-134597619D02*
X116469047Y-134835714D01*
X116469047Y-134216666D01*
%TO.C,R12*%
X109257142Y-99052380D02*
X108923809Y-98576190D01*
X108685714Y-99052380D02*
X108685714Y-98052380D01*
X109066666Y-98052380D01*
X109161904Y-98100000D01*
X109209523Y-98147619D01*
X109257142Y-98242857D01*
X109257142Y-98385714D01*
X109209523Y-98480952D01*
X109161904Y-98528571D01*
X109066666Y-98576190D01*
X108685714Y-98576190D01*
X110209523Y-99052380D02*
X109638095Y-99052380D01*
X109923809Y-99052380D02*
X109923809Y-98052380D01*
X109828571Y-98195238D01*
X109733333Y-98290476D01*
X109638095Y-98338095D01*
X110590476Y-98147619D02*
X110638095Y-98100000D01*
X110733333Y-98052380D01*
X110971428Y-98052380D01*
X111066666Y-98100000D01*
X111114285Y-98147619D01*
X111161904Y-98242857D01*
X111161904Y-98338095D01*
X111114285Y-98480952D01*
X110542857Y-99052380D01*
X111161904Y-99052380D01*
%TO.C,U5*%
X119088095Y-83052380D02*
X119088095Y-83861904D01*
X119135714Y-83957142D01*
X119183333Y-84004761D01*
X119278571Y-84052380D01*
X119469047Y-84052380D01*
X119564285Y-84004761D01*
X119611904Y-83957142D01*
X119659523Y-83861904D01*
X119659523Y-83052380D01*
X120611904Y-83052380D02*
X120135714Y-83052380D01*
X120088095Y-83528571D01*
X120135714Y-83480952D01*
X120230952Y-83433333D01*
X120469047Y-83433333D01*
X120564285Y-83480952D01*
X120611904Y-83528571D01*
X120659523Y-83623809D01*
X120659523Y-83861904D01*
X120611904Y-83957142D01*
X120564285Y-84004761D01*
X120469047Y-84052380D01*
X120230952Y-84052380D01*
X120135714Y-84004761D01*
X120088095Y-83957142D01*
%TO.C,U2*%
X112521095Y-113460380D02*
X112521095Y-114269904D01*
X112568714Y-114365142D01*
X112616333Y-114412761D01*
X112711571Y-114460380D01*
X112902047Y-114460380D01*
X112997285Y-114412761D01*
X113044904Y-114365142D01*
X113092523Y-114269904D01*
X113092523Y-113460380D01*
X113521095Y-113555619D02*
X113568714Y-113508000D01*
X113663952Y-113460380D01*
X113902047Y-113460380D01*
X113997285Y-113508000D01*
X114044904Y-113555619D01*
X114092523Y-113650857D01*
X114092523Y-113746095D01*
X114044904Y-113888952D01*
X113473476Y-114460380D01*
X114092523Y-114460380D01*
X123379761Y-114365142D02*
X123332142Y-114412761D01*
X123189285Y-114460380D01*
X123094047Y-114460380D01*
X122951190Y-114412761D01*
X122855952Y-114317523D01*
X122808333Y-114222285D01*
X122760714Y-114031809D01*
X122760714Y-113888952D01*
X122808333Y-113698476D01*
X122855952Y-113603238D01*
X122951190Y-113508000D01*
X123094047Y-113460380D01*
X123189285Y-113460380D01*
X123332142Y-113508000D01*
X123379761Y-113555619D01*
X124379761Y-114365142D02*
X124332142Y-114412761D01*
X124189285Y-114460380D01*
X124094047Y-114460380D01*
X123951190Y-114412761D01*
X123855952Y-114317523D01*
X123808333Y-114222285D01*
X123760714Y-114031809D01*
X123760714Y-113888952D01*
X123808333Y-113698476D01*
X123855952Y-113603238D01*
X123951190Y-113508000D01*
X124094047Y-113460380D01*
X124189285Y-113460380D01*
X124332142Y-113508000D01*
X124379761Y-113555619D01*
X125332142Y-114460380D02*
X124760714Y-114460380D01*
X125046428Y-114460380D02*
X125046428Y-113460380D01*
X124951190Y-113603238D01*
X124855952Y-113698476D01*
X124760714Y-113746095D01*
X126284523Y-114460380D02*
X125713095Y-114460380D01*
X125998809Y-114460380D02*
X125998809Y-113460380D01*
X125903571Y-113603238D01*
X125808333Y-113698476D01*
X125713095Y-113746095D01*
X126903571Y-113460380D02*
X126998809Y-113460380D01*
X127094047Y-113508000D01*
X127141666Y-113555619D01*
X127189285Y-113650857D01*
X127236904Y-113841333D01*
X127236904Y-114079428D01*
X127189285Y-114269904D01*
X127141666Y-114365142D01*
X127094047Y-114412761D01*
X126998809Y-114460380D01*
X126903571Y-114460380D01*
X126808333Y-114412761D01*
X126760714Y-114365142D01*
X126713095Y-114269904D01*
X126665476Y-114079428D01*
X126665476Y-113841333D01*
X126713095Y-113650857D01*
X126760714Y-113555619D01*
X126808333Y-113508000D01*
X126903571Y-113460380D01*
X128189285Y-114460380D02*
X127617857Y-114460380D01*
X127903571Y-114460380D02*
X127903571Y-113460380D01*
X127808333Y-113603238D01*
X127713095Y-113698476D01*
X127617857Y-113746095D01*
%TO.C,SW13*%
X92754761Y-155709523D02*
X92802380Y-155566666D01*
X92802380Y-155328571D01*
X92754761Y-155233333D01*
X92707142Y-155185714D01*
X92611904Y-155138095D01*
X92516666Y-155138095D01*
X92421428Y-155185714D01*
X92373809Y-155233333D01*
X92326190Y-155328571D01*
X92278571Y-155519047D01*
X92230952Y-155614285D01*
X92183333Y-155661904D01*
X92088095Y-155709523D01*
X91992857Y-155709523D01*
X91897619Y-155661904D01*
X91850000Y-155614285D01*
X91802380Y-155519047D01*
X91802380Y-155280952D01*
X91850000Y-155138095D01*
X91802380Y-154804761D02*
X92802380Y-154566666D01*
X92088095Y-154376190D01*
X92802380Y-154185714D01*
X91802380Y-153947619D01*
X92802380Y-153042857D02*
X92802380Y-153614285D01*
X92802380Y-153328571D02*
X91802380Y-153328571D01*
X91945238Y-153423809D01*
X92040476Y-153519047D01*
X92088095Y-153614285D01*
X91802380Y-152709523D02*
X91802380Y-152090476D01*
X92183333Y-152423809D01*
X92183333Y-152280952D01*
X92230952Y-152185714D01*
X92278571Y-152138095D01*
X92373809Y-152090476D01*
X92611904Y-152090476D01*
X92707142Y-152138095D01*
X92754761Y-152185714D01*
X92802380Y-152280952D01*
X92802380Y-152566666D01*
X92754761Y-152661904D01*
X92707142Y-152709523D01*
%TO.C,SW12*%
X133654761Y-140889523D02*
X133702380Y-140746666D01*
X133702380Y-140508571D01*
X133654761Y-140413333D01*
X133607142Y-140365714D01*
X133511904Y-140318095D01*
X133416666Y-140318095D01*
X133321428Y-140365714D01*
X133273809Y-140413333D01*
X133226190Y-140508571D01*
X133178571Y-140699047D01*
X133130952Y-140794285D01*
X133083333Y-140841904D01*
X132988095Y-140889523D01*
X132892857Y-140889523D01*
X132797619Y-140841904D01*
X132750000Y-140794285D01*
X132702380Y-140699047D01*
X132702380Y-140460952D01*
X132750000Y-140318095D01*
X132702380Y-139984761D02*
X133702380Y-139746666D01*
X132988095Y-139556190D01*
X133702380Y-139365714D01*
X132702380Y-139127619D01*
X133702380Y-138222857D02*
X133702380Y-138794285D01*
X133702380Y-138508571D02*
X132702380Y-138508571D01*
X132845238Y-138603809D01*
X132940476Y-138699047D01*
X132988095Y-138794285D01*
X132797619Y-137841904D02*
X132750000Y-137794285D01*
X132702380Y-137699047D01*
X132702380Y-137460952D01*
X132750000Y-137365714D01*
X132797619Y-137318095D01*
X132892857Y-137270476D01*
X132988095Y-137270476D01*
X133130952Y-137318095D01*
X133702380Y-137889523D01*
X133702380Y-137270476D01*
%TO.C,SW11*%
X133654761Y-129759523D02*
X133702380Y-129616666D01*
X133702380Y-129378571D01*
X133654761Y-129283333D01*
X133607142Y-129235714D01*
X133511904Y-129188095D01*
X133416666Y-129188095D01*
X133321428Y-129235714D01*
X133273809Y-129283333D01*
X133226190Y-129378571D01*
X133178571Y-129569047D01*
X133130952Y-129664285D01*
X133083333Y-129711904D01*
X132988095Y-129759523D01*
X132892857Y-129759523D01*
X132797619Y-129711904D01*
X132750000Y-129664285D01*
X132702380Y-129569047D01*
X132702380Y-129330952D01*
X132750000Y-129188095D01*
X132702380Y-128854761D02*
X133702380Y-128616666D01*
X132988095Y-128426190D01*
X133702380Y-128235714D01*
X132702380Y-127997619D01*
X133702380Y-127092857D02*
X133702380Y-127664285D01*
X133702380Y-127378571D02*
X132702380Y-127378571D01*
X132845238Y-127473809D01*
X132940476Y-127569047D01*
X132988095Y-127664285D01*
X133702380Y-126140476D02*
X133702380Y-126711904D01*
X133702380Y-126426190D02*
X132702380Y-126426190D01*
X132845238Y-126521428D01*
X132940476Y-126616666D01*
X132988095Y-126711904D01*
%TO.C,SW10*%
X133554761Y-118629523D02*
X133602380Y-118486666D01*
X133602380Y-118248571D01*
X133554761Y-118153333D01*
X133507142Y-118105714D01*
X133411904Y-118058095D01*
X133316666Y-118058095D01*
X133221428Y-118105714D01*
X133173809Y-118153333D01*
X133126190Y-118248571D01*
X133078571Y-118439047D01*
X133030952Y-118534285D01*
X132983333Y-118581904D01*
X132888095Y-118629523D01*
X132792857Y-118629523D01*
X132697619Y-118581904D01*
X132650000Y-118534285D01*
X132602380Y-118439047D01*
X132602380Y-118200952D01*
X132650000Y-118058095D01*
X132602380Y-117724761D02*
X133602380Y-117486666D01*
X132888095Y-117296190D01*
X133602380Y-117105714D01*
X132602380Y-116867619D01*
X133602380Y-115962857D02*
X133602380Y-116534285D01*
X133602380Y-116248571D02*
X132602380Y-116248571D01*
X132745238Y-116343809D01*
X132840476Y-116439047D01*
X132888095Y-116534285D01*
X132602380Y-115343809D02*
X132602380Y-115248571D01*
X132650000Y-115153333D01*
X132697619Y-115105714D01*
X132792857Y-115058095D01*
X132983333Y-115010476D01*
X133221428Y-115010476D01*
X133411904Y-115058095D01*
X133507142Y-115105714D01*
X133554761Y-115153333D01*
X133602380Y-115248571D01*
X133602380Y-115343809D01*
X133554761Y-115439047D01*
X133507142Y-115486666D01*
X133411904Y-115534285D01*
X133221428Y-115581904D01*
X132983333Y-115581904D01*
X132792857Y-115534285D01*
X132697619Y-115486666D01*
X132650000Y-115439047D01*
X132602380Y-115343809D01*
%TO.C,SW9*%
X133554761Y-107023333D02*
X133602380Y-106880476D01*
X133602380Y-106642380D01*
X133554761Y-106547142D01*
X133507142Y-106499523D01*
X133411904Y-106451904D01*
X133316666Y-106451904D01*
X133221428Y-106499523D01*
X133173809Y-106547142D01*
X133126190Y-106642380D01*
X133078571Y-106832857D01*
X133030952Y-106928095D01*
X132983333Y-106975714D01*
X132888095Y-107023333D01*
X132792857Y-107023333D01*
X132697619Y-106975714D01*
X132650000Y-106928095D01*
X132602380Y-106832857D01*
X132602380Y-106594761D01*
X132650000Y-106451904D01*
X132602380Y-106118571D02*
X133602380Y-105880476D01*
X132888095Y-105690000D01*
X133602380Y-105499523D01*
X132602380Y-105261428D01*
X133602380Y-104832857D02*
X133602380Y-104642380D01*
X133554761Y-104547142D01*
X133507142Y-104499523D01*
X133364285Y-104404285D01*
X133173809Y-104356666D01*
X132792857Y-104356666D01*
X132697619Y-104404285D01*
X132650000Y-104451904D01*
X132602380Y-104547142D01*
X132602380Y-104737619D01*
X132650000Y-104832857D01*
X132697619Y-104880476D01*
X132792857Y-104928095D01*
X133030952Y-104928095D01*
X133126190Y-104880476D01*
X133173809Y-104832857D01*
X133221428Y-104737619D01*
X133221428Y-104547142D01*
X133173809Y-104451904D01*
X133126190Y-104404285D01*
X133030952Y-104356666D01*
%TO.C,SW8*%
X133654761Y-95883333D02*
X133702380Y-95740476D01*
X133702380Y-95502380D01*
X133654761Y-95407142D01*
X133607142Y-95359523D01*
X133511904Y-95311904D01*
X133416666Y-95311904D01*
X133321428Y-95359523D01*
X133273809Y-95407142D01*
X133226190Y-95502380D01*
X133178571Y-95692857D01*
X133130952Y-95788095D01*
X133083333Y-95835714D01*
X132988095Y-95883333D01*
X132892857Y-95883333D01*
X132797619Y-95835714D01*
X132750000Y-95788095D01*
X132702380Y-95692857D01*
X132702380Y-95454761D01*
X132750000Y-95311904D01*
X132702380Y-94978571D02*
X133702380Y-94740476D01*
X132988095Y-94550000D01*
X133702380Y-94359523D01*
X132702380Y-94121428D01*
X133130952Y-93597619D02*
X133083333Y-93692857D01*
X133035714Y-93740476D01*
X132940476Y-93788095D01*
X132892857Y-93788095D01*
X132797619Y-93740476D01*
X132750000Y-93692857D01*
X132702380Y-93597619D01*
X132702380Y-93407142D01*
X132750000Y-93311904D01*
X132797619Y-93264285D01*
X132892857Y-93216666D01*
X132940476Y-93216666D01*
X133035714Y-93264285D01*
X133083333Y-93311904D01*
X133130952Y-93407142D01*
X133130952Y-93597619D01*
X133178571Y-93692857D01*
X133226190Y-93740476D01*
X133321428Y-93788095D01*
X133511904Y-93788095D01*
X133607142Y-93740476D01*
X133654761Y-93692857D01*
X133702380Y-93597619D01*
X133702380Y-93407142D01*
X133654761Y-93311904D01*
X133607142Y-93264285D01*
X133511904Y-93216666D01*
X133321428Y-93216666D01*
X133226190Y-93264285D01*
X133178571Y-93311904D01*
X133130952Y-93407142D01*
%TO.C,SW7*%
X133654761Y-84783333D02*
X133702380Y-84640476D01*
X133702380Y-84402380D01*
X133654761Y-84307142D01*
X133607142Y-84259523D01*
X133511904Y-84211904D01*
X133416666Y-84211904D01*
X133321428Y-84259523D01*
X133273809Y-84307142D01*
X133226190Y-84402380D01*
X133178571Y-84592857D01*
X133130952Y-84688095D01*
X133083333Y-84735714D01*
X132988095Y-84783333D01*
X132892857Y-84783333D01*
X132797619Y-84735714D01*
X132750000Y-84688095D01*
X132702380Y-84592857D01*
X132702380Y-84354761D01*
X132750000Y-84211904D01*
X132702380Y-83878571D02*
X133702380Y-83640476D01*
X132988095Y-83450000D01*
X133702380Y-83259523D01*
X132702380Y-83021428D01*
X132702380Y-82735714D02*
X132702380Y-82069047D01*
X133702380Y-82497619D01*
%TO.C,SW6*%
X89954761Y-140433333D02*
X90002380Y-140290476D01*
X90002380Y-140052380D01*
X89954761Y-139957142D01*
X89907142Y-139909523D01*
X89811904Y-139861904D01*
X89716666Y-139861904D01*
X89621428Y-139909523D01*
X89573809Y-139957142D01*
X89526190Y-140052380D01*
X89478571Y-140242857D01*
X89430952Y-140338095D01*
X89383333Y-140385714D01*
X89288095Y-140433333D01*
X89192857Y-140433333D01*
X89097619Y-140385714D01*
X89050000Y-140338095D01*
X89002380Y-140242857D01*
X89002380Y-140004761D01*
X89050000Y-139861904D01*
X89002380Y-139528571D02*
X90002380Y-139290476D01*
X89288095Y-139100000D01*
X90002380Y-138909523D01*
X89002380Y-138671428D01*
X89002380Y-137861904D02*
X89002380Y-138052380D01*
X89050000Y-138147619D01*
X89097619Y-138195238D01*
X89240476Y-138290476D01*
X89430952Y-138338095D01*
X89811904Y-138338095D01*
X89907142Y-138290476D01*
X89954761Y-138242857D01*
X90002380Y-138147619D01*
X90002380Y-137957142D01*
X89954761Y-137861904D01*
X89907142Y-137814285D01*
X89811904Y-137766666D01*
X89573809Y-137766666D01*
X89478571Y-137814285D01*
X89430952Y-137861904D01*
X89383333Y-137957142D01*
X89383333Y-138147619D01*
X89430952Y-138242857D01*
X89478571Y-138290476D01*
X89573809Y-138338095D01*
%TO.C,SW5*%
X89854761Y-129283333D02*
X89902380Y-129140476D01*
X89902380Y-128902380D01*
X89854761Y-128807142D01*
X89807142Y-128759523D01*
X89711904Y-128711904D01*
X89616666Y-128711904D01*
X89521428Y-128759523D01*
X89473809Y-128807142D01*
X89426190Y-128902380D01*
X89378571Y-129092857D01*
X89330952Y-129188095D01*
X89283333Y-129235714D01*
X89188095Y-129283333D01*
X89092857Y-129283333D01*
X88997619Y-129235714D01*
X88950000Y-129188095D01*
X88902380Y-129092857D01*
X88902380Y-128854761D01*
X88950000Y-128711904D01*
X88902380Y-128378571D02*
X89902380Y-128140476D01*
X89188095Y-127950000D01*
X89902380Y-127759523D01*
X88902380Y-127521428D01*
X88902380Y-126664285D02*
X88902380Y-127140476D01*
X89378571Y-127188095D01*
X89330952Y-127140476D01*
X89283333Y-127045238D01*
X89283333Y-126807142D01*
X89330952Y-126711904D01*
X89378571Y-126664285D01*
X89473809Y-126616666D01*
X89711904Y-126616666D01*
X89807142Y-126664285D01*
X89854761Y-126711904D01*
X89902380Y-126807142D01*
X89902380Y-127045238D01*
X89854761Y-127140476D01*
X89807142Y-127188095D01*
%TO.C,SW4*%
X89954761Y-118153333D02*
X90002380Y-118010476D01*
X90002380Y-117772380D01*
X89954761Y-117677142D01*
X89907142Y-117629523D01*
X89811904Y-117581904D01*
X89716666Y-117581904D01*
X89621428Y-117629523D01*
X89573809Y-117677142D01*
X89526190Y-117772380D01*
X89478571Y-117962857D01*
X89430952Y-118058095D01*
X89383333Y-118105714D01*
X89288095Y-118153333D01*
X89192857Y-118153333D01*
X89097619Y-118105714D01*
X89050000Y-118058095D01*
X89002380Y-117962857D01*
X89002380Y-117724761D01*
X89050000Y-117581904D01*
X89002380Y-117248571D02*
X90002380Y-117010476D01*
X89288095Y-116820000D01*
X90002380Y-116629523D01*
X89002380Y-116391428D01*
X89335714Y-115581904D02*
X90002380Y-115581904D01*
X88954761Y-115820000D02*
X89669047Y-116058095D01*
X89669047Y-115439047D01*
%TO.C,SW3*%
X89754761Y-107063333D02*
X89802380Y-106920476D01*
X89802380Y-106682380D01*
X89754761Y-106587142D01*
X89707142Y-106539523D01*
X89611904Y-106491904D01*
X89516666Y-106491904D01*
X89421428Y-106539523D01*
X89373809Y-106587142D01*
X89326190Y-106682380D01*
X89278571Y-106872857D01*
X89230952Y-106968095D01*
X89183333Y-107015714D01*
X89088095Y-107063333D01*
X88992857Y-107063333D01*
X88897619Y-107015714D01*
X88850000Y-106968095D01*
X88802380Y-106872857D01*
X88802380Y-106634761D01*
X88850000Y-106491904D01*
X88802380Y-106158571D02*
X89802380Y-105920476D01*
X89088095Y-105730000D01*
X89802380Y-105539523D01*
X88802380Y-105301428D01*
X88802380Y-105015714D02*
X88802380Y-104396666D01*
X89183333Y-104730000D01*
X89183333Y-104587142D01*
X89230952Y-104491904D01*
X89278571Y-104444285D01*
X89373809Y-104396666D01*
X89611904Y-104396666D01*
X89707142Y-104444285D01*
X89754761Y-104491904D01*
X89802380Y-104587142D01*
X89802380Y-104872857D01*
X89754761Y-104968095D01*
X89707142Y-105015714D01*
%TO.C,SW2*%
X90054761Y-95893333D02*
X90102380Y-95750476D01*
X90102380Y-95512380D01*
X90054761Y-95417142D01*
X90007142Y-95369523D01*
X89911904Y-95321904D01*
X89816666Y-95321904D01*
X89721428Y-95369523D01*
X89673809Y-95417142D01*
X89626190Y-95512380D01*
X89578571Y-95702857D01*
X89530952Y-95798095D01*
X89483333Y-95845714D01*
X89388095Y-95893333D01*
X89292857Y-95893333D01*
X89197619Y-95845714D01*
X89150000Y-95798095D01*
X89102380Y-95702857D01*
X89102380Y-95464761D01*
X89150000Y-95321904D01*
X89102380Y-94988571D02*
X90102380Y-94750476D01*
X89388095Y-94560000D01*
X90102380Y-94369523D01*
X89102380Y-94131428D01*
X89197619Y-93798095D02*
X89150000Y-93750476D01*
X89102380Y-93655238D01*
X89102380Y-93417142D01*
X89150000Y-93321904D01*
X89197619Y-93274285D01*
X89292857Y-93226666D01*
X89388095Y-93226666D01*
X89530952Y-93274285D01*
X90102380Y-93845714D01*
X90102380Y-93226666D01*
%TO.C,SW1*%
X89854761Y-84763333D02*
X89902380Y-84620476D01*
X89902380Y-84382380D01*
X89854761Y-84287142D01*
X89807142Y-84239523D01*
X89711904Y-84191904D01*
X89616666Y-84191904D01*
X89521428Y-84239523D01*
X89473809Y-84287142D01*
X89426190Y-84382380D01*
X89378571Y-84572857D01*
X89330952Y-84668095D01*
X89283333Y-84715714D01*
X89188095Y-84763333D01*
X89092857Y-84763333D01*
X88997619Y-84715714D01*
X88950000Y-84668095D01*
X88902380Y-84572857D01*
X88902380Y-84334761D01*
X88950000Y-84191904D01*
X88902380Y-83858571D02*
X89902380Y-83620476D01*
X89188095Y-83430000D01*
X89902380Y-83239523D01*
X88902380Y-83001428D01*
X89902380Y-82096666D02*
X89902380Y-82668095D01*
X89902380Y-82382380D02*
X88902380Y-82382380D01*
X89045238Y-82477619D01*
X89140476Y-82572857D01*
X89188095Y-82668095D01*
%TO.C,R8-1*%
X100338095Y-143552380D02*
X100004761Y-143076190D01*
X99766666Y-143552380D02*
X99766666Y-142552380D01*
X100147619Y-142552380D01*
X100242857Y-142600000D01*
X100290476Y-142647619D01*
X100338095Y-142742857D01*
X100338095Y-142885714D01*
X100290476Y-142980952D01*
X100242857Y-143028571D01*
X100147619Y-143076190D01*
X99766666Y-143076190D01*
X100909523Y-142980952D02*
X100814285Y-142933333D01*
X100766666Y-142885714D01*
X100719047Y-142790476D01*
X100719047Y-142742857D01*
X100766666Y-142647619D01*
X100814285Y-142600000D01*
X100909523Y-142552380D01*
X101100000Y-142552380D01*
X101195238Y-142600000D01*
X101242857Y-142647619D01*
X101290476Y-142742857D01*
X101290476Y-142790476D01*
X101242857Y-142885714D01*
X101195238Y-142933333D01*
X101100000Y-142980952D01*
X100909523Y-142980952D01*
X100814285Y-143028571D01*
X100766666Y-143076190D01*
X100719047Y-143171428D01*
X100719047Y-143361904D01*
X100766666Y-143457142D01*
X100814285Y-143504761D01*
X100909523Y-143552380D01*
X101100000Y-143552380D01*
X101195238Y-143504761D01*
X101242857Y-143457142D01*
X101290476Y-143361904D01*
X101290476Y-143171428D01*
X101242857Y-143076190D01*
X101195238Y-143028571D01*
X101100000Y-142980952D01*
X101719047Y-143171428D02*
X102480952Y-143171428D01*
X103480952Y-143552380D02*
X102909523Y-143552380D01*
X103195238Y-143552380D02*
X103195238Y-142552380D01*
X103100000Y-142695238D01*
X103004761Y-142790476D01*
X102909523Y-142838095D01*
%TO.C,R13*%
X116457142Y-88802380D02*
X116123809Y-88326190D01*
X115885714Y-88802380D02*
X115885714Y-87802380D01*
X116266666Y-87802380D01*
X116361904Y-87850000D01*
X116409523Y-87897619D01*
X116457142Y-87992857D01*
X116457142Y-88135714D01*
X116409523Y-88230952D01*
X116361904Y-88278571D01*
X116266666Y-88326190D01*
X115885714Y-88326190D01*
X117409523Y-88802380D02*
X116838095Y-88802380D01*
X117123809Y-88802380D02*
X117123809Y-87802380D01*
X117028571Y-87945238D01*
X116933333Y-88040476D01*
X116838095Y-88088095D01*
X117742857Y-87802380D02*
X118361904Y-87802380D01*
X118028571Y-88183333D01*
X118171428Y-88183333D01*
X118266666Y-88230952D01*
X118314285Y-88278571D01*
X118361904Y-88373809D01*
X118361904Y-88611904D01*
X118314285Y-88707142D01*
X118266666Y-88754761D01*
X118171428Y-88802380D01*
X117885714Y-88802380D01*
X117790476Y-88754761D01*
X117742857Y-88707142D01*
%TO.C,R11*%
X126207142Y-74802380D02*
X125873809Y-74326190D01*
X125635714Y-74802380D02*
X125635714Y-73802380D01*
X126016666Y-73802380D01*
X126111904Y-73850000D01*
X126159523Y-73897619D01*
X126207142Y-73992857D01*
X126207142Y-74135714D01*
X126159523Y-74230952D01*
X126111904Y-74278571D01*
X126016666Y-74326190D01*
X125635714Y-74326190D01*
X127159523Y-74802380D02*
X126588095Y-74802380D01*
X126873809Y-74802380D02*
X126873809Y-73802380D01*
X126778571Y-73945238D01*
X126683333Y-74040476D01*
X126588095Y-74088095D01*
X128111904Y-74802380D02*
X127540476Y-74802380D01*
X127826190Y-74802380D02*
X127826190Y-73802380D01*
X127730952Y-73945238D01*
X127635714Y-74040476D01*
X127540476Y-74088095D01*
%TO.C,R9*%
X127952380Y-142016666D02*
X127476190Y-142350000D01*
X127952380Y-142588095D02*
X126952380Y-142588095D01*
X126952380Y-142207142D01*
X127000000Y-142111904D01*
X127047619Y-142064285D01*
X127142857Y-142016666D01*
X127285714Y-142016666D01*
X127380952Y-142064285D01*
X127428571Y-142111904D01*
X127476190Y-142207142D01*
X127476190Y-142588095D01*
X127952380Y-141540476D02*
X127952380Y-141350000D01*
X127904761Y-141254761D01*
X127857142Y-141207142D01*
X127714285Y-141111904D01*
X127523809Y-141064285D01*
X127142857Y-141064285D01*
X127047619Y-141111904D01*
X127000000Y-141159523D01*
X126952380Y-141254761D01*
X126952380Y-141445238D01*
X127000000Y-141540476D01*
X127047619Y-141588095D01*
X127142857Y-141635714D01*
X127380952Y-141635714D01*
X127476190Y-141588095D01*
X127523809Y-141540476D01*
X127571428Y-141445238D01*
X127571428Y-141254761D01*
X127523809Y-141159523D01*
X127476190Y-141111904D01*
X127380952Y-141064285D01*
%TO.C,R5*%
X112702380Y-96516666D02*
X112226190Y-96850000D01*
X112702380Y-97088095D02*
X111702380Y-97088095D01*
X111702380Y-96707142D01*
X111750000Y-96611904D01*
X111797619Y-96564285D01*
X111892857Y-96516666D01*
X112035714Y-96516666D01*
X112130952Y-96564285D01*
X112178571Y-96611904D01*
X112226190Y-96707142D01*
X112226190Y-97088095D01*
X111702380Y-95611904D02*
X111702380Y-96088095D01*
X112178571Y-96135714D01*
X112130952Y-96088095D01*
X112083333Y-95992857D01*
X112083333Y-95754761D01*
X112130952Y-95659523D01*
X112178571Y-95611904D01*
X112273809Y-95564285D01*
X112511904Y-95564285D01*
X112607142Y-95611904D01*
X112654761Y-95659523D01*
X112702380Y-95754761D01*
X112702380Y-95992857D01*
X112654761Y-96088095D01*
X112607142Y-96135714D01*
%TO.C,R4*%
X112702380Y-100316666D02*
X112226190Y-100650000D01*
X112702380Y-100888095D02*
X111702380Y-100888095D01*
X111702380Y-100507142D01*
X111750000Y-100411904D01*
X111797619Y-100364285D01*
X111892857Y-100316666D01*
X112035714Y-100316666D01*
X112130952Y-100364285D01*
X112178571Y-100411904D01*
X112226190Y-100507142D01*
X112226190Y-100888095D01*
X112035714Y-99459523D02*
X112702380Y-99459523D01*
X111654761Y-99697619D02*
X112369047Y-99935714D01*
X112369047Y-99316666D01*
%TO.C,R3*%
X96983333Y-104102380D02*
X96650000Y-103626190D01*
X96411904Y-104102380D02*
X96411904Y-103102380D01*
X96792857Y-103102380D01*
X96888095Y-103150000D01*
X96935714Y-103197619D01*
X96983333Y-103292857D01*
X96983333Y-103435714D01*
X96935714Y-103530952D01*
X96888095Y-103578571D01*
X96792857Y-103626190D01*
X96411904Y-103626190D01*
X97316666Y-103102380D02*
X97935714Y-103102380D01*
X97602380Y-103483333D01*
X97745238Y-103483333D01*
X97840476Y-103530952D01*
X97888095Y-103578571D01*
X97935714Y-103673809D01*
X97935714Y-103911904D01*
X97888095Y-104007142D01*
X97840476Y-104054761D01*
X97745238Y-104102380D01*
X97459523Y-104102380D01*
X97364285Y-104054761D01*
X97316666Y-104007142D01*
%TO.C,R2*%
X129483333Y-78502380D02*
X129150000Y-78026190D01*
X128911904Y-78502380D02*
X128911904Y-77502380D01*
X129292857Y-77502380D01*
X129388095Y-77550000D01*
X129435714Y-77597619D01*
X129483333Y-77692857D01*
X129483333Y-77835714D01*
X129435714Y-77930952D01*
X129388095Y-77978571D01*
X129292857Y-78026190D01*
X128911904Y-78026190D01*
X129864285Y-77597619D02*
X129911904Y-77550000D01*
X130007142Y-77502380D01*
X130245238Y-77502380D01*
X130340476Y-77550000D01*
X130388095Y-77597619D01*
X130435714Y-77692857D01*
X130435714Y-77788095D01*
X130388095Y-77930952D01*
X129816666Y-78502380D01*
X130435714Y-78502380D01*
%TO.C,R1*%
X129583333Y-80502380D02*
X129250000Y-80026190D01*
X129011904Y-80502380D02*
X129011904Y-79502380D01*
X129392857Y-79502380D01*
X129488095Y-79550000D01*
X129535714Y-79597619D01*
X129583333Y-79692857D01*
X129583333Y-79835714D01*
X129535714Y-79930952D01*
X129488095Y-79978571D01*
X129392857Y-80026190D01*
X129011904Y-80026190D01*
X130535714Y-80502380D02*
X129964285Y-80502380D01*
X130250000Y-80502380D02*
X130250000Y-79502380D01*
X130154761Y-79645238D01*
X130059523Y-79740476D01*
X129964285Y-79788095D01*
%TO.C,Q1*%
X106554761Y-104597619D02*
X106459523Y-104550000D01*
X106364285Y-104454761D01*
X106221428Y-104311904D01*
X106126190Y-104264285D01*
X106030952Y-104264285D01*
X106078571Y-104502380D02*
X105983333Y-104454761D01*
X105888095Y-104359523D01*
X105840476Y-104169047D01*
X105840476Y-103835714D01*
X105888095Y-103645238D01*
X105983333Y-103550000D01*
X106078571Y-103502380D01*
X106269047Y-103502380D01*
X106364285Y-103550000D01*
X106459523Y-103645238D01*
X106507142Y-103835714D01*
X106507142Y-104169047D01*
X106459523Y-104359523D01*
X106364285Y-104454761D01*
X106269047Y-104502380D01*
X106078571Y-104502380D01*
X107459523Y-104502380D02*
X106888095Y-104502380D01*
X107173809Y-104502380D02*
X107173809Y-103502380D01*
X107078571Y-103645238D01*
X106983333Y-103740476D01*
X106888095Y-103788095D01*
%TO.C,L1*%
X104683333Y-131802380D02*
X104207142Y-131802380D01*
X104207142Y-130802380D01*
X105540476Y-131802380D02*
X104969047Y-131802380D01*
X105254761Y-131802380D02*
X105254761Y-130802380D01*
X105159523Y-130945238D01*
X105064285Y-131040476D01*
X104969047Y-131088095D01*
%TO.C,J6*%
X98066666Y-154152380D02*
X98066666Y-154866666D01*
X98019047Y-155009523D01*
X97923809Y-155104761D01*
X97780952Y-155152380D01*
X97685714Y-155152380D01*
X98971428Y-154152380D02*
X98780952Y-154152380D01*
X98685714Y-154200000D01*
X98638095Y-154247619D01*
X98542857Y-154390476D01*
X98495238Y-154580952D01*
X98495238Y-154961904D01*
X98542857Y-155057142D01*
X98590476Y-155104761D01*
X98685714Y-155152380D01*
X98876190Y-155152380D01*
X98971428Y-155104761D01*
X99019047Y-155057142D01*
X99066666Y-154961904D01*
X99066666Y-154723809D01*
X99019047Y-154628571D01*
X98971428Y-154580952D01*
X98876190Y-154533333D01*
X98685714Y-154533333D01*
X98590476Y-154580952D01*
X98542857Y-154628571D01*
X98495238Y-154723809D01*
%TO.C,J5*%
X129002380Y-157533333D02*
X129716666Y-157533333D01*
X129859523Y-157580952D01*
X129954761Y-157676190D01*
X130002380Y-157819047D01*
X130002380Y-157914285D01*
X129002380Y-156580952D02*
X129002380Y-157057142D01*
X129478571Y-157104761D01*
X129430952Y-157057142D01*
X129383333Y-156961904D01*
X129383333Y-156723809D01*
X129430952Y-156628571D01*
X129478571Y-156580952D01*
X129573809Y-156533333D01*
X129811904Y-156533333D01*
X129907142Y-156580952D01*
X129954761Y-156628571D01*
X130002380Y-156723809D01*
X130002380Y-156961904D01*
X129954761Y-157057142D01*
X129907142Y-157104761D01*
%TO.C,J1*%
X132716666Y-121802380D02*
X132716666Y-122516666D01*
X132669047Y-122659523D01*
X132573809Y-122754761D01*
X132430952Y-122802380D01*
X132335714Y-122802380D01*
X133716666Y-122802380D02*
X133145238Y-122802380D01*
X133430952Y-122802380D02*
X133430952Y-121802380D01*
X133335714Y-121945238D01*
X133240476Y-122040476D01*
X133145238Y-122088095D01*
%TO.C,D6*%
X129811904Y-73177380D02*
X129811904Y-72177380D01*
X130050000Y-72177380D01*
X130192857Y-72225000D01*
X130288095Y-72320238D01*
X130335714Y-72415476D01*
X130383333Y-72605952D01*
X130383333Y-72748809D01*
X130335714Y-72939285D01*
X130288095Y-73034523D01*
X130192857Y-73129761D01*
X130050000Y-73177380D01*
X129811904Y-73177380D01*
X131240476Y-72177380D02*
X131050000Y-72177380D01*
X130954761Y-72225000D01*
X130907142Y-72272619D01*
X130811904Y-72415476D01*
X130764285Y-72605952D01*
X130764285Y-72986904D01*
X130811904Y-73082142D01*
X130859523Y-73129761D01*
X130954761Y-73177380D01*
X131145238Y-73177380D01*
X131240476Y-73129761D01*
X131288095Y-73082142D01*
X131335714Y-72986904D01*
X131335714Y-72748809D01*
X131288095Y-72653571D01*
X131240476Y-72605952D01*
X131145238Y-72558333D01*
X130954761Y-72558333D01*
X130859523Y-72605952D01*
X130811904Y-72653571D01*
X130764285Y-72748809D01*
%TO.C,D3*%
X114102380Y-135888095D02*
X113102380Y-135888095D01*
X113102380Y-135650000D01*
X113150000Y-135507142D01*
X113245238Y-135411904D01*
X113340476Y-135364285D01*
X113530952Y-135316666D01*
X113673809Y-135316666D01*
X113864285Y-135364285D01*
X113959523Y-135411904D01*
X114054761Y-135507142D01*
X114102380Y-135650000D01*
X114102380Y-135888095D01*
X113102380Y-134983333D02*
X113102380Y-134364285D01*
X113483333Y-134697619D01*
X113483333Y-134554761D01*
X113530952Y-134459523D01*
X113578571Y-134411904D01*
X113673809Y-134364285D01*
X113911904Y-134364285D01*
X114007142Y-134411904D01*
X114054761Y-134459523D01*
X114102380Y-134554761D01*
X114102380Y-134840476D01*
X114054761Y-134935714D01*
X114007142Y-134983333D01*
%TO.C,D2*%
X131461904Y-78202380D02*
X131461904Y-77202380D01*
X131700000Y-77202380D01*
X131842857Y-77250000D01*
X131938095Y-77345238D01*
X131985714Y-77440476D01*
X132033333Y-77630952D01*
X132033333Y-77773809D01*
X131985714Y-77964285D01*
X131938095Y-78059523D01*
X131842857Y-78154761D01*
X131700000Y-78202380D01*
X131461904Y-78202380D01*
X132414285Y-77297619D02*
X132461904Y-77250000D01*
X132557142Y-77202380D01*
X132795238Y-77202380D01*
X132890476Y-77250000D01*
X132938095Y-77297619D01*
X132985714Y-77392857D01*
X132985714Y-77488095D01*
X132938095Y-77630952D01*
X132366666Y-78202380D01*
X132985714Y-78202380D01*
%TO.C,D1*%
X133361904Y-78202380D02*
X133361904Y-77202380D01*
X133600000Y-77202380D01*
X133742857Y-77250000D01*
X133838095Y-77345238D01*
X133885714Y-77440476D01*
X133933333Y-77630952D01*
X133933333Y-77773809D01*
X133885714Y-77964285D01*
X133838095Y-78059523D01*
X133742857Y-78154761D01*
X133600000Y-78202380D01*
X133361904Y-78202380D01*
X134885714Y-78202380D02*
X134314285Y-78202380D01*
X134600000Y-78202380D02*
X134600000Y-77202380D01*
X134504761Y-77345238D01*
X134409523Y-77440476D01*
X134314285Y-77488095D01*
%TO.C,C20*%
X95294642Y-141907142D02*
X95247023Y-141954761D01*
X95104166Y-142002380D01*
X95008928Y-142002380D01*
X94866071Y-141954761D01*
X94770833Y-141859523D01*
X94723214Y-141764285D01*
X94675595Y-141573809D01*
X94675595Y-141430952D01*
X94723214Y-141240476D01*
X94770833Y-141145238D01*
X94866071Y-141050000D01*
X95008928Y-141002380D01*
X95104166Y-141002380D01*
X95247023Y-141050000D01*
X95294642Y-141097619D01*
X95675595Y-141097619D02*
X95723214Y-141050000D01*
X95818452Y-141002380D01*
X96056547Y-141002380D01*
X96151785Y-141050000D01*
X96199404Y-141097619D01*
X96247023Y-141192857D01*
X96247023Y-141288095D01*
X96199404Y-141430952D01*
X95627976Y-142002380D01*
X96247023Y-142002380D01*
X96866071Y-141002380D02*
X96961309Y-141002380D01*
X97056547Y-141050000D01*
X97104166Y-141097619D01*
X97151785Y-141192857D01*
X97199404Y-141383333D01*
X97199404Y-141621428D01*
X97151785Y-141811904D01*
X97104166Y-141907142D01*
X97056547Y-141954761D01*
X96961309Y-142002380D01*
X96866071Y-142002380D01*
X96770833Y-141954761D01*
X96723214Y-141907142D01*
X96675595Y-141811904D01*
X96627976Y-141621428D01*
X96627976Y-141383333D01*
X96675595Y-141192857D01*
X96723214Y-141097619D01*
X96770833Y-141050000D01*
X96866071Y-141002380D01*
%TO.C,C19*%
X95307142Y-153007142D02*
X95259523Y-153054761D01*
X95116666Y-153102380D01*
X95021428Y-153102380D01*
X94878571Y-153054761D01*
X94783333Y-152959523D01*
X94735714Y-152864285D01*
X94688095Y-152673809D01*
X94688095Y-152530952D01*
X94735714Y-152340476D01*
X94783333Y-152245238D01*
X94878571Y-152150000D01*
X95021428Y-152102380D01*
X95116666Y-152102380D01*
X95259523Y-152150000D01*
X95307142Y-152197619D01*
X96259523Y-153102380D02*
X95688095Y-153102380D01*
X95973809Y-153102380D02*
X95973809Y-152102380D01*
X95878571Y-152245238D01*
X95783333Y-152340476D01*
X95688095Y-152388095D01*
X96735714Y-153102380D02*
X96926190Y-153102380D01*
X97021428Y-153054761D01*
X97069047Y-153007142D01*
X97164285Y-152864285D01*
X97211904Y-152673809D01*
X97211904Y-152292857D01*
X97164285Y-152197619D01*
X97116666Y-152150000D01*
X97021428Y-152102380D01*
X96830952Y-152102380D01*
X96735714Y-152150000D01*
X96688095Y-152197619D01*
X96640476Y-152292857D01*
X96640476Y-152530952D01*
X96688095Y-152626190D01*
X96735714Y-152673809D01*
X96830952Y-152721428D01*
X97021428Y-152721428D01*
X97116666Y-152673809D01*
X97164285Y-152626190D01*
X97211904Y-152530952D01*
%TO.C,C18*%
X127307142Y-148707142D02*
X127259523Y-148754761D01*
X127116666Y-148802380D01*
X127021428Y-148802380D01*
X126878571Y-148754761D01*
X126783333Y-148659523D01*
X126735714Y-148564285D01*
X126688095Y-148373809D01*
X126688095Y-148230952D01*
X126735714Y-148040476D01*
X126783333Y-147945238D01*
X126878571Y-147850000D01*
X127021428Y-147802380D01*
X127116666Y-147802380D01*
X127259523Y-147850000D01*
X127307142Y-147897619D01*
X128259523Y-148802380D02*
X127688095Y-148802380D01*
X127973809Y-148802380D02*
X127973809Y-147802380D01*
X127878571Y-147945238D01*
X127783333Y-148040476D01*
X127688095Y-148088095D01*
X128830952Y-148230952D02*
X128735714Y-148183333D01*
X128688095Y-148135714D01*
X128640476Y-148040476D01*
X128640476Y-147992857D01*
X128688095Y-147897619D01*
X128735714Y-147850000D01*
X128830952Y-147802380D01*
X129021428Y-147802380D01*
X129116666Y-147850000D01*
X129164285Y-147897619D01*
X129211904Y-147992857D01*
X129211904Y-148040476D01*
X129164285Y-148135714D01*
X129116666Y-148183333D01*
X129021428Y-148230952D01*
X128830952Y-148230952D01*
X128735714Y-148278571D01*
X128688095Y-148326190D01*
X128640476Y-148421428D01*
X128640476Y-148611904D01*
X128688095Y-148707142D01*
X128735714Y-148754761D01*
X128830952Y-148802380D01*
X129021428Y-148802380D01*
X129116666Y-148754761D01*
X129164285Y-148707142D01*
X129211904Y-148611904D01*
X129211904Y-148421428D01*
X129164285Y-148326190D01*
X129116666Y-148278571D01*
X129021428Y-148230952D01*
%TO.C,C16*%
X106707142Y-81592857D02*
X106754761Y-81640476D01*
X106802380Y-81783333D01*
X106802380Y-81878571D01*
X106754761Y-82021428D01*
X106659523Y-82116666D01*
X106564285Y-82164285D01*
X106373809Y-82211904D01*
X106230952Y-82211904D01*
X106040476Y-82164285D01*
X105945238Y-82116666D01*
X105850000Y-82021428D01*
X105802380Y-81878571D01*
X105802380Y-81783333D01*
X105850000Y-81640476D01*
X105897619Y-81592857D01*
X106802380Y-80640476D02*
X106802380Y-81211904D01*
X106802380Y-80926190D02*
X105802380Y-80926190D01*
X105945238Y-81021428D01*
X106040476Y-81116666D01*
X106088095Y-81211904D01*
X105802380Y-79783333D02*
X105802380Y-79973809D01*
X105850000Y-80069047D01*
X105897619Y-80116666D01*
X106040476Y-80211904D01*
X106230952Y-80259523D01*
X106611904Y-80259523D01*
X106707142Y-80211904D01*
X106754761Y-80164285D01*
X106802380Y-80069047D01*
X106802380Y-79878571D01*
X106754761Y-79783333D01*
X106707142Y-79735714D01*
X106611904Y-79688095D01*
X106373809Y-79688095D01*
X106278571Y-79735714D01*
X106230952Y-79783333D01*
X106183333Y-79878571D01*
X106183333Y-80069047D01*
X106230952Y-80164285D01*
X106278571Y-80211904D01*
X106373809Y-80259523D01*
%TO.C,C15*%
X112507142Y-88007142D02*
X112459523Y-88054761D01*
X112316666Y-88102380D01*
X112221428Y-88102380D01*
X112078571Y-88054761D01*
X111983333Y-87959523D01*
X111935714Y-87864285D01*
X111888095Y-87673809D01*
X111888095Y-87530952D01*
X111935714Y-87340476D01*
X111983333Y-87245238D01*
X112078571Y-87150000D01*
X112221428Y-87102380D01*
X112316666Y-87102380D01*
X112459523Y-87150000D01*
X112507142Y-87197619D01*
X113459523Y-88102380D02*
X112888095Y-88102380D01*
X113173809Y-88102380D02*
X113173809Y-87102380D01*
X113078571Y-87245238D01*
X112983333Y-87340476D01*
X112888095Y-87388095D01*
X114364285Y-87102380D02*
X113888095Y-87102380D01*
X113840476Y-87578571D01*
X113888095Y-87530952D01*
X113983333Y-87483333D01*
X114221428Y-87483333D01*
X114316666Y-87530952D01*
X114364285Y-87578571D01*
X114411904Y-87673809D01*
X114411904Y-87911904D01*
X114364285Y-88007142D01*
X114316666Y-88054761D01*
X114221428Y-88102380D01*
X113983333Y-88102380D01*
X113888095Y-88054761D01*
X113840476Y-88007142D01*
%TO.C,C14*%
X104007142Y-103742857D02*
X104054761Y-103790476D01*
X104102380Y-103933333D01*
X104102380Y-104028571D01*
X104054761Y-104171428D01*
X103959523Y-104266666D01*
X103864285Y-104314285D01*
X103673809Y-104361904D01*
X103530952Y-104361904D01*
X103340476Y-104314285D01*
X103245238Y-104266666D01*
X103150000Y-104171428D01*
X103102380Y-104028571D01*
X103102380Y-103933333D01*
X103150000Y-103790476D01*
X103197619Y-103742857D01*
X104102380Y-102790476D02*
X104102380Y-103361904D01*
X104102380Y-103076190D02*
X103102380Y-103076190D01*
X103245238Y-103171428D01*
X103340476Y-103266666D01*
X103388095Y-103361904D01*
X103435714Y-101933333D02*
X104102380Y-101933333D01*
X103054761Y-102171428D02*
X103769047Y-102409523D01*
X103769047Y-101790476D01*
%TO.C,C13*%
X121957142Y-142992857D02*
X122004761Y-143040476D01*
X122052380Y-143183333D01*
X122052380Y-143278571D01*
X122004761Y-143421428D01*
X121909523Y-143516666D01*
X121814285Y-143564285D01*
X121623809Y-143611904D01*
X121480952Y-143611904D01*
X121290476Y-143564285D01*
X121195238Y-143516666D01*
X121100000Y-143421428D01*
X121052380Y-143278571D01*
X121052380Y-143183333D01*
X121100000Y-143040476D01*
X121147619Y-142992857D01*
X122052380Y-142040476D02*
X122052380Y-142611904D01*
X122052380Y-142326190D02*
X121052380Y-142326190D01*
X121195238Y-142421428D01*
X121290476Y-142516666D01*
X121338095Y-142611904D01*
X121052380Y-141707142D02*
X121052380Y-141088095D01*
X121433333Y-141421428D01*
X121433333Y-141278571D01*
X121480952Y-141183333D01*
X121528571Y-141135714D01*
X121623809Y-141088095D01*
X121861904Y-141088095D01*
X121957142Y-141135714D01*
X122004761Y-141183333D01*
X122052380Y-141278571D01*
X122052380Y-141564285D01*
X122004761Y-141659523D01*
X121957142Y-141707142D01*
%TO.C,C12*%
X117457142Y-142992857D02*
X117504761Y-143040476D01*
X117552380Y-143183333D01*
X117552380Y-143278571D01*
X117504761Y-143421428D01*
X117409523Y-143516666D01*
X117314285Y-143564285D01*
X117123809Y-143611904D01*
X116980952Y-143611904D01*
X116790476Y-143564285D01*
X116695238Y-143516666D01*
X116600000Y-143421428D01*
X116552380Y-143278571D01*
X116552380Y-143183333D01*
X116600000Y-143040476D01*
X116647619Y-142992857D01*
X117552380Y-142040476D02*
X117552380Y-142611904D01*
X117552380Y-142326190D02*
X116552380Y-142326190D01*
X116695238Y-142421428D01*
X116790476Y-142516666D01*
X116838095Y-142611904D01*
X116647619Y-141659523D02*
X116600000Y-141611904D01*
X116552380Y-141516666D01*
X116552380Y-141278571D01*
X116600000Y-141183333D01*
X116647619Y-141135714D01*
X116742857Y-141088095D01*
X116838095Y-141088095D01*
X116980952Y-141135714D01*
X117552380Y-141707142D01*
X117552380Y-141088095D01*
%TO.C,C11*%
X121907142Y-135530357D02*
X121954761Y-135577976D01*
X122002380Y-135720833D01*
X122002380Y-135816071D01*
X121954761Y-135958928D01*
X121859523Y-136054166D01*
X121764285Y-136101785D01*
X121573809Y-136149404D01*
X121430952Y-136149404D01*
X121240476Y-136101785D01*
X121145238Y-136054166D01*
X121050000Y-135958928D01*
X121002380Y-135816071D01*
X121002380Y-135720833D01*
X121050000Y-135577976D01*
X121097619Y-135530357D01*
X122002380Y-134577976D02*
X122002380Y-135149404D01*
X122002380Y-134863690D02*
X121002380Y-134863690D01*
X121145238Y-134958928D01*
X121240476Y-135054166D01*
X121288095Y-135149404D01*
X122002380Y-133625595D02*
X122002380Y-134197023D01*
X122002380Y-133911309D02*
X121002380Y-133911309D01*
X121145238Y-134006547D01*
X121240476Y-134101785D01*
X121288095Y-134197023D01*
%TO.C,C10*%
X107207142Y-142992857D02*
X107254761Y-143040476D01*
X107302380Y-143183333D01*
X107302380Y-143278571D01*
X107254761Y-143421428D01*
X107159523Y-143516666D01*
X107064285Y-143564285D01*
X106873809Y-143611904D01*
X106730952Y-143611904D01*
X106540476Y-143564285D01*
X106445238Y-143516666D01*
X106350000Y-143421428D01*
X106302380Y-143278571D01*
X106302380Y-143183333D01*
X106350000Y-143040476D01*
X106397619Y-142992857D01*
X107302380Y-142040476D02*
X107302380Y-142611904D01*
X107302380Y-142326190D02*
X106302380Y-142326190D01*
X106445238Y-142421428D01*
X106540476Y-142516666D01*
X106588095Y-142611904D01*
X106302380Y-141421428D02*
X106302380Y-141326190D01*
X106350000Y-141230952D01*
X106397619Y-141183333D01*
X106492857Y-141135714D01*
X106683333Y-141088095D01*
X106921428Y-141088095D01*
X107111904Y-141135714D01*
X107207142Y-141183333D01*
X107254761Y-141230952D01*
X107302380Y-141326190D01*
X107302380Y-141421428D01*
X107254761Y-141516666D01*
X107207142Y-141564285D01*
X107111904Y-141611904D01*
X106921428Y-141659523D01*
X106683333Y-141659523D01*
X106492857Y-141611904D01*
X106397619Y-141564285D01*
X106350000Y-141516666D01*
X106302380Y-141421428D01*
%TO.C,C9*%
X105207142Y-143016666D02*
X105254761Y-143064285D01*
X105302380Y-143207142D01*
X105302380Y-143302380D01*
X105254761Y-143445238D01*
X105159523Y-143540476D01*
X105064285Y-143588095D01*
X104873809Y-143635714D01*
X104730952Y-143635714D01*
X104540476Y-143588095D01*
X104445238Y-143540476D01*
X104350000Y-143445238D01*
X104302380Y-143302380D01*
X104302380Y-143207142D01*
X104350000Y-143064285D01*
X104397619Y-143016666D01*
X105302380Y-142540476D02*
X105302380Y-142350000D01*
X105254761Y-142254761D01*
X105207142Y-142207142D01*
X105064285Y-142111904D01*
X104873809Y-142064285D01*
X104492857Y-142064285D01*
X104397619Y-142111904D01*
X104350000Y-142159523D01*
X104302380Y-142254761D01*
X104302380Y-142445238D01*
X104350000Y-142540476D01*
X104397619Y-142588095D01*
X104492857Y-142635714D01*
X104730952Y-142635714D01*
X104826190Y-142588095D01*
X104873809Y-142540476D01*
X104921428Y-142445238D01*
X104921428Y-142254761D01*
X104873809Y-142159523D01*
X104826190Y-142111904D01*
X104730952Y-142064285D01*
%TO.C,C8*%
X123957142Y-143016666D02*
X124004761Y-143064285D01*
X124052380Y-143207142D01*
X124052380Y-143302380D01*
X124004761Y-143445238D01*
X123909523Y-143540476D01*
X123814285Y-143588095D01*
X123623809Y-143635714D01*
X123480952Y-143635714D01*
X123290476Y-143588095D01*
X123195238Y-143540476D01*
X123100000Y-143445238D01*
X123052380Y-143302380D01*
X123052380Y-143207142D01*
X123100000Y-143064285D01*
X123147619Y-143016666D01*
X123480952Y-142445238D02*
X123433333Y-142540476D01*
X123385714Y-142588095D01*
X123290476Y-142635714D01*
X123242857Y-142635714D01*
X123147619Y-142588095D01*
X123100000Y-142540476D01*
X123052380Y-142445238D01*
X123052380Y-142254761D01*
X123100000Y-142159523D01*
X123147619Y-142111904D01*
X123242857Y-142064285D01*
X123290476Y-142064285D01*
X123385714Y-142111904D01*
X123433333Y-142159523D01*
X123480952Y-142254761D01*
X123480952Y-142445238D01*
X123528571Y-142540476D01*
X123576190Y-142588095D01*
X123671428Y-142635714D01*
X123861904Y-142635714D01*
X123957142Y-142588095D01*
X124004761Y-142540476D01*
X124052380Y-142445238D01*
X124052380Y-142254761D01*
X124004761Y-142159523D01*
X123957142Y-142111904D01*
X123861904Y-142064285D01*
X123671428Y-142064285D01*
X123576190Y-142111904D01*
X123528571Y-142159523D01*
X123480952Y-142254761D01*
%TO.C,C7*%
X119707142Y-143016666D02*
X119754761Y-143064285D01*
X119802380Y-143207142D01*
X119802380Y-143302380D01*
X119754761Y-143445238D01*
X119659523Y-143540476D01*
X119564285Y-143588095D01*
X119373809Y-143635714D01*
X119230952Y-143635714D01*
X119040476Y-143588095D01*
X118945238Y-143540476D01*
X118850000Y-143445238D01*
X118802380Y-143302380D01*
X118802380Y-143207142D01*
X118850000Y-143064285D01*
X118897619Y-143016666D01*
X118802380Y-142683333D02*
X118802380Y-142016666D01*
X119802380Y-142445238D01*
%TO.C,C6*%
X115207142Y-143016666D02*
X115254761Y-143064285D01*
X115302380Y-143207142D01*
X115302380Y-143302380D01*
X115254761Y-143445238D01*
X115159523Y-143540476D01*
X115064285Y-143588095D01*
X114873809Y-143635714D01*
X114730952Y-143635714D01*
X114540476Y-143588095D01*
X114445238Y-143540476D01*
X114350000Y-143445238D01*
X114302380Y-143302380D01*
X114302380Y-143207142D01*
X114350000Y-143064285D01*
X114397619Y-143016666D01*
X114302380Y-142159523D02*
X114302380Y-142350000D01*
X114350000Y-142445238D01*
X114397619Y-142492857D01*
X114540476Y-142588095D01*
X114730952Y-142635714D01*
X115111904Y-142635714D01*
X115207142Y-142588095D01*
X115254761Y-142540476D01*
X115302380Y-142445238D01*
X115302380Y-142254761D01*
X115254761Y-142159523D01*
X115207142Y-142111904D01*
X115111904Y-142064285D01*
X114873809Y-142064285D01*
X114778571Y-142111904D01*
X114730952Y-142159523D01*
X114683333Y-142254761D01*
X114683333Y-142445238D01*
X114730952Y-142540476D01*
X114778571Y-142588095D01*
X114873809Y-142635714D01*
%TO.C,C5*%
X113207142Y-143016666D02*
X113254761Y-143064285D01*
X113302380Y-143207142D01*
X113302380Y-143302380D01*
X113254761Y-143445238D01*
X113159523Y-143540476D01*
X113064285Y-143588095D01*
X112873809Y-143635714D01*
X112730952Y-143635714D01*
X112540476Y-143588095D01*
X112445238Y-143540476D01*
X112350000Y-143445238D01*
X112302380Y-143302380D01*
X112302380Y-143207142D01*
X112350000Y-143064285D01*
X112397619Y-143016666D01*
X112302380Y-142111904D02*
X112302380Y-142588095D01*
X112778571Y-142635714D01*
X112730952Y-142588095D01*
X112683333Y-142492857D01*
X112683333Y-142254761D01*
X112730952Y-142159523D01*
X112778571Y-142111904D01*
X112873809Y-142064285D01*
X113111904Y-142064285D01*
X113207142Y-142111904D01*
X113254761Y-142159523D01*
X113302380Y-142254761D01*
X113302380Y-142492857D01*
X113254761Y-142588095D01*
X113207142Y-142635714D01*
%TO.C,C3*%
X109207142Y-143016666D02*
X109254761Y-143064285D01*
X109302380Y-143207142D01*
X109302380Y-143302380D01*
X109254761Y-143445238D01*
X109159523Y-143540476D01*
X109064285Y-143588095D01*
X108873809Y-143635714D01*
X108730952Y-143635714D01*
X108540476Y-143588095D01*
X108445238Y-143540476D01*
X108350000Y-143445238D01*
X108302380Y-143302380D01*
X108302380Y-143207142D01*
X108350000Y-143064285D01*
X108397619Y-143016666D01*
X108302380Y-142683333D02*
X108302380Y-142064285D01*
X108683333Y-142397619D01*
X108683333Y-142254761D01*
X108730952Y-142159523D01*
X108778571Y-142111904D01*
X108873809Y-142064285D01*
X109111904Y-142064285D01*
X109207142Y-142111904D01*
X109254761Y-142159523D01*
X109302380Y-142254761D01*
X109302380Y-142540476D01*
X109254761Y-142635714D01*
X109207142Y-142683333D01*
%TO.C,C2*%
X100957142Y-81016666D02*
X101004761Y-81064285D01*
X101052380Y-81207142D01*
X101052380Y-81302380D01*
X101004761Y-81445238D01*
X100909523Y-81540476D01*
X100814285Y-81588095D01*
X100623809Y-81635714D01*
X100480952Y-81635714D01*
X100290476Y-81588095D01*
X100195238Y-81540476D01*
X100100000Y-81445238D01*
X100052380Y-81302380D01*
X100052380Y-81207142D01*
X100100000Y-81064285D01*
X100147619Y-81016666D01*
X100147619Y-80635714D02*
X100100000Y-80588095D01*
X100052380Y-80492857D01*
X100052380Y-80254761D01*
X100100000Y-80159523D01*
X100147619Y-80111904D01*
X100242857Y-80064285D01*
X100338095Y-80064285D01*
X100480952Y-80111904D01*
X101052380Y-80683333D01*
X101052380Y-80064285D01*
%TO.C,C1*%
X99807142Y-106916666D02*
X99854761Y-106964285D01*
X99902380Y-107107142D01*
X99902380Y-107202380D01*
X99854761Y-107345238D01*
X99759523Y-107440476D01*
X99664285Y-107488095D01*
X99473809Y-107535714D01*
X99330952Y-107535714D01*
X99140476Y-107488095D01*
X99045238Y-107440476D01*
X98950000Y-107345238D01*
X98902380Y-107202380D01*
X98902380Y-107107142D01*
X98950000Y-106964285D01*
X98997619Y-106916666D01*
X99902380Y-105964285D02*
X99902380Y-106535714D01*
X99902380Y-106250000D02*
X98902380Y-106250000D01*
X99045238Y-106345238D01*
X99140476Y-106440476D01*
X99188095Y-106535714D01*
%TD*%
M02*
