%TF.GenerationSoftware,KiCad,Pcbnew,(5.1.9)-1*%
%TF.CreationDate,2021-03-13T07:57:55+01:00*%
%TF.ProjectId,HB-RC-12-EP-2,48422d52-432d-4313-922d-45502d322e6b,rev?*%
%TF.SameCoordinates,Original*%
%TF.FileFunction,Copper,L2,Bot*%
%TF.FilePolarity,Positive*%
%FSLAX46Y46*%
G04 Gerber Fmt 4.6, Leading zero omitted, Abs format (unit mm)*
G04 Created by KiCad (PCBNEW (5.1.9)-1) date 2021-03-13 07:57:55*
%MOMM*%
%LPD*%
G01*
G04 APERTURE LIST*
%TA.AperFunction,ComponentPad*%
%ADD10O,1.700000X1.700000*%
%TD*%
%TA.AperFunction,ComponentPad*%
%ADD11R,1.700000X1.700000*%
%TD*%
%TA.AperFunction,ComponentPad*%
%ADD12O,1.350000X1.350000*%
%TD*%
%TA.AperFunction,ComponentPad*%
%ADD13R,1.350000X1.350000*%
%TD*%
%TA.AperFunction,ComponentPad*%
%ADD14R,0.850000X0.850000*%
%TD*%
%TA.AperFunction,ViaPad*%
%ADD15C,0.600000*%
%TD*%
%TA.AperFunction,Conductor*%
%ADD16C,0.250000*%
%TD*%
%TA.AperFunction,Conductor*%
%ADD17C,0.254000*%
%TD*%
%TA.AperFunction,Conductor*%
%ADD18C,0.100000*%
%TD*%
G04 APERTURE END LIST*
D10*
%TO.P,FTDI1,6*%
%TO.N,/DTR*%
X128650000Y-99150000D03*
%TO.P,FTDI1,5*%
%TO.N,/TXD*%
X128650000Y-96610000D03*
%TO.P,FTDI1,4*%
%TO.N,/RXD*%
X128650000Y-94070000D03*
D11*
%TO.P,FTDI1,3*%
%TO.N,+3V0*%
X128650000Y-91530000D03*
D10*
%TO.P,FTDI1,2*%
%TO.N,GND*%
X128650000Y-88990000D03*
%TO.P,FTDI1,1*%
X128650000Y-86450000D03*
%TD*%
D12*
%TO.P,K1,8*%
%TO.N,/GX_BSY*%
X104350000Y-75750000D03*
%TO.P,K1,7*%
%TO.N,/GX_RST*%
X106350000Y-75750000D03*
%TO.P,K1,6*%
%TO.N,/GX_DC*%
X108350000Y-75750000D03*
%TO.P,K1,5*%
%TO.N,/GX_CS*%
X110350000Y-75750000D03*
%TO.P,K1,4*%
%TO.N,/SCK*%
X112350000Y-75750000D03*
%TO.P,K1,3*%
%TO.N,/MOSI*%
X114350000Y-75750000D03*
%TO.P,K1,2*%
%TO.N,GND*%
X116350000Y-75750000D03*
D13*
%TO.P,K1,1*%
%TO.N,+3V0*%
X118350000Y-75750000D03*
%TD*%
D10*
%TO.P,J6,2*%
%TO.N,GND*%
X100890000Y-157100000D03*
D11*
%TO.P,J6,1*%
%TO.N,+BATT*%
X98350000Y-157100000D03*
%TD*%
D10*
%TO.P,J5,2*%
%TO.N,GND*%
X133790000Y-157250000D03*
D11*
%TO.P,J5,1*%
%TO.N,Net-(J5-Pad1)*%
X131250000Y-157250000D03*
%TD*%
D14*
%TO.P,J1,1*%
%TO.N,Net-(J1-Pad1)*%
X130950000Y-122350000D03*
%TD*%
D10*
%TO.P,ISP1,6*%
%TO.N,GND*%
X98090000Y-118810000D03*
%TO.P,ISP1,5*%
%TO.N,/RESET*%
X95550000Y-118810000D03*
%TO.P,ISP1,4*%
%TO.N,/MOSI*%
X98090000Y-121350000D03*
%TO.P,ISP1,3*%
%TO.N,/SCK*%
X95550000Y-121350000D03*
D11*
%TO.P,ISP1,2*%
%TO.N,+3V0*%
X98090000Y-123890000D03*
D10*
%TO.P,ISP1,1*%
%TO.N,/MISO*%
X95550000Y-123890000D03*
%TD*%
D15*
%TO.N,GND*%
X91100000Y-157850000D03*
X124850000Y-151850000D03*
X89350000Y-88850000D03*
X89600000Y-99850000D03*
X89350000Y-110850000D03*
X89600000Y-122100000D03*
X89600000Y-133100000D03*
X89600000Y-144350000D03*
X133350000Y-122350000D03*
X133100000Y-111100000D03*
X133100000Y-100100000D03*
X134350000Y-79350000D03*
X103600000Y-78100000D03*
X98300000Y-142450000D03*
X105850000Y-143050000D03*
X109850000Y-143050000D03*
X113850000Y-143050000D03*
X117050000Y-143050000D03*
X119350000Y-143050000D03*
X122550000Y-143050000D03*
X101550000Y-143050000D03*
X114600000Y-151600000D03*
X108600000Y-151600000D03*
X104350000Y-85600000D03*
X108600000Y-89100000D03*
X104350000Y-94100000D03*
X132200000Y-72850000D03*
X130600000Y-140850000D03*
X115600000Y-89350000D03*
X103550000Y-102150000D03*
X93500000Y-92150000D03*
X105550000Y-105900000D03*
X133100000Y-144600000D03*
%TO.N,Net-(D6-Pad2)*%
X131200000Y-146600000D03*
X124850000Y-84720000D03*
%TO.N,/DTR*%
X122950000Y-99150000D03*
X120350000Y-102450000D03*
%TO.N,+3V0*%
X125450000Y-91550000D03*
X111850000Y-114350000D03*
X114100000Y-153850000D03*
X99150000Y-102100000D03*
X102100000Y-98600000D03*
X128600000Y-153100000D03*
X93850000Y-147850000D03*
X112100000Y-87850000D03*
X119600000Y-86600000D03*
X122350000Y-86850000D03*
X102150000Y-134050000D03*
%TO.N,/MOSI*%
X112350000Y-118350000D03*
X113350000Y-153100000D03*
X100350000Y-93850000D03*
%TO.N,/SCK*%
X111600000Y-120350000D03*
X112600000Y-152350000D03*
X101850000Y-93850000D03*
X98100000Y-116600000D03*
%TO.N,/GX_CS*%
X111850000Y-153100000D03*
%TO.N,/GX_DC*%
X111100000Y-152350000D03*
%TO.N,/GX_RST*%
X110350000Y-153100000D03*
%TO.N,/GX_BSY*%
X109600000Y-152350000D03*
%TO.N,+BATT*%
X125850000Y-146600000D03*
%TO.N,/A6*%
X114600000Y-91100000D03*
X108600000Y-91100000D03*
X102350000Y-88350000D03*
%TO.N,/A7*%
X105350000Y-93350000D03*
X105350000Y-88600000D03*
%TO.N,/LED2*%
X100100000Y-90600000D03*
X124600000Y-78100000D03*
%TO.N,/LED*%
X109350000Y-96350000D03*
X123100000Y-86100000D03*
%TO.N,/TXD*%
X124600000Y-96610000D03*
X108800000Y-96950000D03*
%TO.N,/RXD*%
X124550000Y-94050000D03*
X110500000Y-97600000D03*
%TO.N,/RESET*%
X99850000Y-105612500D03*
X96200000Y-108700000D03*
%TO.N,/MISO*%
X97100000Y-116600000D03*
%TO.N,Net-(R10-Pad1)*%
X130100000Y-82350000D03*
X125850000Y-74600000D03*
%TD*%
D16*
%TO.N,GND*%
X134350000Y-75000000D02*
X132200000Y-72850000D01*
X134350000Y-79350000D02*
X134350000Y-75000000D01*
%TO.N,Net-(D6-Pad2)*%
X131225001Y-124060003D02*
X131225001Y-146574999D01*
X126475001Y-119310003D02*
X131225001Y-124060003D01*
X131225001Y-146574999D02*
X131200000Y-146600000D01*
X126475001Y-86345001D02*
X126475001Y-119310003D01*
X124850000Y-84720000D02*
X126475001Y-86345001D01*
%TO.N,/DTR*%
X120350000Y-101750000D02*
X122950000Y-99150000D01*
X120350000Y-102450000D02*
X120350000Y-101750000D01*
%TO.N,+3V0*%
X127850000Y-153850000D02*
X128600000Y-153100000D01*
X114100000Y-153850000D02*
X127850000Y-153850000D01*
X99850000Y-153850000D02*
X93850000Y-147850000D01*
X114100000Y-153850000D02*
X99850000Y-153850000D01*
X99150000Y-101550000D02*
X102100000Y-98600000D01*
X99150000Y-102100000D02*
X99150000Y-101550000D01*
X118350000Y-87850000D02*
X119600000Y-86600000D01*
X112100000Y-87850000D02*
X118350000Y-87850000D01*
X113680000Y-112520000D02*
X111850000Y-114350000D01*
X125450000Y-89950000D02*
X122350000Y-86850000D01*
X125450000Y-91750000D02*
X125450000Y-89950000D01*
X111850000Y-114350000D02*
X125450000Y-100750000D01*
X102150000Y-134050000D02*
X102150000Y-127950000D01*
X102150000Y-127950000D02*
X98090000Y-123890000D01*
X125450000Y-100750000D02*
X125450000Y-91750000D01*
%TO.N,/MOSI*%
X112899989Y-74299989D02*
X114350000Y-75750000D01*
X103683598Y-74299990D02*
X112899989Y-74299989D01*
X100725002Y-77258586D02*
X103683598Y-74299990D01*
X113050010Y-119050010D02*
X112350000Y-118350000D01*
X113050010Y-151875008D02*
X113050010Y-119050010D01*
X113350000Y-152174998D02*
X113050010Y-151875008D01*
X113350000Y-153100000D02*
X113350000Y-152174998D01*
X100350000Y-93850000D02*
X100725001Y-93474999D01*
X100725001Y-93474999D02*
X100725002Y-77258586D01*
%TO.N,/SCK*%
X111600000Y-143238588D02*
X112600000Y-144238588D01*
X112600000Y-144238588D02*
X112600000Y-152350000D01*
X111600000Y-120350000D02*
X111600000Y-143238588D01*
X111349999Y-74749999D02*
X112350000Y-75750000D01*
X103869999Y-74749999D02*
X111349999Y-74749999D01*
X101175011Y-77444987D02*
X103869999Y-74749999D01*
X101175011Y-93175011D02*
X101175011Y-77444987D01*
X101850000Y-93850000D02*
X101175011Y-93175011D01*
X98100000Y-116600000D02*
X96914999Y-117785001D01*
X96914999Y-117785001D02*
X96914999Y-119985001D01*
X96914999Y-119985001D02*
X95550000Y-121350000D01*
%TO.N,/GX_CS*%
X111850000Y-144124998D02*
X111850000Y-153100000D01*
X109964999Y-142239997D02*
X111850000Y-144124998D01*
X109964999Y-109964997D02*
X109964999Y-142239997D01*
X107875009Y-107875009D02*
X109964999Y-109964997D01*
X107875009Y-78224991D02*
X107875009Y-107875009D01*
X110350000Y-75750000D02*
X107875009Y-78224991D01*
%TO.N,/GX_DC*%
X107424999Y-76675001D02*
X108350000Y-75750000D01*
X107424999Y-141550001D02*
X107424999Y-76675001D01*
X111100000Y-145225002D02*
X107424999Y-141550001D01*
X111100000Y-152350000D02*
X111100000Y-145225002D01*
%TO.N,/GX_RST*%
X110350000Y-145111412D02*
X110350000Y-153100000D01*
X106974989Y-77329583D02*
X106974990Y-141736402D01*
X106350000Y-76704594D02*
X106974989Y-77329583D01*
X106974990Y-141736402D02*
X110350000Y-145111412D01*
X106350000Y-75750000D02*
X106350000Y-76704594D01*
%TO.N,/GX_BSY*%
X104350000Y-75750000D02*
X106524981Y-77924981D01*
X106524981Y-77924981D02*
X106524981Y-142024981D01*
X109600000Y-152350000D02*
X109600000Y-145100000D01*
X106524981Y-142024981D02*
X109600000Y-145100000D01*
%TO.N,/A6*%
X108600000Y-91100000D02*
X114600000Y-91100000D01*
%TO.N,/A7*%
X105350000Y-88600000D02*
X105350000Y-93350000D01*
%TO.N,/LED2*%
X124600000Y-78100000D02*
X120350000Y-73850000D01*
X100100000Y-77247178D02*
X100100000Y-90600000D01*
X103497197Y-73849981D02*
X100100000Y-77247178D01*
X116599981Y-73849981D02*
X103497197Y-73849981D01*
X116600000Y-73850000D02*
X116599981Y-73849981D01*
X120350000Y-73850000D02*
X116600000Y-73850000D01*
%TO.N,/LED*%
X121600000Y-86100000D02*
X123100000Y-86100000D01*
X111350000Y-96350000D02*
X121600000Y-86100000D01*
X109350000Y-96350000D02*
X111350000Y-96350000D01*
%TO.N,/TXD*%
X108800000Y-96950000D02*
X110075001Y-98225001D01*
X122984999Y-98225001D02*
X124600000Y-96610000D01*
X110075001Y-98225001D02*
X122984999Y-98225001D01*
%TO.N,/RXD*%
X121000000Y-97600000D02*
X124550000Y-94050000D01*
X110500000Y-97600000D02*
X121000000Y-97600000D01*
%TO.N,/RESET*%
X99850000Y-105612500D02*
X99287500Y-105612500D01*
X99287500Y-105612500D02*
X96200000Y-108700000D01*
%TO.N,/MISO*%
X94374999Y-118245999D02*
X94374999Y-122714999D01*
X96020998Y-116600000D02*
X94374999Y-118245999D01*
X94374999Y-122714999D02*
X95550000Y-123890000D01*
X97100000Y-116600000D02*
X96020998Y-116600000D01*
%TO.N,Net-(R10-Pad1)*%
X125850000Y-74600000D02*
X127100000Y-74600000D01*
X130100000Y-77600000D02*
X130100000Y-82350000D01*
X127100000Y-74600000D02*
X130100000Y-77600000D01*
%TD*%
D17*
%TO.N,GND*%
X93164837Y-70017023D02*
X92927412Y-70372355D01*
X92763870Y-70767179D01*
X92680497Y-71186323D01*
X92680497Y-71613677D01*
X92763870Y-72032821D01*
X92927412Y-72427645D01*
X93164837Y-72782977D01*
X93467023Y-73085163D01*
X93822355Y-73322588D01*
X94217179Y-73486130D01*
X94636323Y-73569503D01*
X95063677Y-73569503D01*
X95482821Y-73486130D01*
X95877645Y-73322588D01*
X96232977Y-73085163D01*
X96535163Y-72782977D01*
X96772588Y-72427645D01*
X96936130Y-72032821D01*
X97019503Y-71613677D01*
X97019503Y-71186323D01*
X96936130Y-70767179D01*
X96772588Y-70372355D01*
X96535163Y-70017023D01*
X96528140Y-70010000D01*
X126621860Y-70010000D01*
X126614837Y-70017023D01*
X126377412Y-70372355D01*
X126213870Y-70767179D01*
X126130497Y-71186323D01*
X126130497Y-71613677D01*
X126213870Y-72032821D01*
X126377412Y-72427645D01*
X126614837Y-72782977D01*
X126917023Y-73085163D01*
X127272355Y-73322588D01*
X127667179Y-73486130D01*
X128086323Y-73569503D01*
X128513677Y-73569503D01*
X128932821Y-73486130D01*
X129327645Y-73322588D01*
X129682977Y-73085163D01*
X129985163Y-72782977D01*
X130222588Y-72427645D01*
X130386130Y-72032821D01*
X130469503Y-71613677D01*
X130469503Y-71186323D01*
X130386130Y-70767179D01*
X130222588Y-70372355D01*
X129985163Y-70017023D01*
X129978140Y-70010000D01*
X132370922Y-70010000D01*
X132234219Y-70101342D01*
X132001342Y-70334219D01*
X131818372Y-70608053D01*
X131692340Y-70912322D01*
X131628090Y-71235331D01*
X131628090Y-71564669D01*
X131692340Y-71887678D01*
X131818372Y-72191947D01*
X132001342Y-72465781D01*
X132234219Y-72698658D01*
X132508053Y-72881628D01*
X132812322Y-73007660D01*
X133135331Y-73071910D01*
X133464669Y-73071910D01*
X133787678Y-73007660D01*
X134091947Y-72881628D01*
X134365781Y-72698658D01*
X134598658Y-72465781D01*
X134690000Y-72329078D01*
X134690001Y-149920923D01*
X134598658Y-149784219D01*
X134365781Y-149551342D01*
X134091947Y-149368372D01*
X133787678Y-149242340D01*
X133464669Y-149178090D01*
X133135331Y-149178090D01*
X132812322Y-149242340D01*
X132508053Y-149368372D01*
X132234219Y-149551342D01*
X132001342Y-149784219D01*
X131818372Y-150058053D01*
X131692340Y-150362322D01*
X131628090Y-150685331D01*
X131628090Y-151014669D01*
X131692340Y-151337678D01*
X131818372Y-151641947D01*
X132001342Y-151915781D01*
X132234219Y-152148658D01*
X132508053Y-152331628D01*
X132812322Y-152457660D01*
X133135331Y-152521910D01*
X133464669Y-152521910D01*
X133787678Y-152457660D01*
X134091947Y-152331628D01*
X134365781Y-152148658D01*
X134598658Y-151915781D01*
X134690001Y-151779077D01*
X134690001Y-156077623D01*
X134556920Y-155978359D01*
X134294099Y-155853175D01*
X134146890Y-155808524D01*
X133917000Y-155929845D01*
X133917000Y-157123000D01*
X133937000Y-157123000D01*
X133937000Y-157377000D01*
X133917000Y-157377000D01*
X133917000Y-157397000D01*
X133663000Y-157397000D01*
X133663000Y-157377000D01*
X133643000Y-157377000D01*
X133643000Y-157123000D01*
X133663000Y-157123000D01*
X133663000Y-155929845D01*
X133433110Y-155808524D01*
X133285901Y-155853175D01*
X133023080Y-155978359D01*
X132789731Y-156152412D01*
X132713966Y-156236466D01*
X132689502Y-156155820D01*
X132630537Y-156045506D01*
X132551185Y-155948815D01*
X132454494Y-155869463D01*
X132344180Y-155810498D01*
X132224482Y-155774188D01*
X132100000Y-155761928D01*
X130400000Y-155761928D01*
X130275518Y-155774188D01*
X130155820Y-155810498D01*
X130045506Y-155869463D01*
X129977520Y-155925258D01*
X129936130Y-155717179D01*
X129772588Y-155322355D01*
X129535163Y-154967023D01*
X129232977Y-154664837D01*
X128877645Y-154427412D01*
X128502698Y-154272103D01*
X128751649Y-154023153D01*
X128872729Y-153999068D01*
X129042889Y-153928586D01*
X129196028Y-153826262D01*
X129326262Y-153696028D01*
X129428586Y-153542889D01*
X129499068Y-153372729D01*
X129535000Y-153192089D01*
X129535000Y-153007911D01*
X129499068Y-152827271D01*
X129428586Y-152657111D01*
X129326262Y-152503972D01*
X129196028Y-152373738D01*
X129042889Y-152271414D01*
X128872729Y-152200932D01*
X128692089Y-152165000D01*
X128507911Y-152165000D01*
X128327271Y-152200932D01*
X128157111Y-152271414D01*
X128003972Y-152373738D01*
X127873738Y-152503972D01*
X127771414Y-152657111D01*
X127700932Y-152827271D01*
X127676847Y-152948351D01*
X127535199Y-153090000D01*
X114645535Y-153090000D01*
X114542889Y-153021414D01*
X114372729Y-152950932D01*
X114269585Y-152930415D01*
X114249068Y-152827271D01*
X114178586Y-152657111D01*
X114110000Y-152554465D01*
X114110000Y-152212321D01*
X114113676Y-152174998D01*
X114110000Y-152137675D01*
X114110000Y-152137665D01*
X114099003Y-152026012D01*
X114055546Y-151882751D01*
X113984974Y-151750722D01*
X113890001Y-151634997D01*
X113860997Y-151611194D01*
X113810010Y-151560207D01*
X113810010Y-146507911D01*
X124915000Y-146507911D01*
X124915000Y-146692089D01*
X124950932Y-146872729D01*
X125021414Y-147042889D01*
X125123738Y-147196028D01*
X125253972Y-147326262D01*
X125407111Y-147428586D01*
X125577271Y-147499068D01*
X125757911Y-147535000D01*
X125942089Y-147535000D01*
X126122729Y-147499068D01*
X126292889Y-147428586D01*
X126446028Y-147326262D01*
X126576262Y-147196028D01*
X126678586Y-147042889D01*
X126749068Y-146872729D01*
X126785000Y-146692089D01*
X126785000Y-146507911D01*
X126749068Y-146327271D01*
X126678586Y-146157111D01*
X126576262Y-146003972D01*
X126446028Y-145873738D01*
X126292889Y-145771414D01*
X126122729Y-145700932D01*
X125942089Y-145665000D01*
X125757911Y-145665000D01*
X125577271Y-145700932D01*
X125407111Y-145771414D01*
X125253972Y-145873738D01*
X125123738Y-146003972D01*
X125021414Y-146157111D01*
X124950932Y-146327271D01*
X124915000Y-146507911D01*
X113810010Y-146507911D01*
X113810010Y-119087335D01*
X113813686Y-119050010D01*
X113810010Y-119012685D01*
X113810010Y-119012677D01*
X113799013Y-118901024D01*
X113755556Y-118757763D01*
X113684984Y-118625734D01*
X113590011Y-118510009D01*
X113561012Y-118486211D01*
X113273153Y-118198351D01*
X113249068Y-118077271D01*
X113178586Y-117907111D01*
X113076262Y-117753972D01*
X112946028Y-117623738D01*
X112792889Y-117521414D01*
X112622729Y-117450932D01*
X112442089Y-117415000D01*
X112257911Y-117415000D01*
X112077271Y-117450932D01*
X111907111Y-117521414D01*
X111753972Y-117623738D01*
X111623738Y-117753972D01*
X111521414Y-117907111D01*
X111450932Y-118077271D01*
X111415000Y-118257911D01*
X111415000Y-118442089D01*
X111450932Y-118622729D01*
X111521414Y-118792889D01*
X111623738Y-118946028D01*
X111753972Y-119076262D01*
X111907111Y-119178586D01*
X112077271Y-119249068D01*
X112198351Y-119273153D01*
X112290011Y-119364813D01*
X112290011Y-119717721D01*
X112196028Y-119623738D01*
X112042889Y-119521414D01*
X111872729Y-119450932D01*
X111692089Y-119415000D01*
X111507911Y-119415000D01*
X111327271Y-119450932D01*
X111157111Y-119521414D01*
X111003972Y-119623738D01*
X110873738Y-119753972D01*
X110771414Y-119907111D01*
X110724999Y-120019168D01*
X110724999Y-110002321D01*
X110728675Y-109964996D01*
X110724999Y-109927673D01*
X110724999Y-109927664D01*
X110714002Y-109816011D01*
X110670545Y-109672750D01*
X110599974Y-109540722D01*
X110599973Y-109540720D01*
X110528798Y-109453994D01*
X110505000Y-109424996D01*
X110476003Y-109401199D01*
X108635009Y-107560208D01*
X108635009Y-97870499D01*
X108648351Y-97873153D01*
X109511202Y-98736004D01*
X109535000Y-98765002D01*
X109650725Y-98859975D01*
X109782754Y-98930547D01*
X109926015Y-98974004D01*
X110037668Y-98985001D01*
X110037676Y-98985001D01*
X110075001Y-98988677D01*
X110112326Y-98985001D01*
X122029503Y-98985001D01*
X122026847Y-98998351D01*
X119838998Y-101186201D01*
X119810000Y-101209999D01*
X119786202Y-101238997D01*
X119786201Y-101238998D01*
X119715026Y-101325724D01*
X119644454Y-101457754D01*
X119629317Y-101507656D01*
X119600997Y-101601014D01*
X119590000Y-101712667D01*
X119590000Y-101712678D01*
X119586324Y-101750000D01*
X119590000Y-101787322D01*
X119590000Y-101904465D01*
X119521414Y-102007111D01*
X119450932Y-102177271D01*
X119415000Y-102357911D01*
X119415000Y-102542089D01*
X119450932Y-102722729D01*
X119521414Y-102892889D01*
X119623738Y-103046028D01*
X119753972Y-103176262D01*
X119907111Y-103278586D01*
X120077271Y-103349068D01*
X120257911Y-103385000D01*
X120442089Y-103385000D01*
X120622729Y-103349068D01*
X120792889Y-103278586D01*
X120946028Y-103176262D01*
X121076262Y-103046028D01*
X121178586Y-102892889D01*
X121249068Y-102722729D01*
X121285000Y-102542089D01*
X121285000Y-102357911D01*
X121249068Y-102177271D01*
X121178586Y-102007111D01*
X121174222Y-102000579D01*
X123101649Y-100073153D01*
X123222729Y-100049068D01*
X123392889Y-99978586D01*
X123546028Y-99876262D01*
X123676262Y-99746028D01*
X123778586Y-99592889D01*
X123849068Y-99422729D01*
X123885000Y-99242089D01*
X123885000Y-99057911D01*
X123849068Y-98877271D01*
X123778586Y-98707111D01*
X123698118Y-98586683D01*
X124690000Y-97594801D01*
X124690000Y-100435197D01*
X113169001Y-111956198D01*
X113168997Y-111956201D01*
X112180923Y-112944276D01*
X111698352Y-113426847D01*
X111577271Y-113450932D01*
X111407111Y-113521414D01*
X111253972Y-113623738D01*
X111123738Y-113753972D01*
X111021414Y-113907111D01*
X110950932Y-114077271D01*
X110915000Y-114257911D01*
X110915000Y-114442089D01*
X110950932Y-114622729D01*
X111021414Y-114792889D01*
X111123738Y-114946028D01*
X111253972Y-115076262D01*
X111407111Y-115178586D01*
X111577271Y-115249068D01*
X111757911Y-115285000D01*
X111942089Y-115285000D01*
X112122729Y-115249068D01*
X112292889Y-115178586D01*
X112446028Y-115076262D01*
X112576262Y-114946028D01*
X112678586Y-114792889D01*
X112749068Y-114622729D01*
X112773153Y-114501648D01*
X114243799Y-113031003D01*
X114243802Y-113030999D01*
X125715001Y-101559801D01*
X125715002Y-119272670D01*
X125711325Y-119310003D01*
X125715002Y-119347336D01*
X125725206Y-119450932D01*
X125725999Y-119458988D01*
X125769455Y-119602249D01*
X125840027Y-119734279D01*
X125911202Y-119821005D01*
X125935001Y-119850004D01*
X125963999Y-119873802D01*
X130465001Y-124374806D01*
X130465002Y-146017046D01*
X130371414Y-146157111D01*
X130300932Y-146327271D01*
X130265000Y-146507911D01*
X130265000Y-146692089D01*
X130300932Y-146872729D01*
X130371414Y-147042889D01*
X130473738Y-147196028D01*
X130603972Y-147326262D01*
X130757111Y-147428586D01*
X130927271Y-147499068D01*
X131107911Y-147535000D01*
X131292089Y-147535000D01*
X131472729Y-147499068D01*
X131642889Y-147428586D01*
X131796028Y-147326262D01*
X131926262Y-147196028D01*
X132028586Y-147042889D01*
X132099068Y-146872729D01*
X132135000Y-146692089D01*
X132135000Y-146507911D01*
X132099068Y-146327271D01*
X132028586Y-146157111D01*
X131985001Y-146091881D01*
X131985001Y-124097325D01*
X131988677Y-124060002D01*
X131985001Y-124022679D01*
X131985001Y-124022670D01*
X131974004Y-123911017D01*
X131930547Y-123767756D01*
X131859975Y-123635727D01*
X131846812Y-123619688D01*
X131788800Y-123548999D01*
X131788796Y-123548995D01*
X131765002Y-123520002D01*
X131736010Y-123496209D01*
X131607765Y-123367965D01*
X131619180Y-123364502D01*
X131729494Y-123305537D01*
X131826185Y-123226185D01*
X131905537Y-123129494D01*
X131964502Y-123019180D01*
X132000812Y-122899482D01*
X132013072Y-122775000D01*
X132013072Y-121925000D01*
X132000812Y-121800518D01*
X131964502Y-121680820D01*
X131905537Y-121570506D01*
X131826185Y-121473815D01*
X131729494Y-121394463D01*
X131619180Y-121335498D01*
X131499482Y-121299188D01*
X131375000Y-121286928D01*
X130525000Y-121286928D01*
X130400518Y-121299188D01*
X130280820Y-121335498D01*
X130170506Y-121394463D01*
X130073815Y-121473815D01*
X129994463Y-121570506D01*
X129935498Y-121680820D01*
X129932035Y-121692235D01*
X127235001Y-118995202D01*
X127235001Y-99614381D01*
X127334010Y-99853411D01*
X127496525Y-100096632D01*
X127703368Y-100303475D01*
X127946589Y-100465990D01*
X128216842Y-100577932D01*
X128503740Y-100635000D01*
X128796260Y-100635000D01*
X129083158Y-100577932D01*
X129353411Y-100465990D01*
X129596632Y-100303475D01*
X129803475Y-100096632D01*
X129965990Y-99853411D01*
X130077932Y-99583158D01*
X130135000Y-99296260D01*
X130135000Y-99003740D01*
X130077932Y-98716842D01*
X129965990Y-98446589D01*
X129803475Y-98203368D01*
X129596632Y-97996525D01*
X129422240Y-97880000D01*
X129596632Y-97763475D01*
X129803475Y-97556632D01*
X129965990Y-97313411D01*
X130077932Y-97043158D01*
X130135000Y-96756260D01*
X130135000Y-96463740D01*
X130077932Y-96176842D01*
X129965990Y-95906589D01*
X129803475Y-95663368D01*
X129596632Y-95456525D01*
X129422240Y-95340000D01*
X129596632Y-95223475D01*
X129803475Y-95016632D01*
X129965990Y-94773411D01*
X130077932Y-94503158D01*
X130135000Y-94216260D01*
X130135000Y-93923740D01*
X130077932Y-93636842D01*
X129965990Y-93366589D01*
X129803475Y-93123368D01*
X129671620Y-92991513D01*
X129744180Y-92969502D01*
X129854494Y-92910537D01*
X129951185Y-92831185D01*
X130030537Y-92734494D01*
X130089502Y-92624180D01*
X130125812Y-92504482D01*
X130138072Y-92380000D01*
X130138072Y-90680000D01*
X130125812Y-90555518D01*
X130089502Y-90435820D01*
X130030537Y-90325506D01*
X129951185Y-90228815D01*
X129854494Y-90149463D01*
X129744180Y-90090498D01*
X129663534Y-90066034D01*
X129747588Y-89990269D01*
X129921641Y-89756920D01*
X130046825Y-89494099D01*
X130091476Y-89346890D01*
X129970155Y-89117000D01*
X128777000Y-89117000D01*
X128777000Y-89137000D01*
X128523000Y-89137000D01*
X128523000Y-89117000D01*
X128503000Y-89117000D01*
X128503000Y-88863000D01*
X128523000Y-88863000D01*
X128523000Y-86577000D01*
X128777000Y-86577000D01*
X128777000Y-88863000D01*
X129970155Y-88863000D01*
X130091476Y-88633110D01*
X130046825Y-88485901D01*
X129921641Y-88223080D01*
X129747588Y-87989731D01*
X129531355Y-87794822D01*
X129405745Y-87720000D01*
X129531355Y-87645178D01*
X129747588Y-87450269D01*
X129921641Y-87216920D01*
X130046825Y-86954099D01*
X130091476Y-86806890D01*
X129970155Y-86577000D01*
X128777000Y-86577000D01*
X128523000Y-86577000D01*
X128503000Y-86577000D01*
X128503000Y-86323000D01*
X128523000Y-86323000D01*
X128523000Y-85129186D01*
X128777000Y-85129186D01*
X128777000Y-86323000D01*
X129970155Y-86323000D01*
X130091476Y-86093110D01*
X130046825Y-85945901D01*
X129921641Y-85683080D01*
X129747588Y-85449731D01*
X129531355Y-85254822D01*
X129281252Y-85105843D01*
X129006891Y-85008519D01*
X128777000Y-85129186D01*
X128523000Y-85129186D01*
X128293109Y-85008519D01*
X128018748Y-85105843D01*
X127768645Y-85254822D01*
X127552412Y-85449731D01*
X127378359Y-85683080D01*
X127253175Y-85945901D01*
X127208524Y-86093110D01*
X127329844Y-86322998D01*
X127236510Y-86322998D01*
X127235001Y-86307677D01*
X127235001Y-86307668D01*
X127224004Y-86196015D01*
X127180547Y-86052754D01*
X127109975Y-85920725D01*
X127052752Y-85850998D01*
X127038800Y-85833997D01*
X127038796Y-85833993D01*
X127015002Y-85805000D01*
X126986010Y-85781207D01*
X125773153Y-84568351D01*
X125749068Y-84447271D01*
X125678586Y-84277111D01*
X125576262Y-84123972D01*
X125446028Y-83993738D01*
X125292889Y-83891414D01*
X125122729Y-83820932D01*
X124942089Y-83785000D01*
X124757911Y-83785000D01*
X124577271Y-83820932D01*
X124407111Y-83891414D01*
X124253972Y-83993738D01*
X124123738Y-84123972D01*
X124021414Y-84277111D01*
X123950932Y-84447271D01*
X123915000Y-84627911D01*
X123915000Y-84812089D01*
X123950932Y-84992729D01*
X124021414Y-85162889D01*
X124123738Y-85316028D01*
X124253972Y-85446262D01*
X124407111Y-85548586D01*
X124577271Y-85619068D01*
X124698351Y-85643153D01*
X125715001Y-86659804D01*
X125715001Y-89140199D01*
X123514957Y-86940156D01*
X123542889Y-86928586D01*
X123696028Y-86826262D01*
X123826262Y-86696028D01*
X123928586Y-86542889D01*
X123999068Y-86372729D01*
X124035000Y-86192089D01*
X124035000Y-86007911D01*
X123999068Y-85827271D01*
X123928586Y-85657111D01*
X123826262Y-85503972D01*
X123696028Y-85373738D01*
X123542889Y-85271414D01*
X123372729Y-85200932D01*
X123192089Y-85165000D01*
X123007911Y-85165000D01*
X122827271Y-85200932D01*
X122657111Y-85271414D01*
X122554465Y-85340000D01*
X121637322Y-85340000D01*
X121599999Y-85336324D01*
X121562677Y-85340000D01*
X121562667Y-85340000D01*
X121451014Y-85350997D01*
X121307753Y-85394454D01*
X121175723Y-85465026D01*
X121128268Y-85503972D01*
X121059999Y-85559999D01*
X121036201Y-85588997D01*
X120440156Y-86185043D01*
X120428586Y-86157111D01*
X120326262Y-86003972D01*
X120196028Y-85873738D01*
X120042889Y-85771414D01*
X119872729Y-85700932D01*
X119692089Y-85665000D01*
X119507911Y-85665000D01*
X119327271Y-85700932D01*
X119157111Y-85771414D01*
X119003972Y-85873738D01*
X118873738Y-86003972D01*
X118771414Y-86157111D01*
X118700932Y-86327271D01*
X118676847Y-86448351D01*
X118035199Y-87090000D01*
X112645535Y-87090000D01*
X112542889Y-87021414D01*
X112372729Y-86950932D01*
X112192089Y-86915000D01*
X112007911Y-86915000D01*
X111827271Y-86950932D01*
X111657111Y-87021414D01*
X111503972Y-87123738D01*
X111373738Y-87253972D01*
X111271414Y-87407111D01*
X111200932Y-87577271D01*
X111165000Y-87757911D01*
X111165000Y-87942089D01*
X111200932Y-88122729D01*
X111271414Y-88292889D01*
X111373738Y-88446028D01*
X111503972Y-88576262D01*
X111657111Y-88678586D01*
X111827271Y-88749068D01*
X112007911Y-88785000D01*
X112192089Y-88785000D01*
X112372729Y-88749068D01*
X112542889Y-88678586D01*
X112645535Y-88610000D01*
X118015198Y-88610000D01*
X115535000Y-91090199D01*
X115535000Y-91007911D01*
X115499068Y-90827271D01*
X115428586Y-90657111D01*
X115326262Y-90503972D01*
X115196028Y-90373738D01*
X115042889Y-90271414D01*
X114872729Y-90200932D01*
X114692089Y-90165000D01*
X114507911Y-90165000D01*
X114327271Y-90200932D01*
X114157111Y-90271414D01*
X114054465Y-90340000D01*
X109145535Y-90340000D01*
X109042889Y-90271414D01*
X108872729Y-90200932D01*
X108692089Y-90165000D01*
X108635009Y-90165000D01*
X108635009Y-78539792D01*
X110132417Y-77042385D01*
X110220976Y-77060000D01*
X110479024Y-77060000D01*
X110732113Y-77009658D01*
X110970518Y-76910907D01*
X111185077Y-76767544D01*
X111350000Y-76602621D01*
X111514923Y-76767544D01*
X111729482Y-76910907D01*
X111967887Y-77009658D01*
X112220976Y-77060000D01*
X112479024Y-77060000D01*
X112732113Y-77009658D01*
X112970518Y-76910907D01*
X113185077Y-76767544D01*
X113350000Y-76602621D01*
X113514923Y-76767544D01*
X113729482Y-76910907D01*
X113967887Y-77009658D01*
X114220976Y-77060000D01*
X114479024Y-77060000D01*
X114732113Y-77009658D01*
X114970518Y-76910907D01*
X115185077Y-76767544D01*
X115356681Y-76595940D01*
X115478773Y-76728303D01*
X115686371Y-76879473D01*
X115919472Y-76987238D01*
X116020600Y-77017910D01*
X116223000Y-76894224D01*
X116223000Y-75877000D01*
X116203000Y-75877000D01*
X116203000Y-75623000D01*
X116223000Y-75623000D01*
X116223000Y-75603000D01*
X116477000Y-75603000D01*
X116477000Y-75623000D01*
X116497000Y-75623000D01*
X116497000Y-75877000D01*
X116477000Y-75877000D01*
X116477000Y-76894224D01*
X116679400Y-77017910D01*
X116780528Y-76987238D01*
X117013629Y-76879473D01*
X117146881Y-76782441D01*
X117223815Y-76876185D01*
X117320506Y-76955537D01*
X117430820Y-77014502D01*
X117550518Y-77050812D01*
X117675000Y-77063072D01*
X119025000Y-77063072D01*
X119149482Y-77050812D01*
X119269180Y-77014502D01*
X119379494Y-76955537D01*
X119476185Y-76876185D01*
X119555537Y-76779494D01*
X119614502Y-76669180D01*
X119650812Y-76549482D01*
X119663072Y-76425000D01*
X119663072Y-75075000D01*
X119650812Y-74950518D01*
X119614502Y-74830820D01*
X119555537Y-74720506D01*
X119476185Y-74623815D01*
X119459351Y-74610000D01*
X120035199Y-74610000D01*
X123676847Y-78251649D01*
X123700932Y-78372729D01*
X123771414Y-78542889D01*
X123873738Y-78696028D01*
X124003972Y-78826262D01*
X124157111Y-78928586D01*
X124327271Y-78999068D01*
X124507911Y-79035000D01*
X124692089Y-79035000D01*
X124872729Y-78999068D01*
X125042889Y-78928586D01*
X125196028Y-78826262D01*
X125326262Y-78696028D01*
X125428586Y-78542889D01*
X125499068Y-78372729D01*
X125535000Y-78192089D01*
X125535000Y-78007911D01*
X125499068Y-77827271D01*
X125428586Y-77657111D01*
X125326262Y-77503972D01*
X125196028Y-77373738D01*
X125042889Y-77271414D01*
X124872729Y-77200932D01*
X124751649Y-77176847D01*
X122082713Y-74507911D01*
X124915000Y-74507911D01*
X124915000Y-74692089D01*
X124950932Y-74872729D01*
X125021414Y-75042889D01*
X125123738Y-75196028D01*
X125253972Y-75326262D01*
X125407111Y-75428586D01*
X125577271Y-75499068D01*
X125757911Y-75535000D01*
X125942089Y-75535000D01*
X126122729Y-75499068D01*
X126292889Y-75428586D01*
X126395535Y-75360000D01*
X126785199Y-75360000D01*
X129340000Y-77914802D01*
X129340001Y-81804463D01*
X129271414Y-81907111D01*
X129200932Y-82077271D01*
X129165000Y-82257911D01*
X129165000Y-82442089D01*
X129200932Y-82622729D01*
X129271414Y-82792889D01*
X129373738Y-82946028D01*
X129503972Y-83076262D01*
X129657111Y-83178586D01*
X129827271Y-83249068D01*
X130007911Y-83285000D01*
X130192089Y-83285000D01*
X130372729Y-83249068D01*
X130542889Y-83178586D01*
X130696028Y-83076262D01*
X130826262Y-82946028D01*
X130928586Y-82792889D01*
X130999068Y-82622729D01*
X131035000Y-82442089D01*
X131035000Y-82257911D01*
X130999068Y-82077271D01*
X130928586Y-81907111D01*
X130860000Y-81804465D01*
X130860000Y-77637325D01*
X130863676Y-77600000D01*
X130860000Y-77562675D01*
X130860000Y-77562667D01*
X130849003Y-77451014D01*
X130805546Y-77307753D01*
X130734974Y-77175724D01*
X130640001Y-77059999D01*
X130611004Y-77036202D01*
X127663804Y-74089003D01*
X127640001Y-74059999D01*
X127524276Y-73965026D01*
X127392247Y-73894454D01*
X127248986Y-73850997D01*
X127137333Y-73840000D01*
X127137322Y-73840000D01*
X127100000Y-73836324D01*
X127062678Y-73840000D01*
X126395535Y-73840000D01*
X126292889Y-73771414D01*
X126122729Y-73700932D01*
X125942089Y-73665000D01*
X125757911Y-73665000D01*
X125577271Y-73700932D01*
X125407111Y-73771414D01*
X125253972Y-73873738D01*
X125123738Y-74003972D01*
X125021414Y-74157111D01*
X124950932Y-74327271D01*
X124915000Y-74507911D01*
X122082713Y-74507911D01*
X120913804Y-73339003D01*
X120890001Y-73309999D01*
X120774276Y-73215026D01*
X120642247Y-73144454D01*
X120498986Y-73100997D01*
X120387333Y-73090000D01*
X120387322Y-73090000D01*
X120350000Y-73086324D01*
X120312678Y-73090000D01*
X116637507Y-73090000D01*
X116637314Y-73089981D01*
X116637303Y-73089981D01*
X116599981Y-73086305D01*
X116562659Y-73089981D01*
X103534519Y-73089981D01*
X103497196Y-73086305D01*
X103459873Y-73089981D01*
X103459864Y-73089981D01*
X103348211Y-73100978D01*
X103204950Y-73144435D01*
X103072920Y-73215007D01*
X102989280Y-73283649D01*
X102957196Y-73309980D01*
X102933398Y-73338978D01*
X99589003Y-76683374D01*
X99559999Y-76707177D01*
X99510458Y-76767544D01*
X99465026Y-76822902D01*
X99394455Y-76954931D01*
X99394454Y-76954932D01*
X99350997Y-77098193D01*
X99340000Y-77209846D01*
X99340000Y-77209856D01*
X99336324Y-77247178D01*
X99340000Y-77284500D01*
X99340001Y-90054463D01*
X99271414Y-90157111D01*
X99200932Y-90327271D01*
X99165000Y-90507911D01*
X99165000Y-90692089D01*
X99200932Y-90872729D01*
X99271414Y-91042889D01*
X99373738Y-91196028D01*
X99503972Y-91326262D01*
X99657111Y-91428586D01*
X99827271Y-91499068D01*
X99965001Y-91526465D01*
X99965001Y-92997435D01*
X99907111Y-93021414D01*
X99753972Y-93123738D01*
X99623738Y-93253972D01*
X99521414Y-93407111D01*
X99450932Y-93577271D01*
X99415000Y-93757911D01*
X99415000Y-93942089D01*
X99450932Y-94122729D01*
X99521414Y-94292889D01*
X99623738Y-94446028D01*
X99753972Y-94576262D01*
X99907111Y-94678586D01*
X100077271Y-94749068D01*
X100257911Y-94785000D01*
X100442089Y-94785000D01*
X100622729Y-94749068D01*
X100792889Y-94678586D01*
X100946028Y-94576262D01*
X101076262Y-94446028D01*
X101100000Y-94410502D01*
X101123738Y-94446028D01*
X101253972Y-94576262D01*
X101407111Y-94678586D01*
X101577271Y-94749068D01*
X101757911Y-94785000D01*
X101942089Y-94785000D01*
X102122729Y-94749068D01*
X102292889Y-94678586D01*
X102446028Y-94576262D01*
X102576262Y-94446028D01*
X102678586Y-94292889D01*
X102749068Y-94122729D01*
X102785000Y-93942089D01*
X102785000Y-93757911D01*
X102749068Y-93577271D01*
X102678586Y-93407111D01*
X102576262Y-93253972D01*
X102446028Y-93123738D01*
X102292889Y-93021414D01*
X102122729Y-92950932D01*
X102001649Y-92926847D01*
X101935011Y-92860210D01*
X101935011Y-89190142D01*
X102077271Y-89249068D01*
X102257911Y-89285000D01*
X102442089Y-89285000D01*
X102622729Y-89249068D01*
X102792889Y-89178586D01*
X102946028Y-89076262D01*
X103076262Y-88946028D01*
X103178586Y-88792889D01*
X103249068Y-88622729D01*
X103285000Y-88442089D01*
X103285000Y-88257911D01*
X103249068Y-88077271D01*
X103178586Y-87907111D01*
X103076262Y-87753972D01*
X102946028Y-87623738D01*
X102792889Y-87521414D01*
X102622729Y-87450932D01*
X102442089Y-87415000D01*
X102257911Y-87415000D01*
X102077271Y-87450932D01*
X101935011Y-87509858D01*
X101935011Y-77759788D01*
X103243242Y-76451558D01*
X103332456Y-76585077D01*
X103514923Y-76767544D01*
X103729482Y-76910907D01*
X103967887Y-77009658D01*
X104220976Y-77060000D01*
X104479024Y-77060000D01*
X104567583Y-77042385D01*
X105764981Y-78239783D01*
X105764981Y-87759854D01*
X105622729Y-87700932D01*
X105442089Y-87665000D01*
X105257911Y-87665000D01*
X105077271Y-87700932D01*
X104907111Y-87771414D01*
X104753972Y-87873738D01*
X104623738Y-88003972D01*
X104521414Y-88157111D01*
X104450932Y-88327271D01*
X104415000Y-88507911D01*
X104415000Y-88692089D01*
X104450932Y-88872729D01*
X104521414Y-89042889D01*
X104590000Y-89145536D01*
X104590001Y-92804463D01*
X104521414Y-92907111D01*
X104450932Y-93077271D01*
X104415000Y-93257911D01*
X104415000Y-93442089D01*
X104450932Y-93622729D01*
X104521414Y-93792889D01*
X104623738Y-93946028D01*
X104753972Y-94076262D01*
X104907111Y-94178586D01*
X105077271Y-94249068D01*
X105257911Y-94285000D01*
X105442089Y-94285000D01*
X105622729Y-94249068D01*
X105764981Y-94190146D01*
X105764982Y-141987648D01*
X105761305Y-142024981D01*
X105775979Y-142173966D01*
X105819435Y-142317227D01*
X105890007Y-142449257D01*
X105961182Y-142535983D01*
X105984981Y-142564982D01*
X106013979Y-142588780D01*
X108840001Y-145414803D01*
X108840000Y-151804464D01*
X108771414Y-151907111D01*
X108700932Y-152077271D01*
X108665000Y-152257911D01*
X108665000Y-152442089D01*
X108700932Y-152622729D01*
X108771414Y-152792889D01*
X108873738Y-152946028D01*
X109003972Y-153076262D01*
X109024532Y-153090000D01*
X100164803Y-153090000D01*
X94773153Y-147698352D01*
X94749068Y-147577271D01*
X94678586Y-147407111D01*
X94576262Y-147253972D01*
X94446028Y-147123738D01*
X94292889Y-147021414D01*
X94122729Y-146950932D01*
X93942089Y-146915000D01*
X93757911Y-146915000D01*
X93577271Y-146950932D01*
X93407111Y-147021414D01*
X93253972Y-147123738D01*
X93123738Y-147253972D01*
X93021414Y-147407111D01*
X92950932Y-147577271D01*
X92915000Y-147757911D01*
X92915000Y-147942089D01*
X92950932Y-148122729D01*
X93021414Y-148292889D01*
X93123738Y-148446028D01*
X93253972Y-148576262D01*
X93407111Y-148678586D01*
X93577271Y-148749068D01*
X93698352Y-148773153D01*
X99286205Y-154361008D01*
X99309999Y-154390001D01*
X99338992Y-154413795D01*
X99338996Y-154413799D01*
X99355584Y-154427412D01*
X99425724Y-154484974D01*
X99557753Y-154555546D01*
X99701014Y-154599003D01*
X99812667Y-154610000D01*
X99812676Y-154610000D01*
X99849999Y-154613676D01*
X99887322Y-154610000D01*
X113554465Y-154610000D01*
X113657111Y-154678586D01*
X113827271Y-154749068D01*
X114007911Y-154785000D01*
X114192089Y-154785000D01*
X114372729Y-154749068D01*
X114542889Y-154678586D01*
X114645535Y-154610000D01*
X126549092Y-154610000D01*
X126467023Y-154664837D01*
X126164837Y-154967023D01*
X125927412Y-155322355D01*
X125763870Y-155717179D01*
X125680497Y-156136323D01*
X125680497Y-156563677D01*
X125763870Y-156982821D01*
X125927412Y-157377645D01*
X126164837Y-157732977D01*
X126467023Y-158035163D01*
X126698753Y-158190000D01*
X101897109Y-158190000D01*
X102085178Y-157981355D01*
X102234157Y-157731252D01*
X102331481Y-157456891D01*
X102210814Y-157227000D01*
X101017000Y-157227000D01*
X101017000Y-157247000D01*
X100763000Y-157247000D01*
X100763000Y-157227000D01*
X100743000Y-157227000D01*
X100743000Y-156973000D01*
X100763000Y-156973000D01*
X100763000Y-155779845D01*
X101017000Y-155779845D01*
X101017000Y-156973000D01*
X102210814Y-156973000D01*
X102331481Y-156743109D01*
X102234157Y-156468748D01*
X102085178Y-156218645D01*
X101890269Y-156002412D01*
X101656920Y-155828359D01*
X101394099Y-155703175D01*
X101246890Y-155658524D01*
X101017000Y-155779845D01*
X100763000Y-155779845D01*
X100533110Y-155658524D01*
X100385901Y-155703175D01*
X100123080Y-155828359D01*
X99889731Y-156002412D01*
X99813966Y-156086466D01*
X99789502Y-156005820D01*
X99730537Y-155895506D01*
X99651185Y-155798815D01*
X99554494Y-155719463D01*
X99444180Y-155660498D01*
X99324482Y-155624188D01*
X99200000Y-155611928D01*
X97500000Y-155611928D01*
X97375518Y-155624188D01*
X97350727Y-155631708D01*
X97222588Y-155322355D01*
X96985163Y-154967023D01*
X96682977Y-154664837D01*
X96327645Y-154427412D01*
X95932821Y-154263870D01*
X95513677Y-154180497D01*
X95086323Y-154180497D01*
X94667179Y-154263870D01*
X94272355Y-154427412D01*
X93917023Y-154664837D01*
X93614837Y-154967023D01*
X93377412Y-155322355D01*
X93213870Y-155717179D01*
X93130497Y-156136323D01*
X93130497Y-156563677D01*
X93213870Y-156982821D01*
X93377412Y-157377645D01*
X93614837Y-157732977D01*
X93917023Y-158035163D01*
X94148753Y-158190000D01*
X88010000Y-158190000D01*
X88010000Y-157009253D01*
X88050000Y-157013193D01*
X88082419Y-157010000D01*
X90817581Y-157010000D01*
X90850000Y-157013193D01*
X90882419Y-157010000D01*
X90979383Y-157000450D01*
X91103793Y-156962710D01*
X91218450Y-156901425D01*
X91318948Y-156818948D01*
X91401425Y-156718450D01*
X91462710Y-156603793D01*
X91500450Y-156479383D01*
X91513193Y-156350000D01*
X91510000Y-156317581D01*
X91510000Y-151382419D01*
X91513193Y-151350000D01*
X91500450Y-151220617D01*
X91462710Y-151096207D01*
X91401425Y-150981550D01*
X91318948Y-150881052D01*
X91218450Y-150798575D01*
X91103793Y-150737290D01*
X90979383Y-150699550D01*
X90882419Y-150690000D01*
X90850000Y-150686807D01*
X90817581Y-150690000D01*
X88082419Y-150690000D01*
X88050000Y-150686807D01*
X88017581Y-150690000D01*
X88010000Y-150690747D01*
X88010000Y-147704248D01*
X88151342Y-147915781D01*
X88384219Y-148148658D01*
X88658053Y-148331628D01*
X88962322Y-148457660D01*
X89285331Y-148521910D01*
X89614669Y-148521910D01*
X89937678Y-148457660D01*
X90241947Y-148331628D01*
X90515781Y-148148658D01*
X90748658Y-147915781D01*
X90931628Y-147641947D01*
X91057660Y-147337678D01*
X91121910Y-147014669D01*
X91121910Y-146685331D01*
X91057660Y-146362322D01*
X90931628Y-146058053D01*
X90748658Y-145784219D01*
X90515781Y-145551342D01*
X90241947Y-145368372D01*
X89937678Y-145242340D01*
X89614669Y-145178090D01*
X89285331Y-145178090D01*
X88962322Y-145242340D01*
X88658053Y-145368372D01*
X88384219Y-145551342D01*
X88151342Y-145784219D01*
X88010000Y-145995752D01*
X88010000Y-118245999D01*
X93611323Y-118245999D01*
X93614999Y-118283322D01*
X93615000Y-122677667D01*
X93611323Y-122714999D01*
X93625997Y-122863984D01*
X93669453Y-123007245D01*
X93740025Y-123139275D01*
X93811200Y-123226001D01*
X93834999Y-123255000D01*
X93863997Y-123278798D01*
X94108791Y-123523592D01*
X94065000Y-123743740D01*
X94065000Y-124036260D01*
X94122068Y-124323158D01*
X94234010Y-124593411D01*
X94396525Y-124836632D01*
X94603368Y-125043475D01*
X94846589Y-125205990D01*
X95116842Y-125317932D01*
X95403740Y-125375000D01*
X95696260Y-125375000D01*
X95983158Y-125317932D01*
X96253411Y-125205990D01*
X96496632Y-125043475D01*
X96628487Y-124911620D01*
X96650498Y-124984180D01*
X96709463Y-125094494D01*
X96788815Y-125191185D01*
X96885506Y-125270537D01*
X96995820Y-125329502D01*
X97115518Y-125365812D01*
X97240000Y-125378072D01*
X98503271Y-125378072D01*
X101390001Y-128264803D01*
X101390000Y-133504464D01*
X101321414Y-133607111D01*
X101250932Y-133777271D01*
X101215000Y-133957911D01*
X101215000Y-134142089D01*
X101250932Y-134322729D01*
X101321414Y-134492889D01*
X101423738Y-134646028D01*
X101553972Y-134776262D01*
X101707111Y-134878586D01*
X101877271Y-134949068D01*
X102057911Y-134985000D01*
X102242089Y-134985000D01*
X102422729Y-134949068D01*
X102592889Y-134878586D01*
X102746028Y-134776262D01*
X102876262Y-134646028D01*
X102978586Y-134492889D01*
X103049068Y-134322729D01*
X103085000Y-134142089D01*
X103085000Y-133957911D01*
X103049068Y-133777271D01*
X102978586Y-133607111D01*
X102910000Y-133504465D01*
X102910000Y-127987322D01*
X102913676Y-127949999D01*
X102910000Y-127912676D01*
X102910000Y-127912667D01*
X102899003Y-127801014D01*
X102855546Y-127657753D01*
X102784974Y-127525723D01*
X102713799Y-127438997D01*
X102690001Y-127409999D01*
X102661003Y-127386201D01*
X99578072Y-124303271D01*
X99578072Y-123040000D01*
X99565812Y-122915518D01*
X99529502Y-122795820D01*
X99470537Y-122685506D01*
X99391185Y-122588815D01*
X99294494Y-122509463D01*
X99184180Y-122450498D01*
X99111620Y-122428487D01*
X99243475Y-122296632D01*
X99405990Y-122053411D01*
X99517932Y-121783158D01*
X99575000Y-121496260D01*
X99575000Y-121203740D01*
X99517932Y-120916842D01*
X99405990Y-120646589D01*
X99243475Y-120403368D01*
X99036632Y-120196525D01*
X98854466Y-120074805D01*
X98971355Y-120005178D01*
X99187588Y-119810269D01*
X99361641Y-119576920D01*
X99486825Y-119314099D01*
X99531476Y-119166890D01*
X99410155Y-118937000D01*
X98217000Y-118937000D01*
X98217000Y-118957000D01*
X97963000Y-118957000D01*
X97963000Y-118937000D01*
X97943000Y-118937000D01*
X97943000Y-118683000D01*
X97963000Y-118683000D01*
X97963000Y-118663000D01*
X98217000Y-118663000D01*
X98217000Y-118683000D01*
X99410155Y-118683000D01*
X99531476Y-118453110D01*
X99486825Y-118305901D01*
X99361641Y-118043080D01*
X99187588Y-117809731D01*
X98971355Y-117614822D01*
X98721252Y-117465843D01*
X98568320Y-117411594D01*
X98696028Y-117326262D01*
X98826262Y-117196028D01*
X98928586Y-117042889D01*
X98999068Y-116872729D01*
X99035000Y-116692089D01*
X99035000Y-116507911D01*
X98999068Y-116327271D01*
X98928586Y-116157111D01*
X98826262Y-116003972D01*
X98696028Y-115873738D01*
X98542889Y-115771414D01*
X98372729Y-115700932D01*
X98192089Y-115665000D01*
X98007911Y-115665000D01*
X97827271Y-115700932D01*
X97657111Y-115771414D01*
X97600000Y-115809574D01*
X97542889Y-115771414D01*
X97372729Y-115700932D01*
X97192089Y-115665000D01*
X97007911Y-115665000D01*
X96827271Y-115700932D01*
X96657111Y-115771414D01*
X96554465Y-115840000D01*
X96058320Y-115840000D01*
X96020997Y-115836324D01*
X95983674Y-115840000D01*
X95983665Y-115840000D01*
X95872012Y-115850997D01*
X95728751Y-115894454D01*
X95596721Y-115965026D01*
X95549266Y-116003972D01*
X95480997Y-116059999D01*
X95457199Y-116088997D01*
X93864002Y-117682195D01*
X93834998Y-117705998D01*
X93800801Y-117747668D01*
X93740025Y-117821723D01*
X93717765Y-117863368D01*
X93669453Y-117953753D01*
X93625996Y-118097014D01*
X93614999Y-118208667D01*
X93614999Y-118208677D01*
X93611323Y-118245999D01*
X88010000Y-118245999D01*
X88010000Y-108607911D01*
X95265000Y-108607911D01*
X95265000Y-108792089D01*
X95300932Y-108972729D01*
X95371414Y-109142889D01*
X95473738Y-109296028D01*
X95603972Y-109426262D01*
X95757111Y-109528586D01*
X95927271Y-109599068D01*
X96107911Y-109635000D01*
X96292089Y-109635000D01*
X96472729Y-109599068D01*
X96642889Y-109528586D01*
X96796028Y-109426262D01*
X96926262Y-109296028D01*
X97028586Y-109142889D01*
X97099068Y-108972729D01*
X97123153Y-108851649D01*
X99496635Y-106478168D01*
X99577271Y-106511568D01*
X99757911Y-106547500D01*
X99942089Y-106547500D01*
X100122729Y-106511568D01*
X100292889Y-106441086D01*
X100446028Y-106338762D01*
X100576262Y-106208528D01*
X100678586Y-106055389D01*
X100749068Y-105885229D01*
X100785000Y-105704589D01*
X100785000Y-105520411D01*
X100749068Y-105339771D01*
X100678586Y-105169611D01*
X100576262Y-105016472D01*
X100446028Y-104886238D01*
X100292889Y-104783914D01*
X100122729Y-104713432D01*
X99942089Y-104677500D01*
X99757911Y-104677500D01*
X99577271Y-104713432D01*
X99407111Y-104783914D01*
X99307080Y-104850753D01*
X99287499Y-104848824D01*
X99250176Y-104852500D01*
X99250167Y-104852500D01*
X99138514Y-104863497D01*
X98995253Y-104906954D01*
X98863224Y-104977526D01*
X98863222Y-104977527D01*
X98863223Y-104977527D01*
X98776496Y-105048701D01*
X98776492Y-105048705D01*
X98747499Y-105072499D01*
X98723705Y-105101492D01*
X96048351Y-107776847D01*
X95927271Y-107800932D01*
X95757111Y-107871414D01*
X95603972Y-107973738D01*
X95473738Y-108103972D01*
X95371414Y-108257111D01*
X95300932Y-108427271D01*
X95265000Y-108607911D01*
X88010000Y-108607911D01*
X88010000Y-102007911D01*
X98215000Y-102007911D01*
X98215000Y-102192089D01*
X98250932Y-102372729D01*
X98321414Y-102542889D01*
X98423738Y-102696028D01*
X98553972Y-102826262D01*
X98707111Y-102928586D01*
X98877271Y-102999068D01*
X99057911Y-103035000D01*
X99242089Y-103035000D01*
X99422729Y-102999068D01*
X99592889Y-102928586D01*
X99746028Y-102826262D01*
X99876262Y-102696028D01*
X99978586Y-102542889D01*
X100049068Y-102372729D01*
X100085000Y-102192089D01*
X100085000Y-102007911D01*
X100049068Y-101827271D01*
X100019328Y-101755473D01*
X102251649Y-99523153D01*
X102372729Y-99499068D01*
X102542889Y-99428586D01*
X102696028Y-99326262D01*
X102826262Y-99196028D01*
X102928586Y-99042889D01*
X102999068Y-98872729D01*
X103035000Y-98692089D01*
X103035000Y-98507911D01*
X102999068Y-98327271D01*
X102928586Y-98157111D01*
X102826262Y-98003972D01*
X102696028Y-97873738D01*
X102542889Y-97771414D01*
X102372729Y-97700932D01*
X102192089Y-97665000D01*
X102007911Y-97665000D01*
X101827271Y-97700932D01*
X101657111Y-97771414D01*
X101503972Y-97873738D01*
X101373738Y-98003972D01*
X101271414Y-98157111D01*
X101200932Y-98327271D01*
X101176847Y-98448351D01*
X98638998Y-100986201D01*
X98610000Y-101009999D01*
X98586202Y-101038997D01*
X98586201Y-101038998D01*
X98515026Y-101125724D01*
X98489074Y-101174277D01*
X98444454Y-101257753D01*
X98400997Y-101401014D01*
X98390000Y-101512667D01*
X98390000Y-101512678D01*
X98386324Y-101550000D01*
X98387179Y-101558686D01*
X98321414Y-101657111D01*
X98250932Y-101827271D01*
X98215000Y-102007911D01*
X88010000Y-102007911D01*
X88010000Y-72329078D01*
X88101342Y-72465781D01*
X88334219Y-72698658D01*
X88608053Y-72881628D01*
X88912322Y-73007660D01*
X89235331Y-73071910D01*
X89564669Y-73071910D01*
X89887678Y-73007660D01*
X90191947Y-72881628D01*
X90465781Y-72698658D01*
X90698658Y-72465781D01*
X90881628Y-72191947D01*
X91007660Y-71887678D01*
X91071910Y-71564669D01*
X91071910Y-71235331D01*
X91007660Y-70912322D01*
X90881628Y-70608053D01*
X90698658Y-70334219D01*
X90465781Y-70101342D01*
X90329078Y-70010000D01*
X93171860Y-70010000D01*
X93164837Y-70017023D01*
%TA.AperFunction,Conductor*%
D18*
G36*
X93164837Y-70017023D02*
G01*
X92927412Y-70372355D01*
X92763870Y-70767179D01*
X92680497Y-71186323D01*
X92680497Y-71613677D01*
X92763870Y-72032821D01*
X92927412Y-72427645D01*
X93164837Y-72782977D01*
X93467023Y-73085163D01*
X93822355Y-73322588D01*
X94217179Y-73486130D01*
X94636323Y-73569503D01*
X95063677Y-73569503D01*
X95482821Y-73486130D01*
X95877645Y-73322588D01*
X96232977Y-73085163D01*
X96535163Y-72782977D01*
X96772588Y-72427645D01*
X96936130Y-72032821D01*
X97019503Y-71613677D01*
X97019503Y-71186323D01*
X96936130Y-70767179D01*
X96772588Y-70372355D01*
X96535163Y-70017023D01*
X96528140Y-70010000D01*
X126621860Y-70010000D01*
X126614837Y-70017023D01*
X126377412Y-70372355D01*
X126213870Y-70767179D01*
X126130497Y-71186323D01*
X126130497Y-71613677D01*
X126213870Y-72032821D01*
X126377412Y-72427645D01*
X126614837Y-72782977D01*
X126917023Y-73085163D01*
X127272355Y-73322588D01*
X127667179Y-73486130D01*
X128086323Y-73569503D01*
X128513677Y-73569503D01*
X128932821Y-73486130D01*
X129327645Y-73322588D01*
X129682977Y-73085163D01*
X129985163Y-72782977D01*
X130222588Y-72427645D01*
X130386130Y-72032821D01*
X130469503Y-71613677D01*
X130469503Y-71186323D01*
X130386130Y-70767179D01*
X130222588Y-70372355D01*
X129985163Y-70017023D01*
X129978140Y-70010000D01*
X132370922Y-70010000D01*
X132234219Y-70101342D01*
X132001342Y-70334219D01*
X131818372Y-70608053D01*
X131692340Y-70912322D01*
X131628090Y-71235331D01*
X131628090Y-71564669D01*
X131692340Y-71887678D01*
X131818372Y-72191947D01*
X132001342Y-72465781D01*
X132234219Y-72698658D01*
X132508053Y-72881628D01*
X132812322Y-73007660D01*
X133135331Y-73071910D01*
X133464669Y-73071910D01*
X133787678Y-73007660D01*
X134091947Y-72881628D01*
X134365781Y-72698658D01*
X134598658Y-72465781D01*
X134690000Y-72329078D01*
X134690001Y-149920923D01*
X134598658Y-149784219D01*
X134365781Y-149551342D01*
X134091947Y-149368372D01*
X133787678Y-149242340D01*
X133464669Y-149178090D01*
X133135331Y-149178090D01*
X132812322Y-149242340D01*
X132508053Y-149368372D01*
X132234219Y-149551342D01*
X132001342Y-149784219D01*
X131818372Y-150058053D01*
X131692340Y-150362322D01*
X131628090Y-150685331D01*
X131628090Y-151014669D01*
X131692340Y-151337678D01*
X131818372Y-151641947D01*
X132001342Y-151915781D01*
X132234219Y-152148658D01*
X132508053Y-152331628D01*
X132812322Y-152457660D01*
X133135331Y-152521910D01*
X133464669Y-152521910D01*
X133787678Y-152457660D01*
X134091947Y-152331628D01*
X134365781Y-152148658D01*
X134598658Y-151915781D01*
X134690001Y-151779077D01*
X134690001Y-156077623D01*
X134556920Y-155978359D01*
X134294099Y-155853175D01*
X134146890Y-155808524D01*
X133917000Y-155929845D01*
X133917000Y-157123000D01*
X133937000Y-157123000D01*
X133937000Y-157377000D01*
X133917000Y-157377000D01*
X133917000Y-157397000D01*
X133663000Y-157397000D01*
X133663000Y-157377000D01*
X133643000Y-157377000D01*
X133643000Y-157123000D01*
X133663000Y-157123000D01*
X133663000Y-155929845D01*
X133433110Y-155808524D01*
X133285901Y-155853175D01*
X133023080Y-155978359D01*
X132789731Y-156152412D01*
X132713966Y-156236466D01*
X132689502Y-156155820D01*
X132630537Y-156045506D01*
X132551185Y-155948815D01*
X132454494Y-155869463D01*
X132344180Y-155810498D01*
X132224482Y-155774188D01*
X132100000Y-155761928D01*
X130400000Y-155761928D01*
X130275518Y-155774188D01*
X130155820Y-155810498D01*
X130045506Y-155869463D01*
X129977520Y-155925258D01*
X129936130Y-155717179D01*
X129772588Y-155322355D01*
X129535163Y-154967023D01*
X129232977Y-154664837D01*
X128877645Y-154427412D01*
X128502698Y-154272103D01*
X128751649Y-154023153D01*
X128872729Y-153999068D01*
X129042889Y-153928586D01*
X129196028Y-153826262D01*
X129326262Y-153696028D01*
X129428586Y-153542889D01*
X129499068Y-153372729D01*
X129535000Y-153192089D01*
X129535000Y-153007911D01*
X129499068Y-152827271D01*
X129428586Y-152657111D01*
X129326262Y-152503972D01*
X129196028Y-152373738D01*
X129042889Y-152271414D01*
X128872729Y-152200932D01*
X128692089Y-152165000D01*
X128507911Y-152165000D01*
X128327271Y-152200932D01*
X128157111Y-152271414D01*
X128003972Y-152373738D01*
X127873738Y-152503972D01*
X127771414Y-152657111D01*
X127700932Y-152827271D01*
X127676847Y-152948351D01*
X127535199Y-153090000D01*
X114645535Y-153090000D01*
X114542889Y-153021414D01*
X114372729Y-152950932D01*
X114269585Y-152930415D01*
X114249068Y-152827271D01*
X114178586Y-152657111D01*
X114110000Y-152554465D01*
X114110000Y-152212321D01*
X114113676Y-152174998D01*
X114110000Y-152137675D01*
X114110000Y-152137665D01*
X114099003Y-152026012D01*
X114055546Y-151882751D01*
X113984974Y-151750722D01*
X113890001Y-151634997D01*
X113860997Y-151611194D01*
X113810010Y-151560207D01*
X113810010Y-146507911D01*
X124915000Y-146507911D01*
X124915000Y-146692089D01*
X124950932Y-146872729D01*
X125021414Y-147042889D01*
X125123738Y-147196028D01*
X125253972Y-147326262D01*
X125407111Y-147428586D01*
X125577271Y-147499068D01*
X125757911Y-147535000D01*
X125942089Y-147535000D01*
X126122729Y-147499068D01*
X126292889Y-147428586D01*
X126446028Y-147326262D01*
X126576262Y-147196028D01*
X126678586Y-147042889D01*
X126749068Y-146872729D01*
X126785000Y-146692089D01*
X126785000Y-146507911D01*
X126749068Y-146327271D01*
X126678586Y-146157111D01*
X126576262Y-146003972D01*
X126446028Y-145873738D01*
X126292889Y-145771414D01*
X126122729Y-145700932D01*
X125942089Y-145665000D01*
X125757911Y-145665000D01*
X125577271Y-145700932D01*
X125407111Y-145771414D01*
X125253972Y-145873738D01*
X125123738Y-146003972D01*
X125021414Y-146157111D01*
X124950932Y-146327271D01*
X124915000Y-146507911D01*
X113810010Y-146507911D01*
X113810010Y-119087335D01*
X113813686Y-119050010D01*
X113810010Y-119012685D01*
X113810010Y-119012677D01*
X113799013Y-118901024D01*
X113755556Y-118757763D01*
X113684984Y-118625734D01*
X113590011Y-118510009D01*
X113561012Y-118486211D01*
X113273153Y-118198351D01*
X113249068Y-118077271D01*
X113178586Y-117907111D01*
X113076262Y-117753972D01*
X112946028Y-117623738D01*
X112792889Y-117521414D01*
X112622729Y-117450932D01*
X112442089Y-117415000D01*
X112257911Y-117415000D01*
X112077271Y-117450932D01*
X111907111Y-117521414D01*
X111753972Y-117623738D01*
X111623738Y-117753972D01*
X111521414Y-117907111D01*
X111450932Y-118077271D01*
X111415000Y-118257911D01*
X111415000Y-118442089D01*
X111450932Y-118622729D01*
X111521414Y-118792889D01*
X111623738Y-118946028D01*
X111753972Y-119076262D01*
X111907111Y-119178586D01*
X112077271Y-119249068D01*
X112198351Y-119273153D01*
X112290011Y-119364813D01*
X112290011Y-119717721D01*
X112196028Y-119623738D01*
X112042889Y-119521414D01*
X111872729Y-119450932D01*
X111692089Y-119415000D01*
X111507911Y-119415000D01*
X111327271Y-119450932D01*
X111157111Y-119521414D01*
X111003972Y-119623738D01*
X110873738Y-119753972D01*
X110771414Y-119907111D01*
X110724999Y-120019168D01*
X110724999Y-110002321D01*
X110728675Y-109964996D01*
X110724999Y-109927673D01*
X110724999Y-109927664D01*
X110714002Y-109816011D01*
X110670545Y-109672750D01*
X110599974Y-109540722D01*
X110599973Y-109540720D01*
X110528798Y-109453994D01*
X110505000Y-109424996D01*
X110476003Y-109401199D01*
X108635009Y-107560208D01*
X108635009Y-97870499D01*
X108648351Y-97873153D01*
X109511202Y-98736004D01*
X109535000Y-98765002D01*
X109650725Y-98859975D01*
X109782754Y-98930547D01*
X109926015Y-98974004D01*
X110037668Y-98985001D01*
X110037676Y-98985001D01*
X110075001Y-98988677D01*
X110112326Y-98985001D01*
X122029503Y-98985001D01*
X122026847Y-98998351D01*
X119838998Y-101186201D01*
X119810000Y-101209999D01*
X119786202Y-101238997D01*
X119786201Y-101238998D01*
X119715026Y-101325724D01*
X119644454Y-101457754D01*
X119629317Y-101507656D01*
X119600997Y-101601014D01*
X119590000Y-101712667D01*
X119590000Y-101712678D01*
X119586324Y-101750000D01*
X119590000Y-101787322D01*
X119590000Y-101904465D01*
X119521414Y-102007111D01*
X119450932Y-102177271D01*
X119415000Y-102357911D01*
X119415000Y-102542089D01*
X119450932Y-102722729D01*
X119521414Y-102892889D01*
X119623738Y-103046028D01*
X119753972Y-103176262D01*
X119907111Y-103278586D01*
X120077271Y-103349068D01*
X120257911Y-103385000D01*
X120442089Y-103385000D01*
X120622729Y-103349068D01*
X120792889Y-103278586D01*
X120946028Y-103176262D01*
X121076262Y-103046028D01*
X121178586Y-102892889D01*
X121249068Y-102722729D01*
X121285000Y-102542089D01*
X121285000Y-102357911D01*
X121249068Y-102177271D01*
X121178586Y-102007111D01*
X121174222Y-102000579D01*
X123101649Y-100073153D01*
X123222729Y-100049068D01*
X123392889Y-99978586D01*
X123546028Y-99876262D01*
X123676262Y-99746028D01*
X123778586Y-99592889D01*
X123849068Y-99422729D01*
X123885000Y-99242089D01*
X123885000Y-99057911D01*
X123849068Y-98877271D01*
X123778586Y-98707111D01*
X123698118Y-98586683D01*
X124690000Y-97594801D01*
X124690000Y-100435197D01*
X113169001Y-111956198D01*
X113168997Y-111956201D01*
X112180923Y-112944276D01*
X111698352Y-113426847D01*
X111577271Y-113450932D01*
X111407111Y-113521414D01*
X111253972Y-113623738D01*
X111123738Y-113753972D01*
X111021414Y-113907111D01*
X110950932Y-114077271D01*
X110915000Y-114257911D01*
X110915000Y-114442089D01*
X110950932Y-114622729D01*
X111021414Y-114792889D01*
X111123738Y-114946028D01*
X111253972Y-115076262D01*
X111407111Y-115178586D01*
X111577271Y-115249068D01*
X111757911Y-115285000D01*
X111942089Y-115285000D01*
X112122729Y-115249068D01*
X112292889Y-115178586D01*
X112446028Y-115076262D01*
X112576262Y-114946028D01*
X112678586Y-114792889D01*
X112749068Y-114622729D01*
X112773153Y-114501648D01*
X114243799Y-113031003D01*
X114243802Y-113030999D01*
X125715001Y-101559801D01*
X125715002Y-119272670D01*
X125711325Y-119310003D01*
X125715002Y-119347336D01*
X125725206Y-119450932D01*
X125725999Y-119458988D01*
X125769455Y-119602249D01*
X125840027Y-119734279D01*
X125911202Y-119821005D01*
X125935001Y-119850004D01*
X125963999Y-119873802D01*
X130465001Y-124374806D01*
X130465002Y-146017046D01*
X130371414Y-146157111D01*
X130300932Y-146327271D01*
X130265000Y-146507911D01*
X130265000Y-146692089D01*
X130300932Y-146872729D01*
X130371414Y-147042889D01*
X130473738Y-147196028D01*
X130603972Y-147326262D01*
X130757111Y-147428586D01*
X130927271Y-147499068D01*
X131107911Y-147535000D01*
X131292089Y-147535000D01*
X131472729Y-147499068D01*
X131642889Y-147428586D01*
X131796028Y-147326262D01*
X131926262Y-147196028D01*
X132028586Y-147042889D01*
X132099068Y-146872729D01*
X132135000Y-146692089D01*
X132135000Y-146507911D01*
X132099068Y-146327271D01*
X132028586Y-146157111D01*
X131985001Y-146091881D01*
X131985001Y-124097325D01*
X131988677Y-124060002D01*
X131985001Y-124022679D01*
X131985001Y-124022670D01*
X131974004Y-123911017D01*
X131930547Y-123767756D01*
X131859975Y-123635727D01*
X131846812Y-123619688D01*
X131788800Y-123548999D01*
X131788796Y-123548995D01*
X131765002Y-123520002D01*
X131736010Y-123496209D01*
X131607765Y-123367965D01*
X131619180Y-123364502D01*
X131729494Y-123305537D01*
X131826185Y-123226185D01*
X131905537Y-123129494D01*
X131964502Y-123019180D01*
X132000812Y-122899482D01*
X132013072Y-122775000D01*
X132013072Y-121925000D01*
X132000812Y-121800518D01*
X131964502Y-121680820D01*
X131905537Y-121570506D01*
X131826185Y-121473815D01*
X131729494Y-121394463D01*
X131619180Y-121335498D01*
X131499482Y-121299188D01*
X131375000Y-121286928D01*
X130525000Y-121286928D01*
X130400518Y-121299188D01*
X130280820Y-121335498D01*
X130170506Y-121394463D01*
X130073815Y-121473815D01*
X129994463Y-121570506D01*
X129935498Y-121680820D01*
X129932035Y-121692235D01*
X127235001Y-118995202D01*
X127235001Y-99614381D01*
X127334010Y-99853411D01*
X127496525Y-100096632D01*
X127703368Y-100303475D01*
X127946589Y-100465990D01*
X128216842Y-100577932D01*
X128503740Y-100635000D01*
X128796260Y-100635000D01*
X129083158Y-100577932D01*
X129353411Y-100465990D01*
X129596632Y-100303475D01*
X129803475Y-100096632D01*
X129965990Y-99853411D01*
X130077932Y-99583158D01*
X130135000Y-99296260D01*
X130135000Y-99003740D01*
X130077932Y-98716842D01*
X129965990Y-98446589D01*
X129803475Y-98203368D01*
X129596632Y-97996525D01*
X129422240Y-97880000D01*
X129596632Y-97763475D01*
X129803475Y-97556632D01*
X129965990Y-97313411D01*
X130077932Y-97043158D01*
X130135000Y-96756260D01*
X130135000Y-96463740D01*
X130077932Y-96176842D01*
X129965990Y-95906589D01*
X129803475Y-95663368D01*
X129596632Y-95456525D01*
X129422240Y-95340000D01*
X129596632Y-95223475D01*
X129803475Y-95016632D01*
X129965990Y-94773411D01*
X130077932Y-94503158D01*
X130135000Y-94216260D01*
X130135000Y-93923740D01*
X130077932Y-93636842D01*
X129965990Y-93366589D01*
X129803475Y-93123368D01*
X129671620Y-92991513D01*
X129744180Y-92969502D01*
X129854494Y-92910537D01*
X129951185Y-92831185D01*
X130030537Y-92734494D01*
X130089502Y-92624180D01*
X130125812Y-92504482D01*
X130138072Y-92380000D01*
X130138072Y-90680000D01*
X130125812Y-90555518D01*
X130089502Y-90435820D01*
X130030537Y-90325506D01*
X129951185Y-90228815D01*
X129854494Y-90149463D01*
X129744180Y-90090498D01*
X129663534Y-90066034D01*
X129747588Y-89990269D01*
X129921641Y-89756920D01*
X130046825Y-89494099D01*
X130091476Y-89346890D01*
X129970155Y-89117000D01*
X128777000Y-89117000D01*
X128777000Y-89137000D01*
X128523000Y-89137000D01*
X128523000Y-89117000D01*
X128503000Y-89117000D01*
X128503000Y-88863000D01*
X128523000Y-88863000D01*
X128523000Y-86577000D01*
X128777000Y-86577000D01*
X128777000Y-88863000D01*
X129970155Y-88863000D01*
X130091476Y-88633110D01*
X130046825Y-88485901D01*
X129921641Y-88223080D01*
X129747588Y-87989731D01*
X129531355Y-87794822D01*
X129405745Y-87720000D01*
X129531355Y-87645178D01*
X129747588Y-87450269D01*
X129921641Y-87216920D01*
X130046825Y-86954099D01*
X130091476Y-86806890D01*
X129970155Y-86577000D01*
X128777000Y-86577000D01*
X128523000Y-86577000D01*
X128503000Y-86577000D01*
X128503000Y-86323000D01*
X128523000Y-86323000D01*
X128523000Y-85129186D01*
X128777000Y-85129186D01*
X128777000Y-86323000D01*
X129970155Y-86323000D01*
X130091476Y-86093110D01*
X130046825Y-85945901D01*
X129921641Y-85683080D01*
X129747588Y-85449731D01*
X129531355Y-85254822D01*
X129281252Y-85105843D01*
X129006891Y-85008519D01*
X128777000Y-85129186D01*
X128523000Y-85129186D01*
X128293109Y-85008519D01*
X128018748Y-85105843D01*
X127768645Y-85254822D01*
X127552412Y-85449731D01*
X127378359Y-85683080D01*
X127253175Y-85945901D01*
X127208524Y-86093110D01*
X127329844Y-86322998D01*
X127236510Y-86322998D01*
X127235001Y-86307677D01*
X127235001Y-86307668D01*
X127224004Y-86196015D01*
X127180547Y-86052754D01*
X127109975Y-85920725D01*
X127052752Y-85850998D01*
X127038800Y-85833997D01*
X127038796Y-85833993D01*
X127015002Y-85805000D01*
X126986010Y-85781207D01*
X125773153Y-84568351D01*
X125749068Y-84447271D01*
X125678586Y-84277111D01*
X125576262Y-84123972D01*
X125446028Y-83993738D01*
X125292889Y-83891414D01*
X125122729Y-83820932D01*
X124942089Y-83785000D01*
X124757911Y-83785000D01*
X124577271Y-83820932D01*
X124407111Y-83891414D01*
X124253972Y-83993738D01*
X124123738Y-84123972D01*
X124021414Y-84277111D01*
X123950932Y-84447271D01*
X123915000Y-84627911D01*
X123915000Y-84812089D01*
X123950932Y-84992729D01*
X124021414Y-85162889D01*
X124123738Y-85316028D01*
X124253972Y-85446262D01*
X124407111Y-85548586D01*
X124577271Y-85619068D01*
X124698351Y-85643153D01*
X125715001Y-86659804D01*
X125715001Y-89140199D01*
X123514957Y-86940156D01*
X123542889Y-86928586D01*
X123696028Y-86826262D01*
X123826262Y-86696028D01*
X123928586Y-86542889D01*
X123999068Y-86372729D01*
X124035000Y-86192089D01*
X124035000Y-86007911D01*
X123999068Y-85827271D01*
X123928586Y-85657111D01*
X123826262Y-85503972D01*
X123696028Y-85373738D01*
X123542889Y-85271414D01*
X123372729Y-85200932D01*
X123192089Y-85165000D01*
X123007911Y-85165000D01*
X122827271Y-85200932D01*
X122657111Y-85271414D01*
X122554465Y-85340000D01*
X121637322Y-85340000D01*
X121599999Y-85336324D01*
X121562677Y-85340000D01*
X121562667Y-85340000D01*
X121451014Y-85350997D01*
X121307753Y-85394454D01*
X121175723Y-85465026D01*
X121128268Y-85503972D01*
X121059999Y-85559999D01*
X121036201Y-85588997D01*
X120440156Y-86185043D01*
X120428586Y-86157111D01*
X120326262Y-86003972D01*
X120196028Y-85873738D01*
X120042889Y-85771414D01*
X119872729Y-85700932D01*
X119692089Y-85665000D01*
X119507911Y-85665000D01*
X119327271Y-85700932D01*
X119157111Y-85771414D01*
X119003972Y-85873738D01*
X118873738Y-86003972D01*
X118771414Y-86157111D01*
X118700932Y-86327271D01*
X118676847Y-86448351D01*
X118035199Y-87090000D01*
X112645535Y-87090000D01*
X112542889Y-87021414D01*
X112372729Y-86950932D01*
X112192089Y-86915000D01*
X112007911Y-86915000D01*
X111827271Y-86950932D01*
X111657111Y-87021414D01*
X111503972Y-87123738D01*
X111373738Y-87253972D01*
X111271414Y-87407111D01*
X111200932Y-87577271D01*
X111165000Y-87757911D01*
X111165000Y-87942089D01*
X111200932Y-88122729D01*
X111271414Y-88292889D01*
X111373738Y-88446028D01*
X111503972Y-88576262D01*
X111657111Y-88678586D01*
X111827271Y-88749068D01*
X112007911Y-88785000D01*
X112192089Y-88785000D01*
X112372729Y-88749068D01*
X112542889Y-88678586D01*
X112645535Y-88610000D01*
X118015198Y-88610000D01*
X115535000Y-91090199D01*
X115535000Y-91007911D01*
X115499068Y-90827271D01*
X115428586Y-90657111D01*
X115326262Y-90503972D01*
X115196028Y-90373738D01*
X115042889Y-90271414D01*
X114872729Y-90200932D01*
X114692089Y-90165000D01*
X114507911Y-90165000D01*
X114327271Y-90200932D01*
X114157111Y-90271414D01*
X114054465Y-90340000D01*
X109145535Y-90340000D01*
X109042889Y-90271414D01*
X108872729Y-90200932D01*
X108692089Y-90165000D01*
X108635009Y-90165000D01*
X108635009Y-78539792D01*
X110132417Y-77042385D01*
X110220976Y-77060000D01*
X110479024Y-77060000D01*
X110732113Y-77009658D01*
X110970518Y-76910907D01*
X111185077Y-76767544D01*
X111350000Y-76602621D01*
X111514923Y-76767544D01*
X111729482Y-76910907D01*
X111967887Y-77009658D01*
X112220976Y-77060000D01*
X112479024Y-77060000D01*
X112732113Y-77009658D01*
X112970518Y-76910907D01*
X113185077Y-76767544D01*
X113350000Y-76602621D01*
X113514923Y-76767544D01*
X113729482Y-76910907D01*
X113967887Y-77009658D01*
X114220976Y-77060000D01*
X114479024Y-77060000D01*
X114732113Y-77009658D01*
X114970518Y-76910907D01*
X115185077Y-76767544D01*
X115356681Y-76595940D01*
X115478773Y-76728303D01*
X115686371Y-76879473D01*
X115919472Y-76987238D01*
X116020600Y-77017910D01*
X116223000Y-76894224D01*
X116223000Y-75877000D01*
X116203000Y-75877000D01*
X116203000Y-75623000D01*
X116223000Y-75623000D01*
X116223000Y-75603000D01*
X116477000Y-75603000D01*
X116477000Y-75623000D01*
X116497000Y-75623000D01*
X116497000Y-75877000D01*
X116477000Y-75877000D01*
X116477000Y-76894224D01*
X116679400Y-77017910D01*
X116780528Y-76987238D01*
X117013629Y-76879473D01*
X117146881Y-76782441D01*
X117223815Y-76876185D01*
X117320506Y-76955537D01*
X117430820Y-77014502D01*
X117550518Y-77050812D01*
X117675000Y-77063072D01*
X119025000Y-77063072D01*
X119149482Y-77050812D01*
X119269180Y-77014502D01*
X119379494Y-76955537D01*
X119476185Y-76876185D01*
X119555537Y-76779494D01*
X119614502Y-76669180D01*
X119650812Y-76549482D01*
X119663072Y-76425000D01*
X119663072Y-75075000D01*
X119650812Y-74950518D01*
X119614502Y-74830820D01*
X119555537Y-74720506D01*
X119476185Y-74623815D01*
X119459351Y-74610000D01*
X120035199Y-74610000D01*
X123676847Y-78251649D01*
X123700932Y-78372729D01*
X123771414Y-78542889D01*
X123873738Y-78696028D01*
X124003972Y-78826262D01*
X124157111Y-78928586D01*
X124327271Y-78999068D01*
X124507911Y-79035000D01*
X124692089Y-79035000D01*
X124872729Y-78999068D01*
X125042889Y-78928586D01*
X125196028Y-78826262D01*
X125326262Y-78696028D01*
X125428586Y-78542889D01*
X125499068Y-78372729D01*
X125535000Y-78192089D01*
X125535000Y-78007911D01*
X125499068Y-77827271D01*
X125428586Y-77657111D01*
X125326262Y-77503972D01*
X125196028Y-77373738D01*
X125042889Y-77271414D01*
X124872729Y-77200932D01*
X124751649Y-77176847D01*
X122082713Y-74507911D01*
X124915000Y-74507911D01*
X124915000Y-74692089D01*
X124950932Y-74872729D01*
X125021414Y-75042889D01*
X125123738Y-75196028D01*
X125253972Y-75326262D01*
X125407111Y-75428586D01*
X125577271Y-75499068D01*
X125757911Y-75535000D01*
X125942089Y-75535000D01*
X126122729Y-75499068D01*
X126292889Y-75428586D01*
X126395535Y-75360000D01*
X126785199Y-75360000D01*
X129340000Y-77914802D01*
X129340001Y-81804463D01*
X129271414Y-81907111D01*
X129200932Y-82077271D01*
X129165000Y-82257911D01*
X129165000Y-82442089D01*
X129200932Y-82622729D01*
X129271414Y-82792889D01*
X129373738Y-82946028D01*
X129503972Y-83076262D01*
X129657111Y-83178586D01*
X129827271Y-83249068D01*
X130007911Y-83285000D01*
X130192089Y-83285000D01*
X130372729Y-83249068D01*
X130542889Y-83178586D01*
X130696028Y-83076262D01*
X130826262Y-82946028D01*
X130928586Y-82792889D01*
X130999068Y-82622729D01*
X131035000Y-82442089D01*
X131035000Y-82257911D01*
X130999068Y-82077271D01*
X130928586Y-81907111D01*
X130860000Y-81804465D01*
X130860000Y-77637325D01*
X130863676Y-77600000D01*
X130860000Y-77562675D01*
X130860000Y-77562667D01*
X130849003Y-77451014D01*
X130805546Y-77307753D01*
X130734974Y-77175724D01*
X130640001Y-77059999D01*
X130611004Y-77036202D01*
X127663804Y-74089003D01*
X127640001Y-74059999D01*
X127524276Y-73965026D01*
X127392247Y-73894454D01*
X127248986Y-73850997D01*
X127137333Y-73840000D01*
X127137322Y-73840000D01*
X127100000Y-73836324D01*
X127062678Y-73840000D01*
X126395535Y-73840000D01*
X126292889Y-73771414D01*
X126122729Y-73700932D01*
X125942089Y-73665000D01*
X125757911Y-73665000D01*
X125577271Y-73700932D01*
X125407111Y-73771414D01*
X125253972Y-73873738D01*
X125123738Y-74003972D01*
X125021414Y-74157111D01*
X124950932Y-74327271D01*
X124915000Y-74507911D01*
X122082713Y-74507911D01*
X120913804Y-73339003D01*
X120890001Y-73309999D01*
X120774276Y-73215026D01*
X120642247Y-73144454D01*
X120498986Y-73100997D01*
X120387333Y-73090000D01*
X120387322Y-73090000D01*
X120350000Y-73086324D01*
X120312678Y-73090000D01*
X116637507Y-73090000D01*
X116637314Y-73089981D01*
X116637303Y-73089981D01*
X116599981Y-73086305D01*
X116562659Y-73089981D01*
X103534519Y-73089981D01*
X103497196Y-73086305D01*
X103459873Y-73089981D01*
X103459864Y-73089981D01*
X103348211Y-73100978D01*
X103204950Y-73144435D01*
X103072920Y-73215007D01*
X102989280Y-73283649D01*
X102957196Y-73309980D01*
X102933398Y-73338978D01*
X99589003Y-76683374D01*
X99559999Y-76707177D01*
X99510458Y-76767544D01*
X99465026Y-76822902D01*
X99394455Y-76954931D01*
X99394454Y-76954932D01*
X99350997Y-77098193D01*
X99340000Y-77209846D01*
X99340000Y-77209856D01*
X99336324Y-77247178D01*
X99340000Y-77284500D01*
X99340001Y-90054463D01*
X99271414Y-90157111D01*
X99200932Y-90327271D01*
X99165000Y-90507911D01*
X99165000Y-90692089D01*
X99200932Y-90872729D01*
X99271414Y-91042889D01*
X99373738Y-91196028D01*
X99503972Y-91326262D01*
X99657111Y-91428586D01*
X99827271Y-91499068D01*
X99965001Y-91526465D01*
X99965001Y-92997435D01*
X99907111Y-93021414D01*
X99753972Y-93123738D01*
X99623738Y-93253972D01*
X99521414Y-93407111D01*
X99450932Y-93577271D01*
X99415000Y-93757911D01*
X99415000Y-93942089D01*
X99450932Y-94122729D01*
X99521414Y-94292889D01*
X99623738Y-94446028D01*
X99753972Y-94576262D01*
X99907111Y-94678586D01*
X100077271Y-94749068D01*
X100257911Y-94785000D01*
X100442089Y-94785000D01*
X100622729Y-94749068D01*
X100792889Y-94678586D01*
X100946028Y-94576262D01*
X101076262Y-94446028D01*
X101100000Y-94410502D01*
X101123738Y-94446028D01*
X101253972Y-94576262D01*
X101407111Y-94678586D01*
X101577271Y-94749068D01*
X101757911Y-94785000D01*
X101942089Y-94785000D01*
X102122729Y-94749068D01*
X102292889Y-94678586D01*
X102446028Y-94576262D01*
X102576262Y-94446028D01*
X102678586Y-94292889D01*
X102749068Y-94122729D01*
X102785000Y-93942089D01*
X102785000Y-93757911D01*
X102749068Y-93577271D01*
X102678586Y-93407111D01*
X102576262Y-93253972D01*
X102446028Y-93123738D01*
X102292889Y-93021414D01*
X102122729Y-92950932D01*
X102001649Y-92926847D01*
X101935011Y-92860210D01*
X101935011Y-89190142D01*
X102077271Y-89249068D01*
X102257911Y-89285000D01*
X102442089Y-89285000D01*
X102622729Y-89249068D01*
X102792889Y-89178586D01*
X102946028Y-89076262D01*
X103076262Y-88946028D01*
X103178586Y-88792889D01*
X103249068Y-88622729D01*
X103285000Y-88442089D01*
X103285000Y-88257911D01*
X103249068Y-88077271D01*
X103178586Y-87907111D01*
X103076262Y-87753972D01*
X102946028Y-87623738D01*
X102792889Y-87521414D01*
X102622729Y-87450932D01*
X102442089Y-87415000D01*
X102257911Y-87415000D01*
X102077271Y-87450932D01*
X101935011Y-87509858D01*
X101935011Y-77759788D01*
X103243242Y-76451558D01*
X103332456Y-76585077D01*
X103514923Y-76767544D01*
X103729482Y-76910907D01*
X103967887Y-77009658D01*
X104220976Y-77060000D01*
X104479024Y-77060000D01*
X104567583Y-77042385D01*
X105764981Y-78239783D01*
X105764981Y-87759854D01*
X105622729Y-87700932D01*
X105442089Y-87665000D01*
X105257911Y-87665000D01*
X105077271Y-87700932D01*
X104907111Y-87771414D01*
X104753972Y-87873738D01*
X104623738Y-88003972D01*
X104521414Y-88157111D01*
X104450932Y-88327271D01*
X104415000Y-88507911D01*
X104415000Y-88692089D01*
X104450932Y-88872729D01*
X104521414Y-89042889D01*
X104590000Y-89145536D01*
X104590001Y-92804463D01*
X104521414Y-92907111D01*
X104450932Y-93077271D01*
X104415000Y-93257911D01*
X104415000Y-93442089D01*
X104450932Y-93622729D01*
X104521414Y-93792889D01*
X104623738Y-93946028D01*
X104753972Y-94076262D01*
X104907111Y-94178586D01*
X105077271Y-94249068D01*
X105257911Y-94285000D01*
X105442089Y-94285000D01*
X105622729Y-94249068D01*
X105764981Y-94190146D01*
X105764982Y-141987648D01*
X105761305Y-142024981D01*
X105775979Y-142173966D01*
X105819435Y-142317227D01*
X105890007Y-142449257D01*
X105961182Y-142535983D01*
X105984981Y-142564982D01*
X106013979Y-142588780D01*
X108840001Y-145414803D01*
X108840000Y-151804464D01*
X108771414Y-151907111D01*
X108700932Y-152077271D01*
X108665000Y-152257911D01*
X108665000Y-152442089D01*
X108700932Y-152622729D01*
X108771414Y-152792889D01*
X108873738Y-152946028D01*
X109003972Y-153076262D01*
X109024532Y-153090000D01*
X100164803Y-153090000D01*
X94773153Y-147698352D01*
X94749068Y-147577271D01*
X94678586Y-147407111D01*
X94576262Y-147253972D01*
X94446028Y-147123738D01*
X94292889Y-147021414D01*
X94122729Y-146950932D01*
X93942089Y-146915000D01*
X93757911Y-146915000D01*
X93577271Y-146950932D01*
X93407111Y-147021414D01*
X93253972Y-147123738D01*
X93123738Y-147253972D01*
X93021414Y-147407111D01*
X92950932Y-147577271D01*
X92915000Y-147757911D01*
X92915000Y-147942089D01*
X92950932Y-148122729D01*
X93021414Y-148292889D01*
X93123738Y-148446028D01*
X93253972Y-148576262D01*
X93407111Y-148678586D01*
X93577271Y-148749068D01*
X93698352Y-148773153D01*
X99286205Y-154361008D01*
X99309999Y-154390001D01*
X99338992Y-154413795D01*
X99338996Y-154413799D01*
X99355584Y-154427412D01*
X99425724Y-154484974D01*
X99557753Y-154555546D01*
X99701014Y-154599003D01*
X99812667Y-154610000D01*
X99812676Y-154610000D01*
X99849999Y-154613676D01*
X99887322Y-154610000D01*
X113554465Y-154610000D01*
X113657111Y-154678586D01*
X113827271Y-154749068D01*
X114007911Y-154785000D01*
X114192089Y-154785000D01*
X114372729Y-154749068D01*
X114542889Y-154678586D01*
X114645535Y-154610000D01*
X126549092Y-154610000D01*
X126467023Y-154664837D01*
X126164837Y-154967023D01*
X125927412Y-155322355D01*
X125763870Y-155717179D01*
X125680497Y-156136323D01*
X125680497Y-156563677D01*
X125763870Y-156982821D01*
X125927412Y-157377645D01*
X126164837Y-157732977D01*
X126467023Y-158035163D01*
X126698753Y-158190000D01*
X101897109Y-158190000D01*
X102085178Y-157981355D01*
X102234157Y-157731252D01*
X102331481Y-157456891D01*
X102210814Y-157227000D01*
X101017000Y-157227000D01*
X101017000Y-157247000D01*
X100763000Y-157247000D01*
X100763000Y-157227000D01*
X100743000Y-157227000D01*
X100743000Y-156973000D01*
X100763000Y-156973000D01*
X100763000Y-155779845D01*
X101017000Y-155779845D01*
X101017000Y-156973000D01*
X102210814Y-156973000D01*
X102331481Y-156743109D01*
X102234157Y-156468748D01*
X102085178Y-156218645D01*
X101890269Y-156002412D01*
X101656920Y-155828359D01*
X101394099Y-155703175D01*
X101246890Y-155658524D01*
X101017000Y-155779845D01*
X100763000Y-155779845D01*
X100533110Y-155658524D01*
X100385901Y-155703175D01*
X100123080Y-155828359D01*
X99889731Y-156002412D01*
X99813966Y-156086466D01*
X99789502Y-156005820D01*
X99730537Y-155895506D01*
X99651185Y-155798815D01*
X99554494Y-155719463D01*
X99444180Y-155660498D01*
X99324482Y-155624188D01*
X99200000Y-155611928D01*
X97500000Y-155611928D01*
X97375518Y-155624188D01*
X97350727Y-155631708D01*
X97222588Y-155322355D01*
X96985163Y-154967023D01*
X96682977Y-154664837D01*
X96327645Y-154427412D01*
X95932821Y-154263870D01*
X95513677Y-154180497D01*
X95086323Y-154180497D01*
X94667179Y-154263870D01*
X94272355Y-154427412D01*
X93917023Y-154664837D01*
X93614837Y-154967023D01*
X93377412Y-155322355D01*
X93213870Y-155717179D01*
X93130497Y-156136323D01*
X93130497Y-156563677D01*
X93213870Y-156982821D01*
X93377412Y-157377645D01*
X93614837Y-157732977D01*
X93917023Y-158035163D01*
X94148753Y-158190000D01*
X88010000Y-158190000D01*
X88010000Y-157009253D01*
X88050000Y-157013193D01*
X88082419Y-157010000D01*
X90817581Y-157010000D01*
X90850000Y-157013193D01*
X90882419Y-157010000D01*
X90979383Y-157000450D01*
X91103793Y-156962710D01*
X91218450Y-156901425D01*
X91318948Y-156818948D01*
X91401425Y-156718450D01*
X91462710Y-156603793D01*
X91500450Y-156479383D01*
X91513193Y-156350000D01*
X91510000Y-156317581D01*
X91510000Y-151382419D01*
X91513193Y-151350000D01*
X91500450Y-151220617D01*
X91462710Y-151096207D01*
X91401425Y-150981550D01*
X91318948Y-150881052D01*
X91218450Y-150798575D01*
X91103793Y-150737290D01*
X90979383Y-150699550D01*
X90882419Y-150690000D01*
X90850000Y-150686807D01*
X90817581Y-150690000D01*
X88082419Y-150690000D01*
X88050000Y-150686807D01*
X88017581Y-150690000D01*
X88010000Y-150690747D01*
X88010000Y-147704248D01*
X88151342Y-147915781D01*
X88384219Y-148148658D01*
X88658053Y-148331628D01*
X88962322Y-148457660D01*
X89285331Y-148521910D01*
X89614669Y-148521910D01*
X89937678Y-148457660D01*
X90241947Y-148331628D01*
X90515781Y-148148658D01*
X90748658Y-147915781D01*
X90931628Y-147641947D01*
X91057660Y-147337678D01*
X91121910Y-147014669D01*
X91121910Y-146685331D01*
X91057660Y-146362322D01*
X90931628Y-146058053D01*
X90748658Y-145784219D01*
X90515781Y-145551342D01*
X90241947Y-145368372D01*
X89937678Y-145242340D01*
X89614669Y-145178090D01*
X89285331Y-145178090D01*
X88962322Y-145242340D01*
X88658053Y-145368372D01*
X88384219Y-145551342D01*
X88151342Y-145784219D01*
X88010000Y-145995752D01*
X88010000Y-118245999D01*
X93611323Y-118245999D01*
X93614999Y-118283322D01*
X93615000Y-122677667D01*
X93611323Y-122714999D01*
X93625997Y-122863984D01*
X93669453Y-123007245D01*
X93740025Y-123139275D01*
X93811200Y-123226001D01*
X93834999Y-123255000D01*
X93863997Y-123278798D01*
X94108791Y-123523592D01*
X94065000Y-123743740D01*
X94065000Y-124036260D01*
X94122068Y-124323158D01*
X94234010Y-124593411D01*
X94396525Y-124836632D01*
X94603368Y-125043475D01*
X94846589Y-125205990D01*
X95116842Y-125317932D01*
X95403740Y-125375000D01*
X95696260Y-125375000D01*
X95983158Y-125317932D01*
X96253411Y-125205990D01*
X96496632Y-125043475D01*
X96628487Y-124911620D01*
X96650498Y-124984180D01*
X96709463Y-125094494D01*
X96788815Y-125191185D01*
X96885506Y-125270537D01*
X96995820Y-125329502D01*
X97115518Y-125365812D01*
X97240000Y-125378072D01*
X98503271Y-125378072D01*
X101390001Y-128264803D01*
X101390000Y-133504464D01*
X101321414Y-133607111D01*
X101250932Y-133777271D01*
X101215000Y-133957911D01*
X101215000Y-134142089D01*
X101250932Y-134322729D01*
X101321414Y-134492889D01*
X101423738Y-134646028D01*
X101553972Y-134776262D01*
X101707111Y-134878586D01*
X101877271Y-134949068D01*
X102057911Y-134985000D01*
X102242089Y-134985000D01*
X102422729Y-134949068D01*
X102592889Y-134878586D01*
X102746028Y-134776262D01*
X102876262Y-134646028D01*
X102978586Y-134492889D01*
X103049068Y-134322729D01*
X103085000Y-134142089D01*
X103085000Y-133957911D01*
X103049068Y-133777271D01*
X102978586Y-133607111D01*
X102910000Y-133504465D01*
X102910000Y-127987322D01*
X102913676Y-127949999D01*
X102910000Y-127912676D01*
X102910000Y-127912667D01*
X102899003Y-127801014D01*
X102855546Y-127657753D01*
X102784974Y-127525723D01*
X102713799Y-127438997D01*
X102690001Y-127409999D01*
X102661003Y-127386201D01*
X99578072Y-124303271D01*
X99578072Y-123040000D01*
X99565812Y-122915518D01*
X99529502Y-122795820D01*
X99470537Y-122685506D01*
X99391185Y-122588815D01*
X99294494Y-122509463D01*
X99184180Y-122450498D01*
X99111620Y-122428487D01*
X99243475Y-122296632D01*
X99405990Y-122053411D01*
X99517932Y-121783158D01*
X99575000Y-121496260D01*
X99575000Y-121203740D01*
X99517932Y-120916842D01*
X99405990Y-120646589D01*
X99243475Y-120403368D01*
X99036632Y-120196525D01*
X98854466Y-120074805D01*
X98971355Y-120005178D01*
X99187588Y-119810269D01*
X99361641Y-119576920D01*
X99486825Y-119314099D01*
X99531476Y-119166890D01*
X99410155Y-118937000D01*
X98217000Y-118937000D01*
X98217000Y-118957000D01*
X97963000Y-118957000D01*
X97963000Y-118937000D01*
X97943000Y-118937000D01*
X97943000Y-118683000D01*
X97963000Y-118683000D01*
X97963000Y-118663000D01*
X98217000Y-118663000D01*
X98217000Y-118683000D01*
X99410155Y-118683000D01*
X99531476Y-118453110D01*
X99486825Y-118305901D01*
X99361641Y-118043080D01*
X99187588Y-117809731D01*
X98971355Y-117614822D01*
X98721252Y-117465843D01*
X98568320Y-117411594D01*
X98696028Y-117326262D01*
X98826262Y-117196028D01*
X98928586Y-117042889D01*
X98999068Y-116872729D01*
X99035000Y-116692089D01*
X99035000Y-116507911D01*
X98999068Y-116327271D01*
X98928586Y-116157111D01*
X98826262Y-116003972D01*
X98696028Y-115873738D01*
X98542889Y-115771414D01*
X98372729Y-115700932D01*
X98192089Y-115665000D01*
X98007911Y-115665000D01*
X97827271Y-115700932D01*
X97657111Y-115771414D01*
X97600000Y-115809574D01*
X97542889Y-115771414D01*
X97372729Y-115700932D01*
X97192089Y-115665000D01*
X97007911Y-115665000D01*
X96827271Y-115700932D01*
X96657111Y-115771414D01*
X96554465Y-115840000D01*
X96058320Y-115840000D01*
X96020997Y-115836324D01*
X95983674Y-115840000D01*
X95983665Y-115840000D01*
X95872012Y-115850997D01*
X95728751Y-115894454D01*
X95596721Y-115965026D01*
X95549266Y-116003972D01*
X95480997Y-116059999D01*
X95457199Y-116088997D01*
X93864002Y-117682195D01*
X93834998Y-117705998D01*
X93800801Y-117747668D01*
X93740025Y-117821723D01*
X93717765Y-117863368D01*
X93669453Y-117953753D01*
X93625996Y-118097014D01*
X93614999Y-118208667D01*
X93614999Y-118208677D01*
X93611323Y-118245999D01*
X88010000Y-118245999D01*
X88010000Y-108607911D01*
X95265000Y-108607911D01*
X95265000Y-108792089D01*
X95300932Y-108972729D01*
X95371414Y-109142889D01*
X95473738Y-109296028D01*
X95603972Y-109426262D01*
X95757111Y-109528586D01*
X95927271Y-109599068D01*
X96107911Y-109635000D01*
X96292089Y-109635000D01*
X96472729Y-109599068D01*
X96642889Y-109528586D01*
X96796028Y-109426262D01*
X96926262Y-109296028D01*
X97028586Y-109142889D01*
X97099068Y-108972729D01*
X97123153Y-108851649D01*
X99496635Y-106478168D01*
X99577271Y-106511568D01*
X99757911Y-106547500D01*
X99942089Y-106547500D01*
X100122729Y-106511568D01*
X100292889Y-106441086D01*
X100446028Y-106338762D01*
X100576262Y-106208528D01*
X100678586Y-106055389D01*
X100749068Y-105885229D01*
X100785000Y-105704589D01*
X100785000Y-105520411D01*
X100749068Y-105339771D01*
X100678586Y-105169611D01*
X100576262Y-105016472D01*
X100446028Y-104886238D01*
X100292889Y-104783914D01*
X100122729Y-104713432D01*
X99942089Y-104677500D01*
X99757911Y-104677500D01*
X99577271Y-104713432D01*
X99407111Y-104783914D01*
X99307080Y-104850753D01*
X99287499Y-104848824D01*
X99250176Y-104852500D01*
X99250167Y-104852500D01*
X99138514Y-104863497D01*
X98995253Y-104906954D01*
X98863224Y-104977526D01*
X98863222Y-104977527D01*
X98863223Y-104977527D01*
X98776496Y-105048701D01*
X98776492Y-105048705D01*
X98747499Y-105072499D01*
X98723705Y-105101492D01*
X96048351Y-107776847D01*
X95927271Y-107800932D01*
X95757111Y-107871414D01*
X95603972Y-107973738D01*
X95473738Y-108103972D01*
X95371414Y-108257111D01*
X95300932Y-108427271D01*
X95265000Y-108607911D01*
X88010000Y-108607911D01*
X88010000Y-102007911D01*
X98215000Y-102007911D01*
X98215000Y-102192089D01*
X98250932Y-102372729D01*
X98321414Y-102542889D01*
X98423738Y-102696028D01*
X98553972Y-102826262D01*
X98707111Y-102928586D01*
X98877271Y-102999068D01*
X99057911Y-103035000D01*
X99242089Y-103035000D01*
X99422729Y-102999068D01*
X99592889Y-102928586D01*
X99746028Y-102826262D01*
X99876262Y-102696028D01*
X99978586Y-102542889D01*
X100049068Y-102372729D01*
X100085000Y-102192089D01*
X100085000Y-102007911D01*
X100049068Y-101827271D01*
X100019328Y-101755473D01*
X102251649Y-99523153D01*
X102372729Y-99499068D01*
X102542889Y-99428586D01*
X102696028Y-99326262D01*
X102826262Y-99196028D01*
X102928586Y-99042889D01*
X102999068Y-98872729D01*
X103035000Y-98692089D01*
X103035000Y-98507911D01*
X102999068Y-98327271D01*
X102928586Y-98157111D01*
X102826262Y-98003972D01*
X102696028Y-97873738D01*
X102542889Y-97771414D01*
X102372729Y-97700932D01*
X102192089Y-97665000D01*
X102007911Y-97665000D01*
X101827271Y-97700932D01*
X101657111Y-97771414D01*
X101503972Y-97873738D01*
X101373738Y-98003972D01*
X101271414Y-98157111D01*
X101200932Y-98327271D01*
X101176847Y-98448351D01*
X98638998Y-100986201D01*
X98610000Y-101009999D01*
X98586202Y-101038997D01*
X98586201Y-101038998D01*
X98515026Y-101125724D01*
X98489074Y-101174277D01*
X98444454Y-101257753D01*
X98400997Y-101401014D01*
X98390000Y-101512667D01*
X98390000Y-101512678D01*
X98386324Y-101550000D01*
X98387179Y-101558686D01*
X98321414Y-101657111D01*
X98250932Y-101827271D01*
X98215000Y-102007911D01*
X88010000Y-102007911D01*
X88010000Y-72329078D01*
X88101342Y-72465781D01*
X88334219Y-72698658D01*
X88608053Y-72881628D01*
X88912322Y-73007660D01*
X89235331Y-73071910D01*
X89564669Y-73071910D01*
X89887678Y-73007660D01*
X90191947Y-72881628D01*
X90465781Y-72698658D01*
X90698658Y-72465781D01*
X90881628Y-72191947D01*
X91007660Y-71887678D01*
X91071910Y-71564669D01*
X91071910Y-71235331D01*
X91007660Y-70912322D01*
X90881628Y-70608053D01*
X90698658Y-70334219D01*
X90465781Y-70101342D01*
X90329078Y-70010000D01*
X93171860Y-70010000D01*
X93164837Y-70017023D01*
G37*
%TD.AperFunction*%
%TD*%
M02*
