%TF.GenerationSoftware,KiCad,Pcbnew,(5.1.9)-1*%
%TF.CreationDate,2021-03-11T14:12:12+01:00*%
%TF.ProjectId,HB-RC-12-EP-2,48422d52-432d-4313-922d-45502d322e6b,rev?*%
%TF.SameCoordinates,Original*%
%TF.FileFunction,Paste,Top*%
%TF.FilePolarity,Positive*%
%FSLAX46Y46*%
G04 Gerber Fmt 4.6, Leading zero omitted, Abs format (unit mm)*
G04 Created by KiCad (PCBNEW (5.1.9)-1) date 2021-03-11 14:12:12*
%MOMM*%
%LPD*%
G01*
G04 APERTURE LIST*
%ADD10R,0.300000X1.300000*%
%ADD11R,1.800000X4.000000*%
%ADD12R,0.550000X1.500000*%
%ADD13R,1.500000X0.550000*%
%ADD14R,1.200000X0.900000*%
%ADD15R,2.000000X0.640000*%
%ADD16R,1.060000X0.650000*%
%ADD17R,0.800000X0.900000*%
%ADD18R,2.750000X1.000000*%
%ADD19R,1.500000X1.500000*%
%ADD20R,0.400000X3.200000*%
%ADD21R,3.400000X1.300000*%
G04 APERTURE END LIST*
D10*
%TO.C,J3*%
X117350000Y-150100000D03*
X116850000Y-150100000D03*
X116350000Y-150100000D03*
X115850000Y-150100000D03*
X115350000Y-150100000D03*
X114850000Y-150100000D03*
X114350000Y-150100000D03*
X113850000Y-150100000D03*
X113350000Y-150100000D03*
X112850000Y-150100000D03*
X112350000Y-150100000D03*
X111850000Y-150100000D03*
X111350000Y-150100000D03*
X110850000Y-150100000D03*
X110350000Y-150100000D03*
X109850000Y-150100000D03*
X109350000Y-150100000D03*
X108850000Y-150100000D03*
X108350000Y-150100000D03*
X107850000Y-150100000D03*
X107350000Y-150100000D03*
X106850000Y-150100000D03*
X106350000Y-150100000D03*
X105850000Y-150100000D03*
D11*
X103950000Y-153350000D03*
X119250000Y-153350000D03*
%TD*%
%TO.C,R10*%
G36*
G01*
X122149999Y-77500000D02*
X123050001Y-77500000D01*
G75*
G02*
X123300000Y-77749999I0J-249999D01*
G01*
X123300000Y-78450001D01*
G75*
G02*
X123050001Y-78700000I-249999J0D01*
G01*
X122149999Y-78700000D01*
G75*
G02*
X121900000Y-78450001I0J249999D01*
G01*
X121900000Y-77749999D01*
G75*
G02*
X122149999Y-77500000I249999J0D01*
G01*
G37*
G36*
G01*
X122149999Y-75500000D02*
X123050001Y-75500000D01*
G75*
G02*
X123300000Y-75749999I0J-249999D01*
G01*
X123300000Y-76450001D01*
G75*
G02*
X123050001Y-76700000I-249999J0D01*
G01*
X122149999Y-76700000D01*
G75*
G02*
X121900000Y-76450001I0J249999D01*
G01*
X121900000Y-75749999D01*
G75*
G02*
X122149999Y-75500000I249999J0D01*
G01*
G37*
%TD*%
%TO.C,C17*%
G36*
G01*
X94696121Y-90332517D02*
X95367483Y-91003879D01*
G75*
G02*
X95367483Y-91357821I-176971J-176971D01*
G01*
X94890575Y-91834729D01*
G75*
G02*
X94536633Y-91834729I-176971J176971D01*
G01*
X93865271Y-91163367D01*
G75*
G02*
X93865271Y-90809425I176971J176971D01*
G01*
X94342179Y-90332517D01*
G75*
G02*
X94696121Y-90332517I176971J-176971D01*
G01*
G37*
G36*
G01*
X96163173Y-88865076D02*
X96834924Y-89536827D01*
G75*
G02*
X96834924Y-89890381I-176777J-176777D01*
G01*
X96357627Y-90367678D01*
G75*
G02*
X96004073Y-90367678I-176777J176777D01*
G01*
X95332322Y-89695927D01*
G75*
G02*
X95332322Y-89342373I176777J176777D01*
G01*
X95809619Y-88865076D01*
G75*
G02*
X96163173Y-88865076I176777J-176777D01*
G01*
G37*
%TD*%
D12*
%TO.C,U1*%
X100350000Y-95500000D03*
X101150000Y-95500000D03*
X101950000Y-95500000D03*
X102750000Y-95500000D03*
X103550000Y-95500000D03*
X104350000Y-95500000D03*
X105150000Y-95500000D03*
X105950000Y-95500000D03*
X106750000Y-95500000D03*
X107550000Y-95500000D03*
X108350000Y-95500000D03*
D13*
X110050000Y-93800000D03*
X110050000Y-93000000D03*
X110050000Y-92200000D03*
X110050000Y-91400000D03*
X110050000Y-90600000D03*
X110050000Y-89800000D03*
X110050000Y-89000000D03*
X110050000Y-88200000D03*
X110050000Y-87400000D03*
X110050000Y-86600000D03*
X110050000Y-85800000D03*
D12*
X108350000Y-84100000D03*
X107550000Y-84100000D03*
X106750000Y-84100000D03*
X105950000Y-84100000D03*
X105150000Y-84100000D03*
X104350000Y-84100000D03*
X103550000Y-84100000D03*
X102750000Y-84100000D03*
X101950000Y-84100000D03*
X101150000Y-84100000D03*
X100350000Y-84100000D03*
D13*
X98650000Y-85800000D03*
X98650000Y-86600000D03*
X98650000Y-87400000D03*
X98650000Y-88200000D03*
X98650000Y-89000000D03*
X98650000Y-89800000D03*
X98650000Y-90600000D03*
X98650000Y-91400000D03*
X98650000Y-92200000D03*
X98650000Y-93000000D03*
X98650000Y-93800000D03*
%TD*%
%TO.C,R8*%
G36*
G01*
X102050001Y-139450000D02*
X101149999Y-139450000D01*
G75*
G02*
X100900000Y-139200001I0J249999D01*
G01*
X100900000Y-138499999D01*
G75*
G02*
X101149999Y-138250000I249999J0D01*
G01*
X102050001Y-138250000D01*
G75*
G02*
X102300000Y-138499999I0J-249999D01*
G01*
X102300000Y-139200001D01*
G75*
G02*
X102050001Y-139450000I-249999J0D01*
G01*
G37*
G36*
G01*
X102050001Y-141450000D02*
X101149999Y-141450000D01*
G75*
G02*
X100900000Y-141200001I0J249999D01*
G01*
X100900000Y-140499999D01*
G75*
G02*
X101149999Y-140250000I249999J0D01*
G01*
X102050001Y-140250000D01*
G75*
G02*
X102300000Y-140499999I0J-249999D01*
G01*
X102300000Y-141200001D01*
G75*
G02*
X102050001Y-141450000I-249999J0D01*
G01*
G37*
%TD*%
%TO.C,R8-2*%
G36*
G01*
X101050001Y-145200000D02*
X100149999Y-145200000D01*
G75*
G02*
X99900000Y-144950001I0J249999D01*
G01*
X99900000Y-144249999D01*
G75*
G02*
X100149999Y-144000000I249999J0D01*
G01*
X101050001Y-144000000D01*
G75*
G02*
X101300000Y-144249999I0J-249999D01*
G01*
X101300000Y-144950001D01*
G75*
G02*
X101050001Y-145200000I-249999J0D01*
G01*
G37*
G36*
G01*
X101050001Y-147200000D02*
X100149999Y-147200000D01*
G75*
G02*
X99900000Y-146950001I0J249999D01*
G01*
X99900000Y-146249999D01*
G75*
G02*
X100149999Y-146000000I249999J0D01*
G01*
X101050001Y-146000000D01*
G75*
G02*
X101300000Y-146249999I0J-249999D01*
G01*
X101300000Y-146950001D01*
G75*
G02*
X101050001Y-147200000I-249999J0D01*
G01*
G37*
%TD*%
%TO.C,C4*%
G36*
G01*
X111325000Y-145112500D02*
X110375000Y-145112500D01*
G75*
G02*
X110125000Y-144862500I0J250000D01*
G01*
X110125000Y-144187500D01*
G75*
G02*
X110375000Y-143937500I250000J0D01*
G01*
X111325000Y-143937500D01*
G75*
G02*
X111575000Y-144187500I0J-250000D01*
G01*
X111575000Y-144862500D01*
G75*
G02*
X111325000Y-145112500I-250000J0D01*
G01*
G37*
G36*
G01*
X111325000Y-147187500D02*
X110375000Y-147187500D01*
G75*
G02*
X110125000Y-146937500I0J250000D01*
G01*
X110125000Y-146262500D01*
G75*
G02*
X110375000Y-146012500I250000J0D01*
G01*
X111325000Y-146012500D01*
G75*
G02*
X111575000Y-146262500I0J-250000D01*
G01*
X111575000Y-146937500D01*
G75*
G02*
X111325000Y-147187500I-250000J0D01*
G01*
G37*
%TD*%
D14*
%TO.C,D5*%
X119100000Y-140100000D03*
X119100000Y-136800000D03*
%TD*%
%TO.C,D4*%
X116350000Y-136800000D03*
X116350000Y-140100000D03*
%TD*%
%TO.C,R12*%
G36*
G01*
X106250000Y-98149999D02*
X106250000Y-99050001D01*
G75*
G02*
X106000001Y-99300000I-249999J0D01*
G01*
X105299999Y-99300000D01*
G75*
G02*
X105050000Y-99050001I0J249999D01*
G01*
X105050000Y-98149999D01*
G75*
G02*
X105299999Y-97900000I249999J0D01*
G01*
X106000001Y-97900000D01*
G75*
G02*
X106250000Y-98149999I0J-249999D01*
G01*
G37*
G36*
G01*
X108250000Y-98149999D02*
X108250000Y-99050001D01*
G75*
G02*
X108000001Y-99300000I-249999J0D01*
G01*
X107299999Y-99300000D01*
G75*
G02*
X107050000Y-99050001I0J249999D01*
G01*
X107050000Y-98149999D01*
G75*
G02*
X107299999Y-97900000I249999J0D01*
G01*
X108000001Y-97900000D01*
G75*
G02*
X108250000Y-98149999I0J-249999D01*
G01*
G37*
%TD*%
D15*
%TO.C,U5*%
X116700000Y-84720000D03*
X116700000Y-82180000D03*
X123000000Y-82180000D03*
X123000000Y-84720000D03*
%TD*%
D16*
%TO.C,U4*%
X129250000Y-144700000D03*
X129250000Y-146600000D03*
X127050000Y-146600000D03*
X127050000Y-145650000D03*
X127050000Y-144700000D03*
%TD*%
D17*
%TO.C,U3*%
X95950000Y-148900000D03*
X95000000Y-146900000D03*
X96900000Y-146900000D03*
%TD*%
D18*
%TO.C,U2*%
X109750000Y-128350000D03*
X109750000Y-126350000D03*
X109750000Y-124350000D03*
X128650000Y-124850000D03*
X109750000Y-122350000D03*
X128650000Y-122350000D03*
X109750000Y-120350000D03*
X128650000Y-119950000D03*
X109750000Y-118350000D03*
X109750000Y-116350000D03*
X109750000Y-114350000D03*
%TD*%
D19*
%TO.C,SW13*%
X89500000Y-150000000D03*
X89500000Y-157800000D03*
%TD*%
%TO.C,SW12*%
X133200000Y-135180000D03*
X133200000Y-142980000D03*
%TD*%
%TO.C,SW10*%
X133200000Y-131850000D03*
X133200000Y-124050000D03*
%TD*%
%TO.C,SW8*%
X133200000Y-112920000D03*
X133200000Y-120720000D03*
%TD*%
%TO.C,SW6*%
X133200000Y-101790000D03*
X133200000Y-109590000D03*
%TD*%
%TO.C,SW4*%
X133200000Y-90660000D03*
X133200000Y-98460000D03*
%TD*%
%TO.C,SW2*%
X133200000Y-87330000D03*
X133200000Y-79530000D03*
%TD*%
%TO.C,SW11*%
X89500000Y-135200000D03*
X89500000Y-143000000D03*
%TD*%
%TO.C,SW9*%
X89500000Y-124050000D03*
X89500000Y-131850000D03*
%TD*%
%TO.C,SW7*%
X89500000Y-112920000D03*
X89500000Y-120720000D03*
%TD*%
%TO.C,SW5*%
X89500000Y-101790000D03*
X89500000Y-109590000D03*
%TD*%
%TO.C,SW3*%
X89500000Y-90660000D03*
X89500000Y-98460000D03*
%TD*%
%TO.C,SW1*%
X89500000Y-79530000D03*
X89500000Y-87330000D03*
%TD*%
%TO.C,R8-1*%
G36*
G01*
X103050001Y-145200000D02*
X102149999Y-145200000D01*
G75*
G02*
X101900000Y-144950001I0J249999D01*
G01*
X101900000Y-144249999D01*
G75*
G02*
X102149999Y-144000000I249999J0D01*
G01*
X103050001Y-144000000D01*
G75*
G02*
X103300000Y-144249999I0J-249999D01*
G01*
X103300000Y-144950001D01*
G75*
G02*
X103050001Y-145200000I-249999J0D01*
G01*
G37*
G36*
G01*
X103050001Y-147200000D02*
X102149999Y-147200000D01*
G75*
G02*
X101900000Y-146950001I0J249999D01*
G01*
X101900000Y-146249999D01*
G75*
G02*
X102149999Y-146000000I249999J0D01*
G01*
X103050001Y-146000000D01*
G75*
G02*
X103300000Y-146249999I0J-249999D01*
G01*
X103300000Y-146950001D01*
G75*
G02*
X103050001Y-147200000I-249999J0D01*
G01*
G37*
%TD*%
%TO.C,R13*%
G36*
G01*
X116950000Y-86149999D02*
X116950000Y-87050001D01*
G75*
G02*
X116700001Y-87300000I-249999J0D01*
G01*
X115999999Y-87300000D01*
G75*
G02*
X115750000Y-87050001I0J249999D01*
G01*
X115750000Y-86149999D01*
G75*
G02*
X115999999Y-85900000I249999J0D01*
G01*
X116700001Y-85900000D01*
G75*
G02*
X116950000Y-86149999I0J-249999D01*
G01*
G37*
G36*
G01*
X118950000Y-86149999D02*
X118950000Y-87050001D01*
G75*
G02*
X118700001Y-87300000I-249999J0D01*
G01*
X117999999Y-87300000D01*
G75*
G02*
X117750000Y-87050001I0J249999D01*
G01*
X117750000Y-86149999D01*
G75*
G02*
X117999999Y-85900000I249999J0D01*
G01*
X118700001Y-85900000D01*
G75*
G02*
X118950000Y-86149999I0J-249999D01*
G01*
G37*
%TD*%
%TO.C,R11*%
G36*
G01*
X127250000Y-76500001D02*
X127250000Y-75599999D01*
G75*
G02*
X127499999Y-75350000I249999J0D01*
G01*
X128200001Y-75350000D01*
G75*
G02*
X128450000Y-75599999I0J-249999D01*
G01*
X128450000Y-76500001D01*
G75*
G02*
X128200001Y-76750000I-249999J0D01*
G01*
X127499999Y-76750000D01*
G75*
G02*
X127250000Y-76500001I0J249999D01*
G01*
G37*
G36*
G01*
X125250000Y-76500001D02*
X125250000Y-75599999D01*
G75*
G02*
X125499999Y-75350000I249999J0D01*
G01*
X126200001Y-75350000D01*
G75*
G02*
X126450000Y-75599999I0J-249999D01*
G01*
X126450000Y-76500001D01*
G75*
G02*
X126200001Y-76750000I-249999J0D01*
G01*
X125499999Y-76750000D01*
G75*
G02*
X125250000Y-76500001I0J249999D01*
G01*
G37*
%TD*%
%TO.C,R9*%
G36*
G01*
X129700001Y-141450000D02*
X128799999Y-141450000D01*
G75*
G02*
X128550000Y-141200001I0J249999D01*
G01*
X128550000Y-140499999D01*
G75*
G02*
X128799999Y-140250000I249999J0D01*
G01*
X129700001Y-140250000D01*
G75*
G02*
X129950000Y-140499999I0J-249999D01*
G01*
X129950000Y-141200001D01*
G75*
G02*
X129700001Y-141450000I-249999J0D01*
G01*
G37*
G36*
G01*
X129700001Y-143450000D02*
X128799999Y-143450000D01*
G75*
G02*
X128550000Y-143200001I0J249999D01*
G01*
X128550000Y-142499999D01*
G75*
G02*
X128799999Y-142250000I249999J0D01*
G01*
X129700001Y-142250000D01*
G75*
G02*
X129950000Y-142499999I0J-249999D01*
G01*
X129950000Y-143200001D01*
G75*
G02*
X129700001Y-143450000I-249999J0D01*
G01*
G37*
%TD*%
%TO.C,R5*%
G36*
G01*
X114300001Y-95950000D02*
X113399999Y-95950000D01*
G75*
G02*
X113150000Y-95700001I0J249999D01*
G01*
X113150000Y-94999999D01*
G75*
G02*
X113399999Y-94750000I249999J0D01*
G01*
X114300001Y-94750000D01*
G75*
G02*
X114550000Y-94999999I0J-249999D01*
G01*
X114550000Y-95700001D01*
G75*
G02*
X114300001Y-95950000I-249999J0D01*
G01*
G37*
G36*
G01*
X114300001Y-97950000D02*
X113399999Y-97950000D01*
G75*
G02*
X113150000Y-97700001I0J249999D01*
G01*
X113150000Y-96999999D01*
G75*
G02*
X113399999Y-96750000I249999J0D01*
G01*
X114300001Y-96750000D01*
G75*
G02*
X114550000Y-96999999I0J-249999D01*
G01*
X114550000Y-97700001D01*
G75*
G02*
X114300001Y-97950000I-249999J0D01*
G01*
G37*
%TD*%
%TO.C,R4*%
G36*
G01*
X114300001Y-99750000D02*
X113399999Y-99750000D01*
G75*
G02*
X113150000Y-99500001I0J249999D01*
G01*
X113150000Y-98799999D01*
G75*
G02*
X113399999Y-98550000I249999J0D01*
G01*
X114300001Y-98550000D01*
G75*
G02*
X114550000Y-98799999I0J-249999D01*
G01*
X114550000Y-99500001D01*
G75*
G02*
X114300001Y-99750000I-249999J0D01*
G01*
G37*
G36*
G01*
X114300001Y-101750000D02*
X113399999Y-101750000D01*
G75*
G02*
X113150000Y-101500001I0J249999D01*
G01*
X113150000Y-100799999D01*
G75*
G02*
X113399999Y-100550000I249999J0D01*
G01*
X114300001Y-100550000D01*
G75*
G02*
X114550000Y-100799999I0J-249999D01*
G01*
X114550000Y-101500001D01*
G75*
G02*
X114300001Y-101750000I-249999J0D01*
G01*
G37*
%TD*%
%TO.C,R3*%
G36*
G01*
X100550000Y-104100001D02*
X100550000Y-103199999D01*
G75*
G02*
X100799999Y-102950000I249999J0D01*
G01*
X101500001Y-102950000D01*
G75*
G02*
X101750000Y-103199999I0J-249999D01*
G01*
X101750000Y-104100001D01*
G75*
G02*
X101500001Y-104350000I-249999J0D01*
G01*
X100799999Y-104350000D01*
G75*
G02*
X100550000Y-104100001I0J249999D01*
G01*
G37*
G36*
G01*
X98550000Y-104100001D02*
X98550000Y-103199999D01*
G75*
G02*
X98799999Y-102950000I249999J0D01*
G01*
X99500001Y-102950000D01*
G75*
G02*
X99750000Y-103199999I0J-249999D01*
G01*
X99750000Y-104100001D01*
G75*
G02*
X99500001Y-104350000I-249999J0D01*
G01*
X98799999Y-104350000D01*
G75*
G02*
X98550000Y-104100001I0J249999D01*
G01*
G37*
%TD*%
%TO.C,R2*%
G36*
G01*
X127250000Y-78500001D02*
X127250000Y-77599999D01*
G75*
G02*
X127499999Y-77350000I249999J0D01*
G01*
X128200001Y-77350000D01*
G75*
G02*
X128450000Y-77599999I0J-249999D01*
G01*
X128450000Y-78500001D01*
G75*
G02*
X128200001Y-78750000I-249999J0D01*
G01*
X127499999Y-78750000D01*
G75*
G02*
X127250000Y-78500001I0J249999D01*
G01*
G37*
G36*
G01*
X125250000Y-78500001D02*
X125250000Y-77599999D01*
G75*
G02*
X125499999Y-77350000I249999J0D01*
G01*
X126200001Y-77350000D01*
G75*
G02*
X126450000Y-77599999I0J-249999D01*
G01*
X126450000Y-78500001D01*
G75*
G02*
X126200001Y-78750000I-249999J0D01*
G01*
X125499999Y-78750000D01*
G75*
G02*
X125250000Y-78500001I0J249999D01*
G01*
G37*
%TD*%
%TO.C,R1*%
G36*
G01*
X127250000Y-80500001D02*
X127250000Y-79599999D01*
G75*
G02*
X127499999Y-79350000I249999J0D01*
G01*
X128200001Y-79350000D01*
G75*
G02*
X128450000Y-79599999I0J-249999D01*
G01*
X128450000Y-80500001D01*
G75*
G02*
X128200001Y-80750000I-249999J0D01*
G01*
X127499999Y-80750000D01*
G75*
G02*
X127250000Y-80500001I0J249999D01*
G01*
G37*
G36*
G01*
X125250000Y-80500001D02*
X125250000Y-79599999D01*
G75*
G02*
X125499999Y-79350000I249999J0D01*
G01*
X126200001Y-79350000D01*
G75*
G02*
X126450000Y-79599999I0J-249999D01*
G01*
X126450000Y-80500001D01*
G75*
G02*
X126200001Y-80750000I-249999J0D01*
G01*
X125499999Y-80750000D01*
G75*
G02*
X125250000Y-80500001I0J249999D01*
G01*
G37*
%TD*%
D17*
%TO.C,Q2*%
X104900000Y-138850000D03*
X105850000Y-140850000D03*
X103950000Y-140850000D03*
%TD*%
D20*
%TO.C,Q1*%
X105450000Y-101600000D03*
X106650000Y-101600000D03*
X107850000Y-101600000D03*
%TD*%
D21*
%TO.C,L1*%
X104850000Y-135350000D03*
X104850000Y-133250000D03*
%TD*%
%TO.C,D6*%
G36*
G01*
X130700001Y-74775000D02*
X129799999Y-74775000D01*
G75*
G02*
X129550000Y-74525001I0J249999D01*
G01*
X129550000Y-73874999D01*
G75*
G02*
X129799999Y-73625000I249999J0D01*
G01*
X130700001Y-73625000D01*
G75*
G02*
X130950000Y-73874999I0J-249999D01*
G01*
X130950000Y-74525001D01*
G75*
G02*
X130700001Y-74775000I-249999J0D01*
G01*
G37*
G36*
G01*
X130700001Y-76825000D02*
X129799999Y-76825000D01*
G75*
G02*
X129550000Y-76575001I0J249999D01*
G01*
X129550000Y-75924999D01*
G75*
G02*
X129799999Y-75675000I249999J0D01*
G01*
X130700001Y-75675000D01*
G75*
G02*
X130950000Y-75924999I0J-249999D01*
G01*
X130950000Y-76575001D01*
G75*
G02*
X130700001Y-76825000I-249999J0D01*
G01*
G37*
%TD*%
D14*
%TO.C,D3*%
X113600000Y-136800000D03*
X113600000Y-140100000D03*
%TD*%
%TO.C,D2*%
G36*
G01*
X131749999Y-73625000D02*
X132650001Y-73625000D01*
G75*
G02*
X132900000Y-73874999I0J-249999D01*
G01*
X132900000Y-74525001D01*
G75*
G02*
X132650001Y-74775000I-249999J0D01*
G01*
X131749999Y-74775000D01*
G75*
G02*
X131500000Y-74525001I0J249999D01*
G01*
X131500000Y-73874999D01*
G75*
G02*
X131749999Y-73625000I249999J0D01*
G01*
G37*
G36*
G01*
X131749999Y-75675000D02*
X132650001Y-75675000D01*
G75*
G02*
X132900000Y-75924999I0J-249999D01*
G01*
X132900000Y-76575001D01*
G75*
G02*
X132650001Y-76825000I-249999J0D01*
G01*
X131749999Y-76825000D01*
G75*
G02*
X131500000Y-76575001I0J249999D01*
G01*
X131500000Y-75924999D01*
G75*
G02*
X131749999Y-75675000I249999J0D01*
G01*
G37*
%TD*%
%TO.C,D1*%
G36*
G01*
X133649999Y-73625000D02*
X134550001Y-73625000D01*
G75*
G02*
X134800000Y-73874999I0J-249999D01*
G01*
X134800000Y-74525001D01*
G75*
G02*
X134550001Y-74775000I-249999J0D01*
G01*
X133649999Y-74775000D01*
G75*
G02*
X133400000Y-74525001I0J249999D01*
G01*
X133400000Y-73874999D01*
G75*
G02*
X133649999Y-73625000I249999J0D01*
G01*
G37*
G36*
G01*
X133649999Y-75675000D02*
X134550001Y-75675000D01*
G75*
G02*
X134800000Y-75924999I0J-249999D01*
G01*
X134800000Y-76575001D01*
G75*
G02*
X134550001Y-76825000I-249999J0D01*
G01*
X133649999Y-76825000D01*
G75*
G02*
X133400000Y-76575001I0J249999D01*
G01*
X133400000Y-75924999D01*
G75*
G02*
X133649999Y-75675000I249999J0D01*
G01*
G37*
%TD*%
%TO.C,C20*%
G36*
G01*
X96362500Y-145375000D02*
X96362500Y-144425000D01*
G75*
G02*
X96612500Y-144175000I250000J0D01*
G01*
X97287500Y-144175000D01*
G75*
G02*
X97537500Y-144425000I0J-250000D01*
G01*
X97537500Y-145375000D01*
G75*
G02*
X97287500Y-145625000I-250000J0D01*
G01*
X96612500Y-145625000D01*
G75*
G02*
X96362500Y-145375000I0J250000D01*
G01*
G37*
G36*
G01*
X94287500Y-145375000D02*
X94287500Y-144425000D01*
G75*
G02*
X94537500Y-144175000I250000J0D01*
G01*
X95212500Y-144175000D01*
G75*
G02*
X95462500Y-144425000I0J-250000D01*
G01*
X95462500Y-145375000D01*
G75*
G02*
X95212500Y-145625000I-250000J0D01*
G01*
X94537500Y-145625000D01*
G75*
G02*
X94287500Y-145375000I0J250000D01*
G01*
G37*
%TD*%
%TO.C,C19*%
G36*
G01*
X95537500Y-150475000D02*
X95537500Y-151425000D01*
G75*
G02*
X95287500Y-151675000I-250000J0D01*
G01*
X94612500Y-151675000D01*
G75*
G02*
X94362500Y-151425000I0J250000D01*
G01*
X94362500Y-150475000D01*
G75*
G02*
X94612500Y-150225000I250000J0D01*
G01*
X95287500Y-150225000D01*
G75*
G02*
X95537500Y-150475000I0J-250000D01*
G01*
G37*
G36*
G01*
X97612500Y-150475000D02*
X97612500Y-151425000D01*
G75*
G02*
X97362500Y-151675000I-250000J0D01*
G01*
X96687500Y-151675000D01*
G75*
G02*
X96437500Y-151425000I0J250000D01*
G01*
X96437500Y-150475000D01*
G75*
G02*
X96687500Y-150225000I250000J0D01*
G01*
X97362500Y-150225000D01*
G75*
G02*
X97612500Y-150475000I0J-250000D01*
G01*
G37*
%TD*%
%TO.C,C18*%
G36*
G01*
X127075000Y-149925000D02*
X127075000Y-151775000D01*
G75*
G02*
X126825000Y-152025000I-250000J0D01*
G01*
X125825000Y-152025000D01*
G75*
G02*
X125575000Y-151775000I0J250000D01*
G01*
X125575000Y-149925000D01*
G75*
G02*
X125825000Y-149675000I250000J0D01*
G01*
X126825000Y-149675000D01*
G75*
G02*
X127075000Y-149925000I0J-250000D01*
G01*
G37*
G36*
G01*
X130325000Y-149925000D02*
X130325000Y-151775000D01*
G75*
G02*
X130075000Y-152025000I-250000J0D01*
G01*
X129075000Y-152025000D01*
G75*
G02*
X128825000Y-151775000I0J250000D01*
G01*
X128825000Y-149925000D01*
G75*
G02*
X129075000Y-149675000I250000J0D01*
G01*
X130075000Y-149675000D01*
G75*
G02*
X130325000Y-149925000I0J-250000D01*
G01*
G37*
%TD*%
%TO.C,C16*%
G36*
G01*
X105075000Y-80400000D02*
X104125000Y-80400000D01*
G75*
G02*
X103875000Y-80150000I0J250000D01*
G01*
X103875000Y-79475000D01*
G75*
G02*
X104125000Y-79225000I250000J0D01*
G01*
X105075000Y-79225000D01*
G75*
G02*
X105325000Y-79475000I0J-250000D01*
G01*
X105325000Y-80150000D01*
G75*
G02*
X105075000Y-80400000I-250000J0D01*
G01*
G37*
G36*
G01*
X105075000Y-82475000D02*
X104125000Y-82475000D01*
G75*
G02*
X103875000Y-82225000I0J250000D01*
G01*
X103875000Y-81550000D01*
G75*
G02*
X104125000Y-81300000I250000J0D01*
G01*
X105075000Y-81300000D01*
G75*
G02*
X105325000Y-81550000I0J-250000D01*
G01*
X105325000Y-82225000D01*
G75*
G02*
X105075000Y-82475000I-250000J0D01*
G01*
G37*
%TD*%
%TO.C,C15*%
G36*
G01*
X113600000Y-89825000D02*
X113600000Y-88875000D01*
G75*
G02*
X113850000Y-88625000I250000J0D01*
G01*
X114525000Y-88625000D01*
G75*
G02*
X114775000Y-88875000I0J-250000D01*
G01*
X114775000Y-89825000D01*
G75*
G02*
X114525000Y-90075000I-250000J0D01*
G01*
X113850000Y-90075000D01*
G75*
G02*
X113600000Y-89825000I0J250000D01*
G01*
G37*
G36*
G01*
X111525000Y-89825000D02*
X111525000Y-88875000D01*
G75*
G02*
X111775000Y-88625000I250000J0D01*
G01*
X112450000Y-88625000D01*
G75*
G02*
X112700000Y-88875000I0J-250000D01*
G01*
X112700000Y-89825000D01*
G75*
G02*
X112450000Y-90075000I-250000J0D01*
G01*
X111775000Y-90075000D01*
G75*
G02*
X111525000Y-89825000I0J250000D01*
G01*
G37*
%TD*%
%TO.C,C14*%
G36*
G01*
X103175000Y-100087500D02*
X104125000Y-100087500D01*
G75*
G02*
X104375000Y-100337500I0J-250000D01*
G01*
X104375000Y-101012500D01*
G75*
G02*
X104125000Y-101262500I-250000J0D01*
G01*
X103175000Y-101262500D01*
G75*
G02*
X102925000Y-101012500I0J250000D01*
G01*
X102925000Y-100337500D01*
G75*
G02*
X103175000Y-100087500I250000J0D01*
G01*
G37*
G36*
G01*
X103175000Y-98012500D02*
X104125000Y-98012500D01*
G75*
G02*
X104375000Y-98262500I0J-250000D01*
G01*
X104375000Y-98937500D01*
G75*
G02*
X104125000Y-99187500I-250000J0D01*
G01*
X103175000Y-99187500D01*
G75*
G02*
X102925000Y-98937500I0J250000D01*
G01*
X102925000Y-98262500D01*
G75*
G02*
X103175000Y-98012500I250000J0D01*
G01*
G37*
%TD*%
%TO.C,C13*%
G36*
G01*
X121125000Y-146012500D02*
X122075000Y-146012500D01*
G75*
G02*
X122325000Y-146262500I0J-250000D01*
G01*
X122325000Y-146937500D01*
G75*
G02*
X122075000Y-147187500I-250000J0D01*
G01*
X121125000Y-147187500D01*
G75*
G02*
X120875000Y-146937500I0J250000D01*
G01*
X120875000Y-146262500D01*
G75*
G02*
X121125000Y-146012500I250000J0D01*
G01*
G37*
G36*
G01*
X121125000Y-143937500D02*
X122075000Y-143937500D01*
G75*
G02*
X122325000Y-144187500I0J-250000D01*
G01*
X122325000Y-144862500D01*
G75*
G02*
X122075000Y-145112500I-250000J0D01*
G01*
X121125000Y-145112500D01*
G75*
G02*
X120875000Y-144862500I0J250000D01*
G01*
X120875000Y-144187500D01*
G75*
G02*
X121125000Y-143937500I250000J0D01*
G01*
G37*
%TD*%
%TO.C,C12*%
G36*
G01*
X117575000Y-145112500D02*
X116625000Y-145112500D01*
G75*
G02*
X116375000Y-144862500I0J250000D01*
G01*
X116375000Y-144187500D01*
G75*
G02*
X116625000Y-143937500I250000J0D01*
G01*
X117575000Y-143937500D01*
G75*
G02*
X117825000Y-144187500I0J-250000D01*
G01*
X117825000Y-144862500D01*
G75*
G02*
X117575000Y-145112500I-250000J0D01*
G01*
G37*
G36*
G01*
X117575000Y-147187500D02*
X116625000Y-147187500D01*
G75*
G02*
X116375000Y-146937500I0J250000D01*
G01*
X116375000Y-146262500D01*
G75*
G02*
X116625000Y-146012500I250000J0D01*
G01*
X117575000Y-146012500D01*
G75*
G02*
X117825000Y-146262500I0J-250000D01*
G01*
X117825000Y-146937500D01*
G75*
G02*
X117575000Y-147187500I-250000J0D01*
G01*
G37*
%TD*%
%TO.C,C11*%
G36*
G01*
X122025000Y-137837500D02*
X121075000Y-137837500D01*
G75*
G02*
X120825000Y-137587500I0J250000D01*
G01*
X120825000Y-136912500D01*
G75*
G02*
X121075000Y-136662500I250000J0D01*
G01*
X122025000Y-136662500D01*
G75*
G02*
X122275000Y-136912500I0J-250000D01*
G01*
X122275000Y-137587500D01*
G75*
G02*
X122025000Y-137837500I-250000J0D01*
G01*
G37*
G36*
G01*
X122025000Y-139912500D02*
X121075000Y-139912500D01*
G75*
G02*
X120825000Y-139662500I0J250000D01*
G01*
X120825000Y-138987500D01*
G75*
G02*
X121075000Y-138737500I250000J0D01*
G01*
X122025000Y-138737500D01*
G75*
G02*
X122275000Y-138987500I0J-250000D01*
G01*
X122275000Y-139662500D01*
G75*
G02*
X122025000Y-139912500I-250000J0D01*
G01*
G37*
%TD*%
%TO.C,C10*%
G36*
G01*
X107325000Y-145112500D02*
X106375000Y-145112500D01*
G75*
G02*
X106125000Y-144862500I0J250000D01*
G01*
X106125000Y-144187500D01*
G75*
G02*
X106375000Y-143937500I250000J0D01*
G01*
X107325000Y-143937500D01*
G75*
G02*
X107575000Y-144187500I0J-250000D01*
G01*
X107575000Y-144862500D01*
G75*
G02*
X107325000Y-145112500I-250000J0D01*
G01*
G37*
G36*
G01*
X107325000Y-147187500D02*
X106375000Y-147187500D01*
G75*
G02*
X106125000Y-146937500I0J250000D01*
G01*
X106125000Y-146262500D01*
G75*
G02*
X106375000Y-146012500I250000J0D01*
G01*
X107325000Y-146012500D01*
G75*
G02*
X107575000Y-146262500I0J-250000D01*
G01*
X107575000Y-146937500D01*
G75*
G02*
X107325000Y-147187500I-250000J0D01*
G01*
G37*
%TD*%
%TO.C,C9*%
G36*
G01*
X105325000Y-145112500D02*
X104375000Y-145112500D01*
G75*
G02*
X104125000Y-144862500I0J250000D01*
G01*
X104125000Y-144187500D01*
G75*
G02*
X104375000Y-143937500I250000J0D01*
G01*
X105325000Y-143937500D01*
G75*
G02*
X105575000Y-144187500I0J-250000D01*
G01*
X105575000Y-144862500D01*
G75*
G02*
X105325000Y-145112500I-250000J0D01*
G01*
G37*
G36*
G01*
X105325000Y-147187500D02*
X104375000Y-147187500D01*
G75*
G02*
X104125000Y-146937500I0J250000D01*
G01*
X104125000Y-146262500D01*
G75*
G02*
X104375000Y-146012500I250000J0D01*
G01*
X105325000Y-146012500D01*
G75*
G02*
X105575000Y-146262500I0J-250000D01*
G01*
X105575000Y-146937500D01*
G75*
G02*
X105325000Y-147187500I-250000J0D01*
G01*
G37*
%TD*%
%TO.C,C8*%
G36*
G01*
X124075000Y-145112500D02*
X123125000Y-145112500D01*
G75*
G02*
X122875000Y-144862500I0J250000D01*
G01*
X122875000Y-144187500D01*
G75*
G02*
X123125000Y-143937500I250000J0D01*
G01*
X124075000Y-143937500D01*
G75*
G02*
X124325000Y-144187500I0J-250000D01*
G01*
X124325000Y-144862500D01*
G75*
G02*
X124075000Y-145112500I-250000J0D01*
G01*
G37*
G36*
G01*
X124075000Y-147187500D02*
X123125000Y-147187500D01*
G75*
G02*
X122875000Y-146937500I0J250000D01*
G01*
X122875000Y-146262500D01*
G75*
G02*
X123125000Y-146012500I250000J0D01*
G01*
X124075000Y-146012500D01*
G75*
G02*
X124325000Y-146262500I0J-250000D01*
G01*
X124325000Y-146937500D01*
G75*
G02*
X124075000Y-147187500I-250000J0D01*
G01*
G37*
%TD*%
%TO.C,C7*%
G36*
G01*
X119825000Y-145112500D02*
X118875000Y-145112500D01*
G75*
G02*
X118625000Y-144862500I0J250000D01*
G01*
X118625000Y-144187500D01*
G75*
G02*
X118875000Y-143937500I250000J0D01*
G01*
X119825000Y-143937500D01*
G75*
G02*
X120075000Y-144187500I0J-250000D01*
G01*
X120075000Y-144862500D01*
G75*
G02*
X119825000Y-145112500I-250000J0D01*
G01*
G37*
G36*
G01*
X119825000Y-147187500D02*
X118875000Y-147187500D01*
G75*
G02*
X118625000Y-146937500I0J250000D01*
G01*
X118625000Y-146262500D01*
G75*
G02*
X118875000Y-146012500I250000J0D01*
G01*
X119825000Y-146012500D01*
G75*
G02*
X120075000Y-146262500I0J-250000D01*
G01*
X120075000Y-146937500D01*
G75*
G02*
X119825000Y-147187500I-250000J0D01*
G01*
G37*
%TD*%
%TO.C,C6*%
G36*
G01*
X115325000Y-145112500D02*
X114375000Y-145112500D01*
G75*
G02*
X114125000Y-144862500I0J250000D01*
G01*
X114125000Y-144187500D01*
G75*
G02*
X114375000Y-143937500I250000J0D01*
G01*
X115325000Y-143937500D01*
G75*
G02*
X115575000Y-144187500I0J-250000D01*
G01*
X115575000Y-144862500D01*
G75*
G02*
X115325000Y-145112500I-250000J0D01*
G01*
G37*
G36*
G01*
X115325000Y-147187500D02*
X114375000Y-147187500D01*
G75*
G02*
X114125000Y-146937500I0J250000D01*
G01*
X114125000Y-146262500D01*
G75*
G02*
X114375000Y-146012500I250000J0D01*
G01*
X115325000Y-146012500D01*
G75*
G02*
X115575000Y-146262500I0J-250000D01*
G01*
X115575000Y-146937500D01*
G75*
G02*
X115325000Y-147187500I-250000J0D01*
G01*
G37*
%TD*%
%TO.C,C5*%
G36*
G01*
X113325000Y-145112500D02*
X112375000Y-145112500D01*
G75*
G02*
X112125000Y-144862500I0J250000D01*
G01*
X112125000Y-144187500D01*
G75*
G02*
X112375000Y-143937500I250000J0D01*
G01*
X113325000Y-143937500D01*
G75*
G02*
X113575000Y-144187500I0J-250000D01*
G01*
X113575000Y-144862500D01*
G75*
G02*
X113325000Y-145112500I-250000J0D01*
G01*
G37*
G36*
G01*
X113325000Y-147187500D02*
X112375000Y-147187500D01*
G75*
G02*
X112125000Y-146937500I0J250000D01*
G01*
X112125000Y-146262500D01*
G75*
G02*
X112375000Y-146012500I250000J0D01*
G01*
X113325000Y-146012500D01*
G75*
G02*
X113575000Y-146262500I0J-250000D01*
G01*
X113575000Y-146937500D01*
G75*
G02*
X113325000Y-147187500I-250000J0D01*
G01*
G37*
%TD*%
%TO.C,C3*%
G36*
G01*
X109325000Y-145112500D02*
X108375000Y-145112500D01*
G75*
G02*
X108125000Y-144862500I0J250000D01*
G01*
X108125000Y-144187500D01*
G75*
G02*
X108375000Y-143937500I250000J0D01*
G01*
X109325000Y-143937500D01*
G75*
G02*
X109575000Y-144187500I0J-250000D01*
G01*
X109575000Y-144862500D01*
G75*
G02*
X109325000Y-145112500I-250000J0D01*
G01*
G37*
G36*
G01*
X109325000Y-147187500D02*
X108375000Y-147187500D01*
G75*
G02*
X108125000Y-146937500I0J250000D01*
G01*
X108125000Y-146262500D01*
G75*
G02*
X108375000Y-146012500I250000J0D01*
G01*
X109325000Y-146012500D01*
G75*
G02*
X109575000Y-146262500I0J-250000D01*
G01*
X109575000Y-146937500D01*
G75*
G02*
X109325000Y-147187500I-250000J0D01*
G01*
G37*
%TD*%
%TO.C,C2*%
G36*
G01*
X102825000Y-80437500D02*
X101875000Y-80437500D01*
G75*
G02*
X101625000Y-80187500I0J250000D01*
G01*
X101625000Y-79512500D01*
G75*
G02*
X101875000Y-79262500I250000J0D01*
G01*
X102825000Y-79262500D01*
G75*
G02*
X103075000Y-79512500I0J-250000D01*
G01*
X103075000Y-80187500D01*
G75*
G02*
X102825000Y-80437500I-250000J0D01*
G01*
G37*
G36*
G01*
X102825000Y-82512500D02*
X101875000Y-82512500D01*
G75*
G02*
X101625000Y-82262500I0J250000D01*
G01*
X101625000Y-81587500D01*
G75*
G02*
X101875000Y-81337500I250000J0D01*
G01*
X102825000Y-81337500D01*
G75*
G02*
X103075000Y-81587500I0J-250000D01*
G01*
X103075000Y-82262500D01*
G75*
G02*
X102825000Y-82512500I-250000J0D01*
G01*
G37*
%TD*%
%TO.C,C1*%
G36*
G01*
X100775000Y-107200000D02*
X101725000Y-107200000D01*
G75*
G02*
X101975000Y-107450000I0J-250000D01*
G01*
X101975000Y-108125000D01*
G75*
G02*
X101725000Y-108375000I-250000J0D01*
G01*
X100775000Y-108375000D01*
G75*
G02*
X100525000Y-108125000I0J250000D01*
G01*
X100525000Y-107450000D01*
G75*
G02*
X100775000Y-107200000I250000J0D01*
G01*
G37*
G36*
G01*
X100775000Y-105125000D02*
X101725000Y-105125000D01*
G75*
G02*
X101975000Y-105375000I0J-250000D01*
G01*
X101975000Y-106050000D01*
G75*
G02*
X101725000Y-106300000I-250000J0D01*
G01*
X100775000Y-106300000D01*
G75*
G02*
X100525000Y-106050000I0J250000D01*
G01*
X100525000Y-105375000D01*
G75*
G02*
X100775000Y-105125000I250000J0D01*
G01*
G37*
%TD*%
M02*
