%TF.GenerationSoftware,KiCad,Pcbnew,(5.1.9)-1*%
%TF.CreationDate,2021-02-20T13:35:58+01:00*%
%TF.ProjectId,HB-RC-12-EP-2,48422d52-432d-4313-922d-45502d322e6b,rev?*%
%TF.SameCoordinates,Original*%
%TF.FileFunction,Copper,L2,Bot*%
%TF.FilePolarity,Positive*%
%FSLAX46Y46*%
G04 Gerber Fmt 4.6, Leading zero omitted, Abs format (unit mm)*
G04 Created by KiCad (PCBNEW (5.1.9)-1) date 2021-02-20 13:35:58*
%MOMM*%
%LPD*%
G01*
G04 APERTURE LIST*
%TA.AperFunction,ComponentPad*%
%ADD10O,1.350000X1.350000*%
%TD*%
%TA.AperFunction,ComponentPad*%
%ADD11R,1.350000X1.350000*%
%TD*%
%TA.AperFunction,ComponentPad*%
%ADD12O,1.700000X1.700000*%
%TD*%
%TA.AperFunction,ComponentPad*%
%ADD13R,1.700000X1.700000*%
%TD*%
%TA.AperFunction,ComponentPad*%
%ADD14R,0.850000X0.850000*%
%TD*%
%TA.AperFunction,ViaPad*%
%ADD15C,0.600000*%
%TD*%
%TA.AperFunction,Conductor*%
%ADD16C,0.250000*%
%TD*%
%TA.AperFunction,Conductor*%
%ADD17C,0.254000*%
%TD*%
%TA.AperFunction,Conductor*%
%ADD18C,0.100000*%
%TD*%
G04 APERTURE END LIST*
D10*
%TO.P,K1,8*%
%TO.N,/GX_BSY*%
X117000000Y-76400000D03*
%TO.P,K1,7*%
%TO.N,/GX_RST*%
X119000000Y-76400000D03*
%TO.P,K1,6*%
%TO.N,/GX_DC*%
X121000000Y-76400000D03*
%TO.P,K1,5*%
%TO.N,/GX_CS*%
X123000000Y-76400000D03*
%TO.P,K1,4*%
%TO.N,/SCK*%
X125000000Y-76400000D03*
%TO.P,K1,3*%
%TO.N,/MOSI*%
X127000000Y-76400000D03*
%TO.P,K1,2*%
%TO.N,GND*%
X129000000Y-76400000D03*
D11*
%TO.P,K1,1*%
%TO.N,+3V0*%
X131000000Y-76400000D03*
%TD*%
D12*
%TO.P,J6,2*%
%TO.N,GND*%
X113540000Y-157750000D03*
D13*
%TO.P,J6,1*%
%TO.N,+BATT*%
X111000000Y-157750000D03*
%TD*%
D12*
%TO.P,J5,2*%
%TO.N,GND*%
X146440000Y-157900000D03*
D13*
%TO.P,J5,1*%
%TO.N,Net-(J5-Pad1)*%
X143900000Y-157900000D03*
%TD*%
D14*
%TO.P,J1,1*%
%TO.N,Net-(J1-Pad1)*%
X143600000Y-123000000D03*
%TD*%
D12*
%TO.P,ISP1,1*%
%TO.N,/MISO*%
X110710000Y-124540000D03*
%TO.P,ISP1,2*%
%TO.N,/SCK*%
X113250000Y-124540000D03*
%TO.P,ISP1,3*%
%TO.N,/RESET*%
X110710000Y-122000000D03*
D13*
%TO.P,ISP1,4*%
%TO.N,+3V0*%
X113250000Y-122000000D03*
D12*
%TO.P,ISP1,5*%
%TO.N,/MOSI*%
X110710000Y-119460000D03*
%TO.P,ISP1,6*%
%TO.N,GND*%
X113250000Y-119460000D03*
%TD*%
%TO.P,FTDI1,6*%
%TO.N,/DTR*%
X133950000Y-111500000D03*
%TO.P,FTDI1,5*%
%TO.N,/TXD*%
X131410000Y-111500000D03*
%TO.P,FTDI1,4*%
%TO.N,/RXD*%
X128870000Y-111500000D03*
%TO.P,FTDI1,3*%
%TO.N,+3V0*%
X126330000Y-111500000D03*
%TO.P,FTDI1,2*%
%TO.N,GND*%
X123790000Y-111500000D03*
D13*
%TO.P,FTDI1,1*%
X121250000Y-111500000D03*
%TD*%
D15*
%TO.N,GND*%
X103750000Y-158500000D03*
X137500000Y-152500000D03*
X102000000Y-89500000D03*
X102250000Y-100500000D03*
X102000000Y-111500000D03*
X102250000Y-122750000D03*
X102250000Y-133750000D03*
X102250000Y-145000000D03*
X146000000Y-123000000D03*
X145750000Y-111750000D03*
X145750000Y-100750000D03*
X147000000Y-80000000D03*
X128250000Y-90000000D03*
%TO.N,+3V0*%
X124500000Y-115000000D03*
%TO.N,/SCK*%
X124250000Y-121000000D03*
%TO.N,/A6*%
X127250000Y-91750000D03*
X121250000Y-91750000D03*
%TO.N,GND*%
X106250000Y-146500000D03*
X116250000Y-78750000D03*
X107250000Y-93750000D03*
X109750000Y-144000000D03*
X118500000Y-143700000D03*
X122500000Y-143700000D03*
X126500000Y-143700000D03*
X129700000Y-143700000D03*
X132000000Y-143700000D03*
X135200000Y-143700000D03*
X114200000Y-143700000D03*
X127250000Y-152250000D03*
X121250000Y-152250000D03*
X117000000Y-86250000D03*
X121250000Y-89750000D03*
X117000000Y-94750000D03*
X116750000Y-104500000D03*
X147000000Y-73250000D03*
X145750000Y-145250000D03*
X143250000Y-141500000D03*
%TO.N,/A7*%
X118000000Y-94000000D03*
%TO.N,/MOSI*%
X125000000Y-123000000D03*
%TO.N,/MISO*%
X109750000Y-117250000D03*
%TO.N,/SCK*%
X110750000Y-117250000D03*
%TO.N,Net-(D6-Pad2)*%
X143250000Y-147250000D03*
X137500000Y-85370000D03*
%TO.N,+3V0*%
X126750000Y-154500000D03*
X111800000Y-102750000D03*
X114750000Y-99250000D03*
X141250000Y-153750000D03*
X106500000Y-148500000D03*
X124750000Y-88500000D03*
X132250000Y-87250000D03*
X135000000Y-87500000D03*
%TO.N,/MOSI*%
X126000000Y-153750000D03*
X113000000Y-94500000D03*
%TO.N,/SCK*%
X125250000Y-153000000D03*
%TO.N,/GX_CS*%
X124500000Y-153750000D03*
%TO.N,/GX_DC*%
X123750000Y-153000000D03*
%TO.N,/GX_RST*%
X123000000Y-153750000D03*
%TO.N,/GX_BSY*%
X122250000Y-153000000D03*
%TO.N,+BATT*%
X138500000Y-147250000D03*
%TO.N,/LED2*%
X112750000Y-91250000D03*
X137250000Y-78750000D03*
%TO.N,/LED*%
X122000000Y-97000000D03*
X135750000Y-86750000D03*
%TO.N,/CC1101_GDO0*%
X118000000Y-127000000D03*
X109000000Y-127000000D03*
%TO.N,/RESET*%
X112500000Y-106262500D03*
%TO.N,/SCK*%
X114500000Y-94500000D03*
%TO.N,/A6*%
X115000000Y-89000000D03*
%TO.N,/A7*%
X118000000Y-89250000D03*
%TO.N,Net-(R10-Pad1)*%
X142750000Y-83000000D03*
X138500000Y-75250000D03*
%TD*%
D16*
%TO.N,GND*%
X107250000Y-146500000D02*
X109750000Y-144000000D01*
X106250000Y-146500000D02*
X107250000Y-146500000D01*
X147000000Y-73250000D02*
X147000000Y-80000000D01*
%TO.N,Net-(D6-Pad2)*%
X139125001Y-86995001D02*
X137500000Y-85370000D01*
X139125001Y-119960003D02*
X139125001Y-86995001D01*
X143875001Y-124710003D02*
X139125001Y-119960003D01*
X143875001Y-146624999D02*
X143875001Y-124710003D01*
X143250000Y-147250000D02*
X143875001Y-146624999D01*
%TO.N,+3V0*%
X140500000Y-154500000D02*
X141250000Y-153750000D01*
X126750000Y-154500000D02*
X140500000Y-154500000D01*
X112500000Y-154500000D02*
X106500000Y-148500000D01*
X126750000Y-154500000D02*
X112500000Y-154500000D01*
X111800000Y-102200000D02*
X114750000Y-99250000D01*
X111800000Y-102750000D02*
X111800000Y-102200000D01*
X131000000Y-88500000D02*
X132250000Y-87250000D01*
X124750000Y-88500000D02*
X131000000Y-88500000D01*
X126330000Y-113170000D02*
X124500000Y-115000000D01*
X126330000Y-111500000D02*
X126330000Y-113170000D01*
X126330000Y-96170000D02*
X135000000Y-87500000D01*
X126330000Y-111500000D02*
X126330000Y-96170000D01*
%TO.N,/MOSI*%
X126000000Y-152824998D02*
X126000000Y-153750000D01*
X125700010Y-152525008D02*
X126000000Y-152824998D01*
X125700010Y-123700010D02*
X125700010Y-152525008D01*
X125000000Y-123000000D02*
X125700010Y-123700010D01*
X125549989Y-74949989D02*
X127000000Y-76400000D01*
X113375001Y-94124999D02*
X113375002Y-77908586D01*
X116333598Y-74949990D02*
X125549989Y-74949989D01*
X113375002Y-77908586D02*
X116333598Y-74949990D01*
X113000000Y-94500000D02*
X113375001Y-94124999D01*
%TO.N,/SCK*%
X112074999Y-123364999D02*
X113250000Y-124540000D01*
X110335997Y-123364999D02*
X112074999Y-123364999D01*
X109534999Y-122564001D02*
X110335997Y-123364999D01*
X109534999Y-118895999D02*
X109534999Y-122564001D01*
X110750000Y-117680998D02*
X109534999Y-118895999D01*
X110750000Y-117250000D02*
X110750000Y-117680998D01*
X124250000Y-143888588D02*
X125250000Y-144888588D01*
X125250000Y-144888588D02*
X125250000Y-153000000D01*
X124250000Y-121000000D02*
X124250000Y-143888588D01*
%TO.N,/GX_CS*%
X124500000Y-144774998D02*
X124500000Y-153750000D01*
X122614999Y-142889997D02*
X124500000Y-144774998D01*
X122614999Y-110614997D02*
X122614999Y-142889997D01*
X120525009Y-108525009D02*
X122614999Y-110614997D01*
X120525009Y-78874991D02*
X120525009Y-108525009D01*
X123000000Y-76400000D02*
X120525009Y-78874991D01*
%TO.N,/GX_DC*%
X120074999Y-77325001D02*
X121000000Y-76400000D01*
X120074999Y-142200001D02*
X120074999Y-77325001D01*
X123750000Y-145875002D02*
X120074999Y-142200001D01*
X123750000Y-153000000D02*
X123750000Y-145875002D01*
%TO.N,/GX_RST*%
X123000000Y-145761412D02*
X123000000Y-153750000D01*
X119624989Y-77979583D02*
X119624990Y-142386402D01*
X119000000Y-77354594D02*
X119624989Y-77979583D01*
X119624990Y-142386402D02*
X123000000Y-145761412D01*
X119000000Y-76400000D02*
X119000000Y-77354594D01*
%TO.N,/GX_BSY*%
X117000000Y-76400000D02*
X119174981Y-78574981D01*
X119174981Y-78574981D02*
X119174981Y-142674981D01*
X122250000Y-153000000D02*
X122250000Y-145750000D01*
X119174981Y-142674981D02*
X122250000Y-145750000D01*
%TO.N,/LED2*%
X137250000Y-78750000D02*
X133000000Y-74500000D01*
X112750000Y-77897178D02*
X112750000Y-91250000D01*
X116147197Y-74499981D02*
X112750000Y-77897178D01*
X129249981Y-74499981D02*
X116147197Y-74499981D01*
X129250000Y-74500000D02*
X129249981Y-74499981D01*
X133000000Y-74500000D02*
X129250000Y-74500000D01*
%TO.N,/CC1101_GDO0*%
X118000000Y-127000000D02*
X109000000Y-127000000D01*
%TO.N,/RESET*%
X111885001Y-120824999D02*
X110710000Y-122000000D01*
X111885001Y-106877499D02*
X111885001Y-120824999D01*
X112500000Y-106262500D02*
X111885001Y-106877499D01*
%TO.N,/SCK*%
X123999999Y-75399999D02*
X125000000Y-76400000D01*
X116519999Y-75399999D02*
X123999999Y-75399999D01*
X113825011Y-78094987D02*
X116519999Y-75399999D01*
X113825011Y-93825011D02*
X113825011Y-78094987D01*
X114500000Y-94500000D02*
X113825011Y-93825011D01*
%TO.N,/A6*%
X121250000Y-91750000D02*
X127250000Y-91750000D01*
%TO.N,/A7*%
X118000000Y-89250000D02*
X118000000Y-94000000D01*
%TO.N,/LED*%
X134250000Y-86750000D02*
X135750000Y-86750000D01*
X124000000Y-97000000D02*
X134250000Y-86750000D01*
X122000000Y-97000000D02*
X124000000Y-97000000D01*
%TO.N,/MISO*%
X109084990Y-117915010D02*
X109750000Y-117250000D01*
X109084990Y-122914990D02*
X109084990Y-117915010D01*
X110710000Y-124540000D02*
X109084990Y-122914990D01*
%TO.N,Net-(R10-Pad1)*%
X138500000Y-75250000D02*
X139750000Y-75250000D01*
X142750000Y-78250000D02*
X142750000Y-83000000D01*
X139750000Y-75250000D02*
X142750000Y-78250000D01*
%TD*%
D17*
%TO.N,GND*%
X105577412Y-70972355D02*
X105413870Y-71367179D01*
X105330497Y-71786323D01*
X105330497Y-72213677D01*
X105413870Y-72632821D01*
X105577412Y-73027645D01*
X105814837Y-73382977D01*
X106117023Y-73685163D01*
X106472355Y-73922588D01*
X106867179Y-74086130D01*
X107286323Y-74169503D01*
X107713677Y-74169503D01*
X108132821Y-74086130D01*
X108527645Y-73922588D01*
X108882977Y-73685163D01*
X109185163Y-73382977D01*
X109422588Y-73027645D01*
X109586130Y-72632821D01*
X109669503Y-72213677D01*
X109669503Y-71786323D01*
X109586130Y-71367179D01*
X109422588Y-70972355D01*
X109213879Y-70660000D01*
X139286121Y-70660000D01*
X139077412Y-70972355D01*
X138913870Y-71367179D01*
X138830497Y-71786323D01*
X138830497Y-72213677D01*
X138913870Y-72632821D01*
X139077412Y-73027645D01*
X139314837Y-73382977D01*
X139617023Y-73685163D01*
X139972355Y-73922588D01*
X140367179Y-74086130D01*
X140786323Y-74169503D01*
X141213677Y-74169503D01*
X141632821Y-74086130D01*
X142027645Y-73922588D01*
X142382977Y-73685163D01*
X142685163Y-73382977D01*
X142922588Y-73027645D01*
X143086130Y-72632821D01*
X143169503Y-72213677D01*
X143169503Y-71786323D01*
X143086130Y-71367179D01*
X142922588Y-70972355D01*
X142713879Y-70660000D01*
X144996092Y-70660000D01*
X144934219Y-70701342D01*
X144701342Y-70934219D01*
X144518372Y-71208053D01*
X144392340Y-71512322D01*
X144328090Y-71835331D01*
X144328090Y-72164669D01*
X144392340Y-72487678D01*
X144518372Y-72791947D01*
X144701342Y-73065781D01*
X144934219Y-73298658D01*
X145208053Y-73481628D01*
X145512322Y-73607660D01*
X145835331Y-73671910D01*
X146164669Y-73671910D01*
X146487678Y-73607660D01*
X146791947Y-73481628D01*
X147065781Y-73298658D01*
X147298658Y-73065781D01*
X147340000Y-73003908D01*
X147340001Y-150496093D01*
X147298658Y-150434219D01*
X147065781Y-150201342D01*
X146791947Y-150018372D01*
X146487678Y-149892340D01*
X146164669Y-149828090D01*
X145835331Y-149828090D01*
X145512322Y-149892340D01*
X145208053Y-150018372D01*
X144934219Y-150201342D01*
X144701342Y-150434219D01*
X144518372Y-150708053D01*
X144392340Y-151012322D01*
X144328090Y-151335331D01*
X144328090Y-151664669D01*
X144392340Y-151987678D01*
X144518372Y-152291947D01*
X144701342Y-152565781D01*
X144934219Y-152798658D01*
X145208053Y-152981628D01*
X145512322Y-153107660D01*
X145835331Y-153171910D01*
X146164669Y-153171910D01*
X146487678Y-153107660D01*
X146791947Y-152981628D01*
X147065781Y-152798658D01*
X147298658Y-152565781D01*
X147340001Y-152503907D01*
X147340001Y-156727623D01*
X147206920Y-156628359D01*
X146944099Y-156503175D01*
X146796890Y-156458524D01*
X146567000Y-156579845D01*
X146567000Y-157773000D01*
X146587000Y-157773000D01*
X146587000Y-158027000D01*
X146567000Y-158027000D01*
X146567000Y-158047000D01*
X146313000Y-158047000D01*
X146313000Y-158027000D01*
X146293000Y-158027000D01*
X146293000Y-157773000D01*
X146313000Y-157773000D01*
X146313000Y-156579845D01*
X146083110Y-156458524D01*
X145935901Y-156503175D01*
X145673080Y-156628359D01*
X145439731Y-156802412D01*
X145363966Y-156886466D01*
X145339502Y-156805820D01*
X145280537Y-156695506D01*
X145201185Y-156598815D01*
X145104494Y-156519463D01*
X144994180Y-156460498D01*
X144874482Y-156424188D01*
X144750000Y-156411928D01*
X143050000Y-156411928D01*
X142925518Y-156424188D01*
X142805820Y-156460498D01*
X142695506Y-156519463D01*
X142627520Y-156575258D01*
X142586130Y-156367179D01*
X142422588Y-155972355D01*
X142185163Y-155617023D01*
X141882977Y-155314837D01*
X141527645Y-155077412D01*
X141152698Y-154922103D01*
X141401649Y-154673153D01*
X141522729Y-154649068D01*
X141692889Y-154578586D01*
X141846028Y-154476262D01*
X141976262Y-154346028D01*
X142078586Y-154192889D01*
X142149068Y-154022729D01*
X142185000Y-153842089D01*
X142185000Y-153657911D01*
X142149068Y-153477271D01*
X142078586Y-153307111D01*
X141976262Y-153153972D01*
X141846028Y-153023738D01*
X141692889Y-152921414D01*
X141522729Y-152850932D01*
X141342089Y-152815000D01*
X141157911Y-152815000D01*
X140977271Y-152850932D01*
X140807111Y-152921414D01*
X140653972Y-153023738D01*
X140523738Y-153153972D01*
X140421414Y-153307111D01*
X140350932Y-153477271D01*
X140326847Y-153598351D01*
X140185199Y-153740000D01*
X127295535Y-153740000D01*
X127192889Y-153671414D01*
X127022729Y-153600932D01*
X126919585Y-153580415D01*
X126899068Y-153477271D01*
X126828586Y-153307111D01*
X126760000Y-153204465D01*
X126760000Y-152862321D01*
X126763676Y-152824998D01*
X126760000Y-152787675D01*
X126760000Y-152787665D01*
X126749003Y-152676012D01*
X126705546Y-152532751D01*
X126634974Y-152400722D01*
X126540001Y-152284997D01*
X126510998Y-152261195D01*
X126460010Y-152210207D01*
X126460010Y-147157911D01*
X137565000Y-147157911D01*
X137565000Y-147342089D01*
X137600932Y-147522729D01*
X137671414Y-147692889D01*
X137773738Y-147846028D01*
X137903972Y-147976262D01*
X138057111Y-148078586D01*
X138227271Y-148149068D01*
X138407911Y-148185000D01*
X138592089Y-148185000D01*
X138772729Y-148149068D01*
X138942889Y-148078586D01*
X139096028Y-147976262D01*
X139226262Y-147846028D01*
X139328586Y-147692889D01*
X139399068Y-147522729D01*
X139435000Y-147342089D01*
X139435000Y-147157911D01*
X139399068Y-146977271D01*
X139328586Y-146807111D01*
X139226262Y-146653972D01*
X139096028Y-146523738D01*
X138942889Y-146421414D01*
X138772729Y-146350932D01*
X138592089Y-146315000D01*
X138407911Y-146315000D01*
X138227271Y-146350932D01*
X138057111Y-146421414D01*
X137903972Y-146523738D01*
X137773738Y-146653972D01*
X137671414Y-146807111D01*
X137600932Y-146977271D01*
X137565000Y-147157911D01*
X126460010Y-147157911D01*
X126460010Y-123737335D01*
X126463686Y-123700010D01*
X126460010Y-123662685D01*
X126460010Y-123662677D01*
X126449013Y-123551024D01*
X126405556Y-123407763D01*
X126334984Y-123275734D01*
X126240011Y-123160009D01*
X126211014Y-123136212D01*
X125923153Y-122848351D01*
X125899068Y-122727271D01*
X125828586Y-122557111D01*
X125726262Y-122403972D01*
X125596028Y-122273738D01*
X125442889Y-122171414D01*
X125272729Y-122100932D01*
X125092089Y-122065000D01*
X125010000Y-122065000D01*
X125010000Y-121545535D01*
X125078586Y-121442889D01*
X125149068Y-121272729D01*
X125185000Y-121092089D01*
X125185000Y-120907911D01*
X125149068Y-120727271D01*
X125078586Y-120557111D01*
X124976262Y-120403972D01*
X124846028Y-120273738D01*
X124692889Y-120171414D01*
X124522729Y-120100932D01*
X124342089Y-120065000D01*
X124157911Y-120065000D01*
X123977271Y-120100932D01*
X123807111Y-120171414D01*
X123653972Y-120273738D01*
X123523738Y-120403972D01*
X123421414Y-120557111D01*
X123374999Y-120669168D01*
X123374999Y-112923850D01*
X123433110Y-112941476D01*
X123663000Y-112820155D01*
X123663000Y-111627000D01*
X123643000Y-111627000D01*
X123643000Y-111373000D01*
X123663000Y-111373000D01*
X123663000Y-110179845D01*
X123433110Y-110058524D01*
X123285901Y-110103175D01*
X123208415Y-110140082D01*
X123178798Y-110103994D01*
X123155000Y-110074996D01*
X123126003Y-110051199D01*
X121285009Y-108210208D01*
X121285009Y-97607299D01*
X121403972Y-97726262D01*
X121557111Y-97828586D01*
X121727271Y-97899068D01*
X121907911Y-97935000D01*
X122092089Y-97935000D01*
X122272729Y-97899068D01*
X122442889Y-97828586D01*
X122545535Y-97760000D01*
X123962678Y-97760000D01*
X124000000Y-97763676D01*
X124037322Y-97760000D01*
X124037333Y-97760000D01*
X124148986Y-97749003D01*
X124292247Y-97705546D01*
X124424276Y-97634974D01*
X124540001Y-97540001D01*
X124563804Y-97510997D01*
X125570001Y-96504800D01*
X125570000Y-110221821D01*
X125383368Y-110346525D01*
X125176525Y-110553368D01*
X125054805Y-110735534D01*
X124985178Y-110618645D01*
X124790269Y-110402412D01*
X124556920Y-110228359D01*
X124294099Y-110103175D01*
X124146890Y-110058524D01*
X123917000Y-110179845D01*
X123917000Y-111373000D01*
X123937000Y-111373000D01*
X123937000Y-111627000D01*
X123917000Y-111627000D01*
X123917000Y-112820155D01*
X124146890Y-112941476D01*
X124294099Y-112896825D01*
X124556920Y-112771641D01*
X124790269Y-112597588D01*
X124985178Y-112381355D01*
X125054805Y-112264466D01*
X125176525Y-112446632D01*
X125383368Y-112653475D01*
X125570001Y-112778179D01*
X125570001Y-112855197D01*
X124348352Y-114076847D01*
X124227271Y-114100932D01*
X124057111Y-114171414D01*
X123903972Y-114273738D01*
X123773738Y-114403972D01*
X123671414Y-114557111D01*
X123600932Y-114727271D01*
X123565000Y-114907911D01*
X123565000Y-115092089D01*
X123600932Y-115272729D01*
X123671414Y-115442889D01*
X123773738Y-115596028D01*
X123903972Y-115726262D01*
X124057111Y-115828586D01*
X124227271Y-115899068D01*
X124407911Y-115935000D01*
X124592089Y-115935000D01*
X124772729Y-115899068D01*
X124942889Y-115828586D01*
X125096028Y-115726262D01*
X125226262Y-115596028D01*
X125328586Y-115442889D01*
X125399068Y-115272729D01*
X125423153Y-115151648D01*
X126841003Y-113733799D01*
X126870001Y-113710001D01*
X126964974Y-113594276D01*
X127035546Y-113462247D01*
X127079003Y-113318986D01*
X127090000Y-113207333D01*
X127090000Y-113207323D01*
X127093676Y-113170000D01*
X127090000Y-113132677D01*
X127090000Y-112778178D01*
X127276632Y-112653475D01*
X127483475Y-112446632D01*
X127600000Y-112272240D01*
X127716525Y-112446632D01*
X127923368Y-112653475D01*
X128166589Y-112815990D01*
X128436842Y-112927932D01*
X128723740Y-112985000D01*
X129016260Y-112985000D01*
X129303158Y-112927932D01*
X129573411Y-112815990D01*
X129816632Y-112653475D01*
X130023475Y-112446632D01*
X130140000Y-112272240D01*
X130256525Y-112446632D01*
X130463368Y-112653475D01*
X130706589Y-112815990D01*
X130976842Y-112927932D01*
X131263740Y-112985000D01*
X131556260Y-112985000D01*
X131843158Y-112927932D01*
X132113411Y-112815990D01*
X132356632Y-112653475D01*
X132563475Y-112446632D01*
X132680000Y-112272240D01*
X132796525Y-112446632D01*
X133003368Y-112653475D01*
X133246589Y-112815990D01*
X133516842Y-112927932D01*
X133803740Y-112985000D01*
X134096260Y-112985000D01*
X134383158Y-112927932D01*
X134653411Y-112815990D01*
X134896632Y-112653475D01*
X135103475Y-112446632D01*
X135265990Y-112203411D01*
X135377932Y-111933158D01*
X135435000Y-111646260D01*
X135435000Y-111353740D01*
X135377932Y-111066842D01*
X135265990Y-110796589D01*
X135103475Y-110553368D01*
X134896632Y-110346525D01*
X134653411Y-110184010D01*
X134383158Y-110072068D01*
X134096260Y-110015000D01*
X133803740Y-110015000D01*
X133516842Y-110072068D01*
X133246589Y-110184010D01*
X133003368Y-110346525D01*
X132796525Y-110553368D01*
X132680000Y-110727760D01*
X132563475Y-110553368D01*
X132356632Y-110346525D01*
X132113411Y-110184010D01*
X131843158Y-110072068D01*
X131556260Y-110015000D01*
X131263740Y-110015000D01*
X130976842Y-110072068D01*
X130706589Y-110184010D01*
X130463368Y-110346525D01*
X130256525Y-110553368D01*
X130140000Y-110727760D01*
X130023475Y-110553368D01*
X129816632Y-110346525D01*
X129573411Y-110184010D01*
X129303158Y-110072068D01*
X129016260Y-110015000D01*
X128723740Y-110015000D01*
X128436842Y-110072068D01*
X128166589Y-110184010D01*
X127923368Y-110346525D01*
X127716525Y-110553368D01*
X127600000Y-110727760D01*
X127483475Y-110553368D01*
X127276632Y-110346525D01*
X127090000Y-110221822D01*
X127090000Y-96484801D01*
X135151649Y-88423153D01*
X135272729Y-88399068D01*
X135442889Y-88328586D01*
X135596028Y-88226262D01*
X135726262Y-88096028D01*
X135828586Y-87942889D01*
X135899068Y-87772729D01*
X135919585Y-87669585D01*
X136022729Y-87649068D01*
X136192889Y-87578586D01*
X136346028Y-87476262D01*
X136476262Y-87346028D01*
X136578586Y-87192889D01*
X136649068Y-87022729D01*
X136685000Y-86842089D01*
X136685000Y-86657911D01*
X136649068Y-86477271D01*
X136578586Y-86307111D01*
X136476262Y-86153972D01*
X136346028Y-86023738D01*
X136192889Y-85921414D01*
X136022729Y-85850932D01*
X135842089Y-85815000D01*
X135657911Y-85815000D01*
X135477271Y-85850932D01*
X135307111Y-85921414D01*
X135204465Y-85990000D01*
X134287322Y-85990000D01*
X134249999Y-85986324D01*
X134212677Y-85990000D01*
X134212667Y-85990000D01*
X134101014Y-86000997D01*
X133957753Y-86044454D01*
X133825723Y-86115026D01*
X133778268Y-86153972D01*
X133709999Y-86209999D01*
X133686201Y-86238997D01*
X133090156Y-86835043D01*
X133078586Y-86807111D01*
X132976262Y-86653972D01*
X132846028Y-86523738D01*
X132692889Y-86421414D01*
X132522729Y-86350932D01*
X132342089Y-86315000D01*
X132157911Y-86315000D01*
X131977271Y-86350932D01*
X131807111Y-86421414D01*
X131653972Y-86523738D01*
X131523738Y-86653972D01*
X131421414Y-86807111D01*
X131350932Y-86977271D01*
X131326847Y-87098351D01*
X130685199Y-87740000D01*
X125295535Y-87740000D01*
X125192889Y-87671414D01*
X125022729Y-87600932D01*
X124842089Y-87565000D01*
X124657911Y-87565000D01*
X124477271Y-87600932D01*
X124307111Y-87671414D01*
X124153972Y-87773738D01*
X124023738Y-87903972D01*
X123921414Y-88057111D01*
X123850932Y-88227271D01*
X123815000Y-88407911D01*
X123815000Y-88592089D01*
X123850932Y-88772729D01*
X123921414Y-88942889D01*
X124023738Y-89096028D01*
X124153972Y-89226262D01*
X124307111Y-89328586D01*
X124477271Y-89399068D01*
X124657911Y-89435000D01*
X124842089Y-89435000D01*
X125022729Y-89399068D01*
X125192889Y-89328586D01*
X125295535Y-89260000D01*
X130665198Y-89260000D01*
X128185000Y-91740199D01*
X128185000Y-91657911D01*
X128149068Y-91477271D01*
X128078586Y-91307111D01*
X127976262Y-91153972D01*
X127846028Y-91023738D01*
X127692889Y-90921414D01*
X127522729Y-90850932D01*
X127342089Y-90815000D01*
X127157911Y-90815000D01*
X126977271Y-90850932D01*
X126807111Y-90921414D01*
X126704465Y-90990000D01*
X121795535Y-90990000D01*
X121692889Y-90921414D01*
X121522729Y-90850932D01*
X121342089Y-90815000D01*
X121285009Y-90815000D01*
X121285009Y-85277911D01*
X136565000Y-85277911D01*
X136565000Y-85462089D01*
X136600932Y-85642729D01*
X136671414Y-85812889D01*
X136773738Y-85966028D01*
X136903972Y-86096262D01*
X137057111Y-86198586D01*
X137227271Y-86269068D01*
X137348351Y-86293153D01*
X138365002Y-87309805D01*
X138365001Y-119922681D01*
X138361325Y-119960003D01*
X138365001Y-119997325D01*
X138365001Y-119997335D01*
X138375998Y-120108988D01*
X138411772Y-120226920D01*
X138419455Y-120252249D01*
X138490027Y-120384279D01*
X138506189Y-120403972D01*
X138585000Y-120500004D01*
X138614004Y-120523807D01*
X143115002Y-125024807D01*
X143115001Y-146310197D01*
X143098351Y-146326847D01*
X142977271Y-146350932D01*
X142807111Y-146421414D01*
X142653972Y-146523738D01*
X142523738Y-146653972D01*
X142421414Y-146807111D01*
X142350932Y-146977271D01*
X142315000Y-147157911D01*
X142315000Y-147342089D01*
X142350932Y-147522729D01*
X142421414Y-147692889D01*
X142523738Y-147846028D01*
X142653972Y-147976262D01*
X142807111Y-148078586D01*
X142977271Y-148149068D01*
X143157911Y-148185000D01*
X143342089Y-148185000D01*
X143522729Y-148149068D01*
X143692889Y-148078586D01*
X143846028Y-147976262D01*
X143976262Y-147846028D01*
X144078586Y-147692889D01*
X144149068Y-147522729D01*
X144173153Y-147401649D01*
X144386005Y-147188797D01*
X144415002Y-147165000D01*
X144467513Y-147101015D01*
X144509975Y-147049276D01*
X144580547Y-146917246D01*
X144608309Y-146825724D01*
X144624004Y-146773985D01*
X144635001Y-146662332D01*
X144635001Y-146662322D01*
X144638677Y-146624999D01*
X144635001Y-146587676D01*
X144635001Y-124747325D01*
X144638677Y-124710002D01*
X144635001Y-124672679D01*
X144635001Y-124672670D01*
X144624004Y-124561017D01*
X144580547Y-124417756D01*
X144509975Y-124285727D01*
X144472457Y-124240011D01*
X144438800Y-124198999D01*
X144438796Y-124198995D01*
X144415002Y-124170002D01*
X144386009Y-124146208D01*
X144257765Y-124017965D01*
X144269180Y-124014502D01*
X144379494Y-123955537D01*
X144476185Y-123876185D01*
X144555537Y-123779494D01*
X144614502Y-123669180D01*
X144650812Y-123549482D01*
X144663072Y-123425000D01*
X144663072Y-122575000D01*
X144650812Y-122450518D01*
X144614502Y-122330820D01*
X144555537Y-122220506D01*
X144476185Y-122123815D01*
X144379494Y-122044463D01*
X144269180Y-121985498D01*
X144149482Y-121949188D01*
X144025000Y-121936928D01*
X143175000Y-121936928D01*
X143050518Y-121949188D01*
X142930820Y-121985498D01*
X142820506Y-122044463D01*
X142723815Y-122123815D01*
X142644463Y-122220506D01*
X142585498Y-122330820D01*
X142582035Y-122342235D01*
X139885001Y-119645202D01*
X139885001Y-87032323D01*
X139888677Y-86995000D01*
X139885001Y-86957677D01*
X139885001Y-86957668D01*
X139874004Y-86846015D01*
X139830547Y-86702754D01*
X139759975Y-86570725D01*
X139702752Y-86500998D01*
X139688800Y-86483997D01*
X139688796Y-86483993D01*
X139665002Y-86455000D01*
X139636009Y-86431206D01*
X138423153Y-85218351D01*
X138399068Y-85097271D01*
X138328586Y-84927111D01*
X138226262Y-84773972D01*
X138096028Y-84643738D01*
X137942889Y-84541414D01*
X137772729Y-84470932D01*
X137592089Y-84435000D01*
X137407911Y-84435000D01*
X137227271Y-84470932D01*
X137057111Y-84541414D01*
X136903972Y-84643738D01*
X136773738Y-84773972D01*
X136671414Y-84927111D01*
X136600932Y-85097271D01*
X136565000Y-85277911D01*
X121285009Y-85277911D01*
X121285009Y-79189792D01*
X122782417Y-77692385D01*
X122870976Y-77710000D01*
X123129024Y-77710000D01*
X123382113Y-77659658D01*
X123620518Y-77560907D01*
X123835077Y-77417544D01*
X124000000Y-77252621D01*
X124164923Y-77417544D01*
X124379482Y-77560907D01*
X124617887Y-77659658D01*
X124870976Y-77710000D01*
X125129024Y-77710000D01*
X125382113Y-77659658D01*
X125620518Y-77560907D01*
X125835077Y-77417544D01*
X126000000Y-77252621D01*
X126164923Y-77417544D01*
X126379482Y-77560907D01*
X126617887Y-77659658D01*
X126870976Y-77710000D01*
X127129024Y-77710000D01*
X127382113Y-77659658D01*
X127620518Y-77560907D01*
X127835077Y-77417544D01*
X128006681Y-77245940D01*
X128128773Y-77378303D01*
X128336371Y-77529473D01*
X128569472Y-77637238D01*
X128670600Y-77667910D01*
X128873000Y-77544224D01*
X128873000Y-76527000D01*
X128853000Y-76527000D01*
X128853000Y-76273000D01*
X128873000Y-76273000D01*
X128873000Y-76253000D01*
X129127000Y-76253000D01*
X129127000Y-76273000D01*
X129147000Y-76273000D01*
X129147000Y-76527000D01*
X129127000Y-76527000D01*
X129127000Y-77544224D01*
X129329400Y-77667910D01*
X129430528Y-77637238D01*
X129663629Y-77529473D01*
X129796881Y-77432441D01*
X129873815Y-77526185D01*
X129970506Y-77605537D01*
X130080820Y-77664502D01*
X130200518Y-77700812D01*
X130325000Y-77713072D01*
X131675000Y-77713072D01*
X131799482Y-77700812D01*
X131919180Y-77664502D01*
X132029494Y-77605537D01*
X132126185Y-77526185D01*
X132205537Y-77429494D01*
X132264502Y-77319180D01*
X132300812Y-77199482D01*
X132313072Y-77075000D01*
X132313072Y-75725000D01*
X132300812Y-75600518D01*
X132264502Y-75480820D01*
X132205537Y-75370506D01*
X132126185Y-75273815D01*
X132109351Y-75260000D01*
X132685199Y-75260000D01*
X136326847Y-78901649D01*
X136350932Y-79022729D01*
X136421414Y-79192889D01*
X136523738Y-79346028D01*
X136653972Y-79476262D01*
X136807111Y-79578586D01*
X136977271Y-79649068D01*
X137157911Y-79685000D01*
X137342089Y-79685000D01*
X137522729Y-79649068D01*
X137692889Y-79578586D01*
X137846028Y-79476262D01*
X137976262Y-79346028D01*
X138078586Y-79192889D01*
X138149068Y-79022729D01*
X138185000Y-78842089D01*
X138185000Y-78657911D01*
X138149068Y-78477271D01*
X138078586Y-78307111D01*
X137976262Y-78153972D01*
X137846028Y-78023738D01*
X137692889Y-77921414D01*
X137522729Y-77850932D01*
X137401649Y-77826847D01*
X134732713Y-75157911D01*
X137565000Y-75157911D01*
X137565000Y-75342089D01*
X137600932Y-75522729D01*
X137671414Y-75692889D01*
X137773738Y-75846028D01*
X137903972Y-75976262D01*
X138057111Y-76078586D01*
X138227271Y-76149068D01*
X138407911Y-76185000D01*
X138592089Y-76185000D01*
X138772729Y-76149068D01*
X138942889Y-76078586D01*
X139045535Y-76010000D01*
X139435199Y-76010000D01*
X141990000Y-78564802D01*
X141990001Y-82454463D01*
X141921414Y-82557111D01*
X141850932Y-82727271D01*
X141815000Y-82907911D01*
X141815000Y-83092089D01*
X141850932Y-83272729D01*
X141921414Y-83442889D01*
X142023738Y-83596028D01*
X142153972Y-83726262D01*
X142307111Y-83828586D01*
X142477271Y-83899068D01*
X142657911Y-83935000D01*
X142842089Y-83935000D01*
X143022729Y-83899068D01*
X143192889Y-83828586D01*
X143346028Y-83726262D01*
X143476262Y-83596028D01*
X143578586Y-83442889D01*
X143649068Y-83272729D01*
X143685000Y-83092089D01*
X143685000Y-82907911D01*
X143649068Y-82727271D01*
X143578586Y-82557111D01*
X143510000Y-82454465D01*
X143510000Y-78287325D01*
X143513676Y-78250000D01*
X143510000Y-78212675D01*
X143510000Y-78212667D01*
X143499003Y-78101014D01*
X143455546Y-77957753D01*
X143384974Y-77825724D01*
X143290001Y-77709999D01*
X143261004Y-77686202D01*
X140313804Y-74739003D01*
X140290001Y-74709999D01*
X140174276Y-74615026D01*
X140042247Y-74544454D01*
X139898986Y-74500997D01*
X139787333Y-74490000D01*
X139787322Y-74490000D01*
X139750000Y-74486324D01*
X139712678Y-74490000D01*
X139045535Y-74490000D01*
X138942889Y-74421414D01*
X138772729Y-74350932D01*
X138592089Y-74315000D01*
X138407911Y-74315000D01*
X138227271Y-74350932D01*
X138057111Y-74421414D01*
X137903972Y-74523738D01*
X137773738Y-74653972D01*
X137671414Y-74807111D01*
X137600932Y-74977271D01*
X137565000Y-75157911D01*
X134732713Y-75157911D01*
X133563804Y-73989003D01*
X133540001Y-73959999D01*
X133424276Y-73865026D01*
X133292247Y-73794454D01*
X133148986Y-73750997D01*
X133037333Y-73740000D01*
X133037322Y-73740000D01*
X133000000Y-73736324D01*
X132962678Y-73740000D01*
X129287507Y-73740000D01*
X129287314Y-73739981D01*
X129287303Y-73739981D01*
X129249981Y-73736305D01*
X129212659Y-73739981D01*
X116184519Y-73739981D01*
X116147196Y-73736305D01*
X116109873Y-73739981D01*
X116109864Y-73739981D01*
X115998211Y-73750978D01*
X115854950Y-73794435D01*
X115722920Y-73865007D01*
X115652758Y-73922588D01*
X115607196Y-73959980D01*
X115583398Y-73988978D01*
X112239003Y-77333374D01*
X112209999Y-77357177D01*
X112160458Y-77417544D01*
X112115026Y-77472902D01*
X112044455Y-77604931D01*
X112044454Y-77604932D01*
X112000997Y-77748193D01*
X111990000Y-77859846D01*
X111990000Y-77859856D01*
X111986324Y-77897178D01*
X111990000Y-77934500D01*
X111990001Y-90704463D01*
X111921414Y-90807111D01*
X111850932Y-90977271D01*
X111815000Y-91157911D01*
X111815000Y-91342089D01*
X111850932Y-91522729D01*
X111921414Y-91692889D01*
X112023738Y-91846028D01*
X112153972Y-91976262D01*
X112307111Y-92078586D01*
X112477271Y-92149068D01*
X112615001Y-92176465D01*
X112615001Y-93647435D01*
X112557111Y-93671414D01*
X112403972Y-93773738D01*
X112273738Y-93903972D01*
X112171414Y-94057111D01*
X112100932Y-94227271D01*
X112065000Y-94407911D01*
X112065000Y-94592089D01*
X112100932Y-94772729D01*
X112171414Y-94942889D01*
X112273738Y-95096028D01*
X112403972Y-95226262D01*
X112557111Y-95328586D01*
X112727271Y-95399068D01*
X112907911Y-95435000D01*
X113092089Y-95435000D01*
X113272729Y-95399068D01*
X113442889Y-95328586D01*
X113596028Y-95226262D01*
X113726262Y-95096028D01*
X113750000Y-95060502D01*
X113773738Y-95096028D01*
X113903972Y-95226262D01*
X114057111Y-95328586D01*
X114227271Y-95399068D01*
X114407911Y-95435000D01*
X114592089Y-95435000D01*
X114772729Y-95399068D01*
X114942889Y-95328586D01*
X115096028Y-95226262D01*
X115226262Y-95096028D01*
X115328586Y-94942889D01*
X115399068Y-94772729D01*
X115435000Y-94592089D01*
X115435000Y-94407911D01*
X115399068Y-94227271D01*
X115328586Y-94057111D01*
X115226262Y-93903972D01*
X115096028Y-93773738D01*
X114942889Y-93671414D01*
X114772729Y-93600932D01*
X114651649Y-93576847D01*
X114585011Y-93510210D01*
X114585011Y-89840142D01*
X114727271Y-89899068D01*
X114907911Y-89935000D01*
X115092089Y-89935000D01*
X115272729Y-89899068D01*
X115442889Y-89828586D01*
X115596028Y-89726262D01*
X115726262Y-89596028D01*
X115828586Y-89442889D01*
X115899068Y-89272729D01*
X115935000Y-89092089D01*
X115935000Y-88907911D01*
X115899068Y-88727271D01*
X115828586Y-88557111D01*
X115726262Y-88403972D01*
X115596028Y-88273738D01*
X115442889Y-88171414D01*
X115272729Y-88100932D01*
X115092089Y-88065000D01*
X114907911Y-88065000D01*
X114727271Y-88100932D01*
X114585011Y-88159858D01*
X114585011Y-78409788D01*
X115893242Y-77101558D01*
X115982456Y-77235077D01*
X116164923Y-77417544D01*
X116379482Y-77560907D01*
X116617887Y-77659658D01*
X116870976Y-77710000D01*
X117129024Y-77710000D01*
X117217583Y-77692385D01*
X118414981Y-78889783D01*
X118414981Y-88409854D01*
X118272729Y-88350932D01*
X118092089Y-88315000D01*
X117907911Y-88315000D01*
X117727271Y-88350932D01*
X117557111Y-88421414D01*
X117403972Y-88523738D01*
X117273738Y-88653972D01*
X117171414Y-88807111D01*
X117100932Y-88977271D01*
X117065000Y-89157911D01*
X117065000Y-89342089D01*
X117100932Y-89522729D01*
X117171414Y-89692889D01*
X117240000Y-89795536D01*
X117240001Y-93454463D01*
X117171414Y-93557111D01*
X117100932Y-93727271D01*
X117065000Y-93907911D01*
X117065000Y-94092089D01*
X117100932Y-94272729D01*
X117171414Y-94442889D01*
X117273738Y-94596028D01*
X117403972Y-94726262D01*
X117557111Y-94828586D01*
X117727271Y-94899068D01*
X117907911Y-94935000D01*
X118092089Y-94935000D01*
X118272729Y-94899068D01*
X118414981Y-94840146D01*
X118414982Y-126159855D01*
X118272729Y-126100932D01*
X118092089Y-126065000D01*
X117907911Y-126065000D01*
X117727271Y-126100932D01*
X117557111Y-126171414D01*
X117454465Y-126240000D01*
X109545535Y-126240000D01*
X109442889Y-126171414D01*
X109272729Y-126100932D01*
X109092089Y-126065000D01*
X108907911Y-126065000D01*
X108727271Y-126100932D01*
X108557111Y-126171414D01*
X108403972Y-126273738D01*
X108273738Y-126403972D01*
X108171414Y-126557111D01*
X108100932Y-126727271D01*
X108065000Y-126907911D01*
X108065000Y-127092089D01*
X108100932Y-127272729D01*
X108171414Y-127442889D01*
X108273738Y-127596028D01*
X108403972Y-127726262D01*
X108557111Y-127828586D01*
X108727271Y-127899068D01*
X108907911Y-127935000D01*
X109092089Y-127935000D01*
X109272729Y-127899068D01*
X109442889Y-127828586D01*
X109545535Y-127760000D01*
X117454465Y-127760000D01*
X117557111Y-127828586D01*
X117727271Y-127899068D01*
X117907911Y-127935000D01*
X118092089Y-127935000D01*
X118272729Y-127899068D01*
X118414982Y-127840145D01*
X118414982Y-142637648D01*
X118411305Y-142674981D01*
X118425979Y-142823966D01*
X118469435Y-142967227D01*
X118540007Y-143099257D01*
X118611182Y-143185983D01*
X118634981Y-143214982D01*
X118663979Y-143238780D01*
X121490001Y-146064803D01*
X121490000Y-152454464D01*
X121421414Y-152557111D01*
X121350932Y-152727271D01*
X121315000Y-152907911D01*
X121315000Y-153092089D01*
X121350932Y-153272729D01*
X121421414Y-153442889D01*
X121523738Y-153596028D01*
X121653972Y-153726262D01*
X121674532Y-153740000D01*
X112814803Y-153740000D01*
X107423153Y-148348352D01*
X107399068Y-148227271D01*
X107328586Y-148057111D01*
X107226262Y-147903972D01*
X107096028Y-147773738D01*
X106942889Y-147671414D01*
X106772729Y-147600932D01*
X106592089Y-147565000D01*
X106407911Y-147565000D01*
X106227271Y-147600932D01*
X106057111Y-147671414D01*
X105903972Y-147773738D01*
X105773738Y-147903972D01*
X105671414Y-148057111D01*
X105600932Y-148227271D01*
X105565000Y-148407911D01*
X105565000Y-148592089D01*
X105600932Y-148772729D01*
X105671414Y-148942889D01*
X105773738Y-149096028D01*
X105903972Y-149226262D01*
X106057111Y-149328586D01*
X106227271Y-149399068D01*
X106348352Y-149423153D01*
X111936205Y-155011008D01*
X111959999Y-155040001D01*
X111988992Y-155063795D01*
X111988996Y-155063799D01*
X112005584Y-155077412D01*
X112075724Y-155134974D01*
X112207753Y-155205546D01*
X112351014Y-155249003D01*
X112462667Y-155260000D01*
X112462676Y-155260000D01*
X112499999Y-155263676D01*
X112537322Y-155260000D01*
X126204465Y-155260000D01*
X126307111Y-155328586D01*
X126477271Y-155399068D01*
X126657911Y-155435000D01*
X126842089Y-155435000D01*
X127022729Y-155399068D01*
X127192889Y-155328586D01*
X127295535Y-155260000D01*
X139199092Y-155260000D01*
X139117023Y-155314837D01*
X138814837Y-155617023D01*
X138577412Y-155972355D01*
X138413870Y-156367179D01*
X138330497Y-156786323D01*
X138330497Y-157213677D01*
X138413870Y-157632821D01*
X138577412Y-158027645D01*
X138814837Y-158382977D01*
X139117023Y-158685163D01*
X139348753Y-158840000D01*
X114547109Y-158840000D01*
X114735178Y-158631355D01*
X114884157Y-158381252D01*
X114981481Y-158106891D01*
X114860814Y-157877000D01*
X113667000Y-157877000D01*
X113667000Y-157897000D01*
X113413000Y-157897000D01*
X113413000Y-157877000D01*
X113393000Y-157877000D01*
X113393000Y-157623000D01*
X113413000Y-157623000D01*
X113413000Y-156429845D01*
X113667000Y-156429845D01*
X113667000Y-157623000D01*
X114860814Y-157623000D01*
X114981481Y-157393109D01*
X114884157Y-157118748D01*
X114735178Y-156868645D01*
X114540269Y-156652412D01*
X114306920Y-156478359D01*
X114044099Y-156353175D01*
X113896890Y-156308524D01*
X113667000Y-156429845D01*
X113413000Y-156429845D01*
X113183110Y-156308524D01*
X113035901Y-156353175D01*
X112773080Y-156478359D01*
X112539731Y-156652412D01*
X112463966Y-156736466D01*
X112439502Y-156655820D01*
X112380537Y-156545506D01*
X112301185Y-156448815D01*
X112204494Y-156369463D01*
X112094180Y-156310498D01*
X111974482Y-156274188D01*
X111850000Y-156261928D01*
X110150000Y-156261928D01*
X110046746Y-156272097D01*
X109922588Y-155972355D01*
X109685163Y-155617023D01*
X109382977Y-155314837D01*
X109027645Y-155077412D01*
X108632821Y-154913870D01*
X108213677Y-154830497D01*
X107786323Y-154830497D01*
X107367179Y-154913870D01*
X106972355Y-155077412D01*
X106617023Y-155314837D01*
X106314837Y-155617023D01*
X106077412Y-155972355D01*
X105913870Y-156367179D01*
X105830497Y-156786323D01*
X105830497Y-157213677D01*
X105913870Y-157632821D01*
X106077412Y-158027645D01*
X106314837Y-158382977D01*
X106617023Y-158685163D01*
X106848753Y-158840000D01*
X100660000Y-158840000D01*
X100660000Y-157659253D01*
X100700000Y-157663193D01*
X100732419Y-157660000D01*
X103467581Y-157660000D01*
X103500000Y-157663193D01*
X103532419Y-157660000D01*
X103629383Y-157650450D01*
X103753793Y-157612710D01*
X103868450Y-157551425D01*
X103968948Y-157468948D01*
X104051425Y-157368450D01*
X104112710Y-157253793D01*
X104150450Y-157129383D01*
X104163193Y-157000000D01*
X104160000Y-156967581D01*
X104160000Y-152032419D01*
X104163193Y-152000000D01*
X104150450Y-151870617D01*
X104112710Y-151746207D01*
X104051425Y-151631550D01*
X103968948Y-151531052D01*
X103868450Y-151448575D01*
X103753793Y-151387290D01*
X103629383Y-151349550D01*
X103532419Y-151340000D01*
X103500000Y-151336807D01*
X103467581Y-151340000D01*
X100732419Y-151340000D01*
X100700000Y-151336807D01*
X100667581Y-151340000D01*
X100660000Y-151340747D01*
X100660000Y-148354248D01*
X100801342Y-148565781D01*
X101034219Y-148798658D01*
X101308053Y-148981628D01*
X101612322Y-149107660D01*
X101935331Y-149171910D01*
X102264669Y-149171910D01*
X102587678Y-149107660D01*
X102891947Y-148981628D01*
X103165781Y-148798658D01*
X103398658Y-148565781D01*
X103581628Y-148291947D01*
X103707660Y-147987678D01*
X103771910Y-147664669D01*
X103771910Y-147335331D01*
X103707660Y-147012322D01*
X103581628Y-146708053D01*
X103398658Y-146434219D01*
X103165781Y-146201342D01*
X102891947Y-146018372D01*
X102587678Y-145892340D01*
X102264669Y-145828090D01*
X101935331Y-145828090D01*
X101612322Y-145892340D01*
X101308053Y-146018372D01*
X101034219Y-146201342D01*
X100801342Y-146434219D01*
X100660000Y-146645752D01*
X100660000Y-117915010D01*
X108321314Y-117915010D01*
X108324991Y-117952342D01*
X108324990Y-122877667D01*
X108321314Y-122914990D01*
X108324990Y-122952312D01*
X108324990Y-122952322D01*
X108335987Y-123063975D01*
X108376938Y-123198975D01*
X108379444Y-123207236D01*
X108450016Y-123339266D01*
X108471134Y-123364998D01*
X108544989Y-123454991D01*
X108573993Y-123478794D01*
X109268791Y-124173592D01*
X109225000Y-124393740D01*
X109225000Y-124686260D01*
X109282068Y-124973158D01*
X109394010Y-125243411D01*
X109556525Y-125486632D01*
X109763368Y-125693475D01*
X110006589Y-125855990D01*
X110276842Y-125967932D01*
X110563740Y-126025000D01*
X110856260Y-126025000D01*
X111143158Y-125967932D01*
X111413411Y-125855990D01*
X111656632Y-125693475D01*
X111863475Y-125486632D01*
X111980000Y-125312240D01*
X112096525Y-125486632D01*
X112303368Y-125693475D01*
X112546589Y-125855990D01*
X112816842Y-125967932D01*
X113103740Y-126025000D01*
X113396260Y-126025000D01*
X113683158Y-125967932D01*
X113953411Y-125855990D01*
X114196632Y-125693475D01*
X114403475Y-125486632D01*
X114565990Y-125243411D01*
X114677932Y-124973158D01*
X114735000Y-124686260D01*
X114735000Y-124393740D01*
X114677932Y-124106842D01*
X114565990Y-123836589D01*
X114403475Y-123593368D01*
X114271620Y-123461513D01*
X114344180Y-123439502D01*
X114454494Y-123380537D01*
X114551185Y-123301185D01*
X114630537Y-123204494D01*
X114689502Y-123094180D01*
X114725812Y-122974482D01*
X114738072Y-122850000D01*
X114738072Y-121150000D01*
X114725812Y-121025518D01*
X114689502Y-120905820D01*
X114630537Y-120795506D01*
X114551185Y-120698815D01*
X114454494Y-120619463D01*
X114344180Y-120560498D01*
X114263534Y-120536034D01*
X114347588Y-120460269D01*
X114521641Y-120226920D01*
X114646825Y-119964099D01*
X114691476Y-119816890D01*
X114570155Y-119587000D01*
X113377000Y-119587000D01*
X113377000Y-119607000D01*
X113123000Y-119607000D01*
X113123000Y-119587000D01*
X113103000Y-119587000D01*
X113103000Y-119333000D01*
X113123000Y-119333000D01*
X113123000Y-118139186D01*
X113377000Y-118139186D01*
X113377000Y-119333000D01*
X114570155Y-119333000D01*
X114691476Y-119103110D01*
X114646825Y-118955901D01*
X114521641Y-118693080D01*
X114347588Y-118459731D01*
X114131355Y-118264822D01*
X113881252Y-118115843D01*
X113606891Y-118018519D01*
X113377000Y-118139186D01*
X113123000Y-118139186D01*
X112893109Y-118018519D01*
X112645001Y-118106530D01*
X112645001Y-107192300D01*
X112651649Y-107185653D01*
X112772729Y-107161568D01*
X112942889Y-107091086D01*
X113096028Y-106988762D01*
X113226262Y-106858528D01*
X113328586Y-106705389D01*
X113399068Y-106535229D01*
X113435000Y-106354589D01*
X113435000Y-106170411D01*
X113399068Y-105989771D01*
X113328586Y-105819611D01*
X113226262Y-105666472D01*
X113096028Y-105536238D01*
X112942889Y-105433914D01*
X112772729Y-105363432D01*
X112592089Y-105327500D01*
X112407911Y-105327500D01*
X112227271Y-105363432D01*
X112057111Y-105433914D01*
X111903972Y-105536238D01*
X111773738Y-105666472D01*
X111671414Y-105819611D01*
X111600932Y-105989771D01*
X111576847Y-106110851D01*
X111374003Y-106313696D01*
X111345000Y-106337498D01*
X111289872Y-106404673D01*
X111250027Y-106453223D01*
X111206194Y-106535229D01*
X111179455Y-106585253D01*
X111135998Y-106728514D01*
X111125001Y-106840167D01*
X111125001Y-106840177D01*
X111121325Y-106877499D01*
X111125001Y-106914821D01*
X111125002Y-116393294D01*
X111022729Y-116350932D01*
X110842089Y-116315000D01*
X110657911Y-116315000D01*
X110477271Y-116350932D01*
X110307111Y-116421414D01*
X110250000Y-116459574D01*
X110192889Y-116421414D01*
X110022729Y-116350932D01*
X109842089Y-116315000D01*
X109657911Y-116315000D01*
X109477271Y-116350932D01*
X109307111Y-116421414D01*
X109153972Y-116523738D01*
X109023738Y-116653972D01*
X108921414Y-116807111D01*
X108850932Y-116977271D01*
X108826847Y-117098351D01*
X108573988Y-117351211D01*
X108544990Y-117375009D01*
X108521192Y-117404007D01*
X108521191Y-117404008D01*
X108450016Y-117490734D01*
X108379444Y-117622764D01*
X108335988Y-117766025D01*
X108321314Y-117915010D01*
X100660000Y-117915010D01*
X100660000Y-102657911D01*
X110865000Y-102657911D01*
X110865000Y-102842089D01*
X110900932Y-103022729D01*
X110971414Y-103192889D01*
X111073738Y-103346028D01*
X111203972Y-103476262D01*
X111357111Y-103578586D01*
X111527271Y-103649068D01*
X111707911Y-103685000D01*
X111892089Y-103685000D01*
X112072729Y-103649068D01*
X112242889Y-103578586D01*
X112396028Y-103476262D01*
X112526262Y-103346028D01*
X112628586Y-103192889D01*
X112699068Y-103022729D01*
X112735000Y-102842089D01*
X112735000Y-102657911D01*
X112699068Y-102477271D01*
X112669328Y-102405473D01*
X114901649Y-100173153D01*
X115022729Y-100149068D01*
X115192889Y-100078586D01*
X115346028Y-99976262D01*
X115476262Y-99846028D01*
X115578586Y-99692889D01*
X115649068Y-99522729D01*
X115685000Y-99342089D01*
X115685000Y-99157911D01*
X115649068Y-98977271D01*
X115578586Y-98807111D01*
X115476262Y-98653972D01*
X115346028Y-98523738D01*
X115192889Y-98421414D01*
X115022729Y-98350932D01*
X114842089Y-98315000D01*
X114657911Y-98315000D01*
X114477271Y-98350932D01*
X114307111Y-98421414D01*
X114153972Y-98523738D01*
X114023738Y-98653972D01*
X113921414Y-98807111D01*
X113850932Y-98977271D01*
X113826847Y-99098351D01*
X111288998Y-101636201D01*
X111260000Y-101659999D01*
X111236202Y-101688997D01*
X111236201Y-101688998D01*
X111165026Y-101775724D01*
X111124826Y-101850932D01*
X111094454Y-101907753D01*
X111050997Y-102051014D01*
X111040000Y-102162667D01*
X111040000Y-102162678D01*
X111036324Y-102200000D01*
X111037179Y-102208686D01*
X110971414Y-102307111D01*
X110900932Y-102477271D01*
X110865000Y-102657911D01*
X100660000Y-102657911D01*
X100660000Y-73003908D01*
X100701342Y-73065781D01*
X100934219Y-73298658D01*
X101208053Y-73481628D01*
X101512322Y-73607660D01*
X101835331Y-73671910D01*
X102164669Y-73671910D01*
X102487678Y-73607660D01*
X102791947Y-73481628D01*
X103065781Y-73298658D01*
X103298658Y-73065781D01*
X103481628Y-72791947D01*
X103607660Y-72487678D01*
X103671910Y-72164669D01*
X103671910Y-71835331D01*
X103607660Y-71512322D01*
X103481628Y-71208053D01*
X103298658Y-70934219D01*
X103065781Y-70701342D01*
X103003908Y-70660000D01*
X105786121Y-70660000D01*
X105577412Y-70972355D01*
%TA.AperFunction,Conductor*%
D18*
G36*
X105577412Y-70972355D02*
G01*
X105413870Y-71367179D01*
X105330497Y-71786323D01*
X105330497Y-72213677D01*
X105413870Y-72632821D01*
X105577412Y-73027645D01*
X105814837Y-73382977D01*
X106117023Y-73685163D01*
X106472355Y-73922588D01*
X106867179Y-74086130D01*
X107286323Y-74169503D01*
X107713677Y-74169503D01*
X108132821Y-74086130D01*
X108527645Y-73922588D01*
X108882977Y-73685163D01*
X109185163Y-73382977D01*
X109422588Y-73027645D01*
X109586130Y-72632821D01*
X109669503Y-72213677D01*
X109669503Y-71786323D01*
X109586130Y-71367179D01*
X109422588Y-70972355D01*
X109213879Y-70660000D01*
X139286121Y-70660000D01*
X139077412Y-70972355D01*
X138913870Y-71367179D01*
X138830497Y-71786323D01*
X138830497Y-72213677D01*
X138913870Y-72632821D01*
X139077412Y-73027645D01*
X139314837Y-73382977D01*
X139617023Y-73685163D01*
X139972355Y-73922588D01*
X140367179Y-74086130D01*
X140786323Y-74169503D01*
X141213677Y-74169503D01*
X141632821Y-74086130D01*
X142027645Y-73922588D01*
X142382977Y-73685163D01*
X142685163Y-73382977D01*
X142922588Y-73027645D01*
X143086130Y-72632821D01*
X143169503Y-72213677D01*
X143169503Y-71786323D01*
X143086130Y-71367179D01*
X142922588Y-70972355D01*
X142713879Y-70660000D01*
X144996092Y-70660000D01*
X144934219Y-70701342D01*
X144701342Y-70934219D01*
X144518372Y-71208053D01*
X144392340Y-71512322D01*
X144328090Y-71835331D01*
X144328090Y-72164669D01*
X144392340Y-72487678D01*
X144518372Y-72791947D01*
X144701342Y-73065781D01*
X144934219Y-73298658D01*
X145208053Y-73481628D01*
X145512322Y-73607660D01*
X145835331Y-73671910D01*
X146164669Y-73671910D01*
X146487678Y-73607660D01*
X146791947Y-73481628D01*
X147065781Y-73298658D01*
X147298658Y-73065781D01*
X147340000Y-73003908D01*
X147340001Y-150496093D01*
X147298658Y-150434219D01*
X147065781Y-150201342D01*
X146791947Y-150018372D01*
X146487678Y-149892340D01*
X146164669Y-149828090D01*
X145835331Y-149828090D01*
X145512322Y-149892340D01*
X145208053Y-150018372D01*
X144934219Y-150201342D01*
X144701342Y-150434219D01*
X144518372Y-150708053D01*
X144392340Y-151012322D01*
X144328090Y-151335331D01*
X144328090Y-151664669D01*
X144392340Y-151987678D01*
X144518372Y-152291947D01*
X144701342Y-152565781D01*
X144934219Y-152798658D01*
X145208053Y-152981628D01*
X145512322Y-153107660D01*
X145835331Y-153171910D01*
X146164669Y-153171910D01*
X146487678Y-153107660D01*
X146791947Y-152981628D01*
X147065781Y-152798658D01*
X147298658Y-152565781D01*
X147340001Y-152503907D01*
X147340001Y-156727623D01*
X147206920Y-156628359D01*
X146944099Y-156503175D01*
X146796890Y-156458524D01*
X146567000Y-156579845D01*
X146567000Y-157773000D01*
X146587000Y-157773000D01*
X146587000Y-158027000D01*
X146567000Y-158027000D01*
X146567000Y-158047000D01*
X146313000Y-158047000D01*
X146313000Y-158027000D01*
X146293000Y-158027000D01*
X146293000Y-157773000D01*
X146313000Y-157773000D01*
X146313000Y-156579845D01*
X146083110Y-156458524D01*
X145935901Y-156503175D01*
X145673080Y-156628359D01*
X145439731Y-156802412D01*
X145363966Y-156886466D01*
X145339502Y-156805820D01*
X145280537Y-156695506D01*
X145201185Y-156598815D01*
X145104494Y-156519463D01*
X144994180Y-156460498D01*
X144874482Y-156424188D01*
X144750000Y-156411928D01*
X143050000Y-156411928D01*
X142925518Y-156424188D01*
X142805820Y-156460498D01*
X142695506Y-156519463D01*
X142627520Y-156575258D01*
X142586130Y-156367179D01*
X142422588Y-155972355D01*
X142185163Y-155617023D01*
X141882977Y-155314837D01*
X141527645Y-155077412D01*
X141152698Y-154922103D01*
X141401649Y-154673153D01*
X141522729Y-154649068D01*
X141692889Y-154578586D01*
X141846028Y-154476262D01*
X141976262Y-154346028D01*
X142078586Y-154192889D01*
X142149068Y-154022729D01*
X142185000Y-153842089D01*
X142185000Y-153657911D01*
X142149068Y-153477271D01*
X142078586Y-153307111D01*
X141976262Y-153153972D01*
X141846028Y-153023738D01*
X141692889Y-152921414D01*
X141522729Y-152850932D01*
X141342089Y-152815000D01*
X141157911Y-152815000D01*
X140977271Y-152850932D01*
X140807111Y-152921414D01*
X140653972Y-153023738D01*
X140523738Y-153153972D01*
X140421414Y-153307111D01*
X140350932Y-153477271D01*
X140326847Y-153598351D01*
X140185199Y-153740000D01*
X127295535Y-153740000D01*
X127192889Y-153671414D01*
X127022729Y-153600932D01*
X126919585Y-153580415D01*
X126899068Y-153477271D01*
X126828586Y-153307111D01*
X126760000Y-153204465D01*
X126760000Y-152862321D01*
X126763676Y-152824998D01*
X126760000Y-152787675D01*
X126760000Y-152787665D01*
X126749003Y-152676012D01*
X126705546Y-152532751D01*
X126634974Y-152400722D01*
X126540001Y-152284997D01*
X126510998Y-152261195D01*
X126460010Y-152210207D01*
X126460010Y-147157911D01*
X137565000Y-147157911D01*
X137565000Y-147342089D01*
X137600932Y-147522729D01*
X137671414Y-147692889D01*
X137773738Y-147846028D01*
X137903972Y-147976262D01*
X138057111Y-148078586D01*
X138227271Y-148149068D01*
X138407911Y-148185000D01*
X138592089Y-148185000D01*
X138772729Y-148149068D01*
X138942889Y-148078586D01*
X139096028Y-147976262D01*
X139226262Y-147846028D01*
X139328586Y-147692889D01*
X139399068Y-147522729D01*
X139435000Y-147342089D01*
X139435000Y-147157911D01*
X139399068Y-146977271D01*
X139328586Y-146807111D01*
X139226262Y-146653972D01*
X139096028Y-146523738D01*
X138942889Y-146421414D01*
X138772729Y-146350932D01*
X138592089Y-146315000D01*
X138407911Y-146315000D01*
X138227271Y-146350932D01*
X138057111Y-146421414D01*
X137903972Y-146523738D01*
X137773738Y-146653972D01*
X137671414Y-146807111D01*
X137600932Y-146977271D01*
X137565000Y-147157911D01*
X126460010Y-147157911D01*
X126460010Y-123737335D01*
X126463686Y-123700010D01*
X126460010Y-123662685D01*
X126460010Y-123662677D01*
X126449013Y-123551024D01*
X126405556Y-123407763D01*
X126334984Y-123275734D01*
X126240011Y-123160009D01*
X126211014Y-123136212D01*
X125923153Y-122848351D01*
X125899068Y-122727271D01*
X125828586Y-122557111D01*
X125726262Y-122403972D01*
X125596028Y-122273738D01*
X125442889Y-122171414D01*
X125272729Y-122100932D01*
X125092089Y-122065000D01*
X125010000Y-122065000D01*
X125010000Y-121545535D01*
X125078586Y-121442889D01*
X125149068Y-121272729D01*
X125185000Y-121092089D01*
X125185000Y-120907911D01*
X125149068Y-120727271D01*
X125078586Y-120557111D01*
X124976262Y-120403972D01*
X124846028Y-120273738D01*
X124692889Y-120171414D01*
X124522729Y-120100932D01*
X124342089Y-120065000D01*
X124157911Y-120065000D01*
X123977271Y-120100932D01*
X123807111Y-120171414D01*
X123653972Y-120273738D01*
X123523738Y-120403972D01*
X123421414Y-120557111D01*
X123374999Y-120669168D01*
X123374999Y-112923850D01*
X123433110Y-112941476D01*
X123663000Y-112820155D01*
X123663000Y-111627000D01*
X123643000Y-111627000D01*
X123643000Y-111373000D01*
X123663000Y-111373000D01*
X123663000Y-110179845D01*
X123433110Y-110058524D01*
X123285901Y-110103175D01*
X123208415Y-110140082D01*
X123178798Y-110103994D01*
X123155000Y-110074996D01*
X123126003Y-110051199D01*
X121285009Y-108210208D01*
X121285009Y-97607299D01*
X121403972Y-97726262D01*
X121557111Y-97828586D01*
X121727271Y-97899068D01*
X121907911Y-97935000D01*
X122092089Y-97935000D01*
X122272729Y-97899068D01*
X122442889Y-97828586D01*
X122545535Y-97760000D01*
X123962678Y-97760000D01*
X124000000Y-97763676D01*
X124037322Y-97760000D01*
X124037333Y-97760000D01*
X124148986Y-97749003D01*
X124292247Y-97705546D01*
X124424276Y-97634974D01*
X124540001Y-97540001D01*
X124563804Y-97510997D01*
X125570001Y-96504800D01*
X125570000Y-110221821D01*
X125383368Y-110346525D01*
X125176525Y-110553368D01*
X125054805Y-110735534D01*
X124985178Y-110618645D01*
X124790269Y-110402412D01*
X124556920Y-110228359D01*
X124294099Y-110103175D01*
X124146890Y-110058524D01*
X123917000Y-110179845D01*
X123917000Y-111373000D01*
X123937000Y-111373000D01*
X123937000Y-111627000D01*
X123917000Y-111627000D01*
X123917000Y-112820155D01*
X124146890Y-112941476D01*
X124294099Y-112896825D01*
X124556920Y-112771641D01*
X124790269Y-112597588D01*
X124985178Y-112381355D01*
X125054805Y-112264466D01*
X125176525Y-112446632D01*
X125383368Y-112653475D01*
X125570001Y-112778179D01*
X125570001Y-112855197D01*
X124348352Y-114076847D01*
X124227271Y-114100932D01*
X124057111Y-114171414D01*
X123903972Y-114273738D01*
X123773738Y-114403972D01*
X123671414Y-114557111D01*
X123600932Y-114727271D01*
X123565000Y-114907911D01*
X123565000Y-115092089D01*
X123600932Y-115272729D01*
X123671414Y-115442889D01*
X123773738Y-115596028D01*
X123903972Y-115726262D01*
X124057111Y-115828586D01*
X124227271Y-115899068D01*
X124407911Y-115935000D01*
X124592089Y-115935000D01*
X124772729Y-115899068D01*
X124942889Y-115828586D01*
X125096028Y-115726262D01*
X125226262Y-115596028D01*
X125328586Y-115442889D01*
X125399068Y-115272729D01*
X125423153Y-115151648D01*
X126841003Y-113733799D01*
X126870001Y-113710001D01*
X126964974Y-113594276D01*
X127035546Y-113462247D01*
X127079003Y-113318986D01*
X127090000Y-113207333D01*
X127090000Y-113207323D01*
X127093676Y-113170000D01*
X127090000Y-113132677D01*
X127090000Y-112778178D01*
X127276632Y-112653475D01*
X127483475Y-112446632D01*
X127600000Y-112272240D01*
X127716525Y-112446632D01*
X127923368Y-112653475D01*
X128166589Y-112815990D01*
X128436842Y-112927932D01*
X128723740Y-112985000D01*
X129016260Y-112985000D01*
X129303158Y-112927932D01*
X129573411Y-112815990D01*
X129816632Y-112653475D01*
X130023475Y-112446632D01*
X130140000Y-112272240D01*
X130256525Y-112446632D01*
X130463368Y-112653475D01*
X130706589Y-112815990D01*
X130976842Y-112927932D01*
X131263740Y-112985000D01*
X131556260Y-112985000D01*
X131843158Y-112927932D01*
X132113411Y-112815990D01*
X132356632Y-112653475D01*
X132563475Y-112446632D01*
X132680000Y-112272240D01*
X132796525Y-112446632D01*
X133003368Y-112653475D01*
X133246589Y-112815990D01*
X133516842Y-112927932D01*
X133803740Y-112985000D01*
X134096260Y-112985000D01*
X134383158Y-112927932D01*
X134653411Y-112815990D01*
X134896632Y-112653475D01*
X135103475Y-112446632D01*
X135265990Y-112203411D01*
X135377932Y-111933158D01*
X135435000Y-111646260D01*
X135435000Y-111353740D01*
X135377932Y-111066842D01*
X135265990Y-110796589D01*
X135103475Y-110553368D01*
X134896632Y-110346525D01*
X134653411Y-110184010D01*
X134383158Y-110072068D01*
X134096260Y-110015000D01*
X133803740Y-110015000D01*
X133516842Y-110072068D01*
X133246589Y-110184010D01*
X133003368Y-110346525D01*
X132796525Y-110553368D01*
X132680000Y-110727760D01*
X132563475Y-110553368D01*
X132356632Y-110346525D01*
X132113411Y-110184010D01*
X131843158Y-110072068D01*
X131556260Y-110015000D01*
X131263740Y-110015000D01*
X130976842Y-110072068D01*
X130706589Y-110184010D01*
X130463368Y-110346525D01*
X130256525Y-110553368D01*
X130140000Y-110727760D01*
X130023475Y-110553368D01*
X129816632Y-110346525D01*
X129573411Y-110184010D01*
X129303158Y-110072068D01*
X129016260Y-110015000D01*
X128723740Y-110015000D01*
X128436842Y-110072068D01*
X128166589Y-110184010D01*
X127923368Y-110346525D01*
X127716525Y-110553368D01*
X127600000Y-110727760D01*
X127483475Y-110553368D01*
X127276632Y-110346525D01*
X127090000Y-110221822D01*
X127090000Y-96484801D01*
X135151649Y-88423153D01*
X135272729Y-88399068D01*
X135442889Y-88328586D01*
X135596028Y-88226262D01*
X135726262Y-88096028D01*
X135828586Y-87942889D01*
X135899068Y-87772729D01*
X135919585Y-87669585D01*
X136022729Y-87649068D01*
X136192889Y-87578586D01*
X136346028Y-87476262D01*
X136476262Y-87346028D01*
X136578586Y-87192889D01*
X136649068Y-87022729D01*
X136685000Y-86842089D01*
X136685000Y-86657911D01*
X136649068Y-86477271D01*
X136578586Y-86307111D01*
X136476262Y-86153972D01*
X136346028Y-86023738D01*
X136192889Y-85921414D01*
X136022729Y-85850932D01*
X135842089Y-85815000D01*
X135657911Y-85815000D01*
X135477271Y-85850932D01*
X135307111Y-85921414D01*
X135204465Y-85990000D01*
X134287322Y-85990000D01*
X134249999Y-85986324D01*
X134212677Y-85990000D01*
X134212667Y-85990000D01*
X134101014Y-86000997D01*
X133957753Y-86044454D01*
X133825723Y-86115026D01*
X133778268Y-86153972D01*
X133709999Y-86209999D01*
X133686201Y-86238997D01*
X133090156Y-86835043D01*
X133078586Y-86807111D01*
X132976262Y-86653972D01*
X132846028Y-86523738D01*
X132692889Y-86421414D01*
X132522729Y-86350932D01*
X132342089Y-86315000D01*
X132157911Y-86315000D01*
X131977271Y-86350932D01*
X131807111Y-86421414D01*
X131653972Y-86523738D01*
X131523738Y-86653972D01*
X131421414Y-86807111D01*
X131350932Y-86977271D01*
X131326847Y-87098351D01*
X130685199Y-87740000D01*
X125295535Y-87740000D01*
X125192889Y-87671414D01*
X125022729Y-87600932D01*
X124842089Y-87565000D01*
X124657911Y-87565000D01*
X124477271Y-87600932D01*
X124307111Y-87671414D01*
X124153972Y-87773738D01*
X124023738Y-87903972D01*
X123921414Y-88057111D01*
X123850932Y-88227271D01*
X123815000Y-88407911D01*
X123815000Y-88592089D01*
X123850932Y-88772729D01*
X123921414Y-88942889D01*
X124023738Y-89096028D01*
X124153972Y-89226262D01*
X124307111Y-89328586D01*
X124477271Y-89399068D01*
X124657911Y-89435000D01*
X124842089Y-89435000D01*
X125022729Y-89399068D01*
X125192889Y-89328586D01*
X125295535Y-89260000D01*
X130665198Y-89260000D01*
X128185000Y-91740199D01*
X128185000Y-91657911D01*
X128149068Y-91477271D01*
X128078586Y-91307111D01*
X127976262Y-91153972D01*
X127846028Y-91023738D01*
X127692889Y-90921414D01*
X127522729Y-90850932D01*
X127342089Y-90815000D01*
X127157911Y-90815000D01*
X126977271Y-90850932D01*
X126807111Y-90921414D01*
X126704465Y-90990000D01*
X121795535Y-90990000D01*
X121692889Y-90921414D01*
X121522729Y-90850932D01*
X121342089Y-90815000D01*
X121285009Y-90815000D01*
X121285009Y-85277911D01*
X136565000Y-85277911D01*
X136565000Y-85462089D01*
X136600932Y-85642729D01*
X136671414Y-85812889D01*
X136773738Y-85966028D01*
X136903972Y-86096262D01*
X137057111Y-86198586D01*
X137227271Y-86269068D01*
X137348351Y-86293153D01*
X138365002Y-87309805D01*
X138365001Y-119922681D01*
X138361325Y-119960003D01*
X138365001Y-119997325D01*
X138365001Y-119997335D01*
X138375998Y-120108988D01*
X138411772Y-120226920D01*
X138419455Y-120252249D01*
X138490027Y-120384279D01*
X138506189Y-120403972D01*
X138585000Y-120500004D01*
X138614004Y-120523807D01*
X143115002Y-125024807D01*
X143115001Y-146310197D01*
X143098351Y-146326847D01*
X142977271Y-146350932D01*
X142807111Y-146421414D01*
X142653972Y-146523738D01*
X142523738Y-146653972D01*
X142421414Y-146807111D01*
X142350932Y-146977271D01*
X142315000Y-147157911D01*
X142315000Y-147342089D01*
X142350932Y-147522729D01*
X142421414Y-147692889D01*
X142523738Y-147846028D01*
X142653972Y-147976262D01*
X142807111Y-148078586D01*
X142977271Y-148149068D01*
X143157911Y-148185000D01*
X143342089Y-148185000D01*
X143522729Y-148149068D01*
X143692889Y-148078586D01*
X143846028Y-147976262D01*
X143976262Y-147846028D01*
X144078586Y-147692889D01*
X144149068Y-147522729D01*
X144173153Y-147401649D01*
X144386005Y-147188797D01*
X144415002Y-147165000D01*
X144467513Y-147101015D01*
X144509975Y-147049276D01*
X144580547Y-146917246D01*
X144608309Y-146825724D01*
X144624004Y-146773985D01*
X144635001Y-146662332D01*
X144635001Y-146662322D01*
X144638677Y-146624999D01*
X144635001Y-146587676D01*
X144635001Y-124747325D01*
X144638677Y-124710002D01*
X144635001Y-124672679D01*
X144635001Y-124672670D01*
X144624004Y-124561017D01*
X144580547Y-124417756D01*
X144509975Y-124285727D01*
X144472457Y-124240011D01*
X144438800Y-124198999D01*
X144438796Y-124198995D01*
X144415002Y-124170002D01*
X144386009Y-124146208D01*
X144257765Y-124017965D01*
X144269180Y-124014502D01*
X144379494Y-123955537D01*
X144476185Y-123876185D01*
X144555537Y-123779494D01*
X144614502Y-123669180D01*
X144650812Y-123549482D01*
X144663072Y-123425000D01*
X144663072Y-122575000D01*
X144650812Y-122450518D01*
X144614502Y-122330820D01*
X144555537Y-122220506D01*
X144476185Y-122123815D01*
X144379494Y-122044463D01*
X144269180Y-121985498D01*
X144149482Y-121949188D01*
X144025000Y-121936928D01*
X143175000Y-121936928D01*
X143050518Y-121949188D01*
X142930820Y-121985498D01*
X142820506Y-122044463D01*
X142723815Y-122123815D01*
X142644463Y-122220506D01*
X142585498Y-122330820D01*
X142582035Y-122342235D01*
X139885001Y-119645202D01*
X139885001Y-87032323D01*
X139888677Y-86995000D01*
X139885001Y-86957677D01*
X139885001Y-86957668D01*
X139874004Y-86846015D01*
X139830547Y-86702754D01*
X139759975Y-86570725D01*
X139702752Y-86500998D01*
X139688800Y-86483997D01*
X139688796Y-86483993D01*
X139665002Y-86455000D01*
X139636009Y-86431206D01*
X138423153Y-85218351D01*
X138399068Y-85097271D01*
X138328586Y-84927111D01*
X138226262Y-84773972D01*
X138096028Y-84643738D01*
X137942889Y-84541414D01*
X137772729Y-84470932D01*
X137592089Y-84435000D01*
X137407911Y-84435000D01*
X137227271Y-84470932D01*
X137057111Y-84541414D01*
X136903972Y-84643738D01*
X136773738Y-84773972D01*
X136671414Y-84927111D01*
X136600932Y-85097271D01*
X136565000Y-85277911D01*
X121285009Y-85277911D01*
X121285009Y-79189792D01*
X122782417Y-77692385D01*
X122870976Y-77710000D01*
X123129024Y-77710000D01*
X123382113Y-77659658D01*
X123620518Y-77560907D01*
X123835077Y-77417544D01*
X124000000Y-77252621D01*
X124164923Y-77417544D01*
X124379482Y-77560907D01*
X124617887Y-77659658D01*
X124870976Y-77710000D01*
X125129024Y-77710000D01*
X125382113Y-77659658D01*
X125620518Y-77560907D01*
X125835077Y-77417544D01*
X126000000Y-77252621D01*
X126164923Y-77417544D01*
X126379482Y-77560907D01*
X126617887Y-77659658D01*
X126870976Y-77710000D01*
X127129024Y-77710000D01*
X127382113Y-77659658D01*
X127620518Y-77560907D01*
X127835077Y-77417544D01*
X128006681Y-77245940D01*
X128128773Y-77378303D01*
X128336371Y-77529473D01*
X128569472Y-77637238D01*
X128670600Y-77667910D01*
X128873000Y-77544224D01*
X128873000Y-76527000D01*
X128853000Y-76527000D01*
X128853000Y-76273000D01*
X128873000Y-76273000D01*
X128873000Y-76253000D01*
X129127000Y-76253000D01*
X129127000Y-76273000D01*
X129147000Y-76273000D01*
X129147000Y-76527000D01*
X129127000Y-76527000D01*
X129127000Y-77544224D01*
X129329400Y-77667910D01*
X129430528Y-77637238D01*
X129663629Y-77529473D01*
X129796881Y-77432441D01*
X129873815Y-77526185D01*
X129970506Y-77605537D01*
X130080820Y-77664502D01*
X130200518Y-77700812D01*
X130325000Y-77713072D01*
X131675000Y-77713072D01*
X131799482Y-77700812D01*
X131919180Y-77664502D01*
X132029494Y-77605537D01*
X132126185Y-77526185D01*
X132205537Y-77429494D01*
X132264502Y-77319180D01*
X132300812Y-77199482D01*
X132313072Y-77075000D01*
X132313072Y-75725000D01*
X132300812Y-75600518D01*
X132264502Y-75480820D01*
X132205537Y-75370506D01*
X132126185Y-75273815D01*
X132109351Y-75260000D01*
X132685199Y-75260000D01*
X136326847Y-78901649D01*
X136350932Y-79022729D01*
X136421414Y-79192889D01*
X136523738Y-79346028D01*
X136653972Y-79476262D01*
X136807111Y-79578586D01*
X136977271Y-79649068D01*
X137157911Y-79685000D01*
X137342089Y-79685000D01*
X137522729Y-79649068D01*
X137692889Y-79578586D01*
X137846028Y-79476262D01*
X137976262Y-79346028D01*
X138078586Y-79192889D01*
X138149068Y-79022729D01*
X138185000Y-78842089D01*
X138185000Y-78657911D01*
X138149068Y-78477271D01*
X138078586Y-78307111D01*
X137976262Y-78153972D01*
X137846028Y-78023738D01*
X137692889Y-77921414D01*
X137522729Y-77850932D01*
X137401649Y-77826847D01*
X134732713Y-75157911D01*
X137565000Y-75157911D01*
X137565000Y-75342089D01*
X137600932Y-75522729D01*
X137671414Y-75692889D01*
X137773738Y-75846028D01*
X137903972Y-75976262D01*
X138057111Y-76078586D01*
X138227271Y-76149068D01*
X138407911Y-76185000D01*
X138592089Y-76185000D01*
X138772729Y-76149068D01*
X138942889Y-76078586D01*
X139045535Y-76010000D01*
X139435199Y-76010000D01*
X141990000Y-78564802D01*
X141990001Y-82454463D01*
X141921414Y-82557111D01*
X141850932Y-82727271D01*
X141815000Y-82907911D01*
X141815000Y-83092089D01*
X141850932Y-83272729D01*
X141921414Y-83442889D01*
X142023738Y-83596028D01*
X142153972Y-83726262D01*
X142307111Y-83828586D01*
X142477271Y-83899068D01*
X142657911Y-83935000D01*
X142842089Y-83935000D01*
X143022729Y-83899068D01*
X143192889Y-83828586D01*
X143346028Y-83726262D01*
X143476262Y-83596028D01*
X143578586Y-83442889D01*
X143649068Y-83272729D01*
X143685000Y-83092089D01*
X143685000Y-82907911D01*
X143649068Y-82727271D01*
X143578586Y-82557111D01*
X143510000Y-82454465D01*
X143510000Y-78287325D01*
X143513676Y-78250000D01*
X143510000Y-78212675D01*
X143510000Y-78212667D01*
X143499003Y-78101014D01*
X143455546Y-77957753D01*
X143384974Y-77825724D01*
X143290001Y-77709999D01*
X143261004Y-77686202D01*
X140313804Y-74739003D01*
X140290001Y-74709999D01*
X140174276Y-74615026D01*
X140042247Y-74544454D01*
X139898986Y-74500997D01*
X139787333Y-74490000D01*
X139787322Y-74490000D01*
X139750000Y-74486324D01*
X139712678Y-74490000D01*
X139045535Y-74490000D01*
X138942889Y-74421414D01*
X138772729Y-74350932D01*
X138592089Y-74315000D01*
X138407911Y-74315000D01*
X138227271Y-74350932D01*
X138057111Y-74421414D01*
X137903972Y-74523738D01*
X137773738Y-74653972D01*
X137671414Y-74807111D01*
X137600932Y-74977271D01*
X137565000Y-75157911D01*
X134732713Y-75157911D01*
X133563804Y-73989003D01*
X133540001Y-73959999D01*
X133424276Y-73865026D01*
X133292247Y-73794454D01*
X133148986Y-73750997D01*
X133037333Y-73740000D01*
X133037322Y-73740000D01*
X133000000Y-73736324D01*
X132962678Y-73740000D01*
X129287507Y-73740000D01*
X129287314Y-73739981D01*
X129287303Y-73739981D01*
X129249981Y-73736305D01*
X129212659Y-73739981D01*
X116184519Y-73739981D01*
X116147196Y-73736305D01*
X116109873Y-73739981D01*
X116109864Y-73739981D01*
X115998211Y-73750978D01*
X115854950Y-73794435D01*
X115722920Y-73865007D01*
X115652758Y-73922588D01*
X115607196Y-73959980D01*
X115583398Y-73988978D01*
X112239003Y-77333374D01*
X112209999Y-77357177D01*
X112160458Y-77417544D01*
X112115026Y-77472902D01*
X112044455Y-77604931D01*
X112044454Y-77604932D01*
X112000997Y-77748193D01*
X111990000Y-77859846D01*
X111990000Y-77859856D01*
X111986324Y-77897178D01*
X111990000Y-77934500D01*
X111990001Y-90704463D01*
X111921414Y-90807111D01*
X111850932Y-90977271D01*
X111815000Y-91157911D01*
X111815000Y-91342089D01*
X111850932Y-91522729D01*
X111921414Y-91692889D01*
X112023738Y-91846028D01*
X112153972Y-91976262D01*
X112307111Y-92078586D01*
X112477271Y-92149068D01*
X112615001Y-92176465D01*
X112615001Y-93647435D01*
X112557111Y-93671414D01*
X112403972Y-93773738D01*
X112273738Y-93903972D01*
X112171414Y-94057111D01*
X112100932Y-94227271D01*
X112065000Y-94407911D01*
X112065000Y-94592089D01*
X112100932Y-94772729D01*
X112171414Y-94942889D01*
X112273738Y-95096028D01*
X112403972Y-95226262D01*
X112557111Y-95328586D01*
X112727271Y-95399068D01*
X112907911Y-95435000D01*
X113092089Y-95435000D01*
X113272729Y-95399068D01*
X113442889Y-95328586D01*
X113596028Y-95226262D01*
X113726262Y-95096028D01*
X113750000Y-95060502D01*
X113773738Y-95096028D01*
X113903972Y-95226262D01*
X114057111Y-95328586D01*
X114227271Y-95399068D01*
X114407911Y-95435000D01*
X114592089Y-95435000D01*
X114772729Y-95399068D01*
X114942889Y-95328586D01*
X115096028Y-95226262D01*
X115226262Y-95096028D01*
X115328586Y-94942889D01*
X115399068Y-94772729D01*
X115435000Y-94592089D01*
X115435000Y-94407911D01*
X115399068Y-94227271D01*
X115328586Y-94057111D01*
X115226262Y-93903972D01*
X115096028Y-93773738D01*
X114942889Y-93671414D01*
X114772729Y-93600932D01*
X114651649Y-93576847D01*
X114585011Y-93510210D01*
X114585011Y-89840142D01*
X114727271Y-89899068D01*
X114907911Y-89935000D01*
X115092089Y-89935000D01*
X115272729Y-89899068D01*
X115442889Y-89828586D01*
X115596028Y-89726262D01*
X115726262Y-89596028D01*
X115828586Y-89442889D01*
X115899068Y-89272729D01*
X115935000Y-89092089D01*
X115935000Y-88907911D01*
X115899068Y-88727271D01*
X115828586Y-88557111D01*
X115726262Y-88403972D01*
X115596028Y-88273738D01*
X115442889Y-88171414D01*
X115272729Y-88100932D01*
X115092089Y-88065000D01*
X114907911Y-88065000D01*
X114727271Y-88100932D01*
X114585011Y-88159858D01*
X114585011Y-78409788D01*
X115893242Y-77101558D01*
X115982456Y-77235077D01*
X116164923Y-77417544D01*
X116379482Y-77560907D01*
X116617887Y-77659658D01*
X116870976Y-77710000D01*
X117129024Y-77710000D01*
X117217583Y-77692385D01*
X118414981Y-78889783D01*
X118414981Y-88409854D01*
X118272729Y-88350932D01*
X118092089Y-88315000D01*
X117907911Y-88315000D01*
X117727271Y-88350932D01*
X117557111Y-88421414D01*
X117403972Y-88523738D01*
X117273738Y-88653972D01*
X117171414Y-88807111D01*
X117100932Y-88977271D01*
X117065000Y-89157911D01*
X117065000Y-89342089D01*
X117100932Y-89522729D01*
X117171414Y-89692889D01*
X117240000Y-89795536D01*
X117240001Y-93454463D01*
X117171414Y-93557111D01*
X117100932Y-93727271D01*
X117065000Y-93907911D01*
X117065000Y-94092089D01*
X117100932Y-94272729D01*
X117171414Y-94442889D01*
X117273738Y-94596028D01*
X117403972Y-94726262D01*
X117557111Y-94828586D01*
X117727271Y-94899068D01*
X117907911Y-94935000D01*
X118092089Y-94935000D01*
X118272729Y-94899068D01*
X118414981Y-94840146D01*
X118414982Y-126159855D01*
X118272729Y-126100932D01*
X118092089Y-126065000D01*
X117907911Y-126065000D01*
X117727271Y-126100932D01*
X117557111Y-126171414D01*
X117454465Y-126240000D01*
X109545535Y-126240000D01*
X109442889Y-126171414D01*
X109272729Y-126100932D01*
X109092089Y-126065000D01*
X108907911Y-126065000D01*
X108727271Y-126100932D01*
X108557111Y-126171414D01*
X108403972Y-126273738D01*
X108273738Y-126403972D01*
X108171414Y-126557111D01*
X108100932Y-126727271D01*
X108065000Y-126907911D01*
X108065000Y-127092089D01*
X108100932Y-127272729D01*
X108171414Y-127442889D01*
X108273738Y-127596028D01*
X108403972Y-127726262D01*
X108557111Y-127828586D01*
X108727271Y-127899068D01*
X108907911Y-127935000D01*
X109092089Y-127935000D01*
X109272729Y-127899068D01*
X109442889Y-127828586D01*
X109545535Y-127760000D01*
X117454465Y-127760000D01*
X117557111Y-127828586D01*
X117727271Y-127899068D01*
X117907911Y-127935000D01*
X118092089Y-127935000D01*
X118272729Y-127899068D01*
X118414982Y-127840145D01*
X118414982Y-142637648D01*
X118411305Y-142674981D01*
X118425979Y-142823966D01*
X118469435Y-142967227D01*
X118540007Y-143099257D01*
X118611182Y-143185983D01*
X118634981Y-143214982D01*
X118663979Y-143238780D01*
X121490001Y-146064803D01*
X121490000Y-152454464D01*
X121421414Y-152557111D01*
X121350932Y-152727271D01*
X121315000Y-152907911D01*
X121315000Y-153092089D01*
X121350932Y-153272729D01*
X121421414Y-153442889D01*
X121523738Y-153596028D01*
X121653972Y-153726262D01*
X121674532Y-153740000D01*
X112814803Y-153740000D01*
X107423153Y-148348352D01*
X107399068Y-148227271D01*
X107328586Y-148057111D01*
X107226262Y-147903972D01*
X107096028Y-147773738D01*
X106942889Y-147671414D01*
X106772729Y-147600932D01*
X106592089Y-147565000D01*
X106407911Y-147565000D01*
X106227271Y-147600932D01*
X106057111Y-147671414D01*
X105903972Y-147773738D01*
X105773738Y-147903972D01*
X105671414Y-148057111D01*
X105600932Y-148227271D01*
X105565000Y-148407911D01*
X105565000Y-148592089D01*
X105600932Y-148772729D01*
X105671414Y-148942889D01*
X105773738Y-149096028D01*
X105903972Y-149226262D01*
X106057111Y-149328586D01*
X106227271Y-149399068D01*
X106348352Y-149423153D01*
X111936205Y-155011008D01*
X111959999Y-155040001D01*
X111988992Y-155063795D01*
X111988996Y-155063799D01*
X112005584Y-155077412D01*
X112075724Y-155134974D01*
X112207753Y-155205546D01*
X112351014Y-155249003D01*
X112462667Y-155260000D01*
X112462676Y-155260000D01*
X112499999Y-155263676D01*
X112537322Y-155260000D01*
X126204465Y-155260000D01*
X126307111Y-155328586D01*
X126477271Y-155399068D01*
X126657911Y-155435000D01*
X126842089Y-155435000D01*
X127022729Y-155399068D01*
X127192889Y-155328586D01*
X127295535Y-155260000D01*
X139199092Y-155260000D01*
X139117023Y-155314837D01*
X138814837Y-155617023D01*
X138577412Y-155972355D01*
X138413870Y-156367179D01*
X138330497Y-156786323D01*
X138330497Y-157213677D01*
X138413870Y-157632821D01*
X138577412Y-158027645D01*
X138814837Y-158382977D01*
X139117023Y-158685163D01*
X139348753Y-158840000D01*
X114547109Y-158840000D01*
X114735178Y-158631355D01*
X114884157Y-158381252D01*
X114981481Y-158106891D01*
X114860814Y-157877000D01*
X113667000Y-157877000D01*
X113667000Y-157897000D01*
X113413000Y-157897000D01*
X113413000Y-157877000D01*
X113393000Y-157877000D01*
X113393000Y-157623000D01*
X113413000Y-157623000D01*
X113413000Y-156429845D01*
X113667000Y-156429845D01*
X113667000Y-157623000D01*
X114860814Y-157623000D01*
X114981481Y-157393109D01*
X114884157Y-157118748D01*
X114735178Y-156868645D01*
X114540269Y-156652412D01*
X114306920Y-156478359D01*
X114044099Y-156353175D01*
X113896890Y-156308524D01*
X113667000Y-156429845D01*
X113413000Y-156429845D01*
X113183110Y-156308524D01*
X113035901Y-156353175D01*
X112773080Y-156478359D01*
X112539731Y-156652412D01*
X112463966Y-156736466D01*
X112439502Y-156655820D01*
X112380537Y-156545506D01*
X112301185Y-156448815D01*
X112204494Y-156369463D01*
X112094180Y-156310498D01*
X111974482Y-156274188D01*
X111850000Y-156261928D01*
X110150000Y-156261928D01*
X110046746Y-156272097D01*
X109922588Y-155972355D01*
X109685163Y-155617023D01*
X109382977Y-155314837D01*
X109027645Y-155077412D01*
X108632821Y-154913870D01*
X108213677Y-154830497D01*
X107786323Y-154830497D01*
X107367179Y-154913870D01*
X106972355Y-155077412D01*
X106617023Y-155314837D01*
X106314837Y-155617023D01*
X106077412Y-155972355D01*
X105913870Y-156367179D01*
X105830497Y-156786323D01*
X105830497Y-157213677D01*
X105913870Y-157632821D01*
X106077412Y-158027645D01*
X106314837Y-158382977D01*
X106617023Y-158685163D01*
X106848753Y-158840000D01*
X100660000Y-158840000D01*
X100660000Y-157659253D01*
X100700000Y-157663193D01*
X100732419Y-157660000D01*
X103467581Y-157660000D01*
X103500000Y-157663193D01*
X103532419Y-157660000D01*
X103629383Y-157650450D01*
X103753793Y-157612710D01*
X103868450Y-157551425D01*
X103968948Y-157468948D01*
X104051425Y-157368450D01*
X104112710Y-157253793D01*
X104150450Y-157129383D01*
X104163193Y-157000000D01*
X104160000Y-156967581D01*
X104160000Y-152032419D01*
X104163193Y-152000000D01*
X104150450Y-151870617D01*
X104112710Y-151746207D01*
X104051425Y-151631550D01*
X103968948Y-151531052D01*
X103868450Y-151448575D01*
X103753793Y-151387290D01*
X103629383Y-151349550D01*
X103532419Y-151340000D01*
X103500000Y-151336807D01*
X103467581Y-151340000D01*
X100732419Y-151340000D01*
X100700000Y-151336807D01*
X100667581Y-151340000D01*
X100660000Y-151340747D01*
X100660000Y-148354248D01*
X100801342Y-148565781D01*
X101034219Y-148798658D01*
X101308053Y-148981628D01*
X101612322Y-149107660D01*
X101935331Y-149171910D01*
X102264669Y-149171910D01*
X102587678Y-149107660D01*
X102891947Y-148981628D01*
X103165781Y-148798658D01*
X103398658Y-148565781D01*
X103581628Y-148291947D01*
X103707660Y-147987678D01*
X103771910Y-147664669D01*
X103771910Y-147335331D01*
X103707660Y-147012322D01*
X103581628Y-146708053D01*
X103398658Y-146434219D01*
X103165781Y-146201342D01*
X102891947Y-146018372D01*
X102587678Y-145892340D01*
X102264669Y-145828090D01*
X101935331Y-145828090D01*
X101612322Y-145892340D01*
X101308053Y-146018372D01*
X101034219Y-146201342D01*
X100801342Y-146434219D01*
X100660000Y-146645752D01*
X100660000Y-117915010D01*
X108321314Y-117915010D01*
X108324991Y-117952342D01*
X108324990Y-122877667D01*
X108321314Y-122914990D01*
X108324990Y-122952312D01*
X108324990Y-122952322D01*
X108335987Y-123063975D01*
X108376938Y-123198975D01*
X108379444Y-123207236D01*
X108450016Y-123339266D01*
X108471134Y-123364998D01*
X108544989Y-123454991D01*
X108573993Y-123478794D01*
X109268791Y-124173592D01*
X109225000Y-124393740D01*
X109225000Y-124686260D01*
X109282068Y-124973158D01*
X109394010Y-125243411D01*
X109556525Y-125486632D01*
X109763368Y-125693475D01*
X110006589Y-125855990D01*
X110276842Y-125967932D01*
X110563740Y-126025000D01*
X110856260Y-126025000D01*
X111143158Y-125967932D01*
X111413411Y-125855990D01*
X111656632Y-125693475D01*
X111863475Y-125486632D01*
X111980000Y-125312240D01*
X112096525Y-125486632D01*
X112303368Y-125693475D01*
X112546589Y-125855990D01*
X112816842Y-125967932D01*
X113103740Y-126025000D01*
X113396260Y-126025000D01*
X113683158Y-125967932D01*
X113953411Y-125855990D01*
X114196632Y-125693475D01*
X114403475Y-125486632D01*
X114565990Y-125243411D01*
X114677932Y-124973158D01*
X114735000Y-124686260D01*
X114735000Y-124393740D01*
X114677932Y-124106842D01*
X114565990Y-123836589D01*
X114403475Y-123593368D01*
X114271620Y-123461513D01*
X114344180Y-123439502D01*
X114454494Y-123380537D01*
X114551185Y-123301185D01*
X114630537Y-123204494D01*
X114689502Y-123094180D01*
X114725812Y-122974482D01*
X114738072Y-122850000D01*
X114738072Y-121150000D01*
X114725812Y-121025518D01*
X114689502Y-120905820D01*
X114630537Y-120795506D01*
X114551185Y-120698815D01*
X114454494Y-120619463D01*
X114344180Y-120560498D01*
X114263534Y-120536034D01*
X114347588Y-120460269D01*
X114521641Y-120226920D01*
X114646825Y-119964099D01*
X114691476Y-119816890D01*
X114570155Y-119587000D01*
X113377000Y-119587000D01*
X113377000Y-119607000D01*
X113123000Y-119607000D01*
X113123000Y-119587000D01*
X113103000Y-119587000D01*
X113103000Y-119333000D01*
X113123000Y-119333000D01*
X113123000Y-118139186D01*
X113377000Y-118139186D01*
X113377000Y-119333000D01*
X114570155Y-119333000D01*
X114691476Y-119103110D01*
X114646825Y-118955901D01*
X114521641Y-118693080D01*
X114347588Y-118459731D01*
X114131355Y-118264822D01*
X113881252Y-118115843D01*
X113606891Y-118018519D01*
X113377000Y-118139186D01*
X113123000Y-118139186D01*
X112893109Y-118018519D01*
X112645001Y-118106530D01*
X112645001Y-107192300D01*
X112651649Y-107185653D01*
X112772729Y-107161568D01*
X112942889Y-107091086D01*
X113096028Y-106988762D01*
X113226262Y-106858528D01*
X113328586Y-106705389D01*
X113399068Y-106535229D01*
X113435000Y-106354589D01*
X113435000Y-106170411D01*
X113399068Y-105989771D01*
X113328586Y-105819611D01*
X113226262Y-105666472D01*
X113096028Y-105536238D01*
X112942889Y-105433914D01*
X112772729Y-105363432D01*
X112592089Y-105327500D01*
X112407911Y-105327500D01*
X112227271Y-105363432D01*
X112057111Y-105433914D01*
X111903972Y-105536238D01*
X111773738Y-105666472D01*
X111671414Y-105819611D01*
X111600932Y-105989771D01*
X111576847Y-106110851D01*
X111374003Y-106313696D01*
X111345000Y-106337498D01*
X111289872Y-106404673D01*
X111250027Y-106453223D01*
X111206194Y-106535229D01*
X111179455Y-106585253D01*
X111135998Y-106728514D01*
X111125001Y-106840167D01*
X111125001Y-106840177D01*
X111121325Y-106877499D01*
X111125001Y-106914821D01*
X111125002Y-116393294D01*
X111022729Y-116350932D01*
X110842089Y-116315000D01*
X110657911Y-116315000D01*
X110477271Y-116350932D01*
X110307111Y-116421414D01*
X110250000Y-116459574D01*
X110192889Y-116421414D01*
X110022729Y-116350932D01*
X109842089Y-116315000D01*
X109657911Y-116315000D01*
X109477271Y-116350932D01*
X109307111Y-116421414D01*
X109153972Y-116523738D01*
X109023738Y-116653972D01*
X108921414Y-116807111D01*
X108850932Y-116977271D01*
X108826847Y-117098351D01*
X108573988Y-117351211D01*
X108544990Y-117375009D01*
X108521192Y-117404007D01*
X108521191Y-117404008D01*
X108450016Y-117490734D01*
X108379444Y-117622764D01*
X108335988Y-117766025D01*
X108321314Y-117915010D01*
X100660000Y-117915010D01*
X100660000Y-102657911D01*
X110865000Y-102657911D01*
X110865000Y-102842089D01*
X110900932Y-103022729D01*
X110971414Y-103192889D01*
X111073738Y-103346028D01*
X111203972Y-103476262D01*
X111357111Y-103578586D01*
X111527271Y-103649068D01*
X111707911Y-103685000D01*
X111892089Y-103685000D01*
X112072729Y-103649068D01*
X112242889Y-103578586D01*
X112396028Y-103476262D01*
X112526262Y-103346028D01*
X112628586Y-103192889D01*
X112699068Y-103022729D01*
X112735000Y-102842089D01*
X112735000Y-102657911D01*
X112699068Y-102477271D01*
X112669328Y-102405473D01*
X114901649Y-100173153D01*
X115022729Y-100149068D01*
X115192889Y-100078586D01*
X115346028Y-99976262D01*
X115476262Y-99846028D01*
X115578586Y-99692889D01*
X115649068Y-99522729D01*
X115685000Y-99342089D01*
X115685000Y-99157911D01*
X115649068Y-98977271D01*
X115578586Y-98807111D01*
X115476262Y-98653972D01*
X115346028Y-98523738D01*
X115192889Y-98421414D01*
X115022729Y-98350932D01*
X114842089Y-98315000D01*
X114657911Y-98315000D01*
X114477271Y-98350932D01*
X114307111Y-98421414D01*
X114153972Y-98523738D01*
X114023738Y-98653972D01*
X113921414Y-98807111D01*
X113850932Y-98977271D01*
X113826847Y-99098351D01*
X111288998Y-101636201D01*
X111260000Y-101659999D01*
X111236202Y-101688997D01*
X111236201Y-101688998D01*
X111165026Y-101775724D01*
X111124826Y-101850932D01*
X111094454Y-101907753D01*
X111050997Y-102051014D01*
X111040000Y-102162667D01*
X111040000Y-102162678D01*
X111036324Y-102200000D01*
X111037179Y-102208686D01*
X110971414Y-102307111D01*
X110900932Y-102477271D01*
X110865000Y-102657911D01*
X100660000Y-102657911D01*
X100660000Y-73003908D01*
X100701342Y-73065781D01*
X100934219Y-73298658D01*
X101208053Y-73481628D01*
X101512322Y-73607660D01*
X101835331Y-73671910D01*
X102164669Y-73671910D01*
X102487678Y-73607660D01*
X102791947Y-73481628D01*
X103065781Y-73298658D01*
X103298658Y-73065781D01*
X103481628Y-72791947D01*
X103607660Y-72487678D01*
X103671910Y-72164669D01*
X103671910Y-71835331D01*
X103607660Y-71512322D01*
X103481628Y-71208053D01*
X103298658Y-70934219D01*
X103065781Y-70701342D01*
X103003908Y-70660000D01*
X105786121Y-70660000D01*
X105577412Y-70972355D01*
G37*
%TD.AperFunction*%
D17*
X121377000Y-111373000D02*
X121397000Y-111373000D01*
X121397000Y-111627000D01*
X121377000Y-111627000D01*
X121377000Y-112826250D01*
X121535750Y-112985000D01*
X121854999Y-112986738D01*
X121855000Y-142852664D01*
X121851323Y-142889997D01*
X121852582Y-142902783D01*
X120834999Y-141885200D01*
X120834999Y-112985704D01*
X120964250Y-112985000D01*
X121123000Y-112826250D01*
X121123000Y-111627000D01*
X121103000Y-111627000D01*
X121103000Y-111373000D01*
X121123000Y-111373000D01*
X121123000Y-111353000D01*
X121377000Y-111353000D01*
X121377000Y-111373000D01*
%TA.AperFunction,Conductor*%
D18*
G36*
X121377000Y-111373000D02*
G01*
X121397000Y-111373000D01*
X121397000Y-111627000D01*
X121377000Y-111627000D01*
X121377000Y-112826250D01*
X121535750Y-112985000D01*
X121854999Y-112986738D01*
X121855000Y-142852664D01*
X121851323Y-142889997D01*
X121852582Y-142902783D01*
X120834999Y-141885200D01*
X120834999Y-112985704D01*
X120964250Y-112985000D01*
X121123000Y-112826250D01*
X121123000Y-111627000D01*
X121103000Y-111627000D01*
X121103000Y-111373000D01*
X121123000Y-111373000D01*
X121123000Y-111353000D01*
X121377000Y-111353000D01*
X121377000Y-111373000D01*
G37*
%TD.AperFunction*%
%TD*%
M02*
