M48
; DRILL file {KiCad (5.1.9)-1} date 02/20/21 13:36:01
; FORMAT={-:-/ absolute / inch / decimal}
; #@! TF.CreationDate,2021-02-20T13:36:01+01:00
; #@! TF.GenerationSoftware,Kicad,Pcbnew,(5.1.9)-1
; #@! TF.FileFunction,Plated,1,2,PTH
FMAT,2
INCH
T1C0.0118
T2C0.0295
T3C0.0315
T4C0.0394
%
G90
G05
T1
X4.0157Y-3.5236
X4.0157Y-4.3898
X4.0256Y-3.9567
X4.0256Y-4.8327
X4.0256Y-5.2657
X4.0256Y-5.7087
X4.0846Y-6.2402
X4.1831Y-5.7677
X4.1929Y-5.8465
X4.2224Y-3.6909
X4.2913Y-5.0
X4.3209Y-4.6161
X4.3209Y-5.6693
X4.3602Y-4.6161
X4.4016Y-4.0453
X4.4291Y-4.1836
X4.439Y-3.5925
X4.4488Y-3.7205
X4.4961Y-5.6575
X4.5079Y-3.7205
X4.5177Y-3.9075
X4.5276Y-3.5039
X4.5768Y-3.1004
X4.5965Y-4.1142
X4.6063Y-3.3957
X4.6063Y-3.7303
X4.6457Y-3.5138
X4.6457Y-3.7008
X4.6457Y-5.0
X4.6654Y-5.6575
X4.7736Y-3.5335
X4.7736Y-3.6122
X4.7736Y-5.9941
X4.8031Y-3.8189
X4.813Y-6.0236
X4.8228Y-5.6575
X4.8425Y-6.0531
X4.872Y-6.0236
X4.8917Y-4.7638
X4.9016Y-4.5276
X4.9016Y-6.0531
X4.9114Y-3.4843
X4.9213Y-4.8425
X4.9311Y-6.0236
X4.9606Y-6.0531
X4.9803Y-5.6575
X4.9902Y-6.0827
X5.0098Y-3.6122
X5.0098Y-5.9941
X5.0492Y-3.5433
X5.1063Y-5.6575
X5.1969Y-5.6575
X5.2067Y-3.435
X5.315Y-3.4449
X5.3228Y-5.6575
X5.3445Y-3.4154
X5.4035Y-3.1004
X5.4134Y-3.361
X5.4134Y-6.0039
X5.4528Y-2.9626
X5.4528Y-5.7972
X5.561Y-6.0531
X5.6201Y-3.2677
X5.6398Y-5.5709
X5.6398Y-5.7972
X5.7382Y-3.9665
X5.7382Y-4.3996
X5.7382Y-5.7185
X5.748Y-4.8425
X5.7874Y-2.8839
X5.7874Y-3.1496
T2
X5.6535Y-4.8425
T3
X4.6063Y-3.0079
X4.685Y-3.0079
X4.7638Y-3.0079
X4.8425Y-3.0079
X4.9213Y-3.0079
X5.0Y-3.0079
X5.0787Y-3.0079
X5.1575Y-3.0079
T4
X4.3587Y-4.7031
X4.3587Y-4.8031
X4.3587Y-4.9031
X4.3701Y-6.2106
X4.4587Y-4.7031
X4.4587Y-4.8031
X4.4587Y-4.9031
X4.4701Y-6.2106
X4.7736Y-4.3898
X4.8736Y-4.3898
X4.9736Y-4.3898
X5.0736Y-4.3898
X5.1736Y-4.3898
X5.2736Y-4.3898
X5.6654Y-6.2165
X5.7654Y-6.2165
T0
M30
