M48
; DRILL file {KiCad (5.1.9)-1} date 03/13/21 07:57:57
; FORMAT={-:-/ absolute / inch / decimal}
; #@! TF.CreationDate,2021-03-13T07:57:57+01:00
; #@! TF.GenerationSoftware,Kicad,Pcbnew,(5.1.9)-1
; #@! TF.FileFunction,Plated,1,2,PTH
FMAT,2
INCH
T1C0.0118
T2C0.0295
T3C0.0315
T4C0.0394
%
G90
G05
T1
X3.5177Y-3.498
X3.5177Y-4.3642
X3.5276Y-3.9311
X3.5276Y-4.8071
X3.5276Y-5.2402
X3.5276Y-5.6831
X3.5866Y-6.2146
X3.6811Y-3.628
X3.6949Y-5.8209
X3.7874Y-4.2795
X3.8228Y-4.5906
X3.8622Y-4.5906
X3.8701Y-5.6083
X3.9035Y-4.0197
X3.9311Y-4.158
X3.9409Y-3.5669
X3.9508Y-3.6949
X3.998Y-5.6319
X4.0098Y-3.6949
X4.0197Y-3.8819
X4.0217Y-5.2776
X4.0295Y-3.4783
X4.0768Y-4.0217
X4.0787Y-3.0748
X4.1083Y-3.3701
X4.1083Y-3.7047
X4.1476Y-3.4882
X4.1476Y-3.6752
X4.1555Y-4.1693
X4.1673Y-5.6319
X4.2756Y-3.5079
X4.2756Y-3.5866
X4.2756Y-5.9685
X4.2835Y-3.8169
X4.3051Y-3.7933
X4.315Y-5.998
X4.3248Y-5.6319
X4.3445Y-6.0276
X4.3504Y-3.8425
X4.374Y-5.998
X4.3937Y-4.7382
X4.4035Y-4.502
X4.4035Y-6.0276
X4.4134Y-3.4587
X4.4232Y-4.6594
X4.4331Y-5.998
X4.4626Y-6.0276
X4.4823Y-5.6319
X4.4921Y-6.0571
X4.5118Y-3.5866
X4.5118Y-5.9685
X4.5512Y-3.5177
X4.6083Y-5.6319
X4.6988Y-5.6319
X4.7087Y-3.4094
X4.7382Y-4.0335
X4.8169Y-3.4193
X4.8248Y-5.6319
X4.8406Y-3.9035
X4.8465Y-3.3898
X4.9035Y-3.7028
X4.9055Y-3.0748
X4.9055Y-3.8035
X4.9154Y-3.3354
X4.9154Y-5.9783
X4.939Y-3.6043
X4.9547Y-2.937
X4.9547Y-5.7717
X5.063Y-6.0276
X5.122Y-3.2421
X5.1417Y-5.5453
X5.1654Y-5.7717
X5.2047Y-2.8681
X5.2402Y-3.9409
X5.2402Y-4.374
X5.2402Y-5.6929
X5.25Y-4.8169
X5.2894Y-3.124
T2
X5.1555Y-4.8169
T3
X4.1083Y-2.9823
X4.187Y-2.9823
X4.2657Y-2.9823
X4.3445Y-2.9823
X4.4232Y-2.9823
X4.502Y-2.9823
X4.5807Y-2.9823
X4.6594Y-2.9823
T4
X3.7618Y-4.6776
X3.7618Y-4.7776
X3.7618Y-4.8776
X3.8618Y-4.6776
X3.8618Y-4.7776
X3.8618Y-4.8776
X3.872Y-6.185
X3.972Y-6.185
X5.065Y-3.4035
X5.065Y-3.5035
X5.065Y-3.6035
X5.065Y-3.7035
X5.065Y-3.8035
X5.065Y-3.9035
X5.1673Y-6.1909
X5.2673Y-6.1909
T0
M30
