%TF.GenerationSoftware,KiCad,Pcbnew,(5.1.9)-1*%
%TF.CreationDate,2021-03-10T23:40:44+01:00*%
%TF.ProjectId,HB-RC-12-EP-2,48422d52-432d-4313-922d-45502d322e6b,rev?*%
%TF.SameCoordinates,Original*%
%TF.FileFunction,Paste,Bot*%
%TF.FilePolarity,Positive*%
%FSLAX46Y46*%
G04 Gerber Fmt 4.6, Leading zero omitted, Abs format (unit mm)*
G04 Created by KiCad (PCBNEW (5.1.9)-1) date 2021-03-10 23:40:44*
%MOMM*%
%LPD*%
G01*
G04 APERTURE LIST*
%ADD10C,0.125000*%
G04 APERTURE END LIST*
D10*
X142850000Y-86719047D02*
X142826190Y-86671428D01*
X142826190Y-86600000D01*
X142850000Y-86528571D01*
X142897619Y-86480952D01*
X142945238Y-86457142D01*
X143040476Y-86433333D01*
X143111904Y-86433333D01*
X143207142Y-86457142D01*
X143254761Y-86480952D01*
X143302380Y-86528571D01*
X143326190Y-86600000D01*
X143326190Y-86647619D01*
X143302380Y-86719047D01*
X143278571Y-86742857D01*
X143111904Y-86742857D01*
X143111904Y-86647619D01*
X143326190Y-86957142D02*
X142826190Y-86957142D01*
X143326190Y-87242857D01*
X142826190Y-87242857D01*
X143326190Y-87480952D02*
X142826190Y-87480952D01*
X142826190Y-87600000D01*
X142850000Y-87671428D01*
X142897619Y-87719047D01*
X142945238Y-87742857D01*
X143040476Y-87766666D01*
X143111904Y-87766666D01*
X143207142Y-87742857D01*
X143254761Y-87719047D01*
X143302380Y-87671428D01*
X143326190Y-87600000D01*
X143326190Y-87480952D01*
X142850000Y-89219047D02*
X142826190Y-89171428D01*
X142826190Y-89100000D01*
X142850000Y-89028571D01*
X142897619Y-88980952D01*
X142945238Y-88957142D01*
X143040476Y-88933333D01*
X143111904Y-88933333D01*
X143207142Y-88957142D01*
X143254761Y-88980952D01*
X143302380Y-89028571D01*
X143326190Y-89100000D01*
X143326190Y-89147619D01*
X143302380Y-89219047D01*
X143278571Y-89242857D01*
X143111904Y-89242857D01*
X143111904Y-89147619D01*
X143326190Y-89457142D02*
X142826190Y-89457142D01*
X143326190Y-89742857D01*
X142826190Y-89742857D01*
X143326190Y-89980952D02*
X142826190Y-89980952D01*
X142826190Y-90100000D01*
X142850000Y-90171428D01*
X142897619Y-90219047D01*
X142945238Y-90242857D01*
X143040476Y-90266666D01*
X143111904Y-90266666D01*
X143207142Y-90242857D01*
X143254761Y-90219047D01*
X143302380Y-90171428D01*
X143326190Y-90100000D01*
X143326190Y-89980952D01*
X142826190Y-91433333D02*
X143326190Y-91600000D01*
X142826190Y-91766666D01*
X143278571Y-92219047D02*
X143302380Y-92195238D01*
X143326190Y-92123809D01*
X143326190Y-92076190D01*
X143302380Y-92004761D01*
X143254761Y-91957142D01*
X143207142Y-91933333D01*
X143111904Y-91909523D01*
X143040476Y-91909523D01*
X142945238Y-91933333D01*
X142897619Y-91957142D01*
X142850000Y-92004761D01*
X142826190Y-92076190D01*
X142826190Y-92123809D01*
X142850000Y-92195238D01*
X142873809Y-92219047D01*
X143278571Y-92719047D02*
X143302380Y-92695238D01*
X143326190Y-92623809D01*
X143326190Y-92576190D01*
X143302380Y-92504761D01*
X143254761Y-92457142D01*
X143207142Y-92433333D01*
X143111904Y-92409523D01*
X143040476Y-92409523D01*
X142945238Y-92433333D01*
X142897619Y-92457142D01*
X142850000Y-92504761D01*
X142826190Y-92576190D01*
X142826190Y-92623809D01*
X142850000Y-92695238D01*
X142873809Y-92719047D01*
X143326190Y-94366666D02*
X143088095Y-94200000D01*
X143326190Y-94080952D02*
X142826190Y-94080952D01*
X142826190Y-94271428D01*
X142850000Y-94319047D01*
X142873809Y-94342857D01*
X142921428Y-94366666D01*
X142992857Y-94366666D01*
X143040476Y-94342857D01*
X143064285Y-94319047D01*
X143088095Y-94271428D01*
X143088095Y-94080952D01*
X142826190Y-94533333D02*
X143326190Y-94866666D01*
X142826190Y-94866666D02*
X143326190Y-94533333D01*
X143326190Y-95057142D02*
X142826190Y-95057142D01*
X142826190Y-95176190D01*
X142850000Y-95247619D01*
X142897619Y-95295238D01*
X142945238Y-95319047D01*
X143040476Y-95342857D01*
X143111904Y-95342857D01*
X143207142Y-95319047D01*
X143254761Y-95295238D01*
X143302380Y-95247619D01*
X143326190Y-95176190D01*
X143326190Y-95057142D01*
X142826190Y-96669047D02*
X142826190Y-96954761D01*
X143326190Y-96811904D02*
X142826190Y-96811904D01*
X142826190Y-97073809D02*
X143326190Y-97407142D01*
X142826190Y-97407142D02*
X143326190Y-97073809D01*
X143326190Y-97597619D02*
X142826190Y-97597619D01*
X142826190Y-97716666D01*
X142850000Y-97788095D01*
X142897619Y-97835714D01*
X142945238Y-97859523D01*
X143040476Y-97883333D01*
X143111904Y-97883333D01*
X143207142Y-97859523D01*
X143254761Y-97835714D01*
X143302380Y-97788095D01*
X143326190Y-97716666D01*
X143326190Y-97597619D01*
X143326190Y-99228571D02*
X142826190Y-99228571D01*
X142826190Y-99347619D01*
X142850000Y-99419047D01*
X142897619Y-99466666D01*
X142945238Y-99490476D01*
X143040476Y-99514285D01*
X143111904Y-99514285D01*
X143207142Y-99490476D01*
X143254761Y-99466666D01*
X143302380Y-99419047D01*
X143326190Y-99347619D01*
X143326190Y-99228571D01*
X142826190Y-99657142D02*
X142826190Y-99942857D01*
X143326190Y-99800000D02*
X142826190Y-99800000D01*
X143326190Y-100395238D02*
X143088095Y-100228571D01*
X143326190Y-100109523D02*
X142826190Y-100109523D01*
X142826190Y-100300000D01*
X142850000Y-100347619D01*
X142873809Y-100371428D01*
X142921428Y-100395238D01*
X142992857Y-100395238D01*
X143040476Y-100371428D01*
X143064285Y-100347619D01*
X143088095Y-100300000D01*
X143088095Y-100109523D01*
X112573809Y-125266666D02*
X112073809Y-125100000D01*
X112573809Y-124933333D01*
X112121428Y-124480952D02*
X112097619Y-124504761D01*
X112073809Y-124576190D01*
X112073809Y-124623809D01*
X112097619Y-124695238D01*
X112145238Y-124742857D01*
X112192857Y-124766666D01*
X112288095Y-124790476D01*
X112359523Y-124790476D01*
X112454761Y-124766666D01*
X112502380Y-124742857D01*
X112550000Y-124695238D01*
X112573809Y-124623809D01*
X112573809Y-124576190D01*
X112550000Y-124504761D01*
X112526190Y-124480952D01*
X112121428Y-123980952D02*
X112097619Y-124004761D01*
X112073809Y-124076190D01*
X112073809Y-124123809D01*
X112097619Y-124195238D01*
X112145238Y-124242857D01*
X112192857Y-124266666D01*
X112288095Y-124290476D01*
X112359523Y-124290476D01*
X112454761Y-124266666D01*
X112502380Y-124242857D01*
X112550000Y-124195238D01*
X112573809Y-124123809D01*
X112573809Y-124076190D01*
X112550000Y-124004761D01*
X112526190Y-123980952D01*
X112023809Y-122785714D02*
X112523809Y-122785714D01*
X112166666Y-122619047D01*
X112523809Y-122452380D01*
X112023809Y-122452380D01*
X112523809Y-122119047D02*
X112523809Y-122023809D01*
X112500000Y-121976190D01*
X112452380Y-121928571D01*
X112357142Y-121904761D01*
X112190476Y-121904761D01*
X112095238Y-121928571D01*
X112047619Y-121976190D01*
X112023809Y-122023809D01*
X112023809Y-122119047D01*
X112047619Y-122166666D01*
X112095238Y-122214285D01*
X112190476Y-122238095D01*
X112357142Y-122238095D01*
X112452380Y-122214285D01*
X112500000Y-122166666D01*
X112523809Y-122119047D01*
X112047619Y-121714285D02*
X112023809Y-121642857D01*
X112023809Y-121523809D01*
X112047619Y-121476190D01*
X112071428Y-121452380D01*
X112119047Y-121428571D01*
X112166666Y-121428571D01*
X112214285Y-121452380D01*
X112238095Y-121476190D01*
X112261904Y-121523809D01*
X112285714Y-121619047D01*
X112309523Y-121666666D01*
X112333333Y-121690476D01*
X112380952Y-121714285D01*
X112428571Y-121714285D01*
X112476190Y-121690476D01*
X112500000Y-121666666D01*
X112523809Y-121619047D01*
X112523809Y-121500000D01*
X112500000Y-121428571D01*
X112023809Y-121214285D02*
X112523809Y-121214285D01*
X112450000Y-119830952D02*
X112473809Y-119878571D01*
X112473809Y-119950000D01*
X112450000Y-120021428D01*
X112402380Y-120069047D01*
X112354761Y-120092857D01*
X112259523Y-120116666D01*
X112188095Y-120116666D01*
X112092857Y-120092857D01*
X112045238Y-120069047D01*
X111997619Y-120021428D01*
X111973809Y-119950000D01*
X111973809Y-119902380D01*
X111997619Y-119830952D01*
X112021428Y-119807142D01*
X112188095Y-119807142D01*
X112188095Y-119902380D01*
X111973809Y-119592857D02*
X112473809Y-119592857D01*
X111973809Y-119307142D01*
X112473809Y-119307142D01*
X111973809Y-119069047D02*
X112473809Y-119069047D01*
X112473809Y-118950000D01*
X112450000Y-118878571D01*
X112402380Y-118830952D01*
X112354761Y-118807142D01*
X112259523Y-118783333D01*
X112188095Y-118783333D01*
X112092857Y-118807142D01*
X112045238Y-118830952D01*
X111997619Y-118878571D01*
X111973809Y-118950000D01*
X111973809Y-119069047D01*
X106776190Y-118721428D02*
X106538095Y-118554761D01*
X106776190Y-118435714D02*
X106276190Y-118435714D01*
X106276190Y-118626190D01*
X106300000Y-118673809D01*
X106323809Y-118697619D01*
X106371428Y-118721428D01*
X106442857Y-118721428D01*
X106490476Y-118697619D01*
X106514285Y-118673809D01*
X106538095Y-118626190D01*
X106538095Y-118435714D01*
X106514285Y-118935714D02*
X106514285Y-119102380D01*
X106776190Y-119173809D02*
X106776190Y-118935714D01*
X106276190Y-118935714D01*
X106276190Y-119173809D01*
X106752380Y-119364285D02*
X106776190Y-119435714D01*
X106776190Y-119554761D01*
X106752380Y-119602380D01*
X106728571Y-119626190D01*
X106680952Y-119650000D01*
X106633333Y-119650000D01*
X106585714Y-119626190D01*
X106561904Y-119602380D01*
X106538095Y-119554761D01*
X106514285Y-119459523D01*
X106490476Y-119411904D01*
X106466666Y-119388095D01*
X106419047Y-119364285D01*
X106371428Y-119364285D01*
X106323809Y-119388095D01*
X106300000Y-119411904D01*
X106276190Y-119459523D01*
X106276190Y-119578571D01*
X106300000Y-119650000D01*
X106514285Y-119864285D02*
X106514285Y-120030952D01*
X106776190Y-120102380D02*
X106776190Y-119864285D01*
X106276190Y-119864285D01*
X106276190Y-120102380D01*
X106442857Y-120245238D02*
X106442857Y-120435714D01*
X106276190Y-120316666D02*
X106704761Y-120316666D01*
X106752380Y-120340476D01*
X106776190Y-120388095D01*
X106776190Y-120435714D01*
X106752380Y-121257142D02*
X106776190Y-121328571D01*
X106776190Y-121447619D01*
X106752380Y-121495238D01*
X106728571Y-121519047D01*
X106680952Y-121542857D01*
X106633333Y-121542857D01*
X106585714Y-121519047D01*
X106561904Y-121495238D01*
X106538095Y-121447619D01*
X106514285Y-121352380D01*
X106490476Y-121304761D01*
X106466666Y-121280952D01*
X106419047Y-121257142D01*
X106371428Y-121257142D01*
X106323809Y-121280952D01*
X106300000Y-121304761D01*
X106276190Y-121352380D01*
X106276190Y-121471428D01*
X106300000Y-121542857D01*
X106728571Y-122042857D02*
X106752380Y-122019047D01*
X106776190Y-121947619D01*
X106776190Y-121900000D01*
X106752380Y-121828571D01*
X106704761Y-121780952D01*
X106657142Y-121757142D01*
X106561904Y-121733333D01*
X106490476Y-121733333D01*
X106395238Y-121757142D01*
X106347619Y-121780952D01*
X106300000Y-121828571D01*
X106276190Y-121900000D01*
X106276190Y-121947619D01*
X106300000Y-122019047D01*
X106323809Y-122042857D01*
X106776190Y-122257142D02*
X106276190Y-122257142D01*
X106776190Y-122542857D02*
X106490476Y-122328571D01*
X106276190Y-122542857D02*
X106561904Y-122257142D01*
X106726190Y-123814285D02*
X106226190Y-123814285D01*
X106583333Y-123980952D01*
X106226190Y-124147619D01*
X106726190Y-124147619D01*
X106726190Y-124385714D02*
X106226190Y-124385714D01*
X106702380Y-124600000D02*
X106726190Y-124671428D01*
X106726190Y-124790476D01*
X106702380Y-124838095D01*
X106678571Y-124861904D01*
X106630952Y-124885714D01*
X106583333Y-124885714D01*
X106535714Y-124861904D01*
X106511904Y-124838095D01*
X106488095Y-124790476D01*
X106464285Y-124695238D01*
X106440476Y-124647619D01*
X106416666Y-124623809D01*
X106369047Y-124600000D01*
X106321428Y-124600000D01*
X106273809Y-124623809D01*
X106250000Y-124647619D01*
X106226190Y-124695238D01*
X106226190Y-124814285D01*
X106250000Y-124885714D01*
X106226190Y-125195238D02*
X106226190Y-125290476D01*
X106250000Y-125338095D01*
X106297619Y-125385714D01*
X106392857Y-125409523D01*
X106559523Y-125409523D01*
X106654761Y-125385714D01*
X106702380Y-125338095D01*
X106726190Y-125290476D01*
X106726190Y-125195238D01*
X106702380Y-125147619D01*
X106654761Y-125100000D01*
X106559523Y-125076190D01*
X106392857Y-125076190D01*
X106297619Y-125100000D01*
X106250000Y-125147619D01*
X106226190Y-125195238D01*
M02*
