%TF.GenerationSoftware,KiCad,Pcbnew,(5.1.9)-1*%
%TF.CreationDate,2021-02-20T13:35:58+01:00*%
%TF.ProjectId,HB-RC-12-EP-2,48422d52-432d-4313-922d-45502d322e6b,rev?*%
%TF.SameCoordinates,Original*%
%TF.FileFunction,Paste,Top*%
%TF.FilePolarity,Positive*%
%FSLAX46Y46*%
G04 Gerber Fmt 4.6, Leading zero omitted, Abs format (unit mm)*
G04 Created by KiCad (PCBNEW (5.1.9)-1) date 2021-02-20 13:35:58*
%MOMM*%
%LPD*%
G01*
G04 APERTURE LIST*
%ADD10R,1.500000X0.550000*%
%ADD11R,0.550000X1.500000*%
%ADD12R,1.200000X0.900000*%
%ADD13R,0.300000X1.300000*%
%ADD14R,1.800000X2.200000*%
%ADD15R,2.000000X0.640000*%
%ADD16R,1.060000X0.650000*%
%ADD17R,0.800000X0.900000*%
%ADD18R,2.750000X1.000000*%
%ADD19R,1.500000X1.500000*%
%ADD20R,0.400000X3.200000*%
%ADD21R,3.400000X1.300000*%
G04 APERTURE END LIST*
%TO.C,R10*%
G36*
G01*
X134799999Y-78150000D02*
X135700001Y-78150000D01*
G75*
G02*
X135950000Y-78399999I0J-249999D01*
G01*
X135950000Y-79100001D01*
G75*
G02*
X135700001Y-79350000I-249999J0D01*
G01*
X134799999Y-79350000D01*
G75*
G02*
X134550000Y-79100001I0J249999D01*
G01*
X134550000Y-78399999D01*
G75*
G02*
X134799999Y-78150000I249999J0D01*
G01*
G37*
G36*
G01*
X134799999Y-76150000D02*
X135700001Y-76150000D01*
G75*
G02*
X135950000Y-76399999I0J-249999D01*
G01*
X135950000Y-77100001D01*
G75*
G02*
X135700001Y-77350000I-249999J0D01*
G01*
X134799999Y-77350000D01*
G75*
G02*
X134550000Y-77100001I0J249999D01*
G01*
X134550000Y-76399999D01*
G75*
G02*
X134799999Y-76150000I249999J0D01*
G01*
G37*
%TD*%
%TO.C,C17*%
G36*
G01*
X107346121Y-90982517D02*
X108017483Y-91653879D01*
G75*
G02*
X108017483Y-92007821I-176971J-176971D01*
G01*
X107540575Y-92484729D01*
G75*
G02*
X107186633Y-92484729I-176971J176971D01*
G01*
X106515271Y-91813367D01*
G75*
G02*
X106515271Y-91459425I176971J176971D01*
G01*
X106992179Y-90982517D01*
G75*
G02*
X107346121Y-90982517I176971J-176971D01*
G01*
G37*
G36*
G01*
X108813173Y-89515076D02*
X109484924Y-90186827D01*
G75*
G02*
X109484924Y-90540381I-176777J-176777D01*
G01*
X109007627Y-91017678D01*
G75*
G02*
X108654073Y-91017678I-176777J176777D01*
G01*
X107982322Y-90345927D01*
G75*
G02*
X107982322Y-89992373I176777J176777D01*
G01*
X108459619Y-89515076D01*
G75*
G02*
X108813173Y-89515076I176777J-176777D01*
G01*
G37*
%TD*%
D10*
%TO.C,U1*%
X111300000Y-94450000D03*
X111300000Y-93650000D03*
X111300000Y-92850000D03*
X111300000Y-92050000D03*
X111300000Y-91250000D03*
X111300000Y-90450000D03*
X111300000Y-89650000D03*
X111300000Y-88850000D03*
X111300000Y-88050000D03*
X111300000Y-87250000D03*
X111300000Y-86450000D03*
D11*
X113000000Y-84750000D03*
X113800000Y-84750000D03*
X114600000Y-84750000D03*
X115400000Y-84750000D03*
X116200000Y-84750000D03*
X117000000Y-84750000D03*
X117800000Y-84750000D03*
X118600000Y-84750000D03*
X119400000Y-84750000D03*
X120200000Y-84750000D03*
X121000000Y-84750000D03*
D10*
X122700000Y-86450000D03*
X122700000Y-87250000D03*
X122700000Y-88050000D03*
X122700000Y-88850000D03*
X122700000Y-89650000D03*
X122700000Y-90450000D03*
X122700000Y-91250000D03*
X122700000Y-92050000D03*
X122700000Y-92850000D03*
X122700000Y-93650000D03*
X122700000Y-94450000D03*
D11*
X121000000Y-96150000D03*
X120200000Y-96150000D03*
X119400000Y-96150000D03*
X118600000Y-96150000D03*
X117800000Y-96150000D03*
X117000000Y-96150000D03*
X116200000Y-96150000D03*
X115400000Y-96150000D03*
X114600000Y-96150000D03*
X113800000Y-96150000D03*
X113000000Y-96150000D03*
%TD*%
%TO.C,R8*%
G36*
G01*
X114700001Y-140100000D02*
X113799999Y-140100000D01*
G75*
G02*
X113550000Y-139850001I0J249999D01*
G01*
X113550000Y-139149999D01*
G75*
G02*
X113799999Y-138900000I249999J0D01*
G01*
X114700001Y-138900000D01*
G75*
G02*
X114950000Y-139149999I0J-249999D01*
G01*
X114950000Y-139850001D01*
G75*
G02*
X114700001Y-140100000I-249999J0D01*
G01*
G37*
G36*
G01*
X114700001Y-142100000D02*
X113799999Y-142100000D01*
G75*
G02*
X113550000Y-141850001I0J249999D01*
G01*
X113550000Y-141149999D01*
G75*
G02*
X113799999Y-140900000I249999J0D01*
G01*
X114700001Y-140900000D01*
G75*
G02*
X114950000Y-141149999I0J-249999D01*
G01*
X114950000Y-141850001D01*
G75*
G02*
X114700001Y-142100000I-249999J0D01*
G01*
G37*
%TD*%
%TO.C,R8-2*%
G36*
G01*
X113700001Y-145850000D02*
X112799999Y-145850000D01*
G75*
G02*
X112550000Y-145600001I0J249999D01*
G01*
X112550000Y-144899999D01*
G75*
G02*
X112799999Y-144650000I249999J0D01*
G01*
X113700001Y-144650000D01*
G75*
G02*
X113950000Y-144899999I0J-249999D01*
G01*
X113950000Y-145600001D01*
G75*
G02*
X113700001Y-145850000I-249999J0D01*
G01*
G37*
G36*
G01*
X113700001Y-147850000D02*
X112799999Y-147850000D01*
G75*
G02*
X112550000Y-147600001I0J249999D01*
G01*
X112550000Y-146899999D01*
G75*
G02*
X112799999Y-146650000I249999J0D01*
G01*
X113700001Y-146650000D01*
G75*
G02*
X113950000Y-146899999I0J-249999D01*
G01*
X113950000Y-147600001D01*
G75*
G02*
X113700001Y-147850000I-249999J0D01*
G01*
G37*
%TD*%
%TO.C,C4*%
G36*
G01*
X123975000Y-145762500D02*
X123025000Y-145762500D01*
G75*
G02*
X122775000Y-145512500I0J250000D01*
G01*
X122775000Y-144837500D01*
G75*
G02*
X123025000Y-144587500I250000J0D01*
G01*
X123975000Y-144587500D01*
G75*
G02*
X124225000Y-144837500I0J-250000D01*
G01*
X124225000Y-145512500D01*
G75*
G02*
X123975000Y-145762500I-250000J0D01*
G01*
G37*
G36*
G01*
X123975000Y-147837500D02*
X123025000Y-147837500D01*
G75*
G02*
X122775000Y-147587500I0J250000D01*
G01*
X122775000Y-146912500D01*
G75*
G02*
X123025000Y-146662500I250000J0D01*
G01*
X123975000Y-146662500D01*
G75*
G02*
X124225000Y-146912500I0J-250000D01*
G01*
X124225000Y-147587500D01*
G75*
G02*
X123975000Y-147837500I-250000J0D01*
G01*
G37*
%TD*%
D12*
%TO.C,D5*%
X131750000Y-140750000D03*
X131750000Y-137450000D03*
%TD*%
%TO.C,D4*%
X129000000Y-137450000D03*
X129000000Y-140750000D03*
%TD*%
D13*
%TO.C,J3*%
X130000000Y-150750000D03*
X129500000Y-150750000D03*
X129000000Y-150750000D03*
X128500000Y-150750000D03*
X128000000Y-150750000D03*
X127500000Y-150750000D03*
X127000000Y-150750000D03*
X126500000Y-150750000D03*
X126000000Y-150750000D03*
X125500000Y-150750000D03*
X125000000Y-150750000D03*
X124500000Y-150750000D03*
X124000000Y-150750000D03*
X123500000Y-150750000D03*
X123000000Y-150750000D03*
X122500000Y-150750000D03*
X122000000Y-150750000D03*
X121500000Y-150750000D03*
X121000000Y-150750000D03*
X120500000Y-150750000D03*
X120000000Y-150750000D03*
X119500000Y-150750000D03*
X119000000Y-150750000D03*
X118500000Y-150750000D03*
D14*
X116600000Y-154000000D03*
X131900000Y-154000000D03*
%TD*%
%TO.C,R12*%
G36*
G01*
X118900000Y-98799999D02*
X118900000Y-99700001D01*
G75*
G02*
X118650001Y-99950000I-249999J0D01*
G01*
X117949999Y-99950000D01*
G75*
G02*
X117700000Y-99700001I0J249999D01*
G01*
X117700000Y-98799999D01*
G75*
G02*
X117949999Y-98550000I249999J0D01*
G01*
X118650001Y-98550000D01*
G75*
G02*
X118900000Y-98799999I0J-249999D01*
G01*
G37*
G36*
G01*
X120900000Y-98799999D02*
X120900000Y-99700001D01*
G75*
G02*
X120650001Y-99950000I-249999J0D01*
G01*
X119949999Y-99950000D01*
G75*
G02*
X119700000Y-99700001I0J249999D01*
G01*
X119700000Y-98799999D01*
G75*
G02*
X119949999Y-98550000I249999J0D01*
G01*
X120650001Y-98550000D01*
G75*
G02*
X120900000Y-98799999I0J-249999D01*
G01*
G37*
%TD*%
D15*
%TO.C,U5*%
X129350000Y-85370000D03*
X129350000Y-82830000D03*
X135650000Y-82830000D03*
X135650000Y-85370000D03*
%TD*%
D16*
%TO.C,U4*%
X141900000Y-145350000D03*
X141900000Y-147250000D03*
X139700000Y-147250000D03*
X139700000Y-146300000D03*
X139700000Y-145350000D03*
%TD*%
D17*
%TO.C,U3*%
X108600000Y-149550000D03*
X107650000Y-147550000D03*
X109550000Y-147550000D03*
%TD*%
D18*
%TO.C,U2*%
X122400000Y-129000000D03*
X122400000Y-127000000D03*
X122400000Y-125000000D03*
X141300000Y-125500000D03*
X122400000Y-123000000D03*
X141300000Y-123000000D03*
X122400000Y-121000000D03*
X141300000Y-120600000D03*
X122400000Y-119000000D03*
X122400000Y-117000000D03*
X122400000Y-115000000D03*
%TD*%
D19*
%TO.C,SW13*%
X102150000Y-150650000D03*
X102150000Y-158450000D03*
%TD*%
%TO.C,SW12*%
X145850000Y-135830000D03*
X145850000Y-143630000D03*
%TD*%
%TO.C,SW11*%
X145850000Y-132500000D03*
X145850000Y-124700000D03*
%TD*%
%TO.C,SW10*%
X145850000Y-113570000D03*
X145850000Y-121370000D03*
%TD*%
%TO.C,SW9*%
X145850000Y-102440000D03*
X145850000Y-110240000D03*
%TD*%
%TO.C,SW8*%
X145850000Y-91310000D03*
X145850000Y-99110000D03*
%TD*%
%TO.C,SW7*%
X145850000Y-87980000D03*
X145850000Y-80180000D03*
%TD*%
%TO.C,SW6*%
X102150000Y-135850000D03*
X102150000Y-143650000D03*
%TD*%
%TO.C,SW5*%
X102150000Y-124700000D03*
X102150000Y-132500000D03*
%TD*%
%TO.C,SW4*%
X102150000Y-113570000D03*
X102150000Y-121370000D03*
%TD*%
%TO.C,SW3*%
X102150000Y-102440000D03*
X102150000Y-110240000D03*
%TD*%
%TO.C,SW2*%
X102150000Y-91310000D03*
X102150000Y-99110000D03*
%TD*%
%TO.C,SW1*%
X102150000Y-80180000D03*
X102150000Y-87980000D03*
%TD*%
%TO.C,R8-1*%
G36*
G01*
X115700001Y-145850000D02*
X114799999Y-145850000D01*
G75*
G02*
X114550000Y-145600001I0J249999D01*
G01*
X114550000Y-144899999D01*
G75*
G02*
X114799999Y-144650000I249999J0D01*
G01*
X115700001Y-144650000D01*
G75*
G02*
X115950000Y-144899999I0J-249999D01*
G01*
X115950000Y-145600001D01*
G75*
G02*
X115700001Y-145850000I-249999J0D01*
G01*
G37*
G36*
G01*
X115700001Y-147850000D02*
X114799999Y-147850000D01*
G75*
G02*
X114550000Y-147600001I0J249999D01*
G01*
X114550000Y-146899999D01*
G75*
G02*
X114799999Y-146650000I249999J0D01*
G01*
X115700001Y-146650000D01*
G75*
G02*
X115950000Y-146899999I0J-249999D01*
G01*
X115950000Y-147600001D01*
G75*
G02*
X115700001Y-147850000I-249999J0D01*
G01*
G37*
%TD*%
%TO.C,R13*%
G36*
G01*
X129600000Y-86799999D02*
X129600000Y-87700001D01*
G75*
G02*
X129350001Y-87950000I-249999J0D01*
G01*
X128649999Y-87950000D01*
G75*
G02*
X128400000Y-87700001I0J249999D01*
G01*
X128400000Y-86799999D01*
G75*
G02*
X128649999Y-86550000I249999J0D01*
G01*
X129350001Y-86550000D01*
G75*
G02*
X129600000Y-86799999I0J-249999D01*
G01*
G37*
G36*
G01*
X131600000Y-86799999D02*
X131600000Y-87700001D01*
G75*
G02*
X131350001Y-87950000I-249999J0D01*
G01*
X130649999Y-87950000D01*
G75*
G02*
X130400000Y-87700001I0J249999D01*
G01*
X130400000Y-86799999D01*
G75*
G02*
X130649999Y-86550000I249999J0D01*
G01*
X131350001Y-86550000D01*
G75*
G02*
X131600000Y-86799999I0J-249999D01*
G01*
G37*
%TD*%
%TO.C,R11*%
G36*
G01*
X139900000Y-77150001D02*
X139900000Y-76249999D01*
G75*
G02*
X140149999Y-76000000I249999J0D01*
G01*
X140850001Y-76000000D01*
G75*
G02*
X141100000Y-76249999I0J-249999D01*
G01*
X141100000Y-77150001D01*
G75*
G02*
X140850001Y-77400000I-249999J0D01*
G01*
X140149999Y-77400000D01*
G75*
G02*
X139900000Y-77150001I0J249999D01*
G01*
G37*
G36*
G01*
X137900000Y-77150001D02*
X137900000Y-76249999D01*
G75*
G02*
X138149999Y-76000000I249999J0D01*
G01*
X138850001Y-76000000D01*
G75*
G02*
X139100000Y-76249999I0J-249999D01*
G01*
X139100000Y-77150001D01*
G75*
G02*
X138850001Y-77400000I-249999J0D01*
G01*
X138149999Y-77400000D01*
G75*
G02*
X137900000Y-77150001I0J249999D01*
G01*
G37*
%TD*%
%TO.C,R9*%
G36*
G01*
X142350001Y-142100000D02*
X141449999Y-142100000D01*
G75*
G02*
X141200000Y-141850001I0J249999D01*
G01*
X141200000Y-141149999D01*
G75*
G02*
X141449999Y-140900000I249999J0D01*
G01*
X142350001Y-140900000D01*
G75*
G02*
X142600000Y-141149999I0J-249999D01*
G01*
X142600000Y-141850001D01*
G75*
G02*
X142350001Y-142100000I-249999J0D01*
G01*
G37*
G36*
G01*
X142350001Y-144100000D02*
X141449999Y-144100000D01*
G75*
G02*
X141200000Y-143850001I0J249999D01*
G01*
X141200000Y-143149999D01*
G75*
G02*
X141449999Y-142900000I249999J0D01*
G01*
X142350001Y-142900000D01*
G75*
G02*
X142600000Y-143149999I0J-249999D01*
G01*
X142600000Y-143850001D01*
G75*
G02*
X142350001Y-144100000I-249999J0D01*
G01*
G37*
%TD*%
%TO.C,R5*%
G36*
G01*
X126950001Y-96600000D02*
X126049999Y-96600000D01*
G75*
G02*
X125800000Y-96350001I0J249999D01*
G01*
X125800000Y-95649999D01*
G75*
G02*
X126049999Y-95400000I249999J0D01*
G01*
X126950001Y-95400000D01*
G75*
G02*
X127200000Y-95649999I0J-249999D01*
G01*
X127200000Y-96350001D01*
G75*
G02*
X126950001Y-96600000I-249999J0D01*
G01*
G37*
G36*
G01*
X126950001Y-98600000D02*
X126049999Y-98600000D01*
G75*
G02*
X125800000Y-98350001I0J249999D01*
G01*
X125800000Y-97649999D01*
G75*
G02*
X126049999Y-97400000I249999J0D01*
G01*
X126950001Y-97400000D01*
G75*
G02*
X127200000Y-97649999I0J-249999D01*
G01*
X127200000Y-98350001D01*
G75*
G02*
X126950001Y-98600000I-249999J0D01*
G01*
G37*
%TD*%
%TO.C,R4*%
G36*
G01*
X126950001Y-100400000D02*
X126049999Y-100400000D01*
G75*
G02*
X125800000Y-100150001I0J249999D01*
G01*
X125800000Y-99449999D01*
G75*
G02*
X126049999Y-99200000I249999J0D01*
G01*
X126950001Y-99200000D01*
G75*
G02*
X127200000Y-99449999I0J-249999D01*
G01*
X127200000Y-100150001D01*
G75*
G02*
X126950001Y-100400000I-249999J0D01*
G01*
G37*
G36*
G01*
X126950001Y-102400000D02*
X126049999Y-102400000D01*
G75*
G02*
X125800000Y-102150001I0J249999D01*
G01*
X125800000Y-101449999D01*
G75*
G02*
X126049999Y-101200000I249999J0D01*
G01*
X126950001Y-101200000D01*
G75*
G02*
X127200000Y-101449999I0J-249999D01*
G01*
X127200000Y-102150001D01*
G75*
G02*
X126950001Y-102400000I-249999J0D01*
G01*
G37*
%TD*%
%TO.C,R3*%
G36*
G01*
X113200000Y-104750001D02*
X113200000Y-103849999D01*
G75*
G02*
X113449999Y-103600000I249999J0D01*
G01*
X114150001Y-103600000D01*
G75*
G02*
X114400000Y-103849999I0J-249999D01*
G01*
X114400000Y-104750001D01*
G75*
G02*
X114150001Y-105000000I-249999J0D01*
G01*
X113449999Y-105000000D01*
G75*
G02*
X113200000Y-104750001I0J249999D01*
G01*
G37*
G36*
G01*
X111200000Y-104750001D02*
X111200000Y-103849999D01*
G75*
G02*
X111449999Y-103600000I249999J0D01*
G01*
X112150001Y-103600000D01*
G75*
G02*
X112400000Y-103849999I0J-249999D01*
G01*
X112400000Y-104750001D01*
G75*
G02*
X112150001Y-105000000I-249999J0D01*
G01*
X111449999Y-105000000D01*
G75*
G02*
X111200000Y-104750001I0J249999D01*
G01*
G37*
%TD*%
%TO.C,R2*%
G36*
G01*
X139900000Y-79150001D02*
X139900000Y-78249999D01*
G75*
G02*
X140149999Y-78000000I249999J0D01*
G01*
X140850001Y-78000000D01*
G75*
G02*
X141100000Y-78249999I0J-249999D01*
G01*
X141100000Y-79150001D01*
G75*
G02*
X140850001Y-79400000I-249999J0D01*
G01*
X140149999Y-79400000D01*
G75*
G02*
X139900000Y-79150001I0J249999D01*
G01*
G37*
G36*
G01*
X137900000Y-79150001D02*
X137900000Y-78249999D01*
G75*
G02*
X138149999Y-78000000I249999J0D01*
G01*
X138850001Y-78000000D01*
G75*
G02*
X139100000Y-78249999I0J-249999D01*
G01*
X139100000Y-79150001D01*
G75*
G02*
X138850001Y-79400000I-249999J0D01*
G01*
X138149999Y-79400000D01*
G75*
G02*
X137900000Y-79150001I0J249999D01*
G01*
G37*
%TD*%
%TO.C,R1*%
G36*
G01*
X139900000Y-81150001D02*
X139900000Y-80249999D01*
G75*
G02*
X140149999Y-80000000I249999J0D01*
G01*
X140850001Y-80000000D01*
G75*
G02*
X141100000Y-80249999I0J-249999D01*
G01*
X141100000Y-81150001D01*
G75*
G02*
X140850001Y-81400000I-249999J0D01*
G01*
X140149999Y-81400000D01*
G75*
G02*
X139900000Y-81150001I0J249999D01*
G01*
G37*
G36*
G01*
X137900000Y-81150001D02*
X137900000Y-80249999D01*
G75*
G02*
X138149999Y-80000000I249999J0D01*
G01*
X138850001Y-80000000D01*
G75*
G02*
X139100000Y-80249999I0J-249999D01*
G01*
X139100000Y-81150001D01*
G75*
G02*
X138850001Y-81400000I-249999J0D01*
G01*
X138149999Y-81400000D01*
G75*
G02*
X137900000Y-81150001I0J249999D01*
G01*
G37*
%TD*%
D17*
%TO.C,Q2*%
X117550000Y-139500000D03*
X118500000Y-141500000D03*
X116600000Y-141500000D03*
%TD*%
D20*
%TO.C,Q1*%
X118100000Y-102250000D03*
X119300000Y-102250000D03*
X120500000Y-102250000D03*
%TD*%
D21*
%TO.C,L1*%
X117500000Y-136000000D03*
X117500000Y-133900000D03*
%TD*%
%TO.C,D6*%
G36*
G01*
X143350001Y-75050000D02*
X142449999Y-75050000D01*
G75*
G02*
X142200000Y-74800001I0J249999D01*
G01*
X142200000Y-74149999D01*
G75*
G02*
X142449999Y-73900000I249999J0D01*
G01*
X143350001Y-73900000D01*
G75*
G02*
X143600000Y-74149999I0J-249999D01*
G01*
X143600000Y-74800001D01*
G75*
G02*
X143350001Y-75050000I-249999J0D01*
G01*
G37*
G36*
G01*
X143350001Y-77100000D02*
X142449999Y-77100000D01*
G75*
G02*
X142200000Y-76850001I0J249999D01*
G01*
X142200000Y-76199999D01*
G75*
G02*
X142449999Y-75950000I249999J0D01*
G01*
X143350001Y-75950000D01*
G75*
G02*
X143600000Y-76199999I0J-249999D01*
G01*
X143600000Y-76850001D01*
G75*
G02*
X143350001Y-77100000I-249999J0D01*
G01*
G37*
%TD*%
D12*
%TO.C,D3*%
X126250000Y-137450000D03*
X126250000Y-140750000D03*
%TD*%
%TO.C,D2*%
G36*
G01*
X144399999Y-75950000D02*
X145300001Y-75950000D01*
G75*
G02*
X145550000Y-76199999I0J-249999D01*
G01*
X145550000Y-76850001D01*
G75*
G02*
X145300001Y-77100000I-249999J0D01*
G01*
X144399999Y-77100000D01*
G75*
G02*
X144150000Y-76850001I0J249999D01*
G01*
X144150000Y-76199999D01*
G75*
G02*
X144399999Y-75950000I249999J0D01*
G01*
G37*
G36*
G01*
X144399999Y-73900000D02*
X145300001Y-73900000D01*
G75*
G02*
X145550000Y-74149999I0J-249999D01*
G01*
X145550000Y-74800001D01*
G75*
G02*
X145300001Y-75050000I-249999J0D01*
G01*
X144399999Y-75050000D01*
G75*
G02*
X144150000Y-74800001I0J249999D01*
G01*
X144150000Y-74149999D01*
G75*
G02*
X144399999Y-73900000I249999J0D01*
G01*
G37*
%TD*%
%TO.C,D1*%
G36*
G01*
X146299999Y-75945000D02*
X147200001Y-75945000D01*
G75*
G02*
X147450000Y-76194999I0J-249999D01*
G01*
X147450000Y-76845001D01*
G75*
G02*
X147200001Y-77095000I-249999J0D01*
G01*
X146299999Y-77095000D01*
G75*
G02*
X146050000Y-76845001I0J249999D01*
G01*
X146050000Y-76194999D01*
G75*
G02*
X146299999Y-75945000I249999J0D01*
G01*
G37*
G36*
G01*
X146299999Y-73895000D02*
X147200001Y-73895000D01*
G75*
G02*
X147450000Y-74144999I0J-249999D01*
G01*
X147450000Y-74795001D01*
G75*
G02*
X147200001Y-75045000I-249999J0D01*
G01*
X146299999Y-75045000D01*
G75*
G02*
X146050000Y-74795001I0J249999D01*
G01*
X146050000Y-74144999D01*
G75*
G02*
X146299999Y-73895000I249999J0D01*
G01*
G37*
%TD*%
%TO.C,C20*%
G36*
G01*
X109012500Y-146025000D02*
X109012500Y-145075000D01*
G75*
G02*
X109262500Y-144825000I250000J0D01*
G01*
X109937500Y-144825000D01*
G75*
G02*
X110187500Y-145075000I0J-250000D01*
G01*
X110187500Y-146025000D01*
G75*
G02*
X109937500Y-146275000I-250000J0D01*
G01*
X109262500Y-146275000D01*
G75*
G02*
X109012500Y-146025000I0J250000D01*
G01*
G37*
G36*
G01*
X106937500Y-146025000D02*
X106937500Y-145075000D01*
G75*
G02*
X107187500Y-144825000I250000J0D01*
G01*
X107862500Y-144825000D01*
G75*
G02*
X108112500Y-145075000I0J-250000D01*
G01*
X108112500Y-146025000D01*
G75*
G02*
X107862500Y-146275000I-250000J0D01*
G01*
X107187500Y-146275000D01*
G75*
G02*
X106937500Y-146025000I0J250000D01*
G01*
G37*
%TD*%
%TO.C,C19*%
G36*
G01*
X108187500Y-151125000D02*
X108187500Y-152075000D01*
G75*
G02*
X107937500Y-152325000I-250000J0D01*
G01*
X107262500Y-152325000D01*
G75*
G02*
X107012500Y-152075000I0J250000D01*
G01*
X107012500Y-151125000D01*
G75*
G02*
X107262500Y-150875000I250000J0D01*
G01*
X107937500Y-150875000D01*
G75*
G02*
X108187500Y-151125000I0J-250000D01*
G01*
G37*
G36*
G01*
X110262500Y-151125000D02*
X110262500Y-152075000D01*
G75*
G02*
X110012500Y-152325000I-250000J0D01*
G01*
X109337500Y-152325000D01*
G75*
G02*
X109087500Y-152075000I0J250000D01*
G01*
X109087500Y-151125000D01*
G75*
G02*
X109337500Y-150875000I250000J0D01*
G01*
X110012500Y-150875000D01*
G75*
G02*
X110262500Y-151125000I0J-250000D01*
G01*
G37*
%TD*%
%TO.C,C18*%
G36*
G01*
X139725000Y-150575000D02*
X139725000Y-152425000D01*
G75*
G02*
X139475000Y-152675000I-250000J0D01*
G01*
X138475000Y-152675000D01*
G75*
G02*
X138225000Y-152425000I0J250000D01*
G01*
X138225000Y-150575000D01*
G75*
G02*
X138475000Y-150325000I250000J0D01*
G01*
X139475000Y-150325000D01*
G75*
G02*
X139725000Y-150575000I0J-250000D01*
G01*
G37*
G36*
G01*
X142975000Y-150575000D02*
X142975000Y-152425000D01*
G75*
G02*
X142725000Y-152675000I-250000J0D01*
G01*
X141725000Y-152675000D01*
G75*
G02*
X141475000Y-152425000I0J250000D01*
G01*
X141475000Y-150575000D01*
G75*
G02*
X141725000Y-150325000I250000J0D01*
G01*
X142725000Y-150325000D01*
G75*
G02*
X142975000Y-150575000I0J-250000D01*
G01*
G37*
%TD*%
%TO.C,C16*%
G36*
G01*
X117725000Y-81050000D02*
X116775000Y-81050000D01*
G75*
G02*
X116525000Y-80800000I0J250000D01*
G01*
X116525000Y-80125000D01*
G75*
G02*
X116775000Y-79875000I250000J0D01*
G01*
X117725000Y-79875000D01*
G75*
G02*
X117975000Y-80125000I0J-250000D01*
G01*
X117975000Y-80800000D01*
G75*
G02*
X117725000Y-81050000I-250000J0D01*
G01*
G37*
G36*
G01*
X117725000Y-83125000D02*
X116775000Y-83125000D01*
G75*
G02*
X116525000Y-82875000I0J250000D01*
G01*
X116525000Y-82200000D01*
G75*
G02*
X116775000Y-81950000I250000J0D01*
G01*
X117725000Y-81950000D01*
G75*
G02*
X117975000Y-82200000I0J-250000D01*
G01*
X117975000Y-82875000D01*
G75*
G02*
X117725000Y-83125000I-250000J0D01*
G01*
G37*
%TD*%
%TO.C,C15*%
G36*
G01*
X126250000Y-90475000D02*
X126250000Y-89525000D01*
G75*
G02*
X126500000Y-89275000I250000J0D01*
G01*
X127175000Y-89275000D01*
G75*
G02*
X127425000Y-89525000I0J-250000D01*
G01*
X127425000Y-90475000D01*
G75*
G02*
X127175000Y-90725000I-250000J0D01*
G01*
X126500000Y-90725000D01*
G75*
G02*
X126250000Y-90475000I0J250000D01*
G01*
G37*
G36*
G01*
X124175000Y-90475000D02*
X124175000Y-89525000D01*
G75*
G02*
X124425000Y-89275000I250000J0D01*
G01*
X125100000Y-89275000D01*
G75*
G02*
X125350000Y-89525000I0J-250000D01*
G01*
X125350000Y-90475000D01*
G75*
G02*
X125100000Y-90725000I-250000J0D01*
G01*
X124425000Y-90725000D01*
G75*
G02*
X124175000Y-90475000I0J250000D01*
G01*
G37*
%TD*%
%TO.C,C14*%
G36*
G01*
X115825000Y-100737500D02*
X116775000Y-100737500D01*
G75*
G02*
X117025000Y-100987500I0J-250000D01*
G01*
X117025000Y-101662500D01*
G75*
G02*
X116775000Y-101912500I-250000J0D01*
G01*
X115825000Y-101912500D01*
G75*
G02*
X115575000Y-101662500I0J250000D01*
G01*
X115575000Y-100987500D01*
G75*
G02*
X115825000Y-100737500I250000J0D01*
G01*
G37*
G36*
G01*
X115825000Y-98662500D02*
X116775000Y-98662500D01*
G75*
G02*
X117025000Y-98912500I0J-250000D01*
G01*
X117025000Y-99587500D01*
G75*
G02*
X116775000Y-99837500I-250000J0D01*
G01*
X115825000Y-99837500D01*
G75*
G02*
X115575000Y-99587500I0J250000D01*
G01*
X115575000Y-98912500D01*
G75*
G02*
X115825000Y-98662500I250000J0D01*
G01*
G37*
%TD*%
%TO.C,C13*%
G36*
G01*
X133775000Y-146662500D02*
X134725000Y-146662500D01*
G75*
G02*
X134975000Y-146912500I0J-250000D01*
G01*
X134975000Y-147587500D01*
G75*
G02*
X134725000Y-147837500I-250000J0D01*
G01*
X133775000Y-147837500D01*
G75*
G02*
X133525000Y-147587500I0J250000D01*
G01*
X133525000Y-146912500D01*
G75*
G02*
X133775000Y-146662500I250000J0D01*
G01*
G37*
G36*
G01*
X133775000Y-144587500D02*
X134725000Y-144587500D01*
G75*
G02*
X134975000Y-144837500I0J-250000D01*
G01*
X134975000Y-145512500D01*
G75*
G02*
X134725000Y-145762500I-250000J0D01*
G01*
X133775000Y-145762500D01*
G75*
G02*
X133525000Y-145512500I0J250000D01*
G01*
X133525000Y-144837500D01*
G75*
G02*
X133775000Y-144587500I250000J0D01*
G01*
G37*
%TD*%
%TO.C,C12*%
G36*
G01*
X130225000Y-145762500D02*
X129275000Y-145762500D01*
G75*
G02*
X129025000Y-145512500I0J250000D01*
G01*
X129025000Y-144837500D01*
G75*
G02*
X129275000Y-144587500I250000J0D01*
G01*
X130225000Y-144587500D01*
G75*
G02*
X130475000Y-144837500I0J-250000D01*
G01*
X130475000Y-145512500D01*
G75*
G02*
X130225000Y-145762500I-250000J0D01*
G01*
G37*
G36*
G01*
X130225000Y-147837500D02*
X129275000Y-147837500D01*
G75*
G02*
X129025000Y-147587500I0J250000D01*
G01*
X129025000Y-146912500D01*
G75*
G02*
X129275000Y-146662500I250000J0D01*
G01*
X130225000Y-146662500D01*
G75*
G02*
X130475000Y-146912500I0J-250000D01*
G01*
X130475000Y-147587500D01*
G75*
G02*
X130225000Y-147837500I-250000J0D01*
G01*
G37*
%TD*%
%TO.C,C11*%
G36*
G01*
X134675000Y-138487500D02*
X133725000Y-138487500D01*
G75*
G02*
X133475000Y-138237500I0J250000D01*
G01*
X133475000Y-137562500D01*
G75*
G02*
X133725000Y-137312500I250000J0D01*
G01*
X134675000Y-137312500D01*
G75*
G02*
X134925000Y-137562500I0J-250000D01*
G01*
X134925000Y-138237500D01*
G75*
G02*
X134675000Y-138487500I-250000J0D01*
G01*
G37*
G36*
G01*
X134675000Y-140562500D02*
X133725000Y-140562500D01*
G75*
G02*
X133475000Y-140312500I0J250000D01*
G01*
X133475000Y-139637500D01*
G75*
G02*
X133725000Y-139387500I250000J0D01*
G01*
X134675000Y-139387500D01*
G75*
G02*
X134925000Y-139637500I0J-250000D01*
G01*
X134925000Y-140312500D01*
G75*
G02*
X134675000Y-140562500I-250000J0D01*
G01*
G37*
%TD*%
%TO.C,C10*%
G36*
G01*
X119975000Y-145762500D02*
X119025000Y-145762500D01*
G75*
G02*
X118775000Y-145512500I0J250000D01*
G01*
X118775000Y-144837500D01*
G75*
G02*
X119025000Y-144587500I250000J0D01*
G01*
X119975000Y-144587500D01*
G75*
G02*
X120225000Y-144837500I0J-250000D01*
G01*
X120225000Y-145512500D01*
G75*
G02*
X119975000Y-145762500I-250000J0D01*
G01*
G37*
G36*
G01*
X119975000Y-147837500D02*
X119025000Y-147837500D01*
G75*
G02*
X118775000Y-147587500I0J250000D01*
G01*
X118775000Y-146912500D01*
G75*
G02*
X119025000Y-146662500I250000J0D01*
G01*
X119975000Y-146662500D01*
G75*
G02*
X120225000Y-146912500I0J-250000D01*
G01*
X120225000Y-147587500D01*
G75*
G02*
X119975000Y-147837500I-250000J0D01*
G01*
G37*
%TD*%
%TO.C,C9*%
G36*
G01*
X117975000Y-145762500D02*
X117025000Y-145762500D01*
G75*
G02*
X116775000Y-145512500I0J250000D01*
G01*
X116775000Y-144837500D01*
G75*
G02*
X117025000Y-144587500I250000J0D01*
G01*
X117975000Y-144587500D01*
G75*
G02*
X118225000Y-144837500I0J-250000D01*
G01*
X118225000Y-145512500D01*
G75*
G02*
X117975000Y-145762500I-250000J0D01*
G01*
G37*
G36*
G01*
X117975000Y-147837500D02*
X117025000Y-147837500D01*
G75*
G02*
X116775000Y-147587500I0J250000D01*
G01*
X116775000Y-146912500D01*
G75*
G02*
X117025000Y-146662500I250000J0D01*
G01*
X117975000Y-146662500D01*
G75*
G02*
X118225000Y-146912500I0J-250000D01*
G01*
X118225000Y-147587500D01*
G75*
G02*
X117975000Y-147837500I-250000J0D01*
G01*
G37*
%TD*%
%TO.C,C8*%
G36*
G01*
X136725000Y-145762500D02*
X135775000Y-145762500D01*
G75*
G02*
X135525000Y-145512500I0J250000D01*
G01*
X135525000Y-144837500D01*
G75*
G02*
X135775000Y-144587500I250000J0D01*
G01*
X136725000Y-144587500D01*
G75*
G02*
X136975000Y-144837500I0J-250000D01*
G01*
X136975000Y-145512500D01*
G75*
G02*
X136725000Y-145762500I-250000J0D01*
G01*
G37*
G36*
G01*
X136725000Y-147837500D02*
X135775000Y-147837500D01*
G75*
G02*
X135525000Y-147587500I0J250000D01*
G01*
X135525000Y-146912500D01*
G75*
G02*
X135775000Y-146662500I250000J0D01*
G01*
X136725000Y-146662500D01*
G75*
G02*
X136975000Y-146912500I0J-250000D01*
G01*
X136975000Y-147587500D01*
G75*
G02*
X136725000Y-147837500I-250000J0D01*
G01*
G37*
%TD*%
%TO.C,C7*%
G36*
G01*
X132475000Y-145762500D02*
X131525000Y-145762500D01*
G75*
G02*
X131275000Y-145512500I0J250000D01*
G01*
X131275000Y-144837500D01*
G75*
G02*
X131525000Y-144587500I250000J0D01*
G01*
X132475000Y-144587500D01*
G75*
G02*
X132725000Y-144837500I0J-250000D01*
G01*
X132725000Y-145512500D01*
G75*
G02*
X132475000Y-145762500I-250000J0D01*
G01*
G37*
G36*
G01*
X132475000Y-147837500D02*
X131525000Y-147837500D01*
G75*
G02*
X131275000Y-147587500I0J250000D01*
G01*
X131275000Y-146912500D01*
G75*
G02*
X131525000Y-146662500I250000J0D01*
G01*
X132475000Y-146662500D01*
G75*
G02*
X132725000Y-146912500I0J-250000D01*
G01*
X132725000Y-147587500D01*
G75*
G02*
X132475000Y-147837500I-250000J0D01*
G01*
G37*
%TD*%
%TO.C,C6*%
G36*
G01*
X127975000Y-145762500D02*
X127025000Y-145762500D01*
G75*
G02*
X126775000Y-145512500I0J250000D01*
G01*
X126775000Y-144837500D01*
G75*
G02*
X127025000Y-144587500I250000J0D01*
G01*
X127975000Y-144587500D01*
G75*
G02*
X128225000Y-144837500I0J-250000D01*
G01*
X128225000Y-145512500D01*
G75*
G02*
X127975000Y-145762500I-250000J0D01*
G01*
G37*
G36*
G01*
X127975000Y-147837500D02*
X127025000Y-147837500D01*
G75*
G02*
X126775000Y-147587500I0J250000D01*
G01*
X126775000Y-146912500D01*
G75*
G02*
X127025000Y-146662500I250000J0D01*
G01*
X127975000Y-146662500D01*
G75*
G02*
X128225000Y-146912500I0J-250000D01*
G01*
X128225000Y-147587500D01*
G75*
G02*
X127975000Y-147837500I-250000J0D01*
G01*
G37*
%TD*%
%TO.C,C5*%
G36*
G01*
X125975000Y-145762500D02*
X125025000Y-145762500D01*
G75*
G02*
X124775000Y-145512500I0J250000D01*
G01*
X124775000Y-144837500D01*
G75*
G02*
X125025000Y-144587500I250000J0D01*
G01*
X125975000Y-144587500D01*
G75*
G02*
X126225000Y-144837500I0J-250000D01*
G01*
X126225000Y-145512500D01*
G75*
G02*
X125975000Y-145762500I-250000J0D01*
G01*
G37*
G36*
G01*
X125975000Y-147837500D02*
X125025000Y-147837500D01*
G75*
G02*
X124775000Y-147587500I0J250000D01*
G01*
X124775000Y-146912500D01*
G75*
G02*
X125025000Y-146662500I250000J0D01*
G01*
X125975000Y-146662500D01*
G75*
G02*
X126225000Y-146912500I0J-250000D01*
G01*
X126225000Y-147587500D01*
G75*
G02*
X125975000Y-147837500I-250000J0D01*
G01*
G37*
%TD*%
%TO.C,C3*%
G36*
G01*
X121975000Y-145762500D02*
X121025000Y-145762500D01*
G75*
G02*
X120775000Y-145512500I0J250000D01*
G01*
X120775000Y-144837500D01*
G75*
G02*
X121025000Y-144587500I250000J0D01*
G01*
X121975000Y-144587500D01*
G75*
G02*
X122225000Y-144837500I0J-250000D01*
G01*
X122225000Y-145512500D01*
G75*
G02*
X121975000Y-145762500I-250000J0D01*
G01*
G37*
G36*
G01*
X121975000Y-147837500D02*
X121025000Y-147837500D01*
G75*
G02*
X120775000Y-147587500I0J250000D01*
G01*
X120775000Y-146912500D01*
G75*
G02*
X121025000Y-146662500I250000J0D01*
G01*
X121975000Y-146662500D01*
G75*
G02*
X122225000Y-146912500I0J-250000D01*
G01*
X122225000Y-147587500D01*
G75*
G02*
X121975000Y-147837500I-250000J0D01*
G01*
G37*
%TD*%
%TO.C,C2*%
G36*
G01*
X115475000Y-81087500D02*
X114525000Y-81087500D01*
G75*
G02*
X114275000Y-80837500I0J250000D01*
G01*
X114275000Y-80162500D01*
G75*
G02*
X114525000Y-79912500I250000J0D01*
G01*
X115475000Y-79912500D01*
G75*
G02*
X115725000Y-80162500I0J-250000D01*
G01*
X115725000Y-80837500D01*
G75*
G02*
X115475000Y-81087500I-250000J0D01*
G01*
G37*
G36*
G01*
X115475000Y-83162500D02*
X114525000Y-83162500D01*
G75*
G02*
X114275000Y-82912500I0J250000D01*
G01*
X114275000Y-82237500D01*
G75*
G02*
X114525000Y-81987500I250000J0D01*
G01*
X115475000Y-81987500D01*
G75*
G02*
X115725000Y-82237500I0J-250000D01*
G01*
X115725000Y-82912500D01*
G75*
G02*
X115475000Y-83162500I-250000J0D01*
G01*
G37*
%TD*%
%TO.C,C1*%
G36*
G01*
X113425000Y-107850000D02*
X114375000Y-107850000D01*
G75*
G02*
X114625000Y-108100000I0J-250000D01*
G01*
X114625000Y-108775000D01*
G75*
G02*
X114375000Y-109025000I-250000J0D01*
G01*
X113425000Y-109025000D01*
G75*
G02*
X113175000Y-108775000I0J250000D01*
G01*
X113175000Y-108100000D01*
G75*
G02*
X113425000Y-107850000I250000J0D01*
G01*
G37*
G36*
G01*
X113425000Y-105775000D02*
X114375000Y-105775000D01*
G75*
G02*
X114625000Y-106025000I0J-250000D01*
G01*
X114625000Y-106700000D01*
G75*
G02*
X114375000Y-106950000I-250000J0D01*
G01*
X113425000Y-106950000D01*
G75*
G02*
X113175000Y-106700000I0J250000D01*
G01*
X113175000Y-106025000D01*
G75*
G02*
X113425000Y-105775000I250000J0D01*
G01*
G37*
%TD*%
M02*
