%TF.GenerationSoftware,KiCad,Pcbnew,(5.1.9)-1*%
%TF.CreationDate,2021-03-29T02:47:02+02:00*%
%TF.ProjectId,HB-RC-12-EP-2,48422d52-432d-4313-922d-45502d322e6b,rev?*%
%TF.SameCoordinates,Original*%
%TF.FileFunction,Copper,L2,Bot*%
%TF.FilePolarity,Positive*%
%FSLAX46Y46*%
G04 Gerber Fmt 4.6, Leading zero omitted, Abs format (unit mm)*
G04 Created by KiCad (PCBNEW (5.1.9)-1) date 2021-03-29 02:47:02*
%MOMM*%
%LPD*%
G01*
G04 APERTURE LIST*
%TA.AperFunction,ComponentPad*%
%ADD10O,1.700000X1.700000*%
%TD*%
%TA.AperFunction,ComponentPad*%
%ADD11R,1.700000X1.700000*%
%TD*%
%TA.AperFunction,ComponentPad*%
%ADD12O,1.350000X1.350000*%
%TD*%
%TA.AperFunction,ComponentPad*%
%ADD13R,1.350000X1.350000*%
%TD*%
%TA.AperFunction,ComponentPad*%
%ADD14R,0.850000X0.850000*%
%TD*%
%TA.AperFunction,ViaPad*%
%ADD15C,0.600000*%
%TD*%
%TA.AperFunction,Conductor*%
%ADD16C,0.250000*%
%TD*%
%TA.AperFunction,Conductor*%
%ADD17C,0.254000*%
%TD*%
%TA.AperFunction,Conductor*%
%ADD18C,0.100000*%
%TD*%
G04 APERTURE END LIST*
D10*
%TO.P,FTDI1,6*%
%TO.N,/DTR*%
X128650000Y-99150000D03*
%TO.P,FTDI1,5*%
%TO.N,/TXD*%
X128650000Y-96610000D03*
%TO.P,FTDI1,4*%
%TO.N,/RXD*%
X128650000Y-94070000D03*
D11*
%TO.P,FTDI1,3*%
%TO.N,+3V0*%
X128650000Y-91530000D03*
D10*
%TO.P,FTDI1,2*%
%TO.N,GND*%
X128650000Y-88990000D03*
%TO.P,FTDI1,1*%
X128650000Y-86450000D03*
%TD*%
D12*
%TO.P,K1,8*%
%TO.N,/GX_BSY*%
X104350000Y-75750000D03*
%TO.P,K1,7*%
%TO.N,/GX_RST*%
X106350000Y-75750000D03*
%TO.P,K1,6*%
%TO.N,/GX_DC*%
X108350000Y-75750000D03*
%TO.P,K1,5*%
%TO.N,/GX_CS*%
X110350000Y-75750000D03*
%TO.P,K1,4*%
%TO.N,/SCK*%
X112350000Y-75750000D03*
%TO.P,K1,3*%
%TO.N,/MOSI*%
X114350000Y-75750000D03*
%TO.P,K1,2*%
%TO.N,GND*%
X116350000Y-75750000D03*
D13*
%TO.P,K1,1*%
%TO.N,+3V0*%
X118350000Y-75750000D03*
%TD*%
D11*
%TO.P,Power,1*%
%TO.N,+BATT*%
X98350000Y-157100000D03*
D10*
%TO.P,Power,2*%
%TO.N,GND*%
X100890000Y-157100000D03*
%TD*%
%TO.P,+,2*%
%TO.N,GND*%
X131010000Y-157125000D03*
D11*
%TO.P,+,1*%
%TO.N,Net-(J5-Pad1)*%
X133550000Y-157125000D03*
%TD*%
D14*
%TO.P,Ant,1*%
%TO.N,Net-(J1-Pad1)*%
X130950000Y-122350000D03*
%TD*%
D10*
%TO.P,ISP1,6*%
%TO.N,GND*%
X97600000Y-126780000D03*
%TO.P,ISP1,5*%
%TO.N,/RESET*%
X95060000Y-126780000D03*
%TO.P,ISP1,4*%
%TO.N,/MOSI*%
X97600000Y-124240000D03*
%TO.P,ISP1,3*%
%TO.N,/SCK*%
X95060000Y-124240000D03*
D11*
%TO.P,ISP1,2*%
%TO.N,+3V0*%
X97600000Y-121700000D03*
D10*
%TO.P,ISP1,1*%
%TO.N,/MISO*%
X95060000Y-121700000D03*
%TD*%
D15*
%TO.N,GND*%
X111800000Y-116350000D03*
X91100000Y-157850000D03*
X124850000Y-151850000D03*
X89350000Y-88850000D03*
X89600000Y-99850000D03*
X89350000Y-110850000D03*
X89600000Y-122100000D03*
X89600000Y-133100000D03*
X89600000Y-144350000D03*
X133350000Y-122350000D03*
X133100000Y-111100000D03*
X133100000Y-100100000D03*
X134350000Y-79350000D03*
X103600000Y-78100000D03*
X98300000Y-142450000D03*
X105850000Y-143050000D03*
X109850000Y-143050000D03*
X113850000Y-143050000D03*
X117050000Y-143050000D03*
X119350000Y-143050000D03*
X122550000Y-143050000D03*
X101550000Y-143050000D03*
X114600000Y-151600000D03*
X108600000Y-151600000D03*
X104350000Y-85600000D03*
X108600000Y-89100000D03*
X104350000Y-94100000D03*
X131475000Y-72850000D03*
X130600000Y-140850000D03*
X115600000Y-89350000D03*
X103550000Y-102150000D03*
X93500000Y-92150000D03*
X105550000Y-105900000D03*
X133100000Y-144600000D03*
%TO.N,Net-(D6-Pad2)*%
X131200000Y-146600000D03*
X124850000Y-84720000D03*
X125125000Y-73974999D03*
%TO.N,/DTR*%
X122950000Y-99150000D03*
X120350000Y-102450000D03*
%TO.N,+3V0*%
X125450000Y-91550000D03*
X111850000Y-114350000D03*
X114100000Y-153850000D03*
X99150000Y-102100000D03*
X102100000Y-98600000D03*
X128600000Y-153100000D03*
X93850000Y-147850000D03*
X112100000Y-87850000D03*
X119600000Y-86600000D03*
X122350000Y-86850000D03*
%TO.N,/MOSI*%
X112350000Y-118350000D03*
X113350000Y-153100000D03*
X100350000Y-93850000D03*
X100750000Y-122400000D03*
%TO.N,/SCK*%
X111600000Y-120350000D03*
X112600000Y-152350000D03*
X101850000Y-93850000D03*
%TO.N,/GX_CS*%
X111850000Y-153100000D03*
%TO.N,/GX_DC*%
X111100000Y-152350000D03*
%TO.N,/GX_RST*%
X110350000Y-153100000D03*
%TO.N,/GX_BSY*%
X109600000Y-152350000D03*
%TO.N,+BATT*%
X125850000Y-146600000D03*
%TO.N,/A6*%
X114600000Y-91100000D03*
X108600000Y-91100000D03*
X102350000Y-88350000D03*
%TO.N,/A7*%
X105350000Y-93350000D03*
X105350000Y-88600000D03*
%TO.N,/LED2*%
X100100000Y-90600000D03*
X124050000Y-78100000D03*
%TO.N,/LED*%
X109350000Y-96350000D03*
X123100000Y-86100000D03*
%TO.N,/TXD*%
X124600000Y-96610000D03*
X108800000Y-96950000D03*
%TO.N,/RXD*%
X124550000Y-94050000D03*
X110500000Y-97600000D03*
%TO.N,/RESET*%
X99850000Y-105612500D03*
%TO.N,/MISO*%
X100750000Y-125050000D03*
%TO.N,Net-(R10-Pad1)*%
X130100000Y-82350000D03*
X125850000Y-74600000D03*
%TD*%
D16*
%TO.N,GND*%
X134350000Y-75725000D02*
X131475000Y-72850000D01*
X134350000Y-79350000D02*
X134350000Y-75725000D01*
%TO.N,Net-(D6-Pad2)*%
X124750000Y-74349999D02*
X125125000Y-73974999D01*
X124750000Y-84620000D02*
X124850000Y-84720000D01*
X124750000Y-74349999D02*
X124750000Y-84620000D01*
X131225001Y-146574999D02*
X131200000Y-146600000D01*
X131225001Y-124824999D02*
X131225001Y-146574999D01*
X126475001Y-120074999D02*
X131225001Y-124824999D01*
X126475001Y-86345001D02*
X126475001Y-120074999D01*
X124850000Y-84720000D02*
X126475001Y-86345001D01*
%TO.N,/DTR*%
X120350000Y-101750000D02*
X122950000Y-99150000D01*
X120350000Y-102450000D02*
X120350000Y-101750000D01*
%TO.N,+3V0*%
X127850000Y-153850000D02*
X128600000Y-153100000D01*
X114100000Y-153850000D02*
X127850000Y-153850000D01*
X99850000Y-153850000D02*
X93850000Y-147850000D01*
X114100000Y-153850000D02*
X99850000Y-153850000D01*
X99150000Y-101550000D02*
X102100000Y-98600000D01*
X99150000Y-102100000D02*
X99150000Y-101550000D01*
X118350000Y-87850000D02*
X119600000Y-86600000D01*
X112100000Y-87850000D02*
X118350000Y-87850000D01*
X113680000Y-112520000D02*
X111850000Y-114350000D01*
X125450000Y-89950000D02*
X122350000Y-86850000D01*
X125450000Y-91750000D02*
X125450000Y-89950000D01*
X111850000Y-114350000D02*
X125450000Y-100750000D01*
X125450000Y-100750000D02*
X125450000Y-91750000D01*
X112100000Y-82000000D02*
X118350000Y-75750000D01*
X112100000Y-87850000D02*
X112100000Y-82000000D01*
%TO.N,/MOSI*%
X112899989Y-74299989D02*
X114350000Y-75750000D01*
X103683598Y-74299990D02*
X112899989Y-74299989D01*
X100725002Y-77258586D02*
X103683598Y-74299990D01*
X113050010Y-119050010D02*
X112350000Y-118350000D01*
X113050010Y-151875008D02*
X113050010Y-119050010D01*
X113350000Y-152174998D02*
X113050010Y-151875008D01*
X113350000Y-153100000D02*
X113350000Y-152174998D01*
X100350000Y-93850000D02*
X100725001Y-93474999D01*
X100725001Y-93474999D02*
X100725002Y-77258586D01*
X98910000Y-124240000D02*
X100750000Y-122400000D01*
X97600000Y-124240000D02*
X98910000Y-124240000D01*
%TO.N,/SCK*%
X111600000Y-143238588D02*
X112600000Y-144238588D01*
X112600000Y-144238588D02*
X112600000Y-152350000D01*
X111600000Y-120350000D02*
X111600000Y-143238588D01*
X111349999Y-74749999D02*
X112350000Y-75750000D01*
X103869999Y-74749999D02*
X111349999Y-74749999D01*
X101175011Y-77444987D02*
X103869999Y-74749999D01*
X101175011Y-93175011D02*
X101175011Y-77444987D01*
X101850000Y-93850000D02*
X101175011Y-93175011D01*
%TO.N,/GX_CS*%
X111850000Y-144124998D02*
X111850000Y-153100000D01*
X109964999Y-142239997D02*
X111850000Y-144124998D01*
X109964999Y-109964997D02*
X109964999Y-142239997D01*
X107875009Y-107875009D02*
X109964999Y-109964997D01*
X107875009Y-78224991D02*
X107875009Y-107875009D01*
X110350000Y-75750000D02*
X107875009Y-78224991D01*
%TO.N,/GX_DC*%
X107424999Y-76675001D02*
X108350000Y-75750000D01*
X107424999Y-141550001D02*
X107424999Y-76675001D01*
X111100000Y-145225002D02*
X107424999Y-141550001D01*
X111100000Y-152350000D02*
X111100000Y-145225002D01*
%TO.N,/GX_RST*%
X110350000Y-145111412D02*
X110350000Y-153100000D01*
X106974989Y-77329583D02*
X106974990Y-141736402D01*
X106350000Y-76704594D02*
X106974989Y-77329583D01*
X106974990Y-141736402D02*
X110350000Y-145111412D01*
X106350000Y-75750000D02*
X106350000Y-76704594D01*
%TO.N,/GX_BSY*%
X104350000Y-75750000D02*
X106524981Y-77924981D01*
X106524981Y-77924981D02*
X106524981Y-142024981D01*
X109600000Y-152350000D02*
X109600000Y-145100000D01*
X106524981Y-142024981D02*
X109600000Y-145100000D01*
%TO.N,/A6*%
X108600000Y-91100000D02*
X114600000Y-91100000D01*
%TO.N,/A7*%
X105350000Y-88600000D02*
X105350000Y-93350000D01*
%TO.N,/LED2*%
X100100000Y-77247178D02*
X100100000Y-90600000D01*
X103497197Y-73849981D02*
X100100000Y-77247178D01*
X116599981Y-73849981D02*
X103497197Y-73849981D01*
X116600000Y-73850000D02*
X116599981Y-73849981D01*
X119800000Y-73850000D02*
X116600000Y-73850000D01*
X124050000Y-78100000D02*
X119800000Y-73850000D01*
%TO.N,/LED*%
X121600000Y-86100000D02*
X123100000Y-86100000D01*
X111350000Y-96350000D02*
X121600000Y-86100000D01*
X109350000Y-96350000D02*
X111350000Y-96350000D01*
%TO.N,/TXD*%
X108800000Y-96950000D02*
X110075001Y-98225001D01*
X122984999Y-98225001D02*
X124600000Y-96610000D01*
X110075001Y-98225001D02*
X122984999Y-98225001D01*
%TO.N,/RXD*%
X121000000Y-97600000D02*
X124550000Y-94050000D01*
X110500000Y-97600000D02*
X121000000Y-97600000D01*
%TO.N,/RESET*%
X93250000Y-124970000D02*
X95060000Y-126780000D01*
X93275000Y-111625000D02*
X93250000Y-111625000D01*
X93250000Y-111625000D02*
X93250000Y-124970000D01*
X96500000Y-108400000D02*
X96200000Y-108700000D01*
X96500000Y-108400000D02*
X94449999Y-110450001D01*
X99850000Y-105612500D02*
X99287500Y-105612500D01*
X99287500Y-105612500D02*
X98525000Y-106375000D01*
X98525000Y-106375000D02*
X93275000Y-111625000D01*
X98525000Y-106375000D02*
X96500000Y-108400000D01*
%TO.N,/MISO*%
X96235001Y-124804001D02*
X96235001Y-122875001D01*
X96846001Y-125415001D02*
X96235001Y-124804001D01*
X96235001Y-122875001D02*
X95060000Y-121700000D01*
X100384999Y-125415001D02*
X96846001Y-125415001D01*
X100750000Y-125050000D02*
X100384999Y-125415001D01*
%TO.N,Net-(R10-Pad1)*%
X125850000Y-74600000D02*
X127100000Y-74600000D01*
X130100000Y-77600000D02*
X130100000Y-82350000D01*
X127100000Y-74600000D02*
X130100000Y-77600000D01*
%TD*%
D17*
%TO.N,GND*%
X93467023Y-70164837D02*
X93164837Y-70467023D01*
X92927412Y-70822355D01*
X92763870Y-71217179D01*
X92680497Y-71636323D01*
X92680497Y-72063677D01*
X92763870Y-72482821D01*
X92927412Y-72877645D01*
X93164837Y-73232977D01*
X93467023Y-73535163D01*
X93822355Y-73772588D01*
X94217179Y-73936130D01*
X94636323Y-74019503D01*
X95063677Y-74019503D01*
X95482821Y-73936130D01*
X95877645Y-73772588D01*
X96232977Y-73535163D01*
X96535163Y-73232977D01*
X96772588Y-72877645D01*
X96936130Y-72482821D01*
X97019503Y-72063677D01*
X97019503Y-71636323D01*
X96936130Y-71217179D01*
X96772588Y-70822355D01*
X96535163Y-70467023D01*
X96232977Y-70164837D01*
X96001247Y-70010000D01*
X126698753Y-70010000D01*
X126467023Y-70164837D01*
X126164837Y-70467023D01*
X125927412Y-70822355D01*
X125763870Y-71217179D01*
X125680497Y-71636323D01*
X125680497Y-72063677D01*
X125763870Y-72482821D01*
X125927412Y-72877645D01*
X126164837Y-73232977D01*
X126467023Y-73535163D01*
X126822355Y-73772588D01*
X126985101Y-73840000D01*
X126395535Y-73840000D01*
X126292889Y-73771414D01*
X126122729Y-73700932D01*
X126014605Y-73679425D01*
X125953586Y-73532110D01*
X125851262Y-73378971D01*
X125721028Y-73248737D01*
X125567889Y-73146413D01*
X125397729Y-73075931D01*
X125217089Y-73039999D01*
X125032911Y-73039999D01*
X124852271Y-73075931D01*
X124682111Y-73146413D01*
X124528972Y-73248737D01*
X124398738Y-73378971D01*
X124296414Y-73532110D01*
X124225932Y-73702270D01*
X124202745Y-73818837D01*
X124157689Y-73873738D01*
X124115026Y-73925723D01*
X124074791Y-74000997D01*
X124044454Y-74057753D01*
X124000997Y-74201014D01*
X123990000Y-74312667D01*
X123990000Y-74312677D01*
X123986324Y-74349999D01*
X123990000Y-74387321D01*
X123990000Y-76965198D01*
X120363804Y-73339003D01*
X120340001Y-73309999D01*
X120224276Y-73215026D01*
X120092247Y-73144454D01*
X119948986Y-73100997D01*
X119837333Y-73090000D01*
X119837322Y-73090000D01*
X119800000Y-73086324D01*
X119762678Y-73090000D01*
X116637507Y-73090000D01*
X116637314Y-73089981D01*
X116637303Y-73089981D01*
X116599981Y-73086305D01*
X116562659Y-73089981D01*
X103534519Y-73089981D01*
X103497196Y-73086305D01*
X103459873Y-73089981D01*
X103459864Y-73089981D01*
X103348211Y-73100978D01*
X103204950Y-73144435D01*
X103072920Y-73215007D01*
X103006578Y-73269453D01*
X102957196Y-73309980D01*
X102933398Y-73338978D01*
X99589003Y-76683374D01*
X99559999Y-76707177D01*
X99510458Y-76767544D01*
X99465026Y-76822902D01*
X99394455Y-76954931D01*
X99394454Y-76954932D01*
X99350997Y-77098193D01*
X99340000Y-77209846D01*
X99340000Y-77209856D01*
X99336324Y-77247178D01*
X99340000Y-77284500D01*
X99340001Y-90054463D01*
X99271414Y-90157111D01*
X99200932Y-90327271D01*
X99165000Y-90507911D01*
X99165000Y-90692089D01*
X99200932Y-90872729D01*
X99271414Y-91042889D01*
X99373738Y-91196028D01*
X99503972Y-91326262D01*
X99657111Y-91428586D01*
X99827271Y-91499068D01*
X99965001Y-91526465D01*
X99965001Y-92997435D01*
X99907111Y-93021414D01*
X99753972Y-93123738D01*
X99623738Y-93253972D01*
X99521414Y-93407111D01*
X99450932Y-93577271D01*
X99415000Y-93757911D01*
X99415000Y-93942089D01*
X99450932Y-94122729D01*
X99521414Y-94292889D01*
X99623738Y-94446028D01*
X99753972Y-94576262D01*
X99907111Y-94678586D01*
X100077271Y-94749068D01*
X100257911Y-94785000D01*
X100442089Y-94785000D01*
X100622729Y-94749068D01*
X100792889Y-94678586D01*
X100946028Y-94576262D01*
X101076262Y-94446028D01*
X101100000Y-94410502D01*
X101123738Y-94446028D01*
X101253972Y-94576262D01*
X101407111Y-94678586D01*
X101577271Y-94749068D01*
X101757911Y-94785000D01*
X101942089Y-94785000D01*
X102122729Y-94749068D01*
X102292889Y-94678586D01*
X102446028Y-94576262D01*
X102576262Y-94446028D01*
X102678586Y-94292889D01*
X102749068Y-94122729D01*
X102785000Y-93942089D01*
X102785000Y-93757911D01*
X102749068Y-93577271D01*
X102678586Y-93407111D01*
X102576262Y-93253972D01*
X102446028Y-93123738D01*
X102292889Y-93021414D01*
X102122729Y-92950932D01*
X102001649Y-92926847D01*
X101935011Y-92860210D01*
X101935011Y-89190142D01*
X102077271Y-89249068D01*
X102257911Y-89285000D01*
X102442089Y-89285000D01*
X102622729Y-89249068D01*
X102792889Y-89178586D01*
X102946028Y-89076262D01*
X103076262Y-88946028D01*
X103178586Y-88792889D01*
X103249068Y-88622729D01*
X103285000Y-88442089D01*
X103285000Y-88257911D01*
X103249068Y-88077271D01*
X103178586Y-87907111D01*
X103076262Y-87753972D01*
X102946028Y-87623738D01*
X102792889Y-87521414D01*
X102622729Y-87450932D01*
X102442089Y-87415000D01*
X102257911Y-87415000D01*
X102077271Y-87450932D01*
X101935011Y-87509858D01*
X101935011Y-77759788D01*
X103243242Y-76451558D01*
X103332456Y-76585077D01*
X103514923Y-76767544D01*
X103729482Y-76910907D01*
X103967887Y-77009658D01*
X104220976Y-77060000D01*
X104479024Y-77060000D01*
X104567583Y-77042385D01*
X105764981Y-78239783D01*
X105764981Y-87759854D01*
X105622729Y-87700932D01*
X105442089Y-87665000D01*
X105257911Y-87665000D01*
X105077271Y-87700932D01*
X104907111Y-87771414D01*
X104753972Y-87873738D01*
X104623738Y-88003972D01*
X104521414Y-88157111D01*
X104450932Y-88327271D01*
X104415000Y-88507911D01*
X104415000Y-88692089D01*
X104450932Y-88872729D01*
X104521414Y-89042889D01*
X104590000Y-89145536D01*
X104590001Y-92804463D01*
X104521414Y-92907111D01*
X104450932Y-93077271D01*
X104415000Y-93257911D01*
X104415000Y-93442089D01*
X104450932Y-93622729D01*
X104521414Y-93792889D01*
X104623738Y-93946028D01*
X104753972Y-94076262D01*
X104907111Y-94178586D01*
X105077271Y-94249068D01*
X105257911Y-94285000D01*
X105442089Y-94285000D01*
X105622729Y-94249068D01*
X105764981Y-94190146D01*
X105764982Y-141987648D01*
X105761305Y-142024981D01*
X105775979Y-142173966D01*
X105819435Y-142317227D01*
X105890007Y-142449257D01*
X105961182Y-142535983D01*
X105984981Y-142564982D01*
X106013979Y-142588780D01*
X108840001Y-145414803D01*
X108840000Y-151804464D01*
X108771414Y-151907111D01*
X108700932Y-152077271D01*
X108665000Y-152257911D01*
X108665000Y-152442089D01*
X108700932Y-152622729D01*
X108771414Y-152792889D01*
X108873738Y-152946028D01*
X109003972Y-153076262D01*
X109024532Y-153090000D01*
X100164803Y-153090000D01*
X94773153Y-147698352D01*
X94749068Y-147577271D01*
X94678586Y-147407111D01*
X94576262Y-147253972D01*
X94446028Y-147123738D01*
X94292889Y-147021414D01*
X94122729Y-146950932D01*
X93942089Y-146915000D01*
X93757911Y-146915000D01*
X93577271Y-146950932D01*
X93407111Y-147021414D01*
X93253972Y-147123738D01*
X93123738Y-147253972D01*
X93021414Y-147407111D01*
X92950932Y-147577271D01*
X92915000Y-147757911D01*
X92915000Y-147942089D01*
X92950932Y-148122729D01*
X93021414Y-148292889D01*
X93123738Y-148446028D01*
X93253972Y-148576262D01*
X93407111Y-148678586D01*
X93577271Y-148749068D01*
X93698352Y-148773153D01*
X99286205Y-154361008D01*
X99309999Y-154390001D01*
X99338992Y-154413795D01*
X99338996Y-154413799D01*
X99355584Y-154427412D01*
X99425724Y-154484974D01*
X99557753Y-154555546D01*
X99701014Y-154599003D01*
X99812667Y-154610000D01*
X99812676Y-154610000D01*
X99849999Y-154613676D01*
X99887322Y-154610000D01*
X113554465Y-154610000D01*
X113657111Y-154678586D01*
X113827271Y-154749068D01*
X114007911Y-154785000D01*
X114192089Y-154785000D01*
X114372729Y-154749068D01*
X114542889Y-154678586D01*
X114645535Y-154610000D01*
X126549092Y-154610000D01*
X126467023Y-154664837D01*
X126164837Y-154967023D01*
X125927412Y-155322355D01*
X125763870Y-155717179D01*
X125680497Y-156136323D01*
X125680497Y-156563677D01*
X125763870Y-156982821D01*
X125927412Y-157377645D01*
X126164837Y-157732977D01*
X126467023Y-158035163D01*
X126698753Y-158190000D01*
X101897109Y-158190000D01*
X102085178Y-157981355D01*
X102234157Y-157731252D01*
X102331481Y-157456891D01*
X102210814Y-157227000D01*
X101017000Y-157227000D01*
X101017000Y-157247000D01*
X100763000Y-157247000D01*
X100763000Y-157227000D01*
X100743000Y-157227000D01*
X100743000Y-156973000D01*
X100763000Y-156973000D01*
X100763000Y-155779845D01*
X101017000Y-155779845D01*
X101017000Y-156973000D01*
X102210814Y-156973000D01*
X102331481Y-156743109D01*
X102234157Y-156468748D01*
X102085178Y-156218645D01*
X101890269Y-156002412D01*
X101656920Y-155828359D01*
X101394099Y-155703175D01*
X101246890Y-155658524D01*
X101017000Y-155779845D01*
X100763000Y-155779845D01*
X100533110Y-155658524D01*
X100385901Y-155703175D01*
X100123080Y-155828359D01*
X99889731Y-156002412D01*
X99813966Y-156086466D01*
X99789502Y-156005820D01*
X99730537Y-155895506D01*
X99651185Y-155798815D01*
X99554494Y-155719463D01*
X99444180Y-155660498D01*
X99324482Y-155624188D01*
X99200000Y-155611928D01*
X97500000Y-155611928D01*
X97375518Y-155624188D01*
X97255820Y-155660498D01*
X97145506Y-155719463D01*
X97048815Y-155798815D01*
X96971184Y-155893409D01*
X96936130Y-155717179D01*
X96772588Y-155322355D01*
X96535163Y-154967023D01*
X96232977Y-154664837D01*
X95877645Y-154427412D01*
X95482821Y-154263870D01*
X95063677Y-154180497D01*
X94636323Y-154180497D01*
X94217179Y-154263870D01*
X93822355Y-154427412D01*
X93467023Y-154664837D01*
X93164837Y-154967023D01*
X92927412Y-155322355D01*
X92763870Y-155717179D01*
X92680497Y-156136323D01*
X92680497Y-156563677D01*
X92763870Y-156982821D01*
X92927412Y-157377645D01*
X93164837Y-157732977D01*
X93467023Y-158035163D01*
X93698753Y-158190000D01*
X88010000Y-158190000D01*
X88010000Y-157009253D01*
X88050000Y-157013193D01*
X88082419Y-157010000D01*
X90817581Y-157010000D01*
X90850000Y-157013193D01*
X90882419Y-157010000D01*
X90979383Y-157000450D01*
X91103793Y-156962710D01*
X91218450Y-156901425D01*
X91318948Y-156818948D01*
X91401425Y-156718450D01*
X91462710Y-156603793D01*
X91500450Y-156479383D01*
X91513193Y-156350000D01*
X91510000Y-156317581D01*
X91510000Y-151382419D01*
X91513193Y-151350000D01*
X91500450Y-151220617D01*
X91462710Y-151096207D01*
X91401425Y-150981550D01*
X91318948Y-150881052D01*
X91218450Y-150798575D01*
X91103793Y-150737290D01*
X90979383Y-150699550D01*
X90882419Y-150690000D01*
X90850000Y-150686807D01*
X90817581Y-150690000D01*
X88082419Y-150690000D01*
X88050000Y-150686807D01*
X88017581Y-150690000D01*
X88010000Y-150690747D01*
X88010000Y-146685331D01*
X88178090Y-146685331D01*
X88178090Y-147014669D01*
X88242340Y-147337678D01*
X88368372Y-147641947D01*
X88551342Y-147915781D01*
X88784219Y-148148658D01*
X89058053Y-148331628D01*
X89362322Y-148457660D01*
X89685331Y-148521910D01*
X90014669Y-148521910D01*
X90337678Y-148457660D01*
X90641947Y-148331628D01*
X90915781Y-148148658D01*
X91148658Y-147915781D01*
X91331628Y-147641947D01*
X91457660Y-147337678D01*
X91521910Y-147014669D01*
X91521910Y-146685331D01*
X91457660Y-146362322D01*
X91331628Y-146058053D01*
X91148658Y-145784219D01*
X90915781Y-145551342D01*
X90641947Y-145368372D01*
X90337678Y-145242340D01*
X90014669Y-145178090D01*
X89685331Y-145178090D01*
X89362322Y-145242340D01*
X89058053Y-145368372D01*
X88784219Y-145551342D01*
X88551342Y-145784219D01*
X88368372Y-146058053D01*
X88242340Y-146362322D01*
X88178090Y-146685331D01*
X88010000Y-146685331D01*
X88010000Y-111625000D01*
X92486323Y-111625000D01*
X92490000Y-111662333D01*
X92490001Y-124932668D01*
X92486324Y-124970000D01*
X92490001Y-125007333D01*
X92500998Y-125118986D01*
X92508006Y-125142089D01*
X92544454Y-125262246D01*
X92615026Y-125394276D01*
X92668297Y-125459186D01*
X92710000Y-125510001D01*
X92738998Y-125533799D01*
X93618790Y-126413592D01*
X93575000Y-126633740D01*
X93575000Y-126926260D01*
X93632068Y-127213158D01*
X93744010Y-127483411D01*
X93906525Y-127726632D01*
X94113368Y-127933475D01*
X94356589Y-128095990D01*
X94626842Y-128207932D01*
X94913740Y-128265000D01*
X95206260Y-128265000D01*
X95493158Y-128207932D01*
X95763411Y-128095990D01*
X96006632Y-127933475D01*
X96213475Y-127726632D01*
X96331100Y-127550594D01*
X96502412Y-127780269D01*
X96718645Y-127975178D01*
X96968748Y-128124157D01*
X97243109Y-128221481D01*
X97473000Y-128100814D01*
X97473000Y-126907000D01*
X97727000Y-126907000D01*
X97727000Y-128100814D01*
X97956891Y-128221481D01*
X98231252Y-128124157D01*
X98481355Y-127975178D01*
X98697588Y-127780269D01*
X98871641Y-127546920D01*
X98996825Y-127284099D01*
X99041476Y-127136890D01*
X98920155Y-126907000D01*
X97727000Y-126907000D01*
X97473000Y-126907000D01*
X97453000Y-126907000D01*
X97453000Y-126653000D01*
X97473000Y-126653000D01*
X97473000Y-126633000D01*
X97727000Y-126633000D01*
X97727000Y-126653000D01*
X98920155Y-126653000D01*
X99041476Y-126423110D01*
X98996825Y-126275901D01*
X98948765Y-126175001D01*
X100347677Y-126175001D01*
X100384999Y-126178677D01*
X100422321Y-126175001D01*
X100422332Y-126175001D01*
X100533985Y-126164004D01*
X100677246Y-126120547D01*
X100809275Y-126049975D01*
X100903278Y-125972829D01*
X101022729Y-125949068D01*
X101192889Y-125878586D01*
X101346028Y-125776262D01*
X101476262Y-125646028D01*
X101578586Y-125492889D01*
X101649068Y-125322729D01*
X101685000Y-125142089D01*
X101685000Y-124957911D01*
X101649068Y-124777271D01*
X101578586Y-124607111D01*
X101476262Y-124453972D01*
X101346028Y-124323738D01*
X101192889Y-124221414D01*
X101022729Y-124150932D01*
X100842089Y-124115000D01*
X100657911Y-124115000D01*
X100477271Y-124150932D01*
X100307111Y-124221414D01*
X100153972Y-124323738D01*
X100023738Y-124453972D01*
X99921414Y-124607111D01*
X99901577Y-124655001D01*
X99569800Y-124655001D01*
X100901649Y-123323153D01*
X101022729Y-123299068D01*
X101192889Y-123228586D01*
X101346028Y-123126262D01*
X101476262Y-122996028D01*
X101578586Y-122842889D01*
X101649068Y-122672729D01*
X101685000Y-122492089D01*
X101685000Y-122307911D01*
X101649068Y-122127271D01*
X101578586Y-121957111D01*
X101476262Y-121803972D01*
X101346028Y-121673738D01*
X101192889Y-121571414D01*
X101022729Y-121500932D01*
X100842089Y-121465000D01*
X100657911Y-121465000D01*
X100477271Y-121500932D01*
X100307111Y-121571414D01*
X100153972Y-121673738D01*
X100023738Y-121803972D01*
X99921414Y-121957111D01*
X99850932Y-122127271D01*
X99826847Y-122248351D01*
X98764833Y-123310366D01*
X98753475Y-123293368D01*
X98621620Y-123161513D01*
X98694180Y-123139502D01*
X98804494Y-123080537D01*
X98901185Y-123001185D01*
X98980537Y-122904494D01*
X99039502Y-122794180D01*
X99075812Y-122674482D01*
X99088072Y-122550000D01*
X99088072Y-120850000D01*
X99075812Y-120725518D01*
X99039502Y-120605820D01*
X98980537Y-120495506D01*
X98901185Y-120398815D01*
X98804494Y-120319463D01*
X98694180Y-120260498D01*
X98574482Y-120224188D01*
X98450000Y-120211928D01*
X96750000Y-120211928D01*
X96625518Y-120224188D01*
X96505820Y-120260498D01*
X96395506Y-120319463D01*
X96298815Y-120398815D01*
X96219463Y-120495506D01*
X96160498Y-120605820D01*
X96138487Y-120678380D01*
X96006632Y-120546525D01*
X95763411Y-120384010D01*
X95493158Y-120272068D01*
X95206260Y-120215000D01*
X94913740Y-120215000D01*
X94626842Y-120272068D01*
X94356589Y-120384010D01*
X94113368Y-120546525D01*
X94010000Y-120649893D01*
X94010000Y-111964801D01*
X96009805Y-109964996D01*
X97063799Y-108911003D01*
X98524068Y-107450734D01*
X99088799Y-106886004D01*
X99088808Y-106885993D01*
X99496634Y-106478167D01*
X99577271Y-106511568D01*
X99757911Y-106547500D01*
X99942089Y-106547500D01*
X100122729Y-106511568D01*
X100292889Y-106441086D01*
X100446028Y-106338762D01*
X100576262Y-106208528D01*
X100678586Y-106055389D01*
X100749068Y-105885229D01*
X100785000Y-105704589D01*
X100785000Y-105520411D01*
X100749068Y-105339771D01*
X100678586Y-105169611D01*
X100576262Y-105016472D01*
X100446028Y-104886238D01*
X100292889Y-104783914D01*
X100122729Y-104713432D01*
X99942089Y-104677500D01*
X99757911Y-104677500D01*
X99577271Y-104713432D01*
X99407111Y-104783914D01*
X99307080Y-104850752D01*
X99287500Y-104848824D01*
X99250177Y-104852500D01*
X99250167Y-104852500D01*
X99138514Y-104863497D01*
X98995253Y-104906954D01*
X98863224Y-104977526D01*
X98747499Y-105072499D01*
X98723701Y-105101498D01*
X98014007Y-105811192D01*
X98013996Y-105811201D01*
X97486436Y-106338762D01*
X95988997Y-107836201D01*
X94914197Y-108911002D01*
X92846023Y-110979176D01*
X92825724Y-110990026D01*
X92709999Y-111084999D01*
X92615026Y-111200724D01*
X92544454Y-111332753D01*
X92500997Y-111476014D01*
X92486323Y-111625000D01*
X88010000Y-111625000D01*
X88010000Y-102007911D01*
X98215000Y-102007911D01*
X98215000Y-102192089D01*
X98250932Y-102372729D01*
X98321414Y-102542889D01*
X98423738Y-102696028D01*
X98553972Y-102826262D01*
X98707111Y-102928586D01*
X98877271Y-102999068D01*
X99057911Y-103035000D01*
X99242089Y-103035000D01*
X99422729Y-102999068D01*
X99592889Y-102928586D01*
X99746028Y-102826262D01*
X99876262Y-102696028D01*
X99978586Y-102542889D01*
X100049068Y-102372729D01*
X100085000Y-102192089D01*
X100085000Y-102007911D01*
X100049068Y-101827271D01*
X100019328Y-101755473D01*
X102251649Y-99523153D01*
X102372729Y-99499068D01*
X102542889Y-99428586D01*
X102696028Y-99326262D01*
X102826262Y-99196028D01*
X102928586Y-99042889D01*
X102999068Y-98872729D01*
X103035000Y-98692089D01*
X103035000Y-98507911D01*
X102999068Y-98327271D01*
X102928586Y-98157111D01*
X102826262Y-98003972D01*
X102696028Y-97873738D01*
X102542889Y-97771414D01*
X102372729Y-97700932D01*
X102192089Y-97665000D01*
X102007911Y-97665000D01*
X101827271Y-97700932D01*
X101657111Y-97771414D01*
X101503972Y-97873738D01*
X101373738Y-98003972D01*
X101271414Y-98157111D01*
X101200932Y-98327271D01*
X101176847Y-98448351D01*
X98638998Y-100986201D01*
X98610000Y-101009999D01*
X98586202Y-101038997D01*
X98586201Y-101038998D01*
X98515026Y-101125724D01*
X98489074Y-101174277D01*
X98444454Y-101257753D01*
X98400997Y-101401014D01*
X98390000Y-101512667D01*
X98390000Y-101512678D01*
X98386324Y-101550000D01*
X98387179Y-101558686D01*
X98321414Y-101657111D01*
X98250932Y-101827271D01*
X98215000Y-102007911D01*
X88010000Y-102007911D01*
X88010000Y-71685331D01*
X88178090Y-71685331D01*
X88178090Y-72014669D01*
X88242340Y-72337678D01*
X88368372Y-72641947D01*
X88551342Y-72915781D01*
X88784219Y-73148658D01*
X89058053Y-73331628D01*
X89362322Y-73457660D01*
X89685331Y-73521910D01*
X90014669Y-73521910D01*
X90337678Y-73457660D01*
X90641947Y-73331628D01*
X90915781Y-73148658D01*
X91148658Y-72915781D01*
X91331628Y-72641947D01*
X91457660Y-72337678D01*
X91521910Y-72014669D01*
X91521910Y-71685331D01*
X91457660Y-71362322D01*
X91331628Y-71058053D01*
X91148658Y-70784219D01*
X90915781Y-70551342D01*
X90641947Y-70368372D01*
X90337678Y-70242340D01*
X90014669Y-70178090D01*
X89685331Y-70178090D01*
X89362322Y-70242340D01*
X89058053Y-70368372D01*
X88784219Y-70551342D01*
X88551342Y-70784219D01*
X88368372Y-71058053D01*
X88242340Y-71362322D01*
X88178090Y-71685331D01*
X88010000Y-71685331D01*
X88010000Y-70010000D01*
X93698753Y-70010000D01*
X93467023Y-70164837D01*
%TA.AperFunction,Conductor*%
D18*
G36*
X93467023Y-70164837D02*
G01*
X93164837Y-70467023D01*
X92927412Y-70822355D01*
X92763870Y-71217179D01*
X92680497Y-71636323D01*
X92680497Y-72063677D01*
X92763870Y-72482821D01*
X92927412Y-72877645D01*
X93164837Y-73232977D01*
X93467023Y-73535163D01*
X93822355Y-73772588D01*
X94217179Y-73936130D01*
X94636323Y-74019503D01*
X95063677Y-74019503D01*
X95482821Y-73936130D01*
X95877645Y-73772588D01*
X96232977Y-73535163D01*
X96535163Y-73232977D01*
X96772588Y-72877645D01*
X96936130Y-72482821D01*
X97019503Y-72063677D01*
X97019503Y-71636323D01*
X96936130Y-71217179D01*
X96772588Y-70822355D01*
X96535163Y-70467023D01*
X96232977Y-70164837D01*
X96001247Y-70010000D01*
X126698753Y-70010000D01*
X126467023Y-70164837D01*
X126164837Y-70467023D01*
X125927412Y-70822355D01*
X125763870Y-71217179D01*
X125680497Y-71636323D01*
X125680497Y-72063677D01*
X125763870Y-72482821D01*
X125927412Y-72877645D01*
X126164837Y-73232977D01*
X126467023Y-73535163D01*
X126822355Y-73772588D01*
X126985101Y-73840000D01*
X126395535Y-73840000D01*
X126292889Y-73771414D01*
X126122729Y-73700932D01*
X126014605Y-73679425D01*
X125953586Y-73532110D01*
X125851262Y-73378971D01*
X125721028Y-73248737D01*
X125567889Y-73146413D01*
X125397729Y-73075931D01*
X125217089Y-73039999D01*
X125032911Y-73039999D01*
X124852271Y-73075931D01*
X124682111Y-73146413D01*
X124528972Y-73248737D01*
X124398738Y-73378971D01*
X124296414Y-73532110D01*
X124225932Y-73702270D01*
X124202745Y-73818837D01*
X124157689Y-73873738D01*
X124115026Y-73925723D01*
X124074791Y-74000997D01*
X124044454Y-74057753D01*
X124000997Y-74201014D01*
X123990000Y-74312667D01*
X123990000Y-74312677D01*
X123986324Y-74349999D01*
X123990000Y-74387321D01*
X123990000Y-76965198D01*
X120363804Y-73339003D01*
X120340001Y-73309999D01*
X120224276Y-73215026D01*
X120092247Y-73144454D01*
X119948986Y-73100997D01*
X119837333Y-73090000D01*
X119837322Y-73090000D01*
X119800000Y-73086324D01*
X119762678Y-73090000D01*
X116637507Y-73090000D01*
X116637314Y-73089981D01*
X116637303Y-73089981D01*
X116599981Y-73086305D01*
X116562659Y-73089981D01*
X103534519Y-73089981D01*
X103497196Y-73086305D01*
X103459873Y-73089981D01*
X103459864Y-73089981D01*
X103348211Y-73100978D01*
X103204950Y-73144435D01*
X103072920Y-73215007D01*
X103006578Y-73269453D01*
X102957196Y-73309980D01*
X102933398Y-73338978D01*
X99589003Y-76683374D01*
X99559999Y-76707177D01*
X99510458Y-76767544D01*
X99465026Y-76822902D01*
X99394455Y-76954931D01*
X99394454Y-76954932D01*
X99350997Y-77098193D01*
X99340000Y-77209846D01*
X99340000Y-77209856D01*
X99336324Y-77247178D01*
X99340000Y-77284500D01*
X99340001Y-90054463D01*
X99271414Y-90157111D01*
X99200932Y-90327271D01*
X99165000Y-90507911D01*
X99165000Y-90692089D01*
X99200932Y-90872729D01*
X99271414Y-91042889D01*
X99373738Y-91196028D01*
X99503972Y-91326262D01*
X99657111Y-91428586D01*
X99827271Y-91499068D01*
X99965001Y-91526465D01*
X99965001Y-92997435D01*
X99907111Y-93021414D01*
X99753972Y-93123738D01*
X99623738Y-93253972D01*
X99521414Y-93407111D01*
X99450932Y-93577271D01*
X99415000Y-93757911D01*
X99415000Y-93942089D01*
X99450932Y-94122729D01*
X99521414Y-94292889D01*
X99623738Y-94446028D01*
X99753972Y-94576262D01*
X99907111Y-94678586D01*
X100077271Y-94749068D01*
X100257911Y-94785000D01*
X100442089Y-94785000D01*
X100622729Y-94749068D01*
X100792889Y-94678586D01*
X100946028Y-94576262D01*
X101076262Y-94446028D01*
X101100000Y-94410502D01*
X101123738Y-94446028D01*
X101253972Y-94576262D01*
X101407111Y-94678586D01*
X101577271Y-94749068D01*
X101757911Y-94785000D01*
X101942089Y-94785000D01*
X102122729Y-94749068D01*
X102292889Y-94678586D01*
X102446028Y-94576262D01*
X102576262Y-94446028D01*
X102678586Y-94292889D01*
X102749068Y-94122729D01*
X102785000Y-93942089D01*
X102785000Y-93757911D01*
X102749068Y-93577271D01*
X102678586Y-93407111D01*
X102576262Y-93253972D01*
X102446028Y-93123738D01*
X102292889Y-93021414D01*
X102122729Y-92950932D01*
X102001649Y-92926847D01*
X101935011Y-92860210D01*
X101935011Y-89190142D01*
X102077271Y-89249068D01*
X102257911Y-89285000D01*
X102442089Y-89285000D01*
X102622729Y-89249068D01*
X102792889Y-89178586D01*
X102946028Y-89076262D01*
X103076262Y-88946028D01*
X103178586Y-88792889D01*
X103249068Y-88622729D01*
X103285000Y-88442089D01*
X103285000Y-88257911D01*
X103249068Y-88077271D01*
X103178586Y-87907111D01*
X103076262Y-87753972D01*
X102946028Y-87623738D01*
X102792889Y-87521414D01*
X102622729Y-87450932D01*
X102442089Y-87415000D01*
X102257911Y-87415000D01*
X102077271Y-87450932D01*
X101935011Y-87509858D01*
X101935011Y-77759788D01*
X103243242Y-76451558D01*
X103332456Y-76585077D01*
X103514923Y-76767544D01*
X103729482Y-76910907D01*
X103967887Y-77009658D01*
X104220976Y-77060000D01*
X104479024Y-77060000D01*
X104567583Y-77042385D01*
X105764981Y-78239783D01*
X105764981Y-87759854D01*
X105622729Y-87700932D01*
X105442089Y-87665000D01*
X105257911Y-87665000D01*
X105077271Y-87700932D01*
X104907111Y-87771414D01*
X104753972Y-87873738D01*
X104623738Y-88003972D01*
X104521414Y-88157111D01*
X104450932Y-88327271D01*
X104415000Y-88507911D01*
X104415000Y-88692089D01*
X104450932Y-88872729D01*
X104521414Y-89042889D01*
X104590000Y-89145536D01*
X104590001Y-92804463D01*
X104521414Y-92907111D01*
X104450932Y-93077271D01*
X104415000Y-93257911D01*
X104415000Y-93442089D01*
X104450932Y-93622729D01*
X104521414Y-93792889D01*
X104623738Y-93946028D01*
X104753972Y-94076262D01*
X104907111Y-94178586D01*
X105077271Y-94249068D01*
X105257911Y-94285000D01*
X105442089Y-94285000D01*
X105622729Y-94249068D01*
X105764981Y-94190146D01*
X105764982Y-141987648D01*
X105761305Y-142024981D01*
X105775979Y-142173966D01*
X105819435Y-142317227D01*
X105890007Y-142449257D01*
X105961182Y-142535983D01*
X105984981Y-142564982D01*
X106013979Y-142588780D01*
X108840001Y-145414803D01*
X108840000Y-151804464D01*
X108771414Y-151907111D01*
X108700932Y-152077271D01*
X108665000Y-152257911D01*
X108665000Y-152442089D01*
X108700932Y-152622729D01*
X108771414Y-152792889D01*
X108873738Y-152946028D01*
X109003972Y-153076262D01*
X109024532Y-153090000D01*
X100164803Y-153090000D01*
X94773153Y-147698352D01*
X94749068Y-147577271D01*
X94678586Y-147407111D01*
X94576262Y-147253972D01*
X94446028Y-147123738D01*
X94292889Y-147021414D01*
X94122729Y-146950932D01*
X93942089Y-146915000D01*
X93757911Y-146915000D01*
X93577271Y-146950932D01*
X93407111Y-147021414D01*
X93253972Y-147123738D01*
X93123738Y-147253972D01*
X93021414Y-147407111D01*
X92950932Y-147577271D01*
X92915000Y-147757911D01*
X92915000Y-147942089D01*
X92950932Y-148122729D01*
X93021414Y-148292889D01*
X93123738Y-148446028D01*
X93253972Y-148576262D01*
X93407111Y-148678586D01*
X93577271Y-148749068D01*
X93698352Y-148773153D01*
X99286205Y-154361008D01*
X99309999Y-154390001D01*
X99338992Y-154413795D01*
X99338996Y-154413799D01*
X99355584Y-154427412D01*
X99425724Y-154484974D01*
X99557753Y-154555546D01*
X99701014Y-154599003D01*
X99812667Y-154610000D01*
X99812676Y-154610000D01*
X99849999Y-154613676D01*
X99887322Y-154610000D01*
X113554465Y-154610000D01*
X113657111Y-154678586D01*
X113827271Y-154749068D01*
X114007911Y-154785000D01*
X114192089Y-154785000D01*
X114372729Y-154749068D01*
X114542889Y-154678586D01*
X114645535Y-154610000D01*
X126549092Y-154610000D01*
X126467023Y-154664837D01*
X126164837Y-154967023D01*
X125927412Y-155322355D01*
X125763870Y-155717179D01*
X125680497Y-156136323D01*
X125680497Y-156563677D01*
X125763870Y-156982821D01*
X125927412Y-157377645D01*
X126164837Y-157732977D01*
X126467023Y-158035163D01*
X126698753Y-158190000D01*
X101897109Y-158190000D01*
X102085178Y-157981355D01*
X102234157Y-157731252D01*
X102331481Y-157456891D01*
X102210814Y-157227000D01*
X101017000Y-157227000D01*
X101017000Y-157247000D01*
X100763000Y-157247000D01*
X100763000Y-157227000D01*
X100743000Y-157227000D01*
X100743000Y-156973000D01*
X100763000Y-156973000D01*
X100763000Y-155779845D01*
X101017000Y-155779845D01*
X101017000Y-156973000D01*
X102210814Y-156973000D01*
X102331481Y-156743109D01*
X102234157Y-156468748D01*
X102085178Y-156218645D01*
X101890269Y-156002412D01*
X101656920Y-155828359D01*
X101394099Y-155703175D01*
X101246890Y-155658524D01*
X101017000Y-155779845D01*
X100763000Y-155779845D01*
X100533110Y-155658524D01*
X100385901Y-155703175D01*
X100123080Y-155828359D01*
X99889731Y-156002412D01*
X99813966Y-156086466D01*
X99789502Y-156005820D01*
X99730537Y-155895506D01*
X99651185Y-155798815D01*
X99554494Y-155719463D01*
X99444180Y-155660498D01*
X99324482Y-155624188D01*
X99200000Y-155611928D01*
X97500000Y-155611928D01*
X97375518Y-155624188D01*
X97255820Y-155660498D01*
X97145506Y-155719463D01*
X97048815Y-155798815D01*
X96971184Y-155893409D01*
X96936130Y-155717179D01*
X96772588Y-155322355D01*
X96535163Y-154967023D01*
X96232977Y-154664837D01*
X95877645Y-154427412D01*
X95482821Y-154263870D01*
X95063677Y-154180497D01*
X94636323Y-154180497D01*
X94217179Y-154263870D01*
X93822355Y-154427412D01*
X93467023Y-154664837D01*
X93164837Y-154967023D01*
X92927412Y-155322355D01*
X92763870Y-155717179D01*
X92680497Y-156136323D01*
X92680497Y-156563677D01*
X92763870Y-156982821D01*
X92927412Y-157377645D01*
X93164837Y-157732977D01*
X93467023Y-158035163D01*
X93698753Y-158190000D01*
X88010000Y-158190000D01*
X88010000Y-157009253D01*
X88050000Y-157013193D01*
X88082419Y-157010000D01*
X90817581Y-157010000D01*
X90850000Y-157013193D01*
X90882419Y-157010000D01*
X90979383Y-157000450D01*
X91103793Y-156962710D01*
X91218450Y-156901425D01*
X91318948Y-156818948D01*
X91401425Y-156718450D01*
X91462710Y-156603793D01*
X91500450Y-156479383D01*
X91513193Y-156350000D01*
X91510000Y-156317581D01*
X91510000Y-151382419D01*
X91513193Y-151350000D01*
X91500450Y-151220617D01*
X91462710Y-151096207D01*
X91401425Y-150981550D01*
X91318948Y-150881052D01*
X91218450Y-150798575D01*
X91103793Y-150737290D01*
X90979383Y-150699550D01*
X90882419Y-150690000D01*
X90850000Y-150686807D01*
X90817581Y-150690000D01*
X88082419Y-150690000D01*
X88050000Y-150686807D01*
X88017581Y-150690000D01*
X88010000Y-150690747D01*
X88010000Y-146685331D01*
X88178090Y-146685331D01*
X88178090Y-147014669D01*
X88242340Y-147337678D01*
X88368372Y-147641947D01*
X88551342Y-147915781D01*
X88784219Y-148148658D01*
X89058053Y-148331628D01*
X89362322Y-148457660D01*
X89685331Y-148521910D01*
X90014669Y-148521910D01*
X90337678Y-148457660D01*
X90641947Y-148331628D01*
X90915781Y-148148658D01*
X91148658Y-147915781D01*
X91331628Y-147641947D01*
X91457660Y-147337678D01*
X91521910Y-147014669D01*
X91521910Y-146685331D01*
X91457660Y-146362322D01*
X91331628Y-146058053D01*
X91148658Y-145784219D01*
X90915781Y-145551342D01*
X90641947Y-145368372D01*
X90337678Y-145242340D01*
X90014669Y-145178090D01*
X89685331Y-145178090D01*
X89362322Y-145242340D01*
X89058053Y-145368372D01*
X88784219Y-145551342D01*
X88551342Y-145784219D01*
X88368372Y-146058053D01*
X88242340Y-146362322D01*
X88178090Y-146685331D01*
X88010000Y-146685331D01*
X88010000Y-111625000D01*
X92486323Y-111625000D01*
X92490000Y-111662333D01*
X92490001Y-124932668D01*
X92486324Y-124970000D01*
X92490001Y-125007333D01*
X92500998Y-125118986D01*
X92508006Y-125142089D01*
X92544454Y-125262246D01*
X92615026Y-125394276D01*
X92668297Y-125459186D01*
X92710000Y-125510001D01*
X92738998Y-125533799D01*
X93618790Y-126413592D01*
X93575000Y-126633740D01*
X93575000Y-126926260D01*
X93632068Y-127213158D01*
X93744010Y-127483411D01*
X93906525Y-127726632D01*
X94113368Y-127933475D01*
X94356589Y-128095990D01*
X94626842Y-128207932D01*
X94913740Y-128265000D01*
X95206260Y-128265000D01*
X95493158Y-128207932D01*
X95763411Y-128095990D01*
X96006632Y-127933475D01*
X96213475Y-127726632D01*
X96331100Y-127550594D01*
X96502412Y-127780269D01*
X96718645Y-127975178D01*
X96968748Y-128124157D01*
X97243109Y-128221481D01*
X97473000Y-128100814D01*
X97473000Y-126907000D01*
X97727000Y-126907000D01*
X97727000Y-128100814D01*
X97956891Y-128221481D01*
X98231252Y-128124157D01*
X98481355Y-127975178D01*
X98697588Y-127780269D01*
X98871641Y-127546920D01*
X98996825Y-127284099D01*
X99041476Y-127136890D01*
X98920155Y-126907000D01*
X97727000Y-126907000D01*
X97473000Y-126907000D01*
X97453000Y-126907000D01*
X97453000Y-126653000D01*
X97473000Y-126653000D01*
X97473000Y-126633000D01*
X97727000Y-126633000D01*
X97727000Y-126653000D01*
X98920155Y-126653000D01*
X99041476Y-126423110D01*
X98996825Y-126275901D01*
X98948765Y-126175001D01*
X100347677Y-126175001D01*
X100384999Y-126178677D01*
X100422321Y-126175001D01*
X100422332Y-126175001D01*
X100533985Y-126164004D01*
X100677246Y-126120547D01*
X100809275Y-126049975D01*
X100903278Y-125972829D01*
X101022729Y-125949068D01*
X101192889Y-125878586D01*
X101346028Y-125776262D01*
X101476262Y-125646028D01*
X101578586Y-125492889D01*
X101649068Y-125322729D01*
X101685000Y-125142089D01*
X101685000Y-124957911D01*
X101649068Y-124777271D01*
X101578586Y-124607111D01*
X101476262Y-124453972D01*
X101346028Y-124323738D01*
X101192889Y-124221414D01*
X101022729Y-124150932D01*
X100842089Y-124115000D01*
X100657911Y-124115000D01*
X100477271Y-124150932D01*
X100307111Y-124221414D01*
X100153972Y-124323738D01*
X100023738Y-124453972D01*
X99921414Y-124607111D01*
X99901577Y-124655001D01*
X99569800Y-124655001D01*
X100901649Y-123323153D01*
X101022729Y-123299068D01*
X101192889Y-123228586D01*
X101346028Y-123126262D01*
X101476262Y-122996028D01*
X101578586Y-122842889D01*
X101649068Y-122672729D01*
X101685000Y-122492089D01*
X101685000Y-122307911D01*
X101649068Y-122127271D01*
X101578586Y-121957111D01*
X101476262Y-121803972D01*
X101346028Y-121673738D01*
X101192889Y-121571414D01*
X101022729Y-121500932D01*
X100842089Y-121465000D01*
X100657911Y-121465000D01*
X100477271Y-121500932D01*
X100307111Y-121571414D01*
X100153972Y-121673738D01*
X100023738Y-121803972D01*
X99921414Y-121957111D01*
X99850932Y-122127271D01*
X99826847Y-122248351D01*
X98764833Y-123310366D01*
X98753475Y-123293368D01*
X98621620Y-123161513D01*
X98694180Y-123139502D01*
X98804494Y-123080537D01*
X98901185Y-123001185D01*
X98980537Y-122904494D01*
X99039502Y-122794180D01*
X99075812Y-122674482D01*
X99088072Y-122550000D01*
X99088072Y-120850000D01*
X99075812Y-120725518D01*
X99039502Y-120605820D01*
X98980537Y-120495506D01*
X98901185Y-120398815D01*
X98804494Y-120319463D01*
X98694180Y-120260498D01*
X98574482Y-120224188D01*
X98450000Y-120211928D01*
X96750000Y-120211928D01*
X96625518Y-120224188D01*
X96505820Y-120260498D01*
X96395506Y-120319463D01*
X96298815Y-120398815D01*
X96219463Y-120495506D01*
X96160498Y-120605820D01*
X96138487Y-120678380D01*
X96006632Y-120546525D01*
X95763411Y-120384010D01*
X95493158Y-120272068D01*
X95206260Y-120215000D01*
X94913740Y-120215000D01*
X94626842Y-120272068D01*
X94356589Y-120384010D01*
X94113368Y-120546525D01*
X94010000Y-120649893D01*
X94010000Y-111964801D01*
X96009805Y-109964996D01*
X97063799Y-108911003D01*
X98524068Y-107450734D01*
X99088799Y-106886004D01*
X99088808Y-106885993D01*
X99496634Y-106478167D01*
X99577271Y-106511568D01*
X99757911Y-106547500D01*
X99942089Y-106547500D01*
X100122729Y-106511568D01*
X100292889Y-106441086D01*
X100446028Y-106338762D01*
X100576262Y-106208528D01*
X100678586Y-106055389D01*
X100749068Y-105885229D01*
X100785000Y-105704589D01*
X100785000Y-105520411D01*
X100749068Y-105339771D01*
X100678586Y-105169611D01*
X100576262Y-105016472D01*
X100446028Y-104886238D01*
X100292889Y-104783914D01*
X100122729Y-104713432D01*
X99942089Y-104677500D01*
X99757911Y-104677500D01*
X99577271Y-104713432D01*
X99407111Y-104783914D01*
X99307080Y-104850752D01*
X99287500Y-104848824D01*
X99250177Y-104852500D01*
X99250167Y-104852500D01*
X99138514Y-104863497D01*
X98995253Y-104906954D01*
X98863224Y-104977526D01*
X98747499Y-105072499D01*
X98723701Y-105101498D01*
X98014007Y-105811192D01*
X98013996Y-105811201D01*
X97486436Y-106338762D01*
X95988997Y-107836201D01*
X94914197Y-108911002D01*
X92846023Y-110979176D01*
X92825724Y-110990026D01*
X92709999Y-111084999D01*
X92615026Y-111200724D01*
X92544454Y-111332753D01*
X92500997Y-111476014D01*
X92486323Y-111625000D01*
X88010000Y-111625000D01*
X88010000Y-102007911D01*
X98215000Y-102007911D01*
X98215000Y-102192089D01*
X98250932Y-102372729D01*
X98321414Y-102542889D01*
X98423738Y-102696028D01*
X98553972Y-102826262D01*
X98707111Y-102928586D01*
X98877271Y-102999068D01*
X99057911Y-103035000D01*
X99242089Y-103035000D01*
X99422729Y-102999068D01*
X99592889Y-102928586D01*
X99746028Y-102826262D01*
X99876262Y-102696028D01*
X99978586Y-102542889D01*
X100049068Y-102372729D01*
X100085000Y-102192089D01*
X100085000Y-102007911D01*
X100049068Y-101827271D01*
X100019328Y-101755473D01*
X102251649Y-99523153D01*
X102372729Y-99499068D01*
X102542889Y-99428586D01*
X102696028Y-99326262D01*
X102826262Y-99196028D01*
X102928586Y-99042889D01*
X102999068Y-98872729D01*
X103035000Y-98692089D01*
X103035000Y-98507911D01*
X102999068Y-98327271D01*
X102928586Y-98157111D01*
X102826262Y-98003972D01*
X102696028Y-97873738D01*
X102542889Y-97771414D01*
X102372729Y-97700932D01*
X102192089Y-97665000D01*
X102007911Y-97665000D01*
X101827271Y-97700932D01*
X101657111Y-97771414D01*
X101503972Y-97873738D01*
X101373738Y-98003972D01*
X101271414Y-98157111D01*
X101200932Y-98327271D01*
X101176847Y-98448351D01*
X98638998Y-100986201D01*
X98610000Y-101009999D01*
X98586202Y-101038997D01*
X98586201Y-101038998D01*
X98515026Y-101125724D01*
X98489074Y-101174277D01*
X98444454Y-101257753D01*
X98400997Y-101401014D01*
X98390000Y-101512667D01*
X98390000Y-101512678D01*
X98386324Y-101550000D01*
X98387179Y-101558686D01*
X98321414Y-101657111D01*
X98250932Y-101827271D01*
X98215000Y-102007911D01*
X88010000Y-102007911D01*
X88010000Y-71685331D01*
X88178090Y-71685331D01*
X88178090Y-72014669D01*
X88242340Y-72337678D01*
X88368372Y-72641947D01*
X88551342Y-72915781D01*
X88784219Y-73148658D01*
X89058053Y-73331628D01*
X89362322Y-73457660D01*
X89685331Y-73521910D01*
X90014669Y-73521910D01*
X90337678Y-73457660D01*
X90641947Y-73331628D01*
X90915781Y-73148658D01*
X91148658Y-72915781D01*
X91331628Y-72641947D01*
X91457660Y-72337678D01*
X91521910Y-72014669D01*
X91521910Y-71685331D01*
X91457660Y-71362322D01*
X91331628Y-71058053D01*
X91148658Y-70784219D01*
X90915781Y-70551342D01*
X90641947Y-70368372D01*
X90337678Y-70242340D01*
X90014669Y-70178090D01*
X89685331Y-70178090D01*
X89362322Y-70242340D01*
X89058053Y-70368372D01*
X88784219Y-70551342D01*
X88551342Y-70784219D01*
X88368372Y-71058053D01*
X88242340Y-71362322D01*
X88178090Y-71685331D01*
X88010000Y-71685331D01*
X88010000Y-70010000D01*
X93698753Y-70010000D01*
X93467023Y-70164837D01*
G37*
%TD.AperFunction*%
D17*
X134690001Y-149920923D02*
X134598658Y-149784219D01*
X134365781Y-149551342D01*
X134091947Y-149368372D01*
X133787678Y-149242340D01*
X133464669Y-149178090D01*
X133135331Y-149178090D01*
X132812322Y-149242340D01*
X132508053Y-149368372D01*
X132234219Y-149551342D01*
X132001342Y-149784219D01*
X131818372Y-150058053D01*
X131692340Y-150362322D01*
X131628090Y-150685331D01*
X131628090Y-151014669D01*
X131692340Y-151337678D01*
X131818372Y-151641947D01*
X132001342Y-151915781D01*
X132234219Y-152148658D01*
X132508053Y-152331628D01*
X132812322Y-152457660D01*
X133135331Y-152521910D01*
X133464669Y-152521910D01*
X133787678Y-152457660D01*
X134091947Y-152331628D01*
X134365781Y-152148658D01*
X134598658Y-151915781D01*
X134690001Y-151779077D01*
X134690001Y-155709990D01*
X134644180Y-155685498D01*
X134524482Y-155649188D01*
X134400000Y-155636928D01*
X132700000Y-155636928D01*
X132575518Y-155649188D01*
X132455820Y-155685498D01*
X132345506Y-155744463D01*
X132248815Y-155823815D01*
X132169463Y-155920506D01*
X132110498Y-156030820D01*
X132086034Y-156111466D01*
X132010269Y-156027412D01*
X131776920Y-155853359D01*
X131514099Y-155728175D01*
X131366890Y-155683524D01*
X131137000Y-155804845D01*
X131137000Y-156998000D01*
X131157000Y-156998000D01*
X131157000Y-157252000D01*
X131137000Y-157252000D01*
X131137000Y-157272000D01*
X130883000Y-157272000D01*
X130883000Y-157252000D01*
X130863000Y-157252000D01*
X130863000Y-156998000D01*
X130883000Y-156998000D01*
X130883000Y-155804845D01*
X130653110Y-155683524D01*
X130505901Y-155728175D01*
X130243080Y-155853359D01*
X130009731Y-156027412D01*
X129999989Y-156038220D01*
X129936130Y-155717179D01*
X129772588Y-155322355D01*
X129535163Y-154967023D01*
X129232977Y-154664837D01*
X128877645Y-154427412D01*
X128502698Y-154272103D01*
X128751649Y-154023153D01*
X128872729Y-153999068D01*
X129042889Y-153928586D01*
X129196028Y-153826262D01*
X129326262Y-153696028D01*
X129428586Y-153542889D01*
X129499068Y-153372729D01*
X129535000Y-153192089D01*
X129535000Y-153007911D01*
X129499068Y-152827271D01*
X129428586Y-152657111D01*
X129326262Y-152503972D01*
X129196028Y-152373738D01*
X129042889Y-152271414D01*
X128872729Y-152200932D01*
X128692089Y-152165000D01*
X128507911Y-152165000D01*
X128327271Y-152200932D01*
X128157111Y-152271414D01*
X128003972Y-152373738D01*
X127873738Y-152503972D01*
X127771414Y-152657111D01*
X127700932Y-152827271D01*
X127676847Y-152948351D01*
X127535199Y-153090000D01*
X114645535Y-153090000D01*
X114542889Y-153021414D01*
X114372729Y-152950932D01*
X114269585Y-152930415D01*
X114249068Y-152827271D01*
X114178586Y-152657111D01*
X114110000Y-152554465D01*
X114110000Y-152212321D01*
X114113676Y-152174998D01*
X114110000Y-152137675D01*
X114110000Y-152137665D01*
X114099003Y-152026012D01*
X114055546Y-151882751D01*
X113984974Y-151750722D01*
X113890001Y-151634997D01*
X113860997Y-151611194D01*
X113810010Y-151560207D01*
X113810010Y-146507911D01*
X124915000Y-146507911D01*
X124915000Y-146692089D01*
X124950932Y-146872729D01*
X125021414Y-147042889D01*
X125123738Y-147196028D01*
X125253972Y-147326262D01*
X125407111Y-147428586D01*
X125577271Y-147499068D01*
X125757911Y-147535000D01*
X125942089Y-147535000D01*
X126122729Y-147499068D01*
X126292889Y-147428586D01*
X126446028Y-147326262D01*
X126576262Y-147196028D01*
X126678586Y-147042889D01*
X126749068Y-146872729D01*
X126785000Y-146692089D01*
X126785000Y-146507911D01*
X126749068Y-146327271D01*
X126678586Y-146157111D01*
X126576262Y-146003972D01*
X126446028Y-145873738D01*
X126292889Y-145771414D01*
X126122729Y-145700932D01*
X125942089Y-145665000D01*
X125757911Y-145665000D01*
X125577271Y-145700932D01*
X125407111Y-145771414D01*
X125253972Y-145873738D01*
X125123738Y-146003972D01*
X125021414Y-146157111D01*
X124950932Y-146327271D01*
X124915000Y-146507911D01*
X113810010Y-146507911D01*
X113810010Y-119087335D01*
X113813686Y-119050010D01*
X113810010Y-119012685D01*
X113810010Y-119012677D01*
X113799013Y-118901024D01*
X113755556Y-118757763D01*
X113684984Y-118625734D01*
X113590011Y-118510009D01*
X113561012Y-118486211D01*
X113273153Y-118198351D01*
X113249068Y-118077271D01*
X113178586Y-117907111D01*
X113076262Y-117753972D01*
X112946028Y-117623738D01*
X112792889Y-117521414D01*
X112622729Y-117450932D01*
X112442089Y-117415000D01*
X112257911Y-117415000D01*
X112077271Y-117450932D01*
X111907111Y-117521414D01*
X111753972Y-117623738D01*
X111623738Y-117753972D01*
X111521414Y-117907111D01*
X111450932Y-118077271D01*
X111415000Y-118257911D01*
X111415000Y-118442089D01*
X111450932Y-118622729D01*
X111521414Y-118792889D01*
X111623738Y-118946028D01*
X111753972Y-119076262D01*
X111907111Y-119178586D01*
X112077271Y-119249068D01*
X112198351Y-119273153D01*
X112290011Y-119364813D01*
X112290011Y-119717721D01*
X112196028Y-119623738D01*
X112042889Y-119521414D01*
X111872729Y-119450932D01*
X111692089Y-119415000D01*
X111507911Y-119415000D01*
X111327271Y-119450932D01*
X111157111Y-119521414D01*
X111003972Y-119623738D01*
X110873738Y-119753972D01*
X110771414Y-119907111D01*
X110724999Y-120019168D01*
X110724999Y-110002321D01*
X110728675Y-109964996D01*
X110724999Y-109927673D01*
X110724999Y-109927664D01*
X110714002Y-109816011D01*
X110670545Y-109672750D01*
X110599974Y-109540722D01*
X110599973Y-109540720D01*
X110528798Y-109453994D01*
X110505000Y-109424996D01*
X110476003Y-109401199D01*
X108635009Y-107560208D01*
X108635009Y-97870499D01*
X108648351Y-97873153D01*
X109511202Y-98736004D01*
X109535000Y-98765002D01*
X109650725Y-98859975D01*
X109782754Y-98930547D01*
X109926015Y-98974004D01*
X110037668Y-98985001D01*
X110037676Y-98985001D01*
X110075001Y-98988677D01*
X110112326Y-98985001D01*
X122029503Y-98985001D01*
X122026847Y-98998351D01*
X119838998Y-101186201D01*
X119810000Y-101209999D01*
X119786202Y-101238997D01*
X119786201Y-101238998D01*
X119715026Y-101325724D01*
X119644454Y-101457754D01*
X119629317Y-101507656D01*
X119600997Y-101601014D01*
X119590000Y-101712667D01*
X119590000Y-101712678D01*
X119586324Y-101750000D01*
X119590000Y-101787322D01*
X119590000Y-101904465D01*
X119521414Y-102007111D01*
X119450932Y-102177271D01*
X119415000Y-102357911D01*
X119415000Y-102542089D01*
X119450932Y-102722729D01*
X119521414Y-102892889D01*
X119623738Y-103046028D01*
X119753972Y-103176262D01*
X119907111Y-103278586D01*
X120077271Y-103349068D01*
X120257911Y-103385000D01*
X120442089Y-103385000D01*
X120622729Y-103349068D01*
X120792889Y-103278586D01*
X120946028Y-103176262D01*
X121076262Y-103046028D01*
X121178586Y-102892889D01*
X121249068Y-102722729D01*
X121285000Y-102542089D01*
X121285000Y-102357911D01*
X121249068Y-102177271D01*
X121178586Y-102007111D01*
X121174222Y-102000579D01*
X123101649Y-100073153D01*
X123222729Y-100049068D01*
X123392889Y-99978586D01*
X123546028Y-99876262D01*
X123676262Y-99746028D01*
X123778586Y-99592889D01*
X123849068Y-99422729D01*
X123885000Y-99242089D01*
X123885000Y-99057911D01*
X123849068Y-98877271D01*
X123778586Y-98707111D01*
X123698118Y-98586683D01*
X124690000Y-97594801D01*
X124690000Y-100435197D01*
X113169001Y-111956198D01*
X113168997Y-111956201D01*
X111698352Y-113426847D01*
X111577271Y-113450932D01*
X111407111Y-113521414D01*
X111253972Y-113623738D01*
X111123738Y-113753972D01*
X111021414Y-113907111D01*
X110950932Y-114077271D01*
X110915000Y-114257911D01*
X110915000Y-114442089D01*
X110950932Y-114622729D01*
X111021414Y-114792889D01*
X111123738Y-114946028D01*
X111253972Y-115076262D01*
X111407111Y-115178586D01*
X111577271Y-115249068D01*
X111757911Y-115285000D01*
X111942089Y-115285000D01*
X112122729Y-115249068D01*
X112292889Y-115178586D01*
X112446028Y-115076262D01*
X112576262Y-114946028D01*
X112678586Y-114792889D01*
X112749068Y-114622729D01*
X112773153Y-114501648D01*
X113217047Y-114057754D01*
X114243799Y-113031003D01*
X114243802Y-113030999D01*
X125715001Y-101559802D01*
X125715002Y-120037666D01*
X125711325Y-120074999D01*
X125715002Y-120112332D01*
X125724812Y-120211928D01*
X125725999Y-120223984D01*
X125769455Y-120367245D01*
X125840027Y-120499275D01*
X125878805Y-120546525D01*
X125935001Y-120615000D01*
X125963999Y-120638798D01*
X130465001Y-125139802D01*
X130465002Y-146017046D01*
X130371414Y-146157111D01*
X130300932Y-146327271D01*
X130265000Y-146507911D01*
X130265000Y-146692089D01*
X130300932Y-146872729D01*
X130371414Y-147042889D01*
X130473738Y-147196028D01*
X130603972Y-147326262D01*
X130757111Y-147428586D01*
X130927271Y-147499068D01*
X131107911Y-147535000D01*
X131292089Y-147535000D01*
X131472729Y-147499068D01*
X131642889Y-147428586D01*
X131796028Y-147326262D01*
X131926262Y-147196028D01*
X132028586Y-147042889D01*
X132099068Y-146872729D01*
X132135000Y-146692089D01*
X132135000Y-146507911D01*
X132099068Y-146327271D01*
X132028586Y-146157111D01*
X131985001Y-146091881D01*
X131985001Y-124862321D01*
X131988677Y-124824998D01*
X131985001Y-124787675D01*
X131985001Y-124787666D01*
X131974004Y-124676013D01*
X131930547Y-124532752D01*
X131859975Y-124400723D01*
X131842742Y-124379725D01*
X131788800Y-124313995D01*
X131788796Y-124313991D01*
X131765002Y-124284998D01*
X131736010Y-124261205D01*
X130887877Y-123413072D01*
X131375000Y-123413072D01*
X131499482Y-123400812D01*
X131619180Y-123364502D01*
X131729494Y-123305537D01*
X131826185Y-123226185D01*
X131905537Y-123129494D01*
X131964502Y-123019180D01*
X132000812Y-122899482D01*
X132013072Y-122775000D01*
X132013072Y-121925000D01*
X132000812Y-121800518D01*
X131964502Y-121680820D01*
X131905537Y-121570506D01*
X131826185Y-121473815D01*
X131729494Y-121394463D01*
X131619180Y-121335498D01*
X131499482Y-121299188D01*
X131375000Y-121286928D01*
X130525000Y-121286928D01*
X130400518Y-121299188D01*
X130280820Y-121335498D01*
X130170506Y-121394463D01*
X130073815Y-121473815D01*
X129994463Y-121570506D01*
X129935498Y-121680820D01*
X129899188Y-121800518D01*
X129886928Y-121925000D01*
X129886928Y-122412124D01*
X127235001Y-119760198D01*
X127235001Y-99614381D01*
X127334010Y-99853411D01*
X127496525Y-100096632D01*
X127703368Y-100303475D01*
X127946589Y-100465990D01*
X128216842Y-100577932D01*
X128503740Y-100635000D01*
X128796260Y-100635000D01*
X129083158Y-100577932D01*
X129353411Y-100465990D01*
X129596632Y-100303475D01*
X129803475Y-100096632D01*
X129965990Y-99853411D01*
X130077932Y-99583158D01*
X130135000Y-99296260D01*
X130135000Y-99003740D01*
X130077932Y-98716842D01*
X129965990Y-98446589D01*
X129803475Y-98203368D01*
X129596632Y-97996525D01*
X129422240Y-97880000D01*
X129596632Y-97763475D01*
X129803475Y-97556632D01*
X129965990Y-97313411D01*
X130077932Y-97043158D01*
X130135000Y-96756260D01*
X130135000Y-96463740D01*
X130077932Y-96176842D01*
X129965990Y-95906589D01*
X129803475Y-95663368D01*
X129596632Y-95456525D01*
X129422240Y-95340000D01*
X129596632Y-95223475D01*
X129803475Y-95016632D01*
X129965990Y-94773411D01*
X130077932Y-94503158D01*
X130135000Y-94216260D01*
X130135000Y-93923740D01*
X130077932Y-93636842D01*
X129965990Y-93366589D01*
X129803475Y-93123368D01*
X129671620Y-92991513D01*
X129744180Y-92969502D01*
X129854494Y-92910537D01*
X129951185Y-92831185D01*
X130030537Y-92734494D01*
X130089502Y-92624180D01*
X130125812Y-92504482D01*
X130138072Y-92380000D01*
X130138072Y-90680000D01*
X130125812Y-90555518D01*
X130089502Y-90435820D01*
X130030537Y-90325506D01*
X129951185Y-90228815D01*
X129854494Y-90149463D01*
X129744180Y-90090498D01*
X129663534Y-90066034D01*
X129747588Y-89990269D01*
X129921641Y-89756920D01*
X130046825Y-89494099D01*
X130091476Y-89346890D01*
X129970155Y-89117000D01*
X128777000Y-89117000D01*
X128777000Y-89137000D01*
X128523000Y-89137000D01*
X128523000Y-89117000D01*
X128503000Y-89117000D01*
X128503000Y-88863000D01*
X128523000Y-88863000D01*
X128523000Y-86577000D01*
X128777000Y-86577000D01*
X128777000Y-88863000D01*
X129970155Y-88863000D01*
X130091476Y-88633110D01*
X130046825Y-88485901D01*
X129921641Y-88223080D01*
X129747588Y-87989731D01*
X129531355Y-87794822D01*
X129405745Y-87720000D01*
X129531355Y-87645178D01*
X129747588Y-87450269D01*
X129921641Y-87216920D01*
X130046825Y-86954099D01*
X130091476Y-86806890D01*
X129970155Y-86577000D01*
X128777000Y-86577000D01*
X128523000Y-86577000D01*
X128503000Y-86577000D01*
X128503000Y-86323000D01*
X128523000Y-86323000D01*
X128523000Y-85129186D01*
X128777000Y-85129186D01*
X128777000Y-86323000D01*
X129970155Y-86323000D01*
X130091476Y-86093110D01*
X130046825Y-85945901D01*
X129921641Y-85683080D01*
X129747588Y-85449731D01*
X129531355Y-85254822D01*
X129281252Y-85105843D01*
X129006891Y-85008519D01*
X128777000Y-85129186D01*
X128523000Y-85129186D01*
X128293109Y-85008519D01*
X128018748Y-85105843D01*
X127768645Y-85254822D01*
X127552412Y-85449731D01*
X127378359Y-85683080D01*
X127253175Y-85945901D01*
X127208524Y-86093110D01*
X127329844Y-86322998D01*
X127236510Y-86322998D01*
X127235001Y-86307677D01*
X127235001Y-86307668D01*
X127224004Y-86196015D01*
X127180547Y-86052754D01*
X127109975Y-85920725D01*
X127052752Y-85850998D01*
X127038800Y-85833997D01*
X127038796Y-85833993D01*
X127015002Y-85805000D01*
X126986010Y-85781207D01*
X125773153Y-84568351D01*
X125749068Y-84447271D01*
X125678586Y-84277111D01*
X125576262Y-84123972D01*
X125510000Y-84057710D01*
X125510000Y-75471204D01*
X125577271Y-75499068D01*
X125757911Y-75535000D01*
X125942089Y-75535000D01*
X126122729Y-75499068D01*
X126292889Y-75428586D01*
X126395535Y-75360000D01*
X126785199Y-75360000D01*
X129340000Y-77914802D01*
X129340001Y-81804463D01*
X129271414Y-81907111D01*
X129200932Y-82077271D01*
X129165000Y-82257911D01*
X129165000Y-82442089D01*
X129200932Y-82622729D01*
X129271414Y-82792889D01*
X129373738Y-82946028D01*
X129503972Y-83076262D01*
X129657111Y-83178586D01*
X129827271Y-83249068D01*
X130007911Y-83285000D01*
X130192089Y-83285000D01*
X130372729Y-83249068D01*
X130542889Y-83178586D01*
X130696028Y-83076262D01*
X130826262Y-82946028D01*
X130928586Y-82792889D01*
X130999068Y-82622729D01*
X131035000Y-82442089D01*
X131035000Y-82257911D01*
X130999068Y-82077271D01*
X130928586Y-81907111D01*
X130860000Y-81804465D01*
X130860000Y-77637325D01*
X130863676Y-77600000D01*
X130860000Y-77562675D01*
X130860000Y-77562667D01*
X130849003Y-77451014D01*
X130805546Y-77307753D01*
X130734974Y-77175724D01*
X130640001Y-77059999D01*
X130611004Y-77036202D01*
X127663804Y-74089003D01*
X127640001Y-74059999D01*
X127576047Y-74007513D01*
X127636323Y-74019503D01*
X128063677Y-74019503D01*
X128482821Y-73936130D01*
X128877645Y-73772588D01*
X129232977Y-73535163D01*
X129535163Y-73232977D01*
X129772588Y-72877645D01*
X129936130Y-72482821D01*
X130019503Y-72063677D01*
X130019503Y-71685331D01*
X131178090Y-71685331D01*
X131178090Y-72014669D01*
X131242340Y-72337678D01*
X131368372Y-72641947D01*
X131551342Y-72915781D01*
X131784219Y-73148658D01*
X132058053Y-73331628D01*
X132362322Y-73457660D01*
X132685331Y-73521910D01*
X133014669Y-73521910D01*
X133337678Y-73457660D01*
X133641947Y-73331628D01*
X133915781Y-73148658D01*
X134148658Y-72915781D01*
X134331628Y-72641947D01*
X134457660Y-72337678D01*
X134521910Y-72014669D01*
X134521910Y-71685331D01*
X134457660Y-71362322D01*
X134331628Y-71058053D01*
X134148658Y-70784219D01*
X133915781Y-70551342D01*
X133641947Y-70368372D01*
X133337678Y-70242340D01*
X133014669Y-70178090D01*
X132685331Y-70178090D01*
X132362322Y-70242340D01*
X132058053Y-70368372D01*
X131784219Y-70551342D01*
X131551342Y-70784219D01*
X131368372Y-71058053D01*
X131242340Y-71362322D01*
X131178090Y-71685331D01*
X130019503Y-71685331D01*
X130019503Y-71636323D01*
X129936130Y-71217179D01*
X129772588Y-70822355D01*
X129535163Y-70467023D01*
X129232977Y-70164837D01*
X129001247Y-70010000D01*
X134690000Y-70010000D01*
X134690001Y-149920923D01*
%TA.AperFunction,Conductor*%
D18*
G36*
X134690001Y-149920923D02*
G01*
X134598658Y-149784219D01*
X134365781Y-149551342D01*
X134091947Y-149368372D01*
X133787678Y-149242340D01*
X133464669Y-149178090D01*
X133135331Y-149178090D01*
X132812322Y-149242340D01*
X132508053Y-149368372D01*
X132234219Y-149551342D01*
X132001342Y-149784219D01*
X131818372Y-150058053D01*
X131692340Y-150362322D01*
X131628090Y-150685331D01*
X131628090Y-151014669D01*
X131692340Y-151337678D01*
X131818372Y-151641947D01*
X132001342Y-151915781D01*
X132234219Y-152148658D01*
X132508053Y-152331628D01*
X132812322Y-152457660D01*
X133135331Y-152521910D01*
X133464669Y-152521910D01*
X133787678Y-152457660D01*
X134091947Y-152331628D01*
X134365781Y-152148658D01*
X134598658Y-151915781D01*
X134690001Y-151779077D01*
X134690001Y-155709990D01*
X134644180Y-155685498D01*
X134524482Y-155649188D01*
X134400000Y-155636928D01*
X132700000Y-155636928D01*
X132575518Y-155649188D01*
X132455820Y-155685498D01*
X132345506Y-155744463D01*
X132248815Y-155823815D01*
X132169463Y-155920506D01*
X132110498Y-156030820D01*
X132086034Y-156111466D01*
X132010269Y-156027412D01*
X131776920Y-155853359D01*
X131514099Y-155728175D01*
X131366890Y-155683524D01*
X131137000Y-155804845D01*
X131137000Y-156998000D01*
X131157000Y-156998000D01*
X131157000Y-157252000D01*
X131137000Y-157252000D01*
X131137000Y-157272000D01*
X130883000Y-157272000D01*
X130883000Y-157252000D01*
X130863000Y-157252000D01*
X130863000Y-156998000D01*
X130883000Y-156998000D01*
X130883000Y-155804845D01*
X130653110Y-155683524D01*
X130505901Y-155728175D01*
X130243080Y-155853359D01*
X130009731Y-156027412D01*
X129999989Y-156038220D01*
X129936130Y-155717179D01*
X129772588Y-155322355D01*
X129535163Y-154967023D01*
X129232977Y-154664837D01*
X128877645Y-154427412D01*
X128502698Y-154272103D01*
X128751649Y-154023153D01*
X128872729Y-153999068D01*
X129042889Y-153928586D01*
X129196028Y-153826262D01*
X129326262Y-153696028D01*
X129428586Y-153542889D01*
X129499068Y-153372729D01*
X129535000Y-153192089D01*
X129535000Y-153007911D01*
X129499068Y-152827271D01*
X129428586Y-152657111D01*
X129326262Y-152503972D01*
X129196028Y-152373738D01*
X129042889Y-152271414D01*
X128872729Y-152200932D01*
X128692089Y-152165000D01*
X128507911Y-152165000D01*
X128327271Y-152200932D01*
X128157111Y-152271414D01*
X128003972Y-152373738D01*
X127873738Y-152503972D01*
X127771414Y-152657111D01*
X127700932Y-152827271D01*
X127676847Y-152948351D01*
X127535199Y-153090000D01*
X114645535Y-153090000D01*
X114542889Y-153021414D01*
X114372729Y-152950932D01*
X114269585Y-152930415D01*
X114249068Y-152827271D01*
X114178586Y-152657111D01*
X114110000Y-152554465D01*
X114110000Y-152212321D01*
X114113676Y-152174998D01*
X114110000Y-152137675D01*
X114110000Y-152137665D01*
X114099003Y-152026012D01*
X114055546Y-151882751D01*
X113984974Y-151750722D01*
X113890001Y-151634997D01*
X113860997Y-151611194D01*
X113810010Y-151560207D01*
X113810010Y-146507911D01*
X124915000Y-146507911D01*
X124915000Y-146692089D01*
X124950932Y-146872729D01*
X125021414Y-147042889D01*
X125123738Y-147196028D01*
X125253972Y-147326262D01*
X125407111Y-147428586D01*
X125577271Y-147499068D01*
X125757911Y-147535000D01*
X125942089Y-147535000D01*
X126122729Y-147499068D01*
X126292889Y-147428586D01*
X126446028Y-147326262D01*
X126576262Y-147196028D01*
X126678586Y-147042889D01*
X126749068Y-146872729D01*
X126785000Y-146692089D01*
X126785000Y-146507911D01*
X126749068Y-146327271D01*
X126678586Y-146157111D01*
X126576262Y-146003972D01*
X126446028Y-145873738D01*
X126292889Y-145771414D01*
X126122729Y-145700932D01*
X125942089Y-145665000D01*
X125757911Y-145665000D01*
X125577271Y-145700932D01*
X125407111Y-145771414D01*
X125253972Y-145873738D01*
X125123738Y-146003972D01*
X125021414Y-146157111D01*
X124950932Y-146327271D01*
X124915000Y-146507911D01*
X113810010Y-146507911D01*
X113810010Y-119087335D01*
X113813686Y-119050010D01*
X113810010Y-119012685D01*
X113810010Y-119012677D01*
X113799013Y-118901024D01*
X113755556Y-118757763D01*
X113684984Y-118625734D01*
X113590011Y-118510009D01*
X113561012Y-118486211D01*
X113273153Y-118198351D01*
X113249068Y-118077271D01*
X113178586Y-117907111D01*
X113076262Y-117753972D01*
X112946028Y-117623738D01*
X112792889Y-117521414D01*
X112622729Y-117450932D01*
X112442089Y-117415000D01*
X112257911Y-117415000D01*
X112077271Y-117450932D01*
X111907111Y-117521414D01*
X111753972Y-117623738D01*
X111623738Y-117753972D01*
X111521414Y-117907111D01*
X111450932Y-118077271D01*
X111415000Y-118257911D01*
X111415000Y-118442089D01*
X111450932Y-118622729D01*
X111521414Y-118792889D01*
X111623738Y-118946028D01*
X111753972Y-119076262D01*
X111907111Y-119178586D01*
X112077271Y-119249068D01*
X112198351Y-119273153D01*
X112290011Y-119364813D01*
X112290011Y-119717721D01*
X112196028Y-119623738D01*
X112042889Y-119521414D01*
X111872729Y-119450932D01*
X111692089Y-119415000D01*
X111507911Y-119415000D01*
X111327271Y-119450932D01*
X111157111Y-119521414D01*
X111003972Y-119623738D01*
X110873738Y-119753972D01*
X110771414Y-119907111D01*
X110724999Y-120019168D01*
X110724999Y-110002321D01*
X110728675Y-109964996D01*
X110724999Y-109927673D01*
X110724999Y-109927664D01*
X110714002Y-109816011D01*
X110670545Y-109672750D01*
X110599974Y-109540722D01*
X110599973Y-109540720D01*
X110528798Y-109453994D01*
X110505000Y-109424996D01*
X110476003Y-109401199D01*
X108635009Y-107560208D01*
X108635009Y-97870499D01*
X108648351Y-97873153D01*
X109511202Y-98736004D01*
X109535000Y-98765002D01*
X109650725Y-98859975D01*
X109782754Y-98930547D01*
X109926015Y-98974004D01*
X110037668Y-98985001D01*
X110037676Y-98985001D01*
X110075001Y-98988677D01*
X110112326Y-98985001D01*
X122029503Y-98985001D01*
X122026847Y-98998351D01*
X119838998Y-101186201D01*
X119810000Y-101209999D01*
X119786202Y-101238997D01*
X119786201Y-101238998D01*
X119715026Y-101325724D01*
X119644454Y-101457754D01*
X119629317Y-101507656D01*
X119600997Y-101601014D01*
X119590000Y-101712667D01*
X119590000Y-101712678D01*
X119586324Y-101750000D01*
X119590000Y-101787322D01*
X119590000Y-101904465D01*
X119521414Y-102007111D01*
X119450932Y-102177271D01*
X119415000Y-102357911D01*
X119415000Y-102542089D01*
X119450932Y-102722729D01*
X119521414Y-102892889D01*
X119623738Y-103046028D01*
X119753972Y-103176262D01*
X119907111Y-103278586D01*
X120077271Y-103349068D01*
X120257911Y-103385000D01*
X120442089Y-103385000D01*
X120622729Y-103349068D01*
X120792889Y-103278586D01*
X120946028Y-103176262D01*
X121076262Y-103046028D01*
X121178586Y-102892889D01*
X121249068Y-102722729D01*
X121285000Y-102542089D01*
X121285000Y-102357911D01*
X121249068Y-102177271D01*
X121178586Y-102007111D01*
X121174222Y-102000579D01*
X123101649Y-100073153D01*
X123222729Y-100049068D01*
X123392889Y-99978586D01*
X123546028Y-99876262D01*
X123676262Y-99746028D01*
X123778586Y-99592889D01*
X123849068Y-99422729D01*
X123885000Y-99242089D01*
X123885000Y-99057911D01*
X123849068Y-98877271D01*
X123778586Y-98707111D01*
X123698118Y-98586683D01*
X124690000Y-97594801D01*
X124690000Y-100435197D01*
X113169001Y-111956198D01*
X113168997Y-111956201D01*
X111698352Y-113426847D01*
X111577271Y-113450932D01*
X111407111Y-113521414D01*
X111253972Y-113623738D01*
X111123738Y-113753972D01*
X111021414Y-113907111D01*
X110950932Y-114077271D01*
X110915000Y-114257911D01*
X110915000Y-114442089D01*
X110950932Y-114622729D01*
X111021414Y-114792889D01*
X111123738Y-114946028D01*
X111253972Y-115076262D01*
X111407111Y-115178586D01*
X111577271Y-115249068D01*
X111757911Y-115285000D01*
X111942089Y-115285000D01*
X112122729Y-115249068D01*
X112292889Y-115178586D01*
X112446028Y-115076262D01*
X112576262Y-114946028D01*
X112678586Y-114792889D01*
X112749068Y-114622729D01*
X112773153Y-114501648D01*
X113217047Y-114057754D01*
X114243799Y-113031003D01*
X114243802Y-113030999D01*
X125715001Y-101559802D01*
X125715002Y-120037666D01*
X125711325Y-120074999D01*
X125715002Y-120112332D01*
X125724812Y-120211928D01*
X125725999Y-120223984D01*
X125769455Y-120367245D01*
X125840027Y-120499275D01*
X125878805Y-120546525D01*
X125935001Y-120615000D01*
X125963999Y-120638798D01*
X130465001Y-125139802D01*
X130465002Y-146017046D01*
X130371414Y-146157111D01*
X130300932Y-146327271D01*
X130265000Y-146507911D01*
X130265000Y-146692089D01*
X130300932Y-146872729D01*
X130371414Y-147042889D01*
X130473738Y-147196028D01*
X130603972Y-147326262D01*
X130757111Y-147428586D01*
X130927271Y-147499068D01*
X131107911Y-147535000D01*
X131292089Y-147535000D01*
X131472729Y-147499068D01*
X131642889Y-147428586D01*
X131796028Y-147326262D01*
X131926262Y-147196028D01*
X132028586Y-147042889D01*
X132099068Y-146872729D01*
X132135000Y-146692089D01*
X132135000Y-146507911D01*
X132099068Y-146327271D01*
X132028586Y-146157111D01*
X131985001Y-146091881D01*
X131985001Y-124862321D01*
X131988677Y-124824998D01*
X131985001Y-124787675D01*
X131985001Y-124787666D01*
X131974004Y-124676013D01*
X131930547Y-124532752D01*
X131859975Y-124400723D01*
X131842742Y-124379725D01*
X131788800Y-124313995D01*
X131788796Y-124313991D01*
X131765002Y-124284998D01*
X131736010Y-124261205D01*
X130887877Y-123413072D01*
X131375000Y-123413072D01*
X131499482Y-123400812D01*
X131619180Y-123364502D01*
X131729494Y-123305537D01*
X131826185Y-123226185D01*
X131905537Y-123129494D01*
X131964502Y-123019180D01*
X132000812Y-122899482D01*
X132013072Y-122775000D01*
X132013072Y-121925000D01*
X132000812Y-121800518D01*
X131964502Y-121680820D01*
X131905537Y-121570506D01*
X131826185Y-121473815D01*
X131729494Y-121394463D01*
X131619180Y-121335498D01*
X131499482Y-121299188D01*
X131375000Y-121286928D01*
X130525000Y-121286928D01*
X130400518Y-121299188D01*
X130280820Y-121335498D01*
X130170506Y-121394463D01*
X130073815Y-121473815D01*
X129994463Y-121570506D01*
X129935498Y-121680820D01*
X129899188Y-121800518D01*
X129886928Y-121925000D01*
X129886928Y-122412124D01*
X127235001Y-119760198D01*
X127235001Y-99614381D01*
X127334010Y-99853411D01*
X127496525Y-100096632D01*
X127703368Y-100303475D01*
X127946589Y-100465990D01*
X128216842Y-100577932D01*
X128503740Y-100635000D01*
X128796260Y-100635000D01*
X129083158Y-100577932D01*
X129353411Y-100465990D01*
X129596632Y-100303475D01*
X129803475Y-100096632D01*
X129965990Y-99853411D01*
X130077932Y-99583158D01*
X130135000Y-99296260D01*
X130135000Y-99003740D01*
X130077932Y-98716842D01*
X129965990Y-98446589D01*
X129803475Y-98203368D01*
X129596632Y-97996525D01*
X129422240Y-97880000D01*
X129596632Y-97763475D01*
X129803475Y-97556632D01*
X129965990Y-97313411D01*
X130077932Y-97043158D01*
X130135000Y-96756260D01*
X130135000Y-96463740D01*
X130077932Y-96176842D01*
X129965990Y-95906589D01*
X129803475Y-95663368D01*
X129596632Y-95456525D01*
X129422240Y-95340000D01*
X129596632Y-95223475D01*
X129803475Y-95016632D01*
X129965990Y-94773411D01*
X130077932Y-94503158D01*
X130135000Y-94216260D01*
X130135000Y-93923740D01*
X130077932Y-93636842D01*
X129965990Y-93366589D01*
X129803475Y-93123368D01*
X129671620Y-92991513D01*
X129744180Y-92969502D01*
X129854494Y-92910537D01*
X129951185Y-92831185D01*
X130030537Y-92734494D01*
X130089502Y-92624180D01*
X130125812Y-92504482D01*
X130138072Y-92380000D01*
X130138072Y-90680000D01*
X130125812Y-90555518D01*
X130089502Y-90435820D01*
X130030537Y-90325506D01*
X129951185Y-90228815D01*
X129854494Y-90149463D01*
X129744180Y-90090498D01*
X129663534Y-90066034D01*
X129747588Y-89990269D01*
X129921641Y-89756920D01*
X130046825Y-89494099D01*
X130091476Y-89346890D01*
X129970155Y-89117000D01*
X128777000Y-89117000D01*
X128777000Y-89137000D01*
X128523000Y-89137000D01*
X128523000Y-89117000D01*
X128503000Y-89117000D01*
X128503000Y-88863000D01*
X128523000Y-88863000D01*
X128523000Y-86577000D01*
X128777000Y-86577000D01*
X128777000Y-88863000D01*
X129970155Y-88863000D01*
X130091476Y-88633110D01*
X130046825Y-88485901D01*
X129921641Y-88223080D01*
X129747588Y-87989731D01*
X129531355Y-87794822D01*
X129405745Y-87720000D01*
X129531355Y-87645178D01*
X129747588Y-87450269D01*
X129921641Y-87216920D01*
X130046825Y-86954099D01*
X130091476Y-86806890D01*
X129970155Y-86577000D01*
X128777000Y-86577000D01*
X128523000Y-86577000D01*
X128503000Y-86577000D01*
X128503000Y-86323000D01*
X128523000Y-86323000D01*
X128523000Y-85129186D01*
X128777000Y-85129186D01*
X128777000Y-86323000D01*
X129970155Y-86323000D01*
X130091476Y-86093110D01*
X130046825Y-85945901D01*
X129921641Y-85683080D01*
X129747588Y-85449731D01*
X129531355Y-85254822D01*
X129281252Y-85105843D01*
X129006891Y-85008519D01*
X128777000Y-85129186D01*
X128523000Y-85129186D01*
X128293109Y-85008519D01*
X128018748Y-85105843D01*
X127768645Y-85254822D01*
X127552412Y-85449731D01*
X127378359Y-85683080D01*
X127253175Y-85945901D01*
X127208524Y-86093110D01*
X127329844Y-86322998D01*
X127236510Y-86322998D01*
X127235001Y-86307677D01*
X127235001Y-86307668D01*
X127224004Y-86196015D01*
X127180547Y-86052754D01*
X127109975Y-85920725D01*
X127052752Y-85850998D01*
X127038800Y-85833997D01*
X127038796Y-85833993D01*
X127015002Y-85805000D01*
X126986010Y-85781207D01*
X125773153Y-84568351D01*
X125749068Y-84447271D01*
X125678586Y-84277111D01*
X125576262Y-84123972D01*
X125510000Y-84057710D01*
X125510000Y-75471204D01*
X125577271Y-75499068D01*
X125757911Y-75535000D01*
X125942089Y-75535000D01*
X126122729Y-75499068D01*
X126292889Y-75428586D01*
X126395535Y-75360000D01*
X126785199Y-75360000D01*
X129340000Y-77914802D01*
X129340001Y-81804463D01*
X129271414Y-81907111D01*
X129200932Y-82077271D01*
X129165000Y-82257911D01*
X129165000Y-82442089D01*
X129200932Y-82622729D01*
X129271414Y-82792889D01*
X129373738Y-82946028D01*
X129503972Y-83076262D01*
X129657111Y-83178586D01*
X129827271Y-83249068D01*
X130007911Y-83285000D01*
X130192089Y-83285000D01*
X130372729Y-83249068D01*
X130542889Y-83178586D01*
X130696028Y-83076262D01*
X130826262Y-82946028D01*
X130928586Y-82792889D01*
X130999068Y-82622729D01*
X131035000Y-82442089D01*
X131035000Y-82257911D01*
X130999068Y-82077271D01*
X130928586Y-81907111D01*
X130860000Y-81804465D01*
X130860000Y-77637325D01*
X130863676Y-77600000D01*
X130860000Y-77562675D01*
X130860000Y-77562667D01*
X130849003Y-77451014D01*
X130805546Y-77307753D01*
X130734974Y-77175724D01*
X130640001Y-77059999D01*
X130611004Y-77036202D01*
X127663804Y-74089003D01*
X127640001Y-74059999D01*
X127576047Y-74007513D01*
X127636323Y-74019503D01*
X128063677Y-74019503D01*
X128482821Y-73936130D01*
X128877645Y-73772588D01*
X129232977Y-73535163D01*
X129535163Y-73232977D01*
X129772588Y-72877645D01*
X129936130Y-72482821D01*
X130019503Y-72063677D01*
X130019503Y-71685331D01*
X131178090Y-71685331D01*
X131178090Y-72014669D01*
X131242340Y-72337678D01*
X131368372Y-72641947D01*
X131551342Y-72915781D01*
X131784219Y-73148658D01*
X132058053Y-73331628D01*
X132362322Y-73457660D01*
X132685331Y-73521910D01*
X133014669Y-73521910D01*
X133337678Y-73457660D01*
X133641947Y-73331628D01*
X133915781Y-73148658D01*
X134148658Y-72915781D01*
X134331628Y-72641947D01*
X134457660Y-72337678D01*
X134521910Y-72014669D01*
X134521910Y-71685331D01*
X134457660Y-71362322D01*
X134331628Y-71058053D01*
X134148658Y-70784219D01*
X133915781Y-70551342D01*
X133641947Y-70368372D01*
X133337678Y-70242340D01*
X133014669Y-70178090D01*
X132685331Y-70178090D01*
X132362322Y-70242340D01*
X132058053Y-70368372D01*
X131784219Y-70551342D01*
X131551342Y-70784219D01*
X131368372Y-71058053D01*
X131242340Y-71362322D01*
X131178090Y-71685331D01*
X130019503Y-71685331D01*
X130019503Y-71636323D01*
X129936130Y-71217179D01*
X129772588Y-70822355D01*
X129535163Y-70467023D01*
X129232977Y-70164837D01*
X129001247Y-70010000D01*
X134690000Y-70010000D01*
X134690001Y-149920923D01*
G37*
%TD.AperFunction*%
D17*
X115478773Y-76728303D02*
X115686371Y-76879473D01*
X115919472Y-76987238D01*
X116010386Y-77014812D01*
X111588998Y-81436201D01*
X111560000Y-81459999D01*
X111536202Y-81488997D01*
X111536201Y-81488998D01*
X111465026Y-81575724D01*
X111394454Y-81707754D01*
X111350998Y-81851015D01*
X111336324Y-82000000D01*
X111340001Y-82037332D01*
X111340000Y-87304464D01*
X111271414Y-87407111D01*
X111200932Y-87577271D01*
X111165000Y-87757911D01*
X111165000Y-87942089D01*
X111200932Y-88122729D01*
X111271414Y-88292889D01*
X111373738Y-88446028D01*
X111503972Y-88576262D01*
X111657111Y-88678586D01*
X111827271Y-88749068D01*
X112007911Y-88785000D01*
X112192089Y-88785000D01*
X112372729Y-88749068D01*
X112542889Y-88678586D01*
X112645535Y-88610000D01*
X118015198Y-88610000D01*
X115535000Y-91090199D01*
X115535000Y-91007911D01*
X115499068Y-90827271D01*
X115428586Y-90657111D01*
X115326262Y-90503972D01*
X115196028Y-90373738D01*
X115042889Y-90271414D01*
X114872729Y-90200932D01*
X114692089Y-90165000D01*
X114507911Y-90165000D01*
X114327271Y-90200932D01*
X114157111Y-90271414D01*
X114054465Y-90340000D01*
X109145535Y-90340000D01*
X109042889Y-90271414D01*
X108872729Y-90200932D01*
X108692089Y-90165000D01*
X108635009Y-90165000D01*
X108635009Y-78539792D01*
X110132417Y-77042385D01*
X110220976Y-77060000D01*
X110479024Y-77060000D01*
X110732113Y-77009658D01*
X110970518Y-76910907D01*
X111185077Y-76767544D01*
X111350000Y-76602621D01*
X111514923Y-76767544D01*
X111729482Y-76910907D01*
X111967887Y-77009658D01*
X112220976Y-77060000D01*
X112479024Y-77060000D01*
X112732113Y-77009658D01*
X112970518Y-76910907D01*
X113185077Y-76767544D01*
X113350000Y-76602621D01*
X113514923Y-76767544D01*
X113729482Y-76910907D01*
X113967887Y-77009658D01*
X114220976Y-77060000D01*
X114479024Y-77060000D01*
X114732113Y-77009658D01*
X114970518Y-76910907D01*
X115185077Y-76767544D01*
X115356681Y-76595940D01*
X115478773Y-76728303D01*
%TA.AperFunction,Conductor*%
D18*
G36*
X115478773Y-76728303D02*
G01*
X115686371Y-76879473D01*
X115919472Y-76987238D01*
X116010386Y-77014812D01*
X111588998Y-81436201D01*
X111560000Y-81459999D01*
X111536202Y-81488997D01*
X111536201Y-81488998D01*
X111465026Y-81575724D01*
X111394454Y-81707754D01*
X111350998Y-81851015D01*
X111336324Y-82000000D01*
X111340001Y-82037332D01*
X111340000Y-87304464D01*
X111271414Y-87407111D01*
X111200932Y-87577271D01*
X111165000Y-87757911D01*
X111165000Y-87942089D01*
X111200932Y-88122729D01*
X111271414Y-88292889D01*
X111373738Y-88446028D01*
X111503972Y-88576262D01*
X111657111Y-88678586D01*
X111827271Y-88749068D01*
X112007911Y-88785000D01*
X112192089Y-88785000D01*
X112372729Y-88749068D01*
X112542889Y-88678586D01*
X112645535Y-88610000D01*
X118015198Y-88610000D01*
X115535000Y-91090199D01*
X115535000Y-91007911D01*
X115499068Y-90827271D01*
X115428586Y-90657111D01*
X115326262Y-90503972D01*
X115196028Y-90373738D01*
X115042889Y-90271414D01*
X114872729Y-90200932D01*
X114692089Y-90165000D01*
X114507911Y-90165000D01*
X114327271Y-90200932D01*
X114157111Y-90271414D01*
X114054465Y-90340000D01*
X109145535Y-90340000D01*
X109042889Y-90271414D01*
X108872729Y-90200932D01*
X108692089Y-90165000D01*
X108635009Y-90165000D01*
X108635009Y-78539792D01*
X110132417Y-77042385D01*
X110220976Y-77060000D01*
X110479024Y-77060000D01*
X110732113Y-77009658D01*
X110970518Y-76910907D01*
X111185077Y-76767544D01*
X111350000Y-76602621D01*
X111514923Y-76767544D01*
X111729482Y-76910907D01*
X111967887Y-77009658D01*
X112220976Y-77060000D01*
X112479024Y-77060000D01*
X112732113Y-77009658D01*
X112970518Y-76910907D01*
X113185077Y-76767544D01*
X113350000Y-76602621D01*
X113514923Y-76767544D01*
X113729482Y-76910907D01*
X113967887Y-77009658D01*
X114220976Y-77060000D01*
X114479024Y-77060000D01*
X114732113Y-77009658D01*
X114970518Y-76910907D01*
X115185077Y-76767544D01*
X115356681Y-76595940D01*
X115478773Y-76728303D01*
G37*
%TD.AperFunction*%
D17*
X116477000Y-75623000D02*
X116497000Y-75623000D01*
X116497000Y-75877000D01*
X116477000Y-75877000D01*
X116477000Y-75897000D01*
X116223000Y-75897000D01*
X116223000Y-75877000D01*
X116203000Y-75877000D01*
X116203000Y-75623000D01*
X116223000Y-75623000D01*
X116223000Y-75603000D01*
X116477000Y-75603000D01*
X116477000Y-75623000D01*
%TA.AperFunction,Conductor*%
D18*
G36*
X116477000Y-75623000D02*
G01*
X116497000Y-75623000D01*
X116497000Y-75877000D01*
X116477000Y-75877000D01*
X116477000Y-75897000D01*
X116223000Y-75897000D01*
X116223000Y-75877000D01*
X116203000Y-75877000D01*
X116203000Y-75623000D01*
X116223000Y-75623000D01*
X116223000Y-75603000D01*
X116477000Y-75603000D01*
X116477000Y-75623000D01*
G37*
%TD.AperFunction*%
%TD*%
M02*
